<svg width="11" height="12" viewBox="0 0 11 12" fill="none" xmlns="http://www.w3.org/2000/svg">
<g opacity="0.5">
<path d="M0.626569 9.28253C0.411538 9.28253 0.208796 9.17286 0.0920655 8.97789C-0.073815 8.68543 0.0244839 8.31376 0.319383 8.14925L5.03162 5.47446C5.32651 5.30995 5.70128 5.40744 5.87331 5.6999C6.03919 5.99236 5.94089 6.36402 5.64599 6.52853L0.933755 9.20332C0.835455 9.25816 0.731012 9.28253 0.626569 9.28253Z" fill="white"/>
<path d="M5.33269 6.60777C4.99479 6.60777 4.71832 6.33968 4.71832 6.00457L4.68146 0.82559C4.68146 0.490479 4.95178 0.216298 5.28969 0.210205C5.28969 0.210205 5.28969 0.210205 5.29583 0.210205C5.63374 0.210205 5.9102 0.478293 5.9102 0.813404L5.94707 5.99239C5.95321 6.33359 5.67674 6.60777 5.33269 6.60777C5.33884 6.60777 5.33884 6.60777 5.33269 6.60777Z" fill="white"/>
<path d="M9.9036 9.20335C9.79915 9.20335 9.69471 9.17897 9.59641 9.12414L5.02548 6.52855C4.73058 6.36404 4.62614 5.98629 4.79816 5.69992C4.97019 5.40746 5.34496 5.30388 5.63985 5.47448L10.2108 8.07006C10.5057 8.23457 10.6101 8.61233 10.4381 8.8987C10.3214 9.09367 10.1186 9.20335 9.9036 9.20335Z" fill="white"/>
<path d="M5.32046 12C5.21602 12 5.10543 11.9756 5.01328 11.9208L0.307186 9.22772C0.116731 9.11805 0 8.91699 0 8.69764V3.30541C0 3.08606 0.116731 2.885 0.307186 2.77532L5.01328 0.0822544C5.20373 -0.0274181 5.43719 -0.0274181 5.62765 0.0822544L10.3337 2.77532C10.5242 2.885 10.6409 3.08606 10.6409 3.30541V8.69155C10.6409 8.91089 10.5242 9.11196 10.3337 9.22163L5.62765 11.9147C5.53549 11.9695 5.42491 12 5.32046 12ZM1.22874 8.34425L5.32046 10.6839L9.41218 8.34425V3.6588L5.32046 1.31912L1.22874 3.6588V8.34425Z" fill="white"/>
</g>
</svg>