<svg xmlns="http://www.w3.org/2000/svg" width="300" height="300" viewBox="0 0 300 300" fill="#5b87db">
<style type="text/css">
	.st0{fill-rule:evenodd;clip-rule:evenodd;}
	.st1{fill-rule:evenodd;clip-rule:evenodd;fill:#FFFFFF;}
</style>
<g>
	<path class="st0" d="M285.5,21.7c-0.8,0.3-1.2,1.3-0.9,2.1c0.3,0.8,1.3,1.2,2.1,0.9c0.8-0.3,1.2-1.3,0.9-2.1   C287.2,21.8,286.3,21.4,285.5,21.7L285.5,21.7z M294.5,25.4L186,68.2c-1.2,0.5-2.6-0.1-3-1.3L177,51.5c-0.5-1.2,0.1-2.6,1.3-3   L286.7,5.7c1.2-0.5,2.6,0.1,3,1.3l6.1,15.4C296.3,23.5,295.7,24.9,294.5,25.4z"/>

		<rect x="182.3" y="47.3" transform="matrix(0.9301 -0.3673 0.3673 0.9301 -7.0807 70.7949)" class="st1" width="0.4" height="13.4"/>

		<rect x="192.8" y="43.2" transform="matrix(0.9301 -0.3673 0.3673 0.9301 -4.8216 74.3714)" class="st1" width="0.4" height="13.4"/>
	<rect x="203.3" y="39" transform="matrix(0.9301 -0.3673 0.3673 0.9301 -2.5645 77.9329)" class="st1" width="0.4" height="13.4"/>

		<rect x="213.8" y="34.9" transform="matrix(0.9301 -0.3673 0.3673 0.9301 -0.3051 81.5085)" class="st1" width="0.4" height="13.4"/>

		<rect x="224.3" y="30.7" transform="matrix(0.9301 -0.3673 0.3673 0.9301 1.9538 85.0799)" class="st1" width="0.4" height="13.4"/>

		<rect x="234.8" y="26.6" transform="matrix(0.9301 -0.3673 0.3673 0.9301 4.2111 88.6445)" class="st1" width="0.4" height="13.4"/>

		<rect x="245.3" y="22.4" transform="matrix(0.9301 -0.3673 0.3673 0.9301 6.4684 92.2098)" class="st1" width="0.4" height="13.4"/>
	<rect x="255.8" y="18.3" transform="matrix(0.9301 -0.3673 0.3673 0.9301 8.7271 95.781)" class="st1" width="0.4" height="13.4"/>

		<rect x="266.4" y="14.1" transform="matrix(0.9301 -0.3673 0.3673 0.9301 10.9848 99.3484)" class="st1" width="0.4" height="13.4"/>

		<rect x="276.9" y="10" transform="matrix(0.9301 -0.3673 0.3673 0.9301 13.2444 102.9218)" class="st1" width="0.4" height="13.4"/>

		<rect x="287.4" y="5.8" transform="matrix(0.9301 -0.3673 0.3673 0.9301 15.5039 106.4947)" class="st1" width="0.4" height="13.4"/>

		<rect x="182.1" y="47.1" transform="matrix(0.9301 -0.3673 0.3673 0.9301 -5.8164 70.4929)" class="st1" width="0.4" height="6.8"/>

		<rect x="183.2" y="46.7" transform="matrix(0.9301 -0.3673 0.3673 0.9301 -5.5895 70.8606)" class="st1" width="0.4" height="6.8"/>

		<rect x="184.2" y="46.3" transform="matrix(0.9301 -0.3673 0.3673 0.9301 -5.3639 71.2146)" class="st1" width="0.4" height="6.8"/>

		<rect x="185.3" y="45.9" transform="matrix(0.9301 -0.3673 0.3673 0.9301 -5.1368 71.5825)" class="st1" width="0.4" height="6.8"/>

		<rect x="186.7" y="45.4" transform="matrix(0.9301 -0.3673 0.3673 0.9301 -5.2047 72.1098)" class="st1" width="0.4" height="8.6"/>

		<rect x="187.4" y="45.1" transform="matrix(0.9301 -0.3673 0.3673 0.9301 -4.6871 72.2804)" class="st1" width="0.4" height="6.8"/>

		<rect x="188.4" y="44.6" transform="matrix(0.9301 -0.3672 0.3672 0.9301 -4.4623 72.6285)" class="st1" width="0.4" height="6.8"/>

		<rect x="189.5" y="44.2" transform="matrix(0.9301 -0.3673 0.3673 0.9301 -4.2356 72.9928)" class="st1" width="0.4" height="6.8"/>

		<rect x="190.5" y="43.8" transform="matrix(0.9301 -0.3673 0.3673 0.9301 -4.0099 73.3481)" class="st1" width="0.4" height="6.8"/>

		<rect x="275.7" y="10.2" transform="matrix(0.9301 -0.3673 0.3673 0.9301 14.2809 102.2581)" class="st1" width="0.4" height="6.8"/>

		<rect x="276.7" y="9.8" transform="matrix(0.9301 -0.3673 0.3673 0.9301 14.5086 102.6203)" class="st1" width="0.4" height="6.8"/>
	<rect x="277.8" y="9.4" transform="matrix(0.9301 -0.3673 0.3673 0.9301 14.7402 102.994)" class="st1" width="0.4" height="6.8"/>
	<rect x="278.8" y="9" transform="matrix(0.9301 -0.3672 0.3672 0.9301 14.9572 103.3254)" class="st1" width="0.4" height="6.8"/>

		<rect x="279.9" y="8.5" transform="matrix(0.9301 -0.3672 0.3672 0.9301 15.1789 103.6704)" class="st1" width="0.4" height="6.8"/>
	<rect x="281.2" y="8.1" transform="matrix(0.9301 -0.3673 0.3673 0.9301 15.1252 104.248)" class="st1" width="0.4" height="8.6"/>
	<rect x="282" y="7.7" transform="matrix(0.9301 -0.3672 0.3672 0.9301 15.6343 104.3953)" class="st1" width="0.4" height="6.8"/>
	<rect x="283" y="7.3" transform="matrix(0.9301 -0.3672 0.3672 0.9301 15.8603 104.7529)" class="st1" width="0.4" height="6.8"/>

		<rect x="284.1" y="6.9" transform="matrix(0.9301 -0.3673 0.3673 0.9301 16.0898 105.1201)" class="st1" width="0.4" height="6.8"/>

		<rect x="285.1" y="6.5" transform="matrix(0.9301 -0.3673 0.3673 0.9301 16.3152 105.4757)" class="st1" width="0.4" height="6.8"/>

		<rect x="266.2" y="13.9" transform="matrix(0.9301 -0.3673 0.3673 0.9301 12.2502 99.0509)" class="st1" width="0.4" height="6.8"/>

		<rect x="267.2" y="13.5" transform="matrix(0.9301 -0.3672 0.3672 0.9301 12.4724 99.3963)" class="st1" width="0.4" height="6.8"/>
	<rect x="268.3" y="13.1" transform="matrix(0.9301 -0.3673 0.3673 0.9301 12.7016 99.764)" class="st1" width="0.4" height="6.8"/>

		<rect x="269.3" y="12.7" transform="matrix(0.9301 -0.3672 0.3672 0.9301 12.9254 100.1145)" class="st1" width="0.4" height="6.8"/>

		<rect x="270.7" y="12.2" transform="matrix(0.9301 -0.3673 0.3673 0.9301 12.8642 100.6713)" class="st1" width="0.4" height="8.6"/>

		<rect x="271.4" y="11.9" transform="matrix(0.9301 -0.3673 0.3673 0.9301 13.3834 100.8477)" class="st1" width="0.4" height="6.8"/>

		<rect x="272.5" y="11.5" transform="matrix(0.9301 -0.3672 0.3672 0.9301 13.6023 101.1838)" class="st1" width="0.4" height="6.8"/>
	<rect x="273.6" y="11" transform="matrix(0.9301 -0.3672 0.3672 0.9301 13.8271 101.5377)" class="st1" width="0.4" height="6.8"/>

		<rect x="274.6" y="10.6" transform="matrix(0.9301 -0.3673 0.3673 0.9301 14.0566 101.9056)" class="st1" width="0.4" height="6.8"/>
	<rect x="255.7" y="18.1" transform="matrix(0.9301 -0.3673 0.3673 0.9301 9.9972 95.4991)" class="st1" width="0.4" height="6.8"/>

		<rect x="256.7" y="17.7" transform="matrix(0.9301 -0.3673 0.3673 0.9301 10.2167 95.8347)" class="st1" width="0.4" height="6.8"/>
	<rect x="257.8" y="17.3" transform="matrix(0.9301 -0.3673 0.3673 0.9301 10.4459 96.203)" class="st1" width="0.4" height="6.8"/>

		<rect x="258.8" y="16.8" transform="matrix(0.9301 -0.3672 0.3672 0.9301 10.6664 96.5423)" class="st1" width="0.4" height="6.8"/>

		<rect x="260.2" y="16.4" transform="matrix(0.9301 -0.3673 0.3673 0.9301 10.6028 97.0921)" class="st1" width="0.4" height="8.6"/>
	<polygon class="st1" points="260.1,16.2 262.6,22.5 262.2,22.6 259.7,16.3  "/>
	<rect x="262" y="15.6" transform="matrix(0.9301 -0.3673 0.3673 0.9301 11.3513 97.637)" class="st1" width="0.4" height="6.8"/>
	<rect x="263" y="15.2" transform="matrix(0.9301 -0.3673 0.3673 0.9301 11.5725 97.9794)" class="st1" width="0.4" height="6.8"/>
	<rect x="264.1" y="14.8" transform="matrix(0.9301 -0.3673 0.3673 0.9301 11.802 98.3479)" class="st1" width="0.4" height="6.8"/>
	<rect x="245.2" y="22.2" transform="matrix(0.9301 -0.3673 0.3673 0.9301 7.7323 91.9076)" class="st1" width="0.4" height="6.8"/>
	<rect x="246.2" y="21.8" transform="matrix(0.9301 -0.3673 0.3673 0.9301 7.9583 92.2652)" class="st1" width="0.4" height="6.8"/>
	<rect x="247.3" y="21.4" transform="matrix(0.9301 -0.3673 0.3673 0.9301 8.1851 92.6255)" class="st1" width="0.4" height="6.8"/>
	<rect x="248.3" y="21" transform="matrix(0.9301 -0.3672 0.3672 0.9301 8.4066 92.9671)" class="st1" width="0.4" height="6.8"/>
	<rect x="249.7" y="20.5" transform="matrix(0.9301 -0.3673 0.3673 0.9301 8.3498 93.5417)" class="st1" width="0.4" height="8.6"/>
	<rect x="250.4" y="20.2" transform="matrix(0.9301 -0.3672 0.3672 0.9301 8.86 93.687)" class="st1" width="0.4" height="6.8"/>
	<rect x="251.5" y="19.8" transform="matrix(0.9301 -0.3673 0.3673 0.9301 9.0914 94.0634)" class="st1" width="0.4" height="6.8"/>
	<rect x="252.5" y="19.3" transform="matrix(0.9301 -0.3673 0.3673 0.9301 9.3145 94.411)" class="st1" width="0.4" height="6.8"/>
	<rect x="253.6" y="18.9" transform="matrix(0.9301 -0.3673 0.3673 0.9301 9.5431 94.7773)" class="st1" width="0.4" height="6.8"/>
	<rect x="234.7" y="26.4" transform="matrix(0.9301 -0.3673 0.3673 0.9301 5.4742 88.3384)" class="st1" width="0.4" height="6.8"/>
	<rect x="235.7" y="26" transform="matrix(0.9301 -0.3672 0.3672 0.9301 5.6968 88.6827)" class="st1" width="0.4" height="6.8"/>
	<rect x="236.8" y="25.6" transform="matrix(0.9301 -0.3672 0.3672 0.9301 5.9249 89.0487)" class="st1" width="0.4" height="6.8"/>
	<rect x="237.8" y="25.1" transform="matrix(0.9301 -0.3673 0.3673 0.9301 6.1534 89.4159)" class="st1" width="0.4" height="6.8"/>
	<rect x="239.2" y="24.7" transform="matrix(0.9301 -0.3673 0.3673 0.9301 6.0869 89.9559)" class="st1" width="0.4" height="8.6"/>
	<rect x="239.9" y="24.3" transform="matrix(0.9301 -0.3673 0.3673 0.9301 6.6071 90.1375)" class="st1" width="0.4" height="6.8"/>
	<rect x="241" y="23.9" transform="matrix(0.9301 -0.3673 0.3673 0.9301 6.8349 90.5014)" class="st1" width="0.4" height="6.8"/>
	<rect x="242" y="23.5" transform="matrix(0.9301 -0.3672 0.3672 0.9301 7.0541 90.8337)" class="st1" width="0.4" height="6.8"/>
	<rect x="243.1" y="23.1" transform="matrix(0.9301 -0.3673 0.3673 0.9301 7.2819 91.1979)" class="st1" width="0.4" height="6.8"/>
	<rect x="224.2" y="30.5" transform="matrix(0.9301 -0.3673 0.3673 0.9301 3.2169 84.7729)" class="st1" width="0.4" height="6.8"/>
	<rect x="225.2" y="30.1" transform="matrix(0.9301 -0.3673 0.3673 0.9301 3.444 85.1354)" class="st1" width="0.4" height="6.8"/>
	<rect x="226.3" y="29.7" transform="matrix(0.9301 -0.3673 0.3673 0.9301 3.6708 85.4962)" class="st1" width="0.4" height="6.8"/>
	<rect x="227.3" y="29.3" transform="matrix(0.9301 -0.3673 0.3673 0.9301 3.8944 85.8436)" class="st1" width="0.4" height="6.8"/>
	<rect x="228.7" y="28.8" transform="matrix(0.9301 -0.3673 0.3673 0.9301 3.8274 86.3821)" class="st1" width="0.4" height="8.6"/>
	<rect x="229.4" y="28.5" transform="matrix(0.9301 -0.3673 0.3673 0.9301 4.3489 86.5689)" class="st1" width="0.4" height="6.8"/>
	<rect x="230.5" y="28" transform="matrix(0.9301 -0.3672 0.3672 0.9301 4.57 86.9071)" class="st1" width="0.4" height="6.8"/>
	<rect x="231.5" y="27.6" transform="matrix(0.9301 -0.3673 0.3673 0.9301 4.7982 87.2735)" class="st1" width="0.4" height="6.8"/>
	<rect x="232.6" y="27.2" transform="matrix(0.9301 -0.3673 0.3673 0.9301 5.025 87.6342)" class="st1" width="0.4" height="6.8"/>
	<rect x="213.7" y="34.7" transform="matrix(0.9301 -0.3672 0.3672 0.9301 0.9574 81.1973)" class="st1" width="0.4" height="6.8"/>
	<rect x="214.7" y="34.3" transform="matrix(0.9301 -0.3673 0.3673 0.9301 1.1848 81.5624)" class="st1" width="0.4" height="6.8"/>
	<rect x="215.8" y="33.9" transform="matrix(0.9301 -0.3673 0.3673 0.9301 1.4109 81.9202)" class="st1" width="0.4" height="6.8"/>
	<rect x="216.8" y="33.4" transform="matrix(0.9301 -0.3673 0.3673 0.9301 1.638 82.2835)" class="st1" width="0.4" height="6.8"/>
	<rect x="218.2" y="33" transform="matrix(0.9301 -0.3673 0.3673 0.9301 1.5706 82.8188)" class="st1" width="0.4" height="8.6"/>
	<rect x="218.9" y="32.6" transform="matrix(0.9301 -0.3673 0.3673 0.9301 2.0894 82.9957)" class="st1" width="0.4" height="6.8"/>
	<rect x="220" y="32.2" transform="matrix(0.9301 -0.3673 0.3673 0.9301 2.3152 83.3526)" class="st1" width="0.4" height="6.8"/>
	<rect x="221" y="31.8" transform="matrix(0.9301 -0.3673 0.3673 0.9301 2.5415 83.7114)" class="st1" width="0.4" height="6.8"/>
	<rect x="222.1" y="31.4" transform="matrix(0.9301 -0.3673 0.3673 0.9301 2.7675 84.0691)" class="st1" width="0.4" height="6.8"/>

		<rect x="203.1" y="38.8" transform="matrix(0.9301 -0.3673 0.3673 0.9301 -1.2989 77.6386)" class="st1" width="0.4" height="6.8"/>

		<rect x="204.2" y="38.4" transform="matrix(0.9301 -0.3673 0.3673 0.9301 -1.0717 78.0033)" class="st1" width="0.4" height="6.8"/>
	<rect x="205.2" y="38" transform="matrix(0.9301 -0.3673 0.3673 0.9301 -0.8478 78.349)" class="st1" width="0.4" height="6.8"/>

		<rect x="206.3" y="37.6" transform="matrix(0.9301 -0.3673 0.3673 0.9301 -0.6221 78.7053)" class="st1" width="0.4" height="6.8"/>

		<rect x="207.7" y="37.1" transform="matrix(0.9301 -0.3673 0.3673 0.9301 -0.6873 79.2526)" class="st1" width="0.4" height="8.6"/>

		<rect x="208.4" y="36.8" transform="matrix(0.9301 -0.3672 0.3672 0.9301 -0.1721 79.4104)" class="st1" width="0.4" height="6.8"/>

		<rect x="209.5" y="36.3" transform="matrix(0.9301 -0.3672 0.3672 0.9301 5.382086e-02 79.7681)" class="st1" width="0.4" height="6.8"/>
	<rect x="210.5" y="35.9" transform="matrix(0.9301 -0.3672 0.3672 0.9301 0.2795 80.1243)" class="st1" width="0.4" height="6.8"/>
	<rect x="211.6" y="35.5" transform="matrix(0.9301 -0.3673 0.3673 0.9301 0.5072 80.4906)" class="st1" width="0.4" height="6.8"/>
	<rect x="192.6" y="43" transform="matrix(0.9301 -0.3672 0.3672 0.9301 -3.559 74.0571)" class="st1" width="0.4" height="6.8"/>

		<rect x="193.7" y="42.6" transform="matrix(0.9301 -0.3673 0.3673 0.9301 -3.3323 74.4204)" class="st1" width="0.4" height="6.8"/>

		<rect x="194.7" y="42.2" transform="matrix(0.9301 -0.3673 0.3673 0.9301 -3.1065 74.7774)" class="st1" width="0.4" height="6.8"/>

		<rect x="195.8" y="41.7" transform="matrix(0.9301 -0.3673 0.3673 0.9301 -2.8791 75.1443)" class="st1" width="0.4" height="6.8"/>

		<rect x="197.2" y="41.3" transform="matrix(0.9301 -0.3673 0.3673 0.9301 -2.9455 75.6845)" class="st1" width="0.4" height="8.6"/>

		<rect x="197.9" y="40.9" transform="matrix(0.9301 -0.3672 0.3672 0.9301 -2.4301 75.8415)" class="st1" width="0.4" height="6.8"/>
	<rect x="198.9" y="40.5" transform="matrix(0.9301 -0.3672 0.3672 0.9301 -2.2042 76.199)" class="st1" width="0.4" height="6.8"/>
	<rect x="200" y="40.1" transform="matrix(0.9301 -0.3672 0.3672 0.9301 -1.9784 76.5553)" class="st1" width="0.4" height="6.8"/>
	<rect x="201" y="39.7" transform="matrix(0.9301 -0.3673 0.3673 0.9301 -1.7511 76.9212)" class="st1" width="0.4" height="6.8"/>
	<polygon class="st1" points="186.5,64.3 186.8,64.2 185.8,61.6 185.5,61.7 185,62.2 185.2,62.5 185.6,62 185.6,62  "/>
	<path class="st1" d="M197.9,59.8l-0.1-0.3l-1.2,0.5l0,0l0.1-0.3c0.3-0.7,0.5-1.3,0.3-1.7c-0.1-0.4-0.5-0.7-1.1-0.4   c-0.3,0.1-0.5,0.3-0.6,0.5l0.2,0.2c0.1-0.1,0.2-0.3,0.5-0.4c0.4-0.2,0.6,0,0.7,0.3c0.2,0.4,0,0.8-0.4,1.7l-0.2,0.4l0.1,0.2   L197.9,59.8z"/>
	<path class="st1" d="M207.1,56c0.2,0,0.4,0,0.7-0.1c0.6-0.2,0.8-0.7,0.6-1.1c-0.1-0.4-0.5-0.5-0.8-0.4l0,0c0.3-0.2,0.3-0.5,0.2-0.8   c-0.1-0.3-0.5-0.5-1-0.3c-0.3,0.1-0.5,0.3-0.6,0.5l0.2,0.2c0.1-0.1,0.2-0.3,0.4-0.4c0.3-0.1,0.5,0,0.6,0.2c0.1,0.3-0.1,0.6-0.4,0.7   l-0.2,0.1l0.1,0.3l0.2-0.1c0.3-0.1,0.7-0.1,0.9,0.3c0.1,0.2,0.1,0.6-0.4,0.7c-0.2,0.1-0.5,0.1-0.6,0.1L207.1,56z"/>
	<path class="st1" d="M216.5,51.3L216.5,51.3l0.3-1.1c0-0.1,0-0.3,0.1-0.5l0,0c0,0.1,0.1,0.3,0.1,0.4l0.3,0.9L216.5,51.3L216.5,51.3   z M218,51.8l-0.3-0.7l0.4-0.1l-0.1-0.3l-0.4,0.1l-0.6-1.6l-0.4,0.1l-0.5,2.1l0.1,0.2l1.2-0.5l0.3,0.7L218,51.8z"/>
	<path class="st1" d="M228.2,44.9l-1.2,0.5l0.3,1.3c0.1,0,0.2-0.1,0.4-0.2c0.5-0.2,0.8-0.1,1,0.3c0.1,0.3-0.1,0.7-0.4,0.8   c-0.2,0.1-0.5,0.1-0.6,0.1l0,0.3c0.2,0,0.4,0,0.7-0.1c0.6-0.2,0.8-0.8,0.6-1.3c-0.1-0.3-0.4-0.5-0.6-0.5c-0.2,0-0.4,0-0.6,0.1   c-0.1,0-0.1,0.1-0.2,0.1l-0.2-0.7l1-0.4L228.2,44.9z"/>
	<path class="st1" d="M238.8,43.4c-0.4,0.1-0.7-0.1-0.9-0.5c0-0.1,0-0.1,0-0.2c0-0.2,0.2-0.4,0.4-0.5c0.3-0.1,0.6,0,0.8,0.4   C239.2,42.9,239.1,43.3,238.8,43.4L238.8,43.4z M238.4,40.7c-0.1,0-0.1,0.1-0.2,0.1c-0.3,0.2-0.5,0.4-0.7,0.7   c-0.2,0.4-0.2,0.8,0,1.3c0.3,0.7,0.8,1,1.3,0.7c0.5-0.2,0.7-0.8,0.5-1.3c-0.2-0.5-0.6-0.7-1.1-0.5c-0.3,0.1-0.5,0.3-0.5,0.5l0,0   c-0.1-0.5,0-1,0.5-1.3c0.1-0.1,0.2-0.1,0.3-0.1L238.4,40.7z"/>
	<polygon class="st1" points="247.8,37.1 248,37.4 249.2,36.9 249.2,36.9 249,39.6 249.4,39.5 249.6,36.7 249.5,36.4  "/>
	<path class="st1" d="M259.2,32.8c0.3-0.1,0.5,0,0.6,0.2c0.1,0.2,0,0.5-0.2,0.6c-0.3,0-0.6,0-0.7-0.3   C258.8,33.2,258.9,32.9,259.2,32.8L259.2,32.8z M260.1,35c-0.3,0.1-0.6,0-0.7-0.3c-0.1-0.2,0-0.5,0.3-0.7c0.4,0,0.7,0,0.8,0.3   C260.5,34.6,260.4,34.9,260.1,35L260.1,35z M259.3,34c-0.3,0.3-0.4,0.6-0.2,0.9c0.1,0.4,0.6,0.6,1.1,0.4c0.5-0.2,0.8-0.6,0.6-1.1   c-0.1-0.3-0.4-0.5-0.8-0.5l0,0c0.3-0.3,0.3-0.6,0.2-0.8c-0.1-0.3-0.5-0.5-1-0.3c-0.5,0.2-0.7,0.6-0.5,1   C258.7,33.8,258.9,34,259.3,34L259.3,34z"/>
	<path class="st1" d="M269.9,28.6c0.4-0.1,0.7,0.1,0.8,0.6c0,0.1,0,0.1,0,0.1c0,0.2-0.2,0.4-0.4,0.5c-0.3,0.1-0.6,0-0.7-0.4   C269.5,29.1,269.7,28.7,269.9,28.6L269.9,28.6z M270.3,31.3c0.1,0,0.2-0.1,0.3-0.1c0.3-0.1,0.5-0.4,0.6-0.6c0.2-0.3,0.2-0.8,0-1.4   c-0.3-0.7-0.8-1-1.3-0.8c-0.5,0.2-0.7,0.8-0.5,1.3c0.2,0.4,0.6,0.7,1.1,0.5c0.3-0.1,0.4-0.3,0.5-0.5l0,0c0.1,0.3,0,0.6-0.1,0.8   c-0.1,0.2-0.2,0.4-0.4,0.5c-0.1,0.1-0.2,0.1-0.3,0.1L270.3,31.3z"/>
	<polygon class="st1" points="280,27.3 280.4,27.2 279.4,24.6 279.1,24.8 278.6,25.3 278.8,25.5 279.2,25.1 279.2,25.1  "/>
	<polygon class="st1" points="290.9,23.1 291.2,22.9 290.2,20.4 289.9,20.5 289.4,21 289.6,21.2 290,20.8 290,20.8  "/>
	<polygon class="st1" points="292.1,22.6 292.5,22.4 291.5,19.9 291.2,20 290.7,20.5 290.9,20.7 291.2,20.3 291.2,20.3  "/>
	<path class="st1" d="M281,24.3c0.4-0.1,0.7,0.2,0.9,0.8c0.3,0.7,0.3,1.1-0.1,1.3c-0.3,0.1-0.7-0.2-0.9-0.8   C280.6,24.8,280.7,24.4,281,24.3L281,24.3z M280.9,24c-0.5,0.2-0.7,0.8-0.4,1.7c0.3,0.8,0.9,1.2,1.4,1c0.6-0.2,0.7-0.8,0.4-1.7   C281.9,24.1,281.4,23.8,280.9,24z"/>
</g>
</svg>