<svg xmlns="http://www.w3.org/2000/svg" width="300" height="150" viewBox="0 0 300 150" fill="#5bdbb7">
			<path d="m216.6 78.7c-1.8-0.3-4.1 0.1-5.9 0.3-2.4 0.2-4.8 0.7-7.1 0.9-1.6 0.1-3.1 0.2-4.6 0.3-1.8 0.1-3.7 0.1-5.6 0.1-1.3-0.1-2.6-0.1-3.9-0.1-2.5 0-4.9-0.3-7.3-0.4-2.3-0.1-4.5 0.5-6.8 0.5-4 0.1-8.6-0.3-12.2 1.6-0.2 0.1-0.2 0.5-0.1 0.6 0.6 1.1 2.6 1.6 3.7 2 0.3 0.1 0.7 0.3 1 0.3 0.9 0.6 1.8 1.2 2.8 1.8 0.7 0.5 1.5 0.8 2.2 1.2 0.1 0.1 0.3 0.2 0.4 0.3 0.3 0.2 1 0.4 1.2 0.7 0.3 0.5 0 1.6-0.1 2.1-0.3 1.3-0.6 2.5-0.8 3.8-0.3 2.1-1 4.1-1.5 6-0.1 0.1-0.3 0.3-0.4 0.5-0.3 0.4 0.1 0.8 0.5 0.7v0.2c0 0.2 0.4 0.1 0.5 0 0.2-0.1 0.3-0.3 0.5-0.4s0.3-0.2 0.5-0.3c2-0.8 4-1.5 5.8-2.6 0.7 1.4 1.4 2.9 2 4.3 0.5 1.1 1.4 3.1 2.9 3.2 1.8 0.1 3.8-2.6 5.1-3.7 2.1-1.6 4.4-3.1 6.5-4.7 3.9-2.8 7.7-5.7 11.4-8.8 0.9-0.8 1.4-1.8 2.3-2.6 1-1 2.2-1.6 3.3-2.4 0.9-0.7 1.5-1.5 2.2-2.3 0.7-0.7 1.6-1.5 2.1-2.5-0.2-0.3-0.3-0.6-0.6-0.6zm-46.5 7 0.6 0.3 0.9 0.6c-0.6-0.3-1.1-0.6-1.5-0.9zm2.4 0.6c-0.7-0.7-1.2-1-2.1-1.4-1.2-0.5-2.6-1-3.8-1.4h-0.1c-0.3-0.2-0.7-0.4-1-0.5-0.5-0.3-1.5-0.4-0.9-0.9 0.2-0.1 0.7-0.1 0.9-0.2 1.2-0.3 2.4-0.5 3.7-0.7 2.6-0.1 5.2 0.1 7.5-0.1 1.2-0.1 2.3-0.2 3.5-0.3h1.9 0.1c0.7 0 1.4 0.1 2.2 0.1 1.9 0.2 3.8 0.1 5.7 0.2 4.3 0.1 8.4 0.1 12.7-0.3 2.1-0.2 4.2-0.5 6.3-0.7 1.2-0.1 2.3-0.2 3.5-0.2-0.5 0.1-1 0.3-1.5 0.3-1.8 0.3-3.5 0.6-5.2 0.9-3.4 0.4-6.8 0.9-10.1 1.6-3.4 0.7-6.8 1.5-10.3 2.2-3.7 0.7-7 2.4-10.7 3.3-0.1-0.1-0.2-0.1-0.3-0.1-0.6-0.9-1.2-1.1-2-1.8zm1.5 9.8c0.1-0.5 0.3-0.9 0.4-1.3 0.3-1.1 0.4-2.3 0.6-3.5 0.1-0.8 0.4-1.6 0.4-2.5 0 0 0-0.1 0.1-0.1 0.3-0.2 1.8-0.3 2-0.3 1.4-0.4 2.9-1 4.3-1.5 1.2-0.5 2.5-0.9 3.8-1.2 3.3-0.7 6.5-1.3 9.8-2.2 3.5-0.9 7.1-1.2 10.7-1.7 1.6-0.2 3.3-0.5 4.9-0.8 1-0.2 2-0.5 3.1-0.7-0.6 0.3-1.2 0.7-1.9 1-1.2 0.5-2.4 0.8-3.6 1.2-2.5 1.1-4.8 2.5-7.1 3.8-1 0.4-2 0.8-3.1 1.2-2.2 0.9-4.3 1.8-6.4 2.7-1.5 0.6-3.1 1.1-4.6 1.8-1.1 0.5-2.2 1-3.3 1.5-0.2 0.1-0.5 0.2-0.7 0.3-0.5 0.2-1 0.4-1.4 0.5-1.1 0.3-2.4 0.6-3.3 1.1-0.1-0.1-0.3-0.1-0.4 0.1-1.3 0.9-2.6 2-3.8 2.9-0.3 0.3-0.7 0.5-1 0.8 0.1-0.8 0.3-1.9 0.5-3.1zm4.7 1.9c-1.4 0.8-3.1 1.4-4.6 2 0.1-0.2 0.3-0.3 0.3-0.4 0.3-0.2 0.5-0.3 0.7-0.5 1-0.9 2.1-1.8 3.2-2.6 0.2 0.5 0.4 0.9 0.6 1.4-0.1 0.1-0.2 0.1-0.2 0.1zm34.9-16.3c-0.5 0.4-0.9 0.9-1.3 1.2l-0.4 0.4c-0.2 0.1-0.3 0.3-0.5 0.4-1 0.7-2 1.4-2.9 2.2-0.5 0.5-0.9 1-1.2 1.5-1 0.9-1.9 1.8-2.9 2.6-0.8 0.6-1.6 1.2-2.3 1.8-1.6 1.4-3.4 2.7-5.2 4-3.3 2.4-6.7 4.6-9.8 7.3-0.7 0.5-1.2 1-1.9 1.6-0.7 0.4-1.3 0.5-2-0.1-0.2-0.3-0.3-0.7-0.4-0.9-0.5-1-1-2-1.4-3-0.7-1.6-1.2-3.3-2.3-4.6 1.4-0.8 3.4-1 4.8-1.6s2.8-1.5 4.3-2l9.6-3.6c2.9-1.2 5.4-2.7 8.2-4.1 0.1-0.1 0.3-0.1 0.4-0.1 1.7-0.7 3.3-1.6 5-2.3 0.7-0.3 1.4-0.5 2.1-0.8 0.1-0.1 0.3-0.2 0.5-0.3l-0.4 0.4z"></path>
			<path d="m89.1 0c-0.5 0-1 0.1-1.4 0.3-0.3 0.1-0.5 0.3-0.8 0.3-0.3 0.1-0.6 0-0.9 0.1-0.1 0-0.3 0.2-0.3 0.3v0.2c-0.1 0.5 0.7 0.8 0.9 0.3 0.4-0.1 0.7 0 1.1-0.2 0.5-0.3 0.9-0.4 1.4-0.4 0.6 0 0.6-0.9 0-0.9z"></path>
			<path d="m77.1 0.9c-0.7 0-1.4-0.1-2.2-0.1-0.6 0-1.4 0-1.8 0.5s0.3 1.1 0.7 0.7c0.3-0.3 1.2-0.2 1.6-0.2 0.5 0 1.1 0.1 1.6 0.1 0.7-0.1 0.7-1 0.1-1z"></path>
			<path d="m65.5 1.5h-2.9c-0.6 0-0.6 0.9 0 0.9h2.9c0.6 0 0.6-0.9 0-0.9z"></path>
			<path d="m55.7 2.1c-0.9-0.3-2.7-0.7-3.1 0.5-0.1 0.6 0.7 0.8 0.9 0.3 0.1-0.4 1.7 0 2 0.1 0.5 0.2 0.7-0.6 0.2-0.9z"></path>
			<path d="m46.1 2.7c-0.7 0-1.3-0.1-2 0s-1.2 0.4-1.8 0.4-0.6 0.9 0 0.9 1.1-0.2 1.6-0.3c0.7-0.2 1.4-0.1 2.2-0.1 0.6 0.1 0.6-0.9 0-0.9z"></path>
			<path d="m35 4.5c-1 0.4-2.3 0.6-3.1 1.4-0.5 0.4 0.2 1 0.7 0.7 0.7-0.7 1.8-0.9 2.7-1.2 0.5-0.3 0.3-1.1-0.3-0.9z"></path>
			<path d="m24 9c-0.6 0.5-1.6 0.6-1.8 1.4-0.1 0.6 0.7 0.8 0.9 0.3 0.1-0.3 0.5-0.4 0.7-0.5 0.3-0.2 0.7-0.3 0.9-0.5 0.4-0.4-0.3-1.1-0.7-0.7z"></path>
			<path d="m15.7 15c-0.3 0.5-0.5 0.9-0.7 1.4-0.2 0.6-0.5 1.1-0.7 1.7-0.1 0.6 0.8 0.9 0.9 0.3 0.1-0.5 0.4-1 0.6-1.5s0.3-0.9 0.7-1.4-0.4-1-0.8-0.5z"></path>
			<path d="m10.6 23.6c-0.3-0.1-0.5 0.1-0.6 0.3-0.3 0.7-0.5 1.3-0.5 2 0 0.6 0.9 0.6 0.9 0 0-0.7 0.1-1.2 0.4-1.8 0.2-0.1 0-0.4-0.2-0.5z"></path>
			<path d="m6.4 36.1v2.6c0 0.6 0.9 0.6 0.9 0v-2.6c0-0.6-0.9-0.6-0.9 0z"></path>
			<path d="m7.1 45.8c-0.1-0.3 0-0.7 0-1 0-0.6-0.9-0.6-0.9 0 0 0.3-0.1 0.7 0 1 0.1 0.4 0.3 0.7 0.2 1-0.1 0.6 0.9 0.6 0.9 0 0.1-0.3-0.1-0.6-0.2-1z"></path>
			<path d="m8.7 57.4c-0.4-0.7-0.6-1.6-1.1-2.2-0.4-0.5-1 0.2-0.7 0.7 0.5 0.6 0.7 1.4 1 2 0.2 0.5 1.1 0 0.8-0.5z"></path>
			<path d="m13.3 63.9c-0.8-0.8-1.4-1.6-2.4-2.2-0.5-0.3-1 0.5-0.5 0.8 0.9 0.5 1.5 1.3 2.2 2 0.5 0.4 1.1-0.2 0.7-0.6z"></path>
			<path d="m20.9 69.2c-0.5-0.1-1-0.4-1.5-0.7-0.5-0.2-0.9-0.5-1.2-0.9-0.4-0.4-1 0.3-0.7 0.7 0.4 0.4 0.9 0.8 1.4 1 0.6 0.3 1.1 0.7 1.8 0.7 0.5 0.2 0.7-0.7 0.2-0.8z"></path>
			<path d="m31.1 72c-0.2 0-0.3-0.1-0.5-0.1-0.2-0.1-0.4 0-0.6-0.1-0.5-0.1-1-0.3-1.3-0.5-0.5-0.4-1.1 0.3-0.7 0.7 0.5 0.4 1 0.6 1.5 0.7 0.3 0.1 0.5 0 0.8 0.1s0.5 0.2 0.8 0.2c0.6-0.2 0.6-1.1 0-1z"></path>
			<path d="m36.2 74.5c-0.1 0-0.3-0.2-0.3-0.3-0.1-0.1-0.3-0.3-0.4-0.5-0.4-0.4-1 0.2-0.7 0.7 0.4 0.4 0.7 0.9 1.4 1 0.3 0 0.5-0.2 0.5-0.5-0.1-0.2-0.3-0.4-0.5-0.4z"></path>
			<path d="m46.7 80.6c-0.3 0-0.7-0.5-0.9-0.7-0.4-0.3-0.9-0.4-1.3-0.7-0.5-0.4-1.1 0.3-0.7 0.7 0.5 0.4 1.1 0.5 1.6 0.9 0.4 0.3 0.7 0.7 1.2 0.7 0.7 0.1 0.7-0.8 0.1-0.9z"></path>
			<path d="m54.3 86.1c-0.4-0.4-0.7-0.8-1-1.2-0.3-0.5-1.2 0-0.8 0.5 0.3 0.4 0.5 0.8 0.9 1.1 0.2 0.2 0.7 0.5 0.7 0.7 0.1 0.6 1 0.6 0.9 0-0.1-0.5-0.3-0.8-0.7-1.1z"></path>
			<path d="m60.3 93.1c0.1 0 0-0.1-0.1-0.1-0.1-0.1-0.1-0.1-0.1-0.2-0.1-0.2-0.3-0.3-0.5-0.5-0.3-0.3-0.7-0.7-0.7-1.2-0.1-0.6-1-0.3-0.9 0.3s0.5 1.1 0.9 1.5c0.2 0.2 0.4 0.4 0.5 0.7s0.3 0.4 0.6 0.5c0.6 0 0.9-0.8 0.3-1z"></path>
			<path d="m64.9 100.9v-0.9c0-0.6-0.9-0.6-0.9 0 0 0.5-0.1 0.9 0.1 1.4 0.1 0.1 0.1 0.3 0.3 0.3h0.2c0.3 0.1 0.5-0.1 0.6-0.3 0-0.2-0.2-0.4-0.3-0.5z"></path>
			<path d="m66.5 110.5c-0.5-0.4 0.1-1.7 0.1-2.2 0.1-0.6-0.9-0.6-0.9 0-0.1 0.9-0.7 2.2 0.1 2.9 0.5 0.3 1.1-0.3 0.7-0.7z"></path>
			<path d="m64.2 116.7c-0.4 0.7-0.8 1.2-0.9 2-0.1 0.6 0.8 0.9 0.9 0.3 0.1-0.7 0.5-1.2 0.8-1.8 0.3-0.5-0.4-1-0.8-0.5z"></path>
			<path d="m59.6 126.6c-0.1-0.3-0.4-0.3-0.7-0.2s-0.6 0.3-0.9 0.4-0.4 0.3-0.3 0.6 0.3 0.3 0.6 0.3c0.4-0.1 0.8-0.3 1.2-0.5 0.2 0 0.2-0.4 0.1-0.6z"></path>
			<path d="m48.5 127.2c-0.8 0.1-1.6 0.2-2.3 0.2-0.6 0-0.6 0.9 0 0.9 0.8 0 1.6-0.1 2.3-0.2 0.6-0.1 0.6-1 0-0.9z"></path>
			<path d="m40.9 126.6c-0.3-0.3-0.5-0.5-0.8-0.7-0.1-0.1-0.3-0.1-0.5-0.2s-0.3-0.1-0.4-0.1c-0.4-0.5-1 0.2-0.7 0.7 0.3 0.3 0.6 0.3 0.9 0.4s0.6 0.4 0.8 0.7c0.4 0.3 1.1-0.3 0.7-0.8z"></path>
			<path d="m38.9 127.3c-0.3-0.5-0.7-0.9-1.1-1.4-0.4-0.4-1 0.2-0.7 0.7 0.4 0.4 0.7 0.7 1 1.2s1.1 0 0.8-0.5z"></path>
			<path d="m33.7 119.8c-0.1-0.1-0.3-0.3-0.3-0.5 0-0.6-0.9-0.6-0.9 0 0 0.5 0.3 0.9 0.6 1.2 0.4 0.3 1.1-0.3 0.6-0.7z"></path>
			<path d="m34.2 110c0 0.1-0.3 0.3-0.3 0.3-0.1 0.1-0.3 0.3-0.4 0.5-0.2 0.4-0.3 0.8-0.3 1.2-0.1 0.6 0.9 0.6 0.9 0 0.1-0.5 0.2-0.9 0.5-1.2s0.5-0.5 0.5-1c0.1-0.4-0.8-0.4-0.9 0.2z"></path>
			<path d="m40.8 103.2c-0.5 0.1-0.9 0.5-1.3 0.7-0.5 0.3-0.8 0.7-1 1.2-0.3 0.5 0.5 1 0.8 0.5 0.2-0.4 0.5-0.7 0.8-0.9 0.4-0.3 0.8-0.6 1.2-0.7 0.1 0 0.3-0.2 0.3-0.3s0-0.1 0.1-0.2c0.1-0.5-0.7-0.8-0.9-0.3z"></path>
			<path d="m49.4 100.3c-0.7-0.1-1.4 0.1-2 0.3-0.6 0.1-1 0.3-1.4 0.7-0.4 0.5 0.3 1.1 0.7 0.7s0.8-0.5 1.3-0.5c0.5-0.1 1-0.2 1.6-0.2 0.4-0.1 0.4-1-0.2-1z"></path>
			<path d="m57 100.4c-0.8-0.6-1.7-0.7-2.6-0.8-0.6 0-0.6 0.9 0 0.9 0.7 0 1.4 0.1 2 0.5 0.4 0.4 1-0.3 0.6-0.6z"></path>
			<path d="m66.5 103.9c-1.1-0.3-2.1-0.9-3.3-0.9-0.6 0.1-0.6 1 0 0.9 1.1-0.1 2 0.6 3 0.9 0.6 0 0.8-0.8 0.3-0.9z"></path>
			<path d="m79.7 109.4c-0.6-0.7-1.1-1.4-1.8-2-0.8-0.6-1.6-0.9-2.5-1.3-0.5-0.3-1 0.5-0.5 0.8 0.8 0.4 1.6 0.7 2.3 1.1 0.7 0.5 1.2 1.3 1.8 2 0.5 0.5 1.1-0.1 0.7-0.6z"></path>
			<path d="m87 114.4c-0.6-0.1-1.2-0.7-1.6-1.1s-1 0.2-0.7 0.7c0.6 0.6 1.3 1.3 2.2 1.4 0.7 0 0.7-1 0.1-1z"></path>
			<path d="m97.7 120.6c-0.8-0.8-1.6-1.4-2.6-1.8-0.9-0.4-1.6-0.9-2.6-0.9-0.6 0-0.6 0.9 0 0.9 1.6 0 3.5 1.4 4.5 2.4 0.5 0.5 1.1-0.1 0.7-0.6z"></path>
			<path d="m108.9 123.7c-0.5 0-1-0.3-1.5-0.4-0.4-0.1-1 0.1-1.4-0.1-0.5-0.4-1 0.3-0.7 0.7 0.5 0.5 1 0.4 1.6 0.4 0.7 0 1.2 0.5 1.9 0.4 0.7-0.2 0.8-1.1 0.1-1z"></path>
			<path d="m118.2 126c-0.5 0-1 0.1-1.5 0s-0.9-0.3-1.3-0.4c-0.5-0.2-0.8 0.7-0.3 0.9 1 0.4 2 0.5 3.1 0.5 0.6-0.1 0.6-1 0-1z"></path>
			<path d="m125.5 124c-0.5 0.5-1 0.8-1.7 0.9-0.6 0.1-0.3 1 0.3 0.9 0.8-0.2 1.5-0.6 2.1-1.2 0.4-0.4-0.3-1-0.7-0.6z"></path>
			<path d="m128.7 117c-0.5 0.5-0.4 1.2-0.4 1.8-0.1 0.8-0.6 1.4-0.6 2.3 0 0.6 0.9 0.6 0.9 0 0-0.7 0.4-1.2 0.5-1.8 0.1-0.5-0.1-1.3 0.2-1.6 0.4-0.4-0.2-1.1-0.6-0.7z"></path>
			<path d="m130.1 112c-0.3-0.5-0.1-1.2-0.3-1.8-0.1-0.3-0.1-0.7-0.3-0.9-0.1-0.3-0.3-0.6-0.4-1-0.1-0.6-1-0.3-0.9 0.3 0.1 0.3 0.3 0.6 0.4 0.9 0.1 0.4 0.3 0.8 0.3 1.2 0.2 0.7 0.1 1.2 0.4 1.8 0.2 0.6 1 0.1 0.8-0.5z"></path>
			<path d="m127.7 104.9c-0.2-0.5-0.4-1.1-0.3-1.6 0.1-0.6-0.9-0.6-0.9 0-0.1 0.7 0.2 1.5 0.5 2.2 0.2 0.4 1-0.1 0.7-0.6z"></path>
			<path d="m131 96.8c-0.3 0.3-0.7 0.3-0.9 0.5-0.4 0.2-0.7 0.5-1 0.9-0.4 0.4 0.3 1 0.7 0.7 0.3-0.3 0.6-0.6 0.9-0.8 0.3-0.1 0.7-0.3 1-0.5 0.4-0.5-0.3-1.2-0.7-0.8z"></path>
			<path d="m136.4 96c-0.6 0-0.6 0.9 0 0.9 0.5 0 0.9-0.1 1.4-0.1 0.3 0 0.6 0 0.9 0.1 0.1 0 0.2 0.1 0.3 0.1h0.1c0.1 0.5 0.9 0.5 0.9-0.1-0.1-1.4-2.9-0.9-3.6-0.9z"></path>
			<path d="m144.9 99.2c-0.5-0.3-1 0.5-0.5 0.8 0.7 0.5 2.5 1.1 2.3 2.2-0.1 0.6 0.8 0.9 0.9 0.3 0.3-1.7-1.6-2.5-2.7-3.3z"></path>
			<path d="m156.6 106c-1.5-0.1-2.9-0.5-4.3-1-0.5-0.2-0.8 0.7-0.3 0.9 1.4 0.5 2.9 1 4.6 1 0.6 0 0.6-0.9 0-0.9z"></path>
			<path d="m163 104.9c-0.4 0-0.7-0.1-1.1 0-0.3 0.1-0.7 0.3-1 0.2-0.6-0.1-0.6 0.9 0 0.9 0.3 0 0.7-0.1 1-0.2 0.4-0.1 0.8 0 1.1 0 0.6 0 0.6-0.9 0-0.9z"></path>
			<path d="m168.1 103.9c0.5-0.1 0.5-0.9-0.1-0.9-0.5 0-0.9 0.4-1.2 0.7-0.1 0.2-0.3 0.4-0.3 0.7s0.3 0.5 0.5 0.6c0.3 0.1 0.5-0.1 0.6-0.3 0-0.1 0-0.3-0.1-0.4l0.2-0.2c0.1-0.1 0.1-0.1 0.2-0.1 0.1-0.1 0.1-0.1 0.2-0.1z"></path>
		</svg>