<svg version="1.1" xmlns="http://www.w3.org/2000/svg" xmlns:xlink="http://www.w3.org/1999/xlink" x="0px" y="0px" width="300px" height="300px" viewBox="0 0 300 300" style="enable-background:new 0 0 300 300;" xml:space="preserve">
<style type="text/css">
	.st0{fill:#ffb4b4;}
</style>
<g>
	<path class="st0" d="M118,85.8c1.2,1.8,0.7,4.6-1.1,5.8c-1.4,1-3.4,0.8-4.7-0.2c0-0.2-0.2-0.5-0.4-0.4c-0.3-0.2-0.5-0.5-0.7-0.8   c-1.2-2.1,0-4.7,1.8-6C114.7,83.7,116.9,84.1,118,85.8z M117.9,88.5c0-1.6-1.2-3-2.7-3.5c-0.3-0.1-0.5,0.3-0.2,0.4   c1.2,0.7,1.8,1.8,2,3.1C117.1,89.2,117.9,89.1,117.9,88.5z"/>
	<path class="st0" d="M58.6,24.5c2.1,1.1,3.4,3.8,2.3,6.1c-1.3,2.6-4.7,2.5-7.1,2.1c-0.2,0-0.3,0-0.4,0.1c-1.8-1.8-2.6-4.5-1.1-6.7   C53.7,24.1,56.4,23.3,58.6,24.5z M59,28.4c0.2,0.6,1.2,0.3,0.9-0.3c-0.8-1.7-2.3-2.8-4.2-2.9c-0.3,0-0.3,0.5,0,0.5   C57.2,25.9,58.5,26.9,59,28.4z"/>
	<path class="st0" d="M73.8,68.1c3.3-1.1,4.4,3.1,4.3,5.6c-0.1,2.7-3,3.6-5.4,3.4c-2.4-0.3-4.3-2.2-4.1-4.7c0.1-2.6,2.2-4,4.5-4.5   C73.3,68,73.5,68.2,73.8,68.1z M77.2,73.8c0.5-3.2-2.4-5.5-5.3-4.7c-0.2,0.1-0.1,0.3,0.1,0.3c2.6-0.3,4.4,1.8,4.3,4.3   C76.2,74.3,77.1,74.3,77.2,73.8z"/>
	<path class="st0" d="M42.8,96.1c0.7,0.6,1.2,1.3,1.4,2.2c0.2,0.7,0.1,1.3,0,1.9c0,0.1-0.1,0.2-0.1,0.2c-0.4,1.3-1.5,2.3-3,2.4   c-2,0.2-3.8-1.2-4.1-3.2c-0.4-2,0.9-3.8,2.7-4.7c0.1,0.4,0.8,0.4,0.9-0.1C40.5,95,42.5,95.9,42.8,96.1z M39.9,101.6   c0.3,0,0.4-0.3,0.1-0.4c-1.1-0.4-1.4-1.5-1.4-2.6c0-0.4-0.7-0.6-0.8-0.2C37.3,99.8,38.5,101.3,39.9,101.6z"/>
	<path class="st0" d="M111.8,43.5c3.1,4.2-1.1,10.3-3.4,13.9c-2.4,3.7-5.3,7.1-8.4,10.3c0.2,0.1,0.3,0.2,0.5,0.2   c6.7,3.4,13.2,7.5,16,14.8c0.1,0.2,0,0.4-0.1,0.6c1,0.4,1.9,1,2.6,2c1.5,2.4,0.6,5.8-1.7,7.3c-1.9,1.2-4.5,0.8-6.2-0.6   c-5.7,2.2-11.8,2.5-17.9,2.1c2.1,9.2,3,18.2-1.5,18.7c0,0.2-0.2,0.3-0.4,0.3c-6.1,0.4-11.1-4.6-14.8-8.9c-3.2-3.7-5.8-7.9-8-12.2   c-7.4,4-15.2,7-23.5,8.9c-0.5,1.4-1.7,2.5-3.2,2.9c-2.7,0.6-5.4-1.2-5.9-3.9c-0.5-2.6,1.1-4.8,3.5-5.5c-0.1-0.1-0.2-0.2-0.1-0.4   c2.2-4.2,4.8-8.1,7.7-11.8c-5.1-2.7-9.7-6.1-13.5-10.5c-3.6-4.1-8.6-11.7-4.2-16.5v-0.1c0.1-0.1,0.2-0.2,0.3-0.3   c0.3-0.3,0.6-0.5,0.9-0.8h0.1c5.5-3.8,14-2.7,20.2-2.2c1,0.1,2,0.2,3.1,0.3c-1.6-6.4-3.3-13.3-1.7-19.7c-4.4-4,0.7-12.1,6.7-9.3   c1.9,0.9,3.3,2.8,3.6,4.9l0.1,0.1c6.9,7.4,12,15.9,16.3,24.9c5.3-3.8,11-7.3,17-9.9C100.5,41.4,108,38.3,111.8,43.5z M111.5,47.9   c0.2-1.4-0.2-2.7-0.9-3.7c-0.4-1.4-1.6-2.1-3.7-2.3c-2-0.2-4,0-5.9,0.7c-1.6,0.5-3.3,1.2-4.8,1.8c-3.8,1.6-7.4,3.6-10.9,5.8   c-2,1.3-4,2.6-6,4.1c0.8,1.7,1.6,3.5,2.4,5.3c5.9,2.2,11.7,4.8,17.3,7.6c0.5-0.5,0.9-1,1.4-1.5c2.1-2.3,4.1-4.6,6-7.2   c1.2-1.6,2.3-3.3,3.2-5.1c0.7-1.4,1.1-2.3,1.3-3.2C111.1,49.4,111.4,48.7,111.5,47.9z M116.9,91.6c1.8-1.2,2.4-4,1.1-5.8   c-1.1-1.6-3.4-2.1-5.2-1.5c-1.8,1.2-3.1,3.9-1.8,6c0.2,0.3,0.4,0.6,0.7,0.8c0.3-0.1,0.5,0.2,0.4,0.4   C113.5,92.4,115.5,92.6,116.9,91.6z M111.6,84c1.1-0.7,2.4-1,3.6-0.9c-2.9-7.1-9.6-11-16.2-14.3c-2.3,2.3-4.7,4.6-7.2,6.8   c-1.1,0.9-2.1,1.9-3.2,2.8c1.1,3.4,2.8,8.9,4.2,14.6c5.9,0.3,11.8-0.1,17.5-1.5c-0.2-0.3-0.4-0.6-0.6-0.9c-1-2.2-0.2-4.8,1.6-6.1   C111.5,84.2,111.5,84.1,111.6,84z M97.9,68.2c-0.5-0.3-1.1-0.5-1.6-0.8c-4.6-2.2-9.2-4.3-14-6.2c1.9,4.7,3.7,9.4,5.4,14.1   c0.1,0.4,0.4,1,0.7,1.9C91.7,74.3,94.9,71.3,97.9,68.2z M87.4,78c-1.7-5.1-3.3-9.2-3.9-10.7c-0.9-2.2-1.8-4.5-2.7-6.7   c-1.5-0.6-3-1.1-4.5-1.6c-0.7-0.3-1.5-0.5-2.2-0.7c-2,1.6-4,3.3-6,4.9c-2.6,2.2-5.2,4.5-7.7,6.8c0.8,2.4,1.7,4.7,2.7,7.1   c1.6,3.9,3.2,7.8,5.1,11.6c1,0.3,2.1,0.5,3.2,0.8c4.4-2.5,8.7-5.4,12.7-8.5C85.1,79.9,86.2,78.9,87.4,78z M91.8,92.8   c-1.2-4.7-2.7-9.5-4.1-13.8c-4.7,4-9.7,7.5-15,10.7C79,91.2,85.4,92.4,91.8,92.8z M80.1,58.9c-0.6-1.3-1.2-2.7-1.8-4   c-1,0.8-2,1.5-3.1,2.3c0.5,0.1,0.9,0.3,1.4,0.4C77.8,58.1,78.9,58.5,80.1,58.9z M77.8,54c-4.1-8.6-9-16.8-15.6-23.9   c0,0.2-0.1,0.3-0.1,0.5c-1.3,3.4-5.4,3.9-8.5,3h-0.1c-0.1,0-0.1,0-0.2,0c-0.2-0.1-0.4-0.2-0.6-0.4c-0.7,6.6,0.6,13,2.2,19.3   c6.4,0.9,12.8,2.4,19,4.4C75.3,55.9,76.5,54.9,77.8,54z M92.1,94c-2.9-0.3-5.7-0.7-8.5-1.1c-4.1-0.7-8.2-1.5-12.3-2.4   c-0.6,0.3-1.1,0.7-1.7,1c1.2,2.3,2.5,4.5,3.9,6.7c4,6,9.8,13.6,17.7,13.9C94.9,110.9,94.2,103,92.1,94z M60.9,30.6   c1.1-2.3-0.2-5-2.3-6.1c-2.2-1.1-4.9-0.4-6.3,1.7c-1.5,2.2-0.7,4.9,1.1,6.7c0.1-0.1,0.2-0.1,0.4-0.1C56.2,33,59.6,33.2,60.9,30.6z    M72.8,57.8c-5.7-1.8-11.5-3.2-17.5-4c0.2,0.6,0.3,1.2,0.5,1.8c1.2,4.4,2.6,8.8,4.1,13.1C64,64.9,68.4,61.3,72.8,57.8z M69.6,90.2   C69.3,90.1,69,90,68.7,90c0.1,0.2,0.2,0.4,0.3,0.6C69.2,90.4,69.4,90.3,69.6,90.2z M68,91.1c-0.3-0.5-0.5-1-0.7-1.5   c-3.9-1-7.8-2.1-11.6-3.5c-2.6-1-5.2-2-7.7-3.3c-2.9,3.6-5.6,7.3-8.1,11.4c0.8-0.4,2.1,0.2,2.8,0.6c1.1,0.7,2,1.8,2.4,3.1   c0.2,0.6,0.2,1.3,0.1,1.9C53.2,97.9,60.8,94.9,68,91.1z M64.9,87.7c0.6,0.1,1.1,0.3,1.7,0.4c-0.9-1.9-1.7-3.7-2.6-5.6   c-1.7-3.9-3.2-7.8-4.6-11.8c-3.7,3.5-7.2,7.1-10.5,11C53.9,84.4,59.3,86.2,64.9,87.7z M54.5,55c-0.1-0.5-0.2-0.9-0.4-1.4   c-7.3-1-16.2-2.1-23,1.3c0,0,0,0,0,0.1c-7.6,7.9,5.9,19.5,12.2,23.6c1.5,1,3,1.8,4.5,2.7c3.4-4.1,7.2-8,11.1-11.7   C57.2,64.8,55.8,59.9,54.5,55z M44.1,98.3c-0.2-0.9-0.7-1.6-1.4-2.2c-0.2-0.2-2.2-1.1-2.3-1.2c0,0.4-0.8,0.5-0.9,0.1   c-1.8,0.9-3.1,2.7-2.7,4.7c0.4,2,2.1,3.4,4.1,3.2c1.5-0.2,2.5-1.2,3-2.4c0-0.1,0-0.2,0.1-0.2C44.3,99.6,44.3,98.9,44.1,98.3z"/>
	<path class="st0" d="M115.2,85.1c1.5,0.5,2.6,1.9,2.7,3.5c0,0.6-0.8,0.6-0.9,0.1c-0.2-1.3-0.8-2.5-2-3.1   C114.8,85.3,115,85,115.2,85.1z"/>
	<path class="st0" d="M73.6,67c3.9-1.6,5.8,3.3,5.7,6.3c0,3.4-2.8,5-6,5c-3.3-0.1-6.1-2.5-5.9-5.9C67.5,69.1,70.4,66.7,73.6,67   L73.6,67z M78.1,73.7c0.1-2.5-1-6.6-4.3-5.6c-0.3,0.1-0.6-0.1-0.7-0.3c-2.3,0.5-4.4,2-4.5,4.5s1.7,4.4,4.1,4.7   C75.1,77.3,78,76.4,78.1,73.7z"/>
	<path class="st0" d="M71.8,69.1c3-0.8,5.9,1.5,5.3,4.7c-0.1,0.5-1,0.5-1-0.1c0.2-2.5-1.7-4.7-4.3-4.3   C71.7,69.4,71.7,69.1,71.8,69.1z"/>
	<path class="st0" d="M59.9,28c0.3,0.6-0.8,0.9-0.9,0.3c-0.5-1.5-1.8-2.5-3.3-2.7c-0.3,0-0.3-0.5,0-0.5C57.6,25.2,59.1,26.3,59.9,28   z"/>
	<path class="st0" d="M40,101.1c0.3,0.1,0.1,0.5-0.1,0.4c-1.4-0.2-2.6-1.8-2-3.2c0.1-0.4,0.8-0.3,0.8,0.2   C38.6,99.6,38.9,100.7,40,101.1z"/>
</g>
</svg>