<svg xmlns="http://www.w3.org/2000/svg" width="250" height="250" viewBox="0 0 80 120" fill="#fd7e14">
    <path d="m25 32c-0.7-0.4-1.4-1-1.1-1.8 0.3-0.9 0.7-1.9 1.8-2.2 1-0.3 2-0.6 3-0.6 1.8-0.1 3.7-0.7 5.5-0.1 0.2 0.1 0.5-0.1 0.8-0.1 0.7 0 1.4 0 2 0.1 1.5 0.4 2 2 0.9 3-0.5 0.5-0.5 1-0.5 1.6 0.2 2.3 0.4 4.6 0.7 6.9 0.3 3.5 0.7 7 1 10.5l0.6 6.9c0.2 2.3 0.5 4.7 0.7 7 0.1 1.8 0.2 3.7 0.3 5.6 0 0.2-0.1 0.4-0.2 0.6-0.9-7-1.5-14.1-2.1-21.3-1.9 0.6-3.6 1-5.5 1-1.7 0-3.5 0.1-5.4 0.2v1.6c0.3 3.4 0.6 6.8 0.9 10.3 0.2 2.2 0.2 4.3 0.6 6.5 0.2 1.6 0.7 3.1 1.3 4.7 0.6 1.8 2.2 2.7 4 3.1 2.8 0.6 5.2-0.3 6.2-2.6 0.4-1 0.7-2.1 0.9-3.1 0.2-0.9 0.1-1.9 0.2-2.8 0-0.4 0.1-0.8 0.4-1.3 0.1 0.4 0.3 0.8 0.3 1.2 0.1 2.1-0.1 4.2-1.1 6.2-1.4 2.9-4 3.7-7 3.1-2.2-0.5-3.6-1.8-4.7-3.9-1.2-2.2-1-4.5-1.2-6.8-0.3-2.5-0.4-5-0.6-7.5s-0.4-5-0.6-7.6c-0.3-3.5-0.6-6.9-0.9-10.4-0.8-2.7-1-5.3-1.2-8zm2 15.3c3.5-2.1 7.1-2.1 11-1.3-0.4-4.8-0.9-9.5-1.3-14-3.7 0.1-7.2 0.2-11 0.3 0.4 5 0.8 9.9 1.3 15zm0.4 1c3.2 0.5 6.2 0.2 9.2-0.6 0.4-0.1 0.7-0.4 1.2-0.6-2.5-1.7-9-0.9-10.4 1.2zm-2-19.3c2.2 1.4 9.6 1 11-0.6-0.5-0.5-1-0.7-1.7-0.5-0.4 0.1-0.9 0.2-1.3 0.1-2.1-0.5-4.1 0.1-6.2 0.3-0.6 0-1.3 0.1-1.8 0.7zm-0.8 0.9c0 0.1-0.1 0.2-0.1 0.4 0.7 0.3 0.8 1.2 1.8 1.2 3.3-0.1 6.7-0.1 9.8-0.2 0.7-0.8 1.2-1.5 1.7-2.2-1.6 0.2-3 0.8-4.4 1.1s-3 0.3-4.4 0.2c-1.5 0-2.9-0.3-4.4-0.5z"></path> <path d="m13.1 62.4c0.9 2.3 1.8 4.6 2.7 6.9 0.1 0.3 0.3 0.6 0.5 0.9 1.3 1.9 3.4 2.6 5.6 1.8 1.4-0.5 2.2-1.5 2.3-2.9 0.1-1.1 0-2.2-0.1-3.4 0-0.6-0.2-1.3-0.3-1.9 0.1 0 0.2-0.1 0.3-0.1 0.2 0.4 0.4 0.8 0.5 1.3 0.4 1.4 0.5 2.8 0.3 4.2-0.2 1.5-1 2.6-2.4 3.2-2.3 1.1-4.8 0.5-6.5-1.3-0.9-1-1.4-2.1-1.8-3.3-2.2-6.6-4.5-13.1-6.7-19.7-0.5-1.5-1-3.1-1.5-4.6-0.1-0.6-0.3-1.1-1-1.5-0.9-0.5-0.6-2.3 0.5-2.9 0.7-0.4 1.5-0.8 2.3-1 1.7-0.5 3.3-1 5-1.4 1.3-0.3 1.9 0 2.2 0.9 0.1 0.3 0.1 0.6 0 0.8-0.6 0.8-0.2 1.6 0.1 2.3 1.6 4.6 3.1 9.1 4.7 13.7 1.3 3.7 2.5 7.3 3.8 11 0.2 0.5 0.3 1.1 0.2 1.7-1.4-2.2-1.8-4.8-2.9-7.1-2.4 1.3-4.9 2.1-7.8 2.4zm-6.6-20c2.1 6.2 4.2 12.4 6.4 18.7 2.1-2.4 4.8-2.7 7.5-3.2-2.1-6-4.1-11.9-6.1-17.8-2.7 0.8-5.2 1.5-7.8 2.3zm14 16.5c-2.6-0.3-5.9 1-7 2.7 1.9-0.1 3.5-0.7 5.1-1.4 0.6-0.2 1.5-0.3 1.9-1.3zm-15-19.1c2.5 0.5 6.8-0.9 7.7-2.5-2.7 0.5-5.2 1.1-7.7 2.5zm9-1.9c-1.5 0.7-2.9 1.6-4.3 2.1-1.5 0.5-3.1 0.7-5 1.1 0.6 0.2 0.9 0.4 1.3 0.4 0.5 0 1.1-0.1 1.6-0.3 1.9-0.5 3.8-1.1 5.7-1.6 0.2-0.6 0.5-1.1 0.7-1.7z"></path> <path d="m33.1 15c-1.4 0-2.6-1.2-2.5-2.5 0.1-1.6 1.8-3 3.1-2.9 1.2 0.1 2.6 1.4 2.5 2.5-0.1 1.6-1.6 2.9-3.1 2.9zm0.7-4.7c-1.4-0.1-2.5 1.2-2.6 2.2-0.1 0.9 0.8 1.7 1.9 1.7 1.2 0 2.3-1 2.3-2.1 0-1-0.7-1.7-1.6-1.8z"></path> <path d="m22.6 1c1.8 0 2.6 0.7 2.6 2.3 0 1.7-1 2.8-2.7 2.8-1.5 0-2.6-1-2.6-2.5 0-1.6 1-2.6 2.7-2.6zm0.3 0.2c-0.4 0.2-0.8 0.3-1.1 0.5-0.9 0.4-1.4 1.4-1.1 2.5 0.2 0.8 1 1.3 2 1.2s1.8-0.8 1.9-1.8c0.1-1.2-0.6-1.9-1.7-2.4z"></path> <path d="m2.9 28.6c-1.4 0-2.4-0.7-2.7-1.8-0.3-0.9 0.1-1.9 0.9-2.6 0.1-0.1 0.3-0.3 0.4-0.3 1.1 0 2.4-0.1 3.3 0.7 0.7 0.6 0.7 1.4 0.5 2.1-0.3 0.9-0.9 1.5-1.9 1.8-0.2 0-0.4 0-0.5 0.1zm-0.2-0.7c1.1 0 1.9-0.7 2-1.7 0.1-0.8-0.8-1.7-1.9-1.8s-2.1 0.8-2.2 1.8c0 0.8 1 1.6 2.1 1.7z"></path> <path d="m28.9 21.3c-0.9 0-1.5-0.7-1.5-1.7s0.7-1.6 1.8-1.5c1.2 0 1.8 0.5 1.8 1.4 0.1 0.8-1.1 1.8-2.1 1.8zm1.5-2.1c-0.2-0.1-0.4-0.5-0.7-0.6-0.7-0.2-1.5 0.4-1.5 1 0 0.5 0.2 0.9 0.7 1 0.5 0 1.4-0.6 1.5-1.4z"></path> <path d="m26.8 9.4c1.3 0.2 1.7 0.8 1.2 1.8-0.4 0.9-1.6 1.4-2.4 1s-1.3-1.4-0.9-2.3c0.3-0.8 0.7-0.9 1.6-0.4-1.1 0.7-1.3 1-0.8 1.6 0.4 0.5 1 0.6 1.5 0.1 0.6-0.5 0.6-0.9-0.2-1.8z"></path> <path d="m10 29.4c-0.8 0-1.6-0.7-1.6-1.5 0-0.7 0.7-1.4 1.4-1.4 0.9 0 1.9 0.7 1.9 1.4-0.1 0.8-0.9 1.5-1.7 1.5zm-0.6-2.1c-0.2 1-0.1 1.4 0.4 1.5 0.5 0 0.9-0.4 1-1.3-0.4-0.1-0.9-0.1-1.4-0.2z"></path> <path d="m32.4 20.3c0.7-0.4 1.1-0.8 1-1.7 0.7 0.7 1.4 1 2.5 0.8-0.7 0.6-1.6 0.9-1.4 2-0.3-0.3-0.6-0.6-0.8-0.9-0.4 0-0.8 0-1.1 0.1-0.1-0.1-0.2-0.2-0.2-0.3z"></path> <path d="m8.1 33.5c0 0.7-0.6 1.3-1.2 1.3-0.5 0-0.9-0.4-0.8-1 0-0.7 0.6-1.3 1.1-1.3 0.5 0.1 0.9 0.5 0.9 1z"></path> <path d="m7.1 21.6c-0.7 0-1.1-0.5-1-1.1 0-0.7 0.5-1.1 1.1-1.1 0.7 0 1.1 0.5 1.1 1.1 0 0.7-0.5 1.1-1.2 1.1zm0.4-1.8c-0.3 0.3-0.5 0.6-0.6 0.8 0.1 0.1 0.3 0.3 0.4 0.3 0.3-0.1 0.6-0.3 0.2-1.1z"></path> <path d="m30.2 24.7c-0.1 0.7-0.5 1-1.1 1-0.3 0-0.7-0.3-0.8-0.6-0.1-0.4 0.1-0.8 0.3-1.2 0-0.1 0.5-0.1 0.7 0 0.3 0.3 0.6 0.6 0.9 0.8z"></path> <path d="m25 14.6c0.2 0.2 0.3 0.4 0.5 0.6 0.2 0.1 0.4 0.2 0.6 0.4-0.3 0.4-0.6 0.8-0.9 1.2-0.4-0.3-0.7-0.6-1-0.9 0.2-0.4 0.5-0.8 0.8-1.3z"></path> <path d="m32.4 3.8c-1.3 0.6-2.3 0.5-3.4 0.3 0.7-0.7 1.5-0.7 3.4-0.3z"></path>
</svg>