<svg xmlns="http://www.w3.org/2000/svg" width="300" height="300" viewBox="0 0 300 300" fill="#0cbc87">
    <style type="text/css">
        .st1{fill-rule:evenodd;clip-rule:evenodd;}
    </style>
    <g>
        <path class="st1" d="M212.9,223.6l20.9,9.3c4.5-0.3,8.8-1.8,12.4-4.3c3.6-2.5,6.6-6,8.5-10.2c2.2-4.9,2.6-10.1,1.6-14.9   c-1-5-3.6-9.6-7.4-13.1l-0.4-0.4l0.2-0.5l17.7-39.9l0.3-0.7l0.7,0.3l2.5,1.1c0.3,0.1,0.6,0.1,0.9,0l0,0c0.3-0.1,0.5-0.3,0.6-0.6   l0.3-0.6c0.1-0.3,0.1-0.6,0-0.9l0,0c-0.1-0.3-0.3-0.5-0.6-0.6l-20-8.9c-0.3-0.1-0.6-0.1-0.9,0l0,0c-0.3,0.1-0.5,0.3-0.6,0.6   l-0.3,0.6c-0.1,0.3-0.1,0.6,0,0.9l0,0c0.1,0.3,0.3,0.5,0.6,0.6l2.5,1.1l0.7,0.3l-0.3,0.7l-17.7,39.9l-0.2,0.5h-0.5   c-5.2-0.5-10.3,0.7-14.7,3.3c-4.3,2.5-7.8,6.3-10,11.2c-1.9,4.3-2.5,8.8-1.9,13.1C208.4,215.9,210.2,220.1,212.9,223.6L212.9,223.6   z M233.4,234.3l-21.2-9.4l-0.2-0.1l-0.1-0.1c-3-3.8-4.9-8.3-5.6-13c-0.6-4.6,0-9.4,2-14c2.3-5.2,6.1-9.2,10.6-11.9   s9.8-3.9,15.1-3.6l17.2-38.7l-1.8-0.8c-0.7-0.3-1.2-0.8-1.4-1.5l0,0c-0.2-0.6-0.2-1.4,0-2l0.3-0.6c0.3-0.7,0.8-1.2,1.5-1.4l0,0   c0.6-0.2,1.4-0.2,2,0l20,8.9c0.7,0.3,1.1,0.8,1.4,1.5l0,0c0.2,0.6,0.2,1.4,0,2l-0.3,0.6c-0.3,0.7-0.8,1.1-1.5,1.4l0,0   c-0.6,0.2-1.4,0.2-2,0l-1.8-0.8l-17.2,38.7c3.8,3.7,6.4,8.4,7.5,13.6c1.1,5.2,0.6,10.7-1.7,15.9c-2,4.5-5.2,8.2-9,10.9   c-3.9,2.7-8.6,4.3-13.4,4.6h-0.2L233.4,234.3z"/>
        <path class="st1" d="M255.1,145.6c0.2-0.4,0.6-0.5,0.9-0.4c0.4,0.2,0.5,0.6,0.4,0.9L239,185.3c-0.2,0.4-0.6,0.5-0.9,0.4   c-0.4-0.2-0.5-0.6-0.4-0.9L255.1,145.6z"/>
        <path class="st1" d="M253,221.4l-44.5-19.7c-0.9,3.2-1.1,6.6-0.7,9.8c0.6,4.4,2.3,8.6,5.1,12.1l20.9,9.3c4.5-0.3,8.8-1.8,12.4-4.3   C248.9,226.6,251.2,224.3,253,221.4z"/>
    </g>
</svg>