<?xml version="1.0" standalone="no"?>
<!DOCTYPE svg PUBLIC "-//W3C//DTD SVG 1.1//EN" "http://www.w3.org/Graphics/SVG/1.1/DTD/svg11.dtd" >
<svg xmlns="http://www.w3.org/2000/svg" xmlns:xlink="http://www.w3.org/1999/xlink" version="1.1">
<metadata>
Created by FontForge 20161003 at Sat Apr 29 23:51:53 2017
 By www-data
Copyright 2016 Michal Sahar. All rights reserved.
</metadata>
<defs>
<font id="MiriamLibre-Regular" horiz-adv-x="0" >
  <font-face 
    font-family="Miriam Libre"
    font-weight="400"
    font-stretch="normal"
    units-per-em="1000"
    panose-1="0 0 5 0 0 0 0 0 0 0"
    ascent="800"
    descent="-200"
    x-height="566"
    cap-height="695"
    bbox="-525 -335 995 952"
    underline-thickness="50"
    underline-position="-100"
    unicode-range="U+0020-FB4B"
  />
<missing-glyph horiz-adv-x="476" 
d="M390 -193h-301v952h301v-952zM160 695v-31h62v-35h-63v-32h158v32h-63v35h63v31h-157zM159 572v-99h158v33h-63v66h-95zM222 506h-32v34h32v-34zM159 448v-32h63v-35h-63v-31h95v66h63v32h-158zM286 391v-63h-127v-33h158v96h-31zM222 274v-53h32v22h32v-45h-96v76h-31
v-107h158v107h-95zM159 110v-108h158v108h-158zM286 34h-96v44h96v-44zM159 -20v-31h67l-67 -45v-31h158v31h-97l67 45h30v31h-158z" />
    <glyph glyph-name="fi" unicode="fi" horiz-adv-x="762" 
d="M537 668q-4 4 -4 10v87q0 6 4 10t10 4h48q6 0 10 -4t4 -10v-87q0 -6 -4 -10t-10 -4h-48q-6 0 -10 4zM134 4q-4 4 -4 10v478h-76q-6 0 -10 4t-4 10v46q0 6 4 10t10 4h76v40q0 66 41 109.5t113 43.5h80q6 0 10 -4t4 -10v-43q0 -6 -4 -10t-10 -4h-81q-34 0 -54.5 -21.5
t-20.5 -56.5v-44h366q15 0 25.5 -10.5t10.5 -25.5v-456h103q6 0 10 -4t4 -10v-46q0 -6 -4 -10t-10 -4h-145q-15 0 -25.5 10.5t-10.5 25.5v456h-324v-478q0 -6 -4 -10t-10 -4h-50q-6 0 -10 4z" />
    <glyph glyph-name="fl" unicode="fl" horiz-adv-x="775" 
d="M134 4q-4 4 -4 10v478h-76q-6 0 -10 4t-4 10v46q0 6 4 10t10 4h76v40q0 66 41 109.5t113 43.5h305q15 0 25.5 -10.5t10.5 -25.5v-649h106q6 0 10 -4t4 -10v-46q0 -6 -4 -10t-10 -4h-148q-15 0 -25.5 10.5t-10.5 25.5v650h-264q-34 0 -54.5 -21.5t-20.5 -56.5v-42h136
q6 0 10 -4t4 -10v-46q0 -6 -4 -10t-10 -4h-136v-478q0 -6 -4 -10t-10 -4h-50q-6 0 -10 4z" />
    <glyph glyph-name=".notdef" horiz-adv-x="476" 
d="M390 -193h-301v952h301v-952zM160 695v-31h62v-35h-63v-32h158v32h-63v35h63v31h-157zM159 572v-99h158v33h-63v66h-95zM222 506h-32v34h32v-34zM159 448v-32h63v-35h-63v-31h95v66h63v32h-158zM286 391v-63h-127v-33h158v96h-31zM222 274v-53h32v22h32v-45h-96v76h-31
v-107h158v107h-95zM159 110v-108h158v108h-158zM286 34h-96v44h96v-44zM159 -20v-31h67l-67 -45v-31h158v31h-97l67 45h30v31h-158z" />
    <glyph glyph-name="space" unicode=" " horiz-adv-x="270" 
 />
    <glyph glyph-name="A" unicode="A" horiz-adv-x="610" 
d="M37.5 6.5q-4.5 6.5 -1.5 15.5l217 660q2 6 7.5 9.5t11.5 3.5h66q6 0 11.5 -3.5t7.5 -9.5l217 -660q1 -2 1 -7q0 -6 -4.5 -10.5t-11.5 -4.5h-49q-6 0 -11.5 3.5t-7.5 9.5l-56 174h-260l-56 -174q-1 -6 -7 -9.5t-12 -3.5h-49q-9 0 -13.5 6.5zM412 260l-107 331l-107 -331
h214z" />
    <glyph glyph-name="Aacute" unicode="&#xc1;" horiz-adv-x="610" 
d="M37.5 6.5q-4.5 6.5 -1.5 15.5l217 660q2 6 7.5 9.5t11.5 3.5h66q6 0 11.5 -3.5t7.5 -9.5l217 -660q1 -2 1 -7q0 -6 -4.5 -10.5t-11.5 -4.5h-49q-6 0 -11.5 3.5t-7.5 9.5l-56 174h-260l-56 -174q-1 -6 -7 -9.5t-12 -3.5h-49q-9 0 -13.5 6.5zM412 260l-107 331l-107 -331
h214zM280 757.5q-3 5.5 0 13.5l37 90q8 19 28 19h67q6 0 10 -3.5t4 -9.5t-4 -10l-81 -93q-10 -12 -26 -12h-24q-8 0 -11 5.5z" />
    <glyph glyph-name="Abreve" unicode="&#x102;" horiz-adv-x="610" 
d="M37.5 6.5q-4.5 6.5 -1.5 15.5l217 660q2 6 7.5 9.5t11.5 3.5h66q6 0 11.5 -3.5t7.5 -9.5l217 -660q1 -2 1 -7q0 -6 -4.5 -10.5t-11.5 -4.5h-49q-6 0 -11.5 3.5t-7.5 9.5l-56 174h-260l-56 -174q-1 -6 -7 -9.5t-12 -3.5h-49q-9 0 -13.5 6.5zM412 260l-107 331l-107 -331
h214zM227 781.5q-34 18.5 -46 36.5q-4 8 -4 10q0 6 6 10l32 28q3 3 6 3q4 0 8 -4q1 -1 18 -14.5t61 -13.5q24 0 41 7t37 22q7 6 13 0l32 -29q5 -5 5 -10q0 -4 -3 -9q-6 -9 -23 -22t-44 -23t-59 -10q-46 0 -80 18.5z" />
    <glyph glyph-name="Acircumflex" unicode="&#xc2;" horiz-adv-x="610" 
d="M37.5 6.5q-4.5 6.5 -1.5 15.5l217 660q2 6 7.5 9.5t11.5 3.5h66q6 0 11.5 -3.5t7.5 -9.5l217 -660q1 -2 1 -7q0 -6 -4.5 -10.5t-11.5 -4.5h-49q-6 0 -11.5 3.5t-7.5 9.5l-56 174h-260l-56 -174q-1 -6 -7 -9.5t-12 -3.5h-49q-9 0 -13.5 6.5zM412 260l-107 331l-107 -331
h214zM172.5 758.5q-3.5 6.5 1.5 12.5l81 100q6 9 18 9h64q12 0 18 -9l81 -100q3 -3 3 -7q0 -5 -3.5 -8.5t-9.5 -3.5h-33q-12 0 -25 10l-63 49l-63 -49q-13 -10 -24 -10h-34q-8 0 -11.5 6.5z" />
    <glyph glyph-name="Adieresis" unicode="&#xc4;" horiz-adv-x="610" 
d="M37.5 6.5q-4.5 6.5 -1.5 15.5l217 660q2 6 7.5 9.5t11.5 3.5h66q6 0 11.5 -3.5t7.5 -9.5l217 -660q1 -2 1 -7q0 -6 -4.5 -10.5t-11.5 -4.5h-49q-6 0 -11.5 3.5t-7.5 9.5l-56 174h-260l-56 -174q-1 -6 -7 -9.5t-12 -3.5h-49q-9 0 -13.5 6.5zM412 260l-107 331l-107 -331
h214zM150 769q-4 4 -4 10v87q0 6 4 10t10 4h48q6 0 10 -4t4 -10v-87q0 -6 -4 -10t-10 -4h-48q-6 0 -10 4zM392 769q-4 4 -4 10v87q0 6 4 10t10 4h48q6 0 10 -4t4 -10v-87q0 -6 -4 -10t-10 -4h-48q-6 0 -10 4z" />
    <glyph glyph-name="Agrave" unicode="&#xc0;" horiz-adv-x="610" 
d="M37.5 6.5q-4.5 6.5 -1.5 15.5l217 660q2 6 7.5 9.5t11.5 3.5h66q6 0 11.5 -3.5t7.5 -9.5l217 -660q1 -2 1 -7q0 -6 -4.5 -10.5t-11.5 -4.5h-49q-6 0 -11.5 3.5t-7.5 9.5l-56 174h-260l-56 -174q-1 -6 -7 -9.5t-12 -3.5h-49q-9 0 -13.5 6.5zM412 260l-107 331l-107 -331
h214zM278 764l-81 93q-4 4 -4 10t3.5 9.5t10.5 3.5h67q20 0 28 -19l37 -90q2 -6 2 -7q0 -5 -3.5 -8.5t-9.5 -3.5h-24q-16 0 -26 12z" />
    <glyph glyph-name="Amacron" unicode="&#x100;" horiz-adv-x="610" 
d="M37.5 6.5q-4.5 6.5 -1.5 15.5l217 660q2 6 7.5 9.5t11.5 3.5h66q6 0 11.5 -3.5t7.5 -9.5l217 -660q1 -2 1 -7q0 -6 -4.5 -10.5t-11.5 -4.5h-49q-6 0 -11.5 3.5t-7.5 9.5l-56 174h-260l-56 -174q-1 -6 -7 -9.5t-12 -3.5h-49q-9 0 -13.5 6.5zM412 260l-107 331l-107 -331
h214zM164 787.5q-4 3.5 -4 9.5v37q0 6 4 9.5t10 3.5h260q6 0 10 -3.5t4 -9.5v-37q0 -6 -4 -9.5t-10 -3.5h-260q-6 0 -10 3.5z" />
    <glyph glyph-name="Aogonek" unicode="&#x104;" horiz-adv-x="614" 
d="M454.5 -173.5q-31.5 23.5 -31.5 61.5q0 33 20.5 64t49.5 55l-58 180h-260l-56 -174q-1 -6 -7 -9.5t-12 -3.5h-49q-9 0 -13.5 6.5t-1.5 15.5l217 660q2 6 7.5 9.5t11.5 3.5h66q6 0 11.5 -3.5t7.5 -9.5l211 -639q2 -8 2 -12q0 -15 -12 -27q-31 -33 -43.5 -54t-12.5 -40
q0 -37 42 -37h27q6 0 10.5 -4.5t4.5 -10.5v-40q0 -6 -4.5 -10.5t-10.5 -4.5h-40q-45 0 -76.5 23.5zM411 260l-106 331l-107 -331h213z" />
    <glyph glyph-name="Aring" unicode="&#xc5;" horiz-adv-x="610" 
d="M247 763q-24 24 -24 58t24 58t58 24t58 -24t24 -58t-24 -58t-58 -24t-58 24zM325.5 800.5q8.5 8.5 8.5 20.5t-8.5 20.5t-20.5 8.5t-20.5 -8.5t-8.5 -20.5t8.5 -20.5t20.5 -8.5t20.5 8.5zM37.5 6.5q-4.5 6.5 -1.5 15.5l217 660q2 6 7.5 9.5t11.5 3.5h66q6 0 11.5 -3.5
t7.5 -9.5l217 -660q1 -2 1 -7q0 -6 -4.5 -10.5t-11.5 -4.5h-49q-6 0 -11.5 3.5t-7.5 9.5l-56 174h-260l-56 -174q-1 -6 -7 -9.5t-12 -3.5h-49q-9 0 -13.5 6.5zM412 260l-107 331l-107 -331h214z" />
    <glyph glyph-name="Atilde" unicode="&#xc3;" horiz-adv-x="610" 
d="M37.5 6.5q-4.5 6.5 -1.5 15.5l217 660q2 6 7.5 9.5t11.5 3.5h66q6 0 11.5 -3.5t7.5 -9.5l217 -660q1 -2 1 -7q0 -6 -4.5 -10.5t-11.5 -4.5h-49q-6 0 -11.5 3.5t-7.5 9.5l-56 174h-260l-56 -174q-1 -6 -7 -9.5t-12 -3.5h-49q-9 0 -13.5 6.5zM412 260l-107 331l-107 -331
h214zM336.5 769q-17.5 5 -41.5 14q-40 14 -52 14q-13 0 -20.5 -4t-13.5 -13q-3 -5 -5.5 -5.5t-8.5 0.5l-28 9q-9 3 -8 13q8 31 34.5 50.5t60.5 19.5q17 0 34 -5t43 -14q37 -15 52 -15q22 0 33 17q4 5 7 6t9 -1l27 -8q11 -4 8 -13q-7 -31 -34 -50.5t-62 -19.5q-17 0 -34.5 5z
" />
    <glyph glyph-name="AE" unicode="&#xc6;" horiz-adv-x="871" 
d="M4 3.5q-4 3.5 -4 8.5t4 10l427 660q8 13 23 13h348q6 0 10 -4t4 -10v-49q0 -6 -4 -10t-10 -4h-283v-214h216q6 0 10 -4t4 -10v-47q0 -6 -4 -10t-10 -4h-216v-252h283q6 0 10 -4t4 -10v-49q0 -6 -4 -10t-10 -4h-329q-15 0 -25.5 10.5t-10.5 25.5v151h-232l-110 -174
q-8 -13 -24 -13h-57q-6 0 -10 3.5zM437 260v292l-185 -292h185z" />
    <glyph glyph-name="B" unicode="B" horiz-adv-x="567" 
d="M100.5 10.5q-10.5 10.5 -10.5 25.5v623q0 15 10.5 25.5t25.5 10.5h173q51 0 93 -22.5t65.5 -63t23.5 -90.5q0 -42 -17.5 -78t-50.5 -62q53 -22 83.5 -69t30.5 -106q0 -57 -27 -103.5t-73.5 -73.5t-102.5 -27h-198q-15 0 -25.5 10.5zM286 398q47 0 80.5 34.5t33.5 81.5
q0 45 -31 76t-78 31h-121v-223h116zM319 75q54 0 89.5 36t35.5 89t-35.5 88t-89.5 35h-149v-248h149z" />
    <glyph glyph-name="C" unicode="C" horiz-adv-x="546" 
d="M189 20q-55 33 -87 89t-32 122v234q0 66 32 122t87 89t120 33q53 0 99 -18.5t81 -53.5q5 -4 5 -12q0 -7 -5 -13q-21 -24 -27 -30q-7 -5 -14 -5q-8 0 -15 7q-50 48 -123 48q-43 0 -79 -23t-57 -61.5t-21 -82.5v-234q0 -44 21 -82.5t57 -61.5t79 -23q73 0 123 48q7 7 15 7
q7 0 14 -5q6 -6 27 -30q5 -5 5 -13q0 -7 -5 -12q-35 -35 -81 -53.5t-99 -18.5q-65 0 -120 33z" />
    <glyph glyph-name="Cacute" unicode="&#x106;" horiz-adv-x="546" 
d="M189 20q-55 33 -87 89t-32 122v234q0 66 32 122t87 89t120 33q53 0 99 -18.5t81 -53.5q5 -4 5 -12q0 -7 -5 -13q-21 -24 -27 -30q-7 -5 -14 -5q-8 0 -15 7q-50 48 -123 48q-43 0 -79 -23t-57 -61.5t-21 -82.5v-234q0 -44 21 -82.5t57 -61.5t79 -23q73 0 123 48q7 7 15 7
q7 0 14 -5q6 -6 27 -30q5 -5 5 -13q0 -7 -5 -12q-35 -35 -81 -53.5t-99 -18.5q-65 0 -120 33zM284 757.5q-3 5.5 0 13.5l37 90q8 19 28 19h67q6 0 10 -3.5t4 -9.5t-4 -10l-81 -93q-10 -12 -26 -12h-24q-8 0 -11 5.5z" />
    <glyph glyph-name="Ccaron" unicode="&#x10c;" horiz-adv-x="546" 
d="M189 20q-55 33 -87 89t-32 122v234q0 66 32 122t87 89t120 33q53 0 99 -18.5t81 -53.5q5 -4 5 -12q0 -7 -5 -13q-21 -24 -27 -30q-7 -5 -14 -5q-8 0 -15 7q-50 48 -123 48q-43 0 -79 -23t-57 -61.5t-21 -82.5v-234q0 -44 21 -82.5t57 -61.5t79 -23q73 0 123 48q7 7 15 7
q7 0 14 -5q6 -6 27 -30q5 -5 5 -13q0 -7 -5 -12q-35 -35 -81 -53.5t-99 -18.5q-65 0 -120 33zM263 761l-81 100q-3 3 -3 7q0 5 3.5 8.5t9.5 3.5h33q12 0 25 -10l63 -49l63 49q13 10 24 10h34q8 0 11.5 -6.5t-1.5 -12.5l-81 -100q-6 -9 -18 -9h-64q-12 0 -18 9z" />
    <glyph glyph-name="Ccedilla" unicode="&#xc7;" horiz-adv-x="546" 
d="M189 20q-55 33 -87 89t-32 122v234q0 66 32 122t87 89t120 33q53 0 99 -18.5t81 -53.5q5 -4 5 -12q0 -7 -5 -13q-21 -24 -27 -30q-7 -5 -14 -5q-8 0 -15 7q-50 48 -123 48q-43 0 -79 -23t-57 -61.5t-21 -82.5v-234q0 -44 21 -82.5t57 -61.5t79 -23q73 0 123 48q7 7 15 7
q7 0 14 -5q6 -6 27 -30q5 -5 5 -13q0 -7 -5 -12q-35 -35 -81 -53.5t-99 -18.5q-65 0 -120 33zM257 -209q-11 0 -16 10l-14 35q-1 2 -1 5q0 7 9 11q33 13 33 50v19q0 6 3.5 10t9.5 4h52q7 0 12 -5t5 -13v-11q0 -48 -28 -76.5t-61 -38.5h-4z" />
    <glyph glyph-name="Cdotaccent" unicode="&#x10a;" horiz-adv-x="546" 
d="M189 20q-55 33 -87 89t-32 122v234q0 66 32 122t87 89t120 33q53 0 99 -18.5t81 -53.5q5 -4 5 -12q0 -7 -5 -13q-21 -24 -27 -30q-7 -5 -14 -5q-8 0 -15 7q-50 48 -123 48q-43 0 -79 -23t-57 -61.5t-21 -82.5v-234q0 -44 21 -82.5t57 -61.5t79 -23q73 0 123 48q7 7 15 7
q7 0 14 -5q6 -6 27 -30q5 -5 5 -13q0 -7 -5 -12q-35 -35 -81 -53.5t-99 -18.5q-65 0 -120 33zM275 769q-4 4 -4 10v87q0 6 4 10t10 4h48q6 0 10 -4t4 -10v-87q0 -6 -4 -10t-10 -4h-48q-6 0 -10 4z" />
    <glyph glyph-name="D" unicode="D" horiz-adv-x="630" 
d="M100.5 10.5q-10.5 10.5 -10.5 25.5v623q0 15 10.5 25.5t25.5 10.5h178q71 0 131 -35.5t95 -96t35 -132.5v-167q0 -72 -35 -132.5t-95 -96t-131 -35.5h-178q-15 0 -25.5 10.5zM304 77q49 0 90 24t65 65.5t24 90.5v182q0 49 -24 90t-65 65t-90 24h-132v-541h132z" />
    <glyph glyph-name="Eth" unicode="&#xd0;" horiz-adv-x="630" 
d="M435 659.5q60 -35.5 95 -96t35 -132.5v-167q0 -72 -35 -132.5t-95 -96t-131 -35.5h-178q-15 0 -25.5 10.5t-10.5 25.5v278h-63q-6 0 -10 4t-4 10v41q0 6 4 10t10 4h63v276q0 15 10.5 25.5t25.5 10.5h178q71 0 131 -35.5zM483 439q0 49 -24 90t-65 65t-90 24h-132v-235
h137q6 0 10 -4t4 -10v-41q0 -6 -4 -10t-10 -4h-137v-237h132q49 0 90 24t65 65.5t24 90.5v182z" />
    <glyph glyph-name="Dcaron" unicode="&#x10e;" horiz-adv-x="630" 
d="M100.5 10.5q-10.5 10.5 -10.5 25.5v623q0 15 10.5 25.5t25.5 10.5h178q71 0 131 -35.5t95 -96t35 -132.5v-167q0 -72 -35 -132.5t-95 -96t-131 -35.5h-178q-15 0 -25.5 10.5zM304 77q49 0 90 24t65 65.5t24 90.5v182q0 49 -24 90t-65 65t-90 24h-132v-541h132zM228 761
l-81 100q-3 3 -3 7q0 5 3.5 8.5t9.5 3.5h33q12 0 25 -10l63 -49l63 49q13 10 24 10h34q8 0 11.5 -6.5t-1.5 -12.5l-81 -100q-6 -9 -18 -9h-64q-12 0 -18 9z" />
    <glyph glyph-name="Dcroat" unicode="&#x110;" horiz-adv-x="630" 
d="M435 659.5q60 -35.5 95 -96t35 -132.5v-167q0 -72 -35 -132.5t-95 -96t-131 -35.5h-178q-15 0 -25.5 10.5t-10.5 25.5v278h-63q-6 0 -10 4t-4 10v41q0 6 4 10t10 4h63v276q0 15 10.5 25.5t25.5 10.5h178q71 0 131 -35.5zM483 439q0 49 -24 90t-65 65t-90 24h-132v-235
h137q6 0 10 -4t4 -10v-41q0 -6 -4 -10t-10 -4h-137v-237h132q49 0 90 24t65 65.5t24 90.5v182z" />
    <glyph glyph-name="E" unicode="E" horiz-adv-x="524" 
d="M100.5 10.5q-10.5 10.5 -10.5 25.5v623q0 15 10.5 25.5t25.5 10.5h329q6 0 10 -4t4 -10v-49q0 -6 -4 -10t-10 -4h-283v-214h216q6 0 10 -4t4 -10v-47q0 -6 -4 -10t-10 -4h-216v-252h283q6 0 10 -4t4 -10v-49q0 -6 -4 -10t-10 -4h-329q-15 0 -25.5 10.5z" />
    <glyph glyph-name="Eacute" unicode="&#xc9;" horiz-adv-x="524" 
d="M100.5 10.5q-10.5 10.5 -10.5 25.5v623q0 15 10.5 25.5t25.5 10.5h329q6 0 10 -4t4 -10v-49q0 -6 -4 -10t-10 -4h-283v-214h216q6 0 10 -4t4 -10v-47q0 -6 -4 -10t-10 -4h-216v-252h283q6 0 10 -4t4 -10v-49q0 -6 -4 -10t-10 -4h-329q-15 0 -25.5 10.5zM255 757.5
q-3 5.5 0 13.5l37 90q8 19 28 19h67q6 0 10 -3.5t4 -9.5t-4 -10l-81 -93q-10 -12 -26 -12h-24q-8 0 -11 5.5z" />
    <glyph glyph-name="Ecaron" unicode="&#x11a;" horiz-adv-x="524" 
d="M100.5 10.5q-10.5 10.5 -10.5 25.5v623q0 15 10.5 25.5t25.5 10.5h329q6 0 10 -4t4 -10v-49q0 -6 -4 -10t-10 -4h-283v-214h216q6 0 10 -4t4 -10v-47q0 -6 -4 -10t-10 -4h-216v-252h283q6 0 10 -4t4 -10v-49q0 -6 -4 -10t-10 -4h-329q-15 0 -25.5 10.5zM234 761l-81 100
q-3 3 -3 7q0 5 3.5 8.5t9.5 3.5h33q12 0 25 -10l63 -49l63 49q13 10 24 10h34q8 0 11.5 -6.5t-1.5 -12.5l-81 -100q-6 -9 -18 -9h-64q-12 0 -18 9z" />
    <glyph glyph-name="Ecircumflex" unicode="&#xca;" horiz-adv-x="524" 
d="M100.5 10.5q-10.5 10.5 -10.5 25.5v623q0 15 10.5 25.5t25.5 10.5h329q6 0 10 -4t4 -10v-49q0 -6 -4 -10t-10 -4h-283v-214h216q6 0 10 -4t4 -10v-47q0 -6 -4 -10t-10 -4h-216v-252h283q6 0 10 -4t4 -10v-49q0 -6 -4 -10t-10 -4h-329q-15 0 -25.5 10.5zM147.5 758.5
q-3.5 6.5 1.5 12.5l81 100q6 9 18 9h64q12 0 18 -9l81 -100q3 -3 3 -7q0 -5 -3.5 -8.5t-9.5 -3.5h-33q-12 0 -25 10l-63 49l-63 -49q-13 -10 -24 -10h-34q-8 0 -11.5 6.5z" />
    <glyph glyph-name="Edieresis" unicode="&#xcb;" horiz-adv-x="524" 
d="M100.5 10.5q-10.5 10.5 -10.5 25.5v623q0 15 10.5 25.5t25.5 10.5h329q6 0 10 -4t4 -10v-49q0 -6 -4 -10t-10 -4h-283v-214h216q6 0 10 -4t4 -10v-47q0 -6 -4 -10t-10 -4h-216v-252h283q6 0 10 -4t4 -10v-49q0 -6 -4 -10t-10 -4h-329q-15 0 -25.5 10.5zM125 769
q-4 4 -4 10v87q0 6 4 10t10 4h48q6 0 10 -4t4 -10v-87q0 -6 -4 -10t-10 -4h-48q-6 0 -10 4zM367 769q-4 4 -4 10v87q0 6 4 10t10 4h48q6 0 10 -4t4 -10v-87q0 -6 -4 -10t-10 -4h-48q-6 0 -10 4z" />
    <glyph glyph-name="Edotaccent" unicode="&#x116;" horiz-adv-x="524" 
d="M100.5 10.5q-10.5 10.5 -10.5 25.5v623q0 15 10.5 25.5t25.5 10.5h329q6 0 10 -4t4 -10v-49q0 -6 -4 -10t-10 -4h-283v-214h216q6 0 10 -4t4 -10v-47q0 -6 -4 -10t-10 -4h-216v-252h283q6 0 10 -4t4 -10v-49q0 -6 -4 -10t-10 -4h-329q-15 0 -25.5 10.5zM246 769
q-4 4 -4 10v87q0 6 4 10t10 4h48q6 0 10 -4t4 -10v-87q0 -6 -4 -10t-10 -4h-48q-6 0 -10 4z" />
    <glyph glyph-name="Egrave" unicode="&#xc8;" horiz-adv-x="524" 
d="M100.5 10.5q-10.5 10.5 -10.5 25.5v623q0 15 10.5 25.5t25.5 10.5h329q6 0 10 -4t4 -10v-49q0 -6 -4 -10t-10 -4h-283v-214h216q6 0 10 -4t4 -10v-47q0 -6 -4 -10t-10 -4h-216v-252h283q6 0 10 -4t4 -10v-49q0 -6 -4 -10t-10 -4h-329q-15 0 -25.5 10.5zM253 764l-81 93
q-4 4 -4 10t3.5 9.5t10.5 3.5h67q20 0 28 -19l37 -90q2 -6 2 -7q0 -5 -3.5 -8.5t-9.5 -3.5h-24q-16 0 -26 12z" />
    <glyph glyph-name="Emacron" unicode="&#x112;" horiz-adv-x="524" 
d="M100.5 10.5q-10.5 10.5 -10.5 25.5v623q0 15 10.5 25.5t25.5 10.5h329q6 0 10 -4t4 -10v-49q0 -6 -4 -10t-10 -4h-283v-214h216q6 0 10 -4t4 -10v-47q0 -6 -4 -10t-10 -4h-216v-252h283q6 0 10 -4t4 -10v-49q0 -6 -4 -10t-10 -4h-329q-15 0 -25.5 10.5zM139 787.5
q-4 3.5 -4 9.5v37q0 6 4 9.5t10 3.5h260q6 0 10 -3.5t4 -9.5v-37q0 -6 -4 -9.5t-10 -3.5h-260q-6 0 -10 3.5z" />
    <glyph glyph-name="Eogonek" unicode="&#x118;" horiz-adv-x="532" 
d="M352.5 -173.5q-31.5 23.5 -31.5 61.5q0 31 19.5 59.5t47.5 52.5h-262q-15 0 -25.5 10.5t-10.5 25.5v623q0 15 10.5 25.5t25.5 10.5h329q6 0 10 -4t4 -10v-49q0 -6 -4 -10t-10 -4h-283v-214h216q6 0 10 -4t4 -10v-47q0 -6 -4 -10t-10 -4h-216v-252h283q6 0 10 -4t4 -10
v-35q0 -15 -13 -28q-29 -30 -42.5 -49t-13.5 -41q0 -37 42 -37h20q6 0 10.5 -4.5t4.5 -10.5v-40q0 -6 -4.5 -10.5t-10.5 -4.5h-33q-45 0 -76.5 23.5z" />
    <glyph glyph-name="F" unicode="F" horiz-adv-x="509" 
d="M94 4q-4 4 -4 10v645q0 15 10.5 25.5t25.5 10.5h329q6 0 10 -4t4 -10v-49q0 -6 -4 -10t-10 -4h-283v-234h216q6 0 10 -4t4 -10v-47q0 -6 -4 -10t-10 -4h-216v-295q0 -6 -4 -10t-10 -4h-54q-6 0 -10 4z" />
    <glyph glyph-name="G" unicode="G" horiz-adv-x="617" 
d="M192 21q-56 33 -89 89t-33 122v233q0 66 33 122t89 89t122 33q55 0 103 -19t83 -54q5 -4 5 -12q0 -7 -5 -13q-7 -8 -28 -29q-7 -5 -14 -5q-8 0 -15 7q-51 48 -128 48q-44 0 -81.5 -23t-59.5 -61.5t-22 -82.5v-233q0 -44 22 -82.5t59.5 -61.5t81.5 -23t81 22t59 59.5
t22 81.5v79h-141q-6 0 -10 4t-4 10v46q0 6 4 10t10 4h185q15 0 25.5 -10.5t10.5 -25.5v-113q0 -66 -32.5 -122t-88.5 -89t-122 -33t-122 33z" />
    <glyph glyph-name="Gbreve" unicode="&#x11e;" horiz-adv-x="617" 
d="M192 21q-56 33 -89 89t-33 122v233q0 66 33 122t89 89t122 33q55 0 103 -19t83 -54q5 -4 5 -12q0 -7 -5 -13q-7 -8 -28 -29q-7 -5 -14 -5q-8 0 -15 7q-51 48 -128 48q-44 0 -81.5 -23t-59.5 -61.5t-22 -82.5v-233q0 -44 22 -82.5t59.5 -61.5t81.5 -23t81 22t59 59.5
t22 81.5v79h-141q-6 0 -10 4t-4 10v46q0 6 4 10t10 4h185q15 0 25.5 -10.5t10.5 -25.5v-113q0 -66 -32.5 -122t-88.5 -89t-122 -33t-122 33zM236 781.5q-34 18.5 -46 36.5q-4 8 -4 10q0 6 6 10l32 28q3 3 6 3q4 0 8 -4q1 -1 18 -14.5t61 -13.5q24 0 41 7t37 22q7 6 13 0
l32 -29q5 -5 5 -10q0 -4 -3 -9q-6 -9 -23 -22t-44 -23t-59 -10q-46 0 -80 18.5z" />
    <glyph glyph-name="Gcommaaccent" unicode="&#x122;" horiz-adv-x="617" 
d="M192 21q-56 33 -89 89t-33 122v233q0 66 33 122t89 89t122 33q55 0 103 -19t83 -54q5 -4 5 -12q0 -7 -5 -13q-7 -8 -28 -29q-7 -5 -14 -5q-8 0 -15 7q-51 48 -128 48q-44 0 -81.5 -23t-59.5 -61.5t-22 -82.5v-233q0 -44 22 -82.5t59.5 -61.5t81.5 -23t81 22t59 59.5
t22 81.5v79h-141q-6 0 -10 4t-4 10v46q0 6 4 10t10 4h185q15 0 25.5 -10.5t10.5 -25.5v-113q0 -66 -32.5 -122t-88.5 -89t-122 -33t-122 33zM213 -187.5q-3 5.5 0 13.5l37 90q8 19 28 19h67q6 0 10 -4t4 -9q0 -6 -4 -10l-81 -93q-10 -12 -26 -12h-24q-8 0 -11 5.5z" />
    <glyph glyph-name="Gdotaccent" unicode="&#x120;" horiz-adv-x="617" 
d="M192 21q-56 33 -89 89t-33 122v233q0 66 33 122t89 89t122 33q55 0 103 -19t83 -54q5 -4 5 -12q0 -7 -5 -13q-7 -8 -28 -29q-7 -5 -14 -5q-8 0 -15 7q-51 48 -128 48q-44 0 -81.5 -23t-59.5 -61.5t-22 -82.5v-233q0 -44 22 -82.5t59.5 -61.5t81.5 -23t81 22t59 59.5
t22 81.5v79h-141q-6 0 -10 4t-4 10v46q0 6 4 10t10 4h185q15 0 25.5 -10.5t10.5 -25.5v-113q0 -66 -32.5 -122t-88.5 -89t-122 -33t-122 33zM280 769q-4 4 -4 10v87q0 6 4 10t10 4h48q6 0 10 -4t4 -10v-87q0 -6 -4 -10t-10 -4h-48q-6 0 -10 4z" />
    <glyph glyph-name="H" unicode="H" horiz-adv-x="680" 
d="M94 4q-4 4 -4 10v667q0 6 4 10t10 4h54q6 0 10 -4t4 -10v-277h336v277q0 6 4 10t10 4h54q6 0 10 -4t4 -10v-667q0 -6 -4 -10t-10 -4h-54q-6 0 -10 4t-4 10v315h-336v-315q0 -6 -4 -10t-10 -4h-54q-6 0 -10 4z" />
    <glyph glyph-name="Hbar" unicode="&#x126;" horiz-adv-x="680" 
d="M586 691q4 -4 4 -10v-667q0 -6 -4 -10t-10 -4h-54q-6 0 -10 4t-4 10v315h-336v-315q0 -6 -4 -10t-10 -4h-54q-6 0 -10 4t-4 10v667q0 6 4 10t10 4h54q6 0 10 -4t4 -10v-115h336v115q0 6 4 10t10 4h54q6 0 10 -4zM508 404v93h-336v-93h336z" />
    <glyph glyph-name="I" unicode="I" horiz-adv-x="442" 
d="M69 4q-4 4 -4 10v47q0 6 4 10t10 4h101v545h-101q-6 0 -10 4t-4 10v47q0 6 4 10t10 4h284q6 0 10 -4t4 -10v-47q0 -6 -4 -10t-10 -4h-101v-545h101q6 0 10 -4t4 -10v-47q0 -6 -4 -10t-10 -4h-284q-6 0 -10 4z" />
    <glyph glyph-name="Iacute" unicode="&#xcd;" horiz-adv-x="442" 
d="M69 4q-4 4 -4 10v47q0 6 4 10t10 4h101v545h-101q-6 0 -10 4t-4 10v47q0 6 4 10t10 4h284q6 0 10 -4t4 -10v-47q0 -6 -4 -10t-10 -4h-101v-545h101q6 0 10 -4t4 -10v-47q0 -6 -4 -10t-10 -4h-284q-6 0 -10 4zM196 757.5q-3 5.5 0 13.5l37 90q8 19 28 19h67q6 0 10 -3.5
t4 -9.5t-4 -10l-81 -93q-10 -12 -26 -12h-24q-8 0 -11 5.5z" />
    <glyph glyph-name="Icircumflex" unicode="&#xce;" horiz-adv-x="442" 
d="M69 4q-4 4 -4 10v47q0 6 4 10t10 4h101v545h-101q-6 0 -10 4t-4 10v47q0 6 4 10t10 4h284q6 0 10 -4t4 -10v-47q0 -6 -4 -10t-10 -4h-101v-545h101q6 0 10 -4t4 -10v-47q0 -6 -4 -10t-10 -4h-284q-6 0 -10 4zM88.5 758.5q-3.5 6.5 1.5 12.5l81 100q6 9 18 9h64
q12 0 18 -9l81 -100q3 -3 3 -7q0 -5 -3.5 -8.5t-9.5 -3.5h-33q-12 0 -25 10l-63 49l-63 -49q-13 -10 -24 -10h-34q-8 0 -11.5 6.5z" />
    <glyph glyph-name="Idieresis" unicode="&#xcf;" horiz-adv-x="442" 
d="M69 4q-4 4 -4 10v47q0 6 4 10t10 4h101v545h-101q-6 0 -10 4t-4 10v47q0 6 4 10t10 4h284q6 0 10 -4t4 -10v-47q0 -6 -4 -10t-10 -4h-101v-545h101q6 0 10 -4t4 -10v-47q0 -6 -4 -10t-10 -4h-284q-6 0 -10 4zM66 769q-4 4 -4 10v87q0 6 4 10t10 4h48q6 0 10 -4t4 -10v-87
q0 -6 -4 -10t-10 -4h-48q-6 0 -10 4zM308 769q-4 4 -4 10v87q0 6 4 10t10 4h48q6 0 10 -4t4 -10v-87q0 -6 -4 -10t-10 -4h-48q-6 0 -10 4z" />
    <glyph glyph-name="Idotaccent" unicode="&#x130;" horiz-adv-x="442" 
d="M69 4q-4 4 -4 10v47q0 6 4 10t10 4h101v545h-101q-6 0 -10 4t-4 10v47q0 6 4 10t10 4h284q6 0 10 -4t4 -10v-47q0 -6 -4 -10t-10 -4h-101v-545h101q6 0 10 -4t4 -10v-47q0 -6 -4 -10t-10 -4h-284q-6 0 -10 4zM187 769q-4 4 -4 10v87q0 6 4 10t10 4h48q6 0 10 -4t4 -10
v-87q0 -6 -4 -10t-10 -4h-48q-6 0 -10 4z" />
    <glyph glyph-name="Igrave" unicode="&#xcc;" horiz-adv-x="442" 
d="M69 4q-4 4 -4 10v47q0 6 4 10t10 4h101v545h-101q-6 0 -10 4t-4 10v47q0 6 4 10t10 4h284q6 0 10 -4t4 -10v-47q0 -6 -4 -10t-10 -4h-101v-545h101q6 0 10 -4t4 -10v-47q0 -6 -4 -10t-10 -4h-284q-6 0 -10 4zM194 764l-81 93q-4 4 -4 10t3.5 9.5t10.5 3.5h67q20 0 28 -19
l37 -90q2 -6 2 -7q0 -5 -3.5 -8.5t-9.5 -3.5h-24q-16 0 -26 12z" />
    <glyph glyph-name="Imacron" unicode="&#x12a;" horiz-adv-x="442" 
d="M69 4q-4 4 -4 10v47q0 6 4 10t10 4h101v545h-101q-6 0 -10 4t-4 10v47q0 6 4 10t10 4h284q6 0 10 -4t4 -10v-47q0 -6 -4 -10t-10 -4h-101v-545h101q6 0 10 -4t4 -10v-47q0 -6 -4 -10t-10 -4h-284q-6 0 -10 4zM80 787.5q-4 3.5 -4 9.5v37q0 6 4 9.5t10 3.5h260
q6 0 10 -3.5t4 -9.5v-37q0 -6 -4 -9.5t-10 -3.5h-260q-6 0 -10 3.5z" />
    <glyph glyph-name="Iogonek" unicode="&#x12e;" horiz-adv-x="437" 
d="M260.5 -173.5q-31.5 23.5 -31.5 61.5q0 31 19.5 59.5t47.5 52.5h-217q-6 0 -10 4t-4 10v49q0 6 4 10t10 4h101v541h-101q-6 0 -10 4t-4 10v49q0 6 4 10t10 4h284q6 0 10 -4t4 -10v-49q0 -6 -4 -10t-10 -4h-101v-541h101q6 0 10 -4t4 -10v-35q0 -15 -13 -28
q-29 -30 -42.5 -49t-13.5 -41q0 -37 42 -37h17q6 0 10.5 -4.5t4.5 -10.5v-40q0 -6 -4.5 -10.5t-10.5 -4.5h-30q-45 0 -76.5 23.5z" />
    <glyph glyph-name="J" unicode="J" horiz-adv-x="359" 
d="M34 4q-4 4 -4 11v46q0 7 4 11t11 4h59q35 0 56.5 22t21.5 59v524q0 6 4 10t10 4h54q6 0 10 -4t4 -10v-525q0 -42 -18 -78t-52 -57t-80 -21h-69q-7 0 -11 4z" />
    <glyph glyph-name="K" unicode="K" horiz-adv-x="563" 
d="M94.5 3.5q-4.5 3.5 -4.5 9.5v668q0 6 4 10t10 4h54q6 0 10 -4t4 -10v-298h29l242 303q8 9 18 9h63q7 0 10.5 -3.5t3.5 -9.5t-4 -10l-259 -321l258 -326q4 -4 4 -10q0 -7 -4.5 -11t-10.5 -4h-63q-9 0 -17 9l-237 299h-33v-295q0 -6 -4.5 -9.5t-10.5 -3.5h-52
q-6 0 -10.5 3.5z" />
    <glyph glyph-name="Kcommaaccent" unicode="&#x136;" horiz-adv-x="563" 
d="M94.5 3.5q-4.5 3.5 -4.5 9.5v668q0 6 4 10t10 4h54q6 0 10 -4t4 -10v-298h29l242 303q8 9 18 9h63q7 0 10.5 -3.5t3.5 -9.5t-4 -10l-259 -321l258 -326q4 -4 4 -10q0 -7 -4.5 -11t-10.5 -4h-63q-9 0 -17 9l-237 299h-33v-295q0 -6 -4.5 -9.5t-10.5 -3.5h-52
q-6 0 -10.5 3.5zM215 -187.5q-3 5.5 0 13.5l37 90q8 19 28 19h67q6 0 10 -4t4 -9q0 -6 -4 -10l-81 -93q-10 -12 -26 -12h-24q-8 0 -11 5.5z" />
    <glyph glyph-name="L" unicode="L" horiz-adv-x="474" 
d="M100.5 10.5q-10.5 10.5 -10.5 25.5v645q0 6 4 10t10 4h54q6 0 10 -4t4 -10v-604h253q6 0 10 -4t4 -10v-49q0 -6 -4 -10t-10 -4h-299q-15 0 -25.5 10.5z" />
    <glyph glyph-name="Lacute" unicode="&#x139;" horiz-adv-x="474" 
d="M100.5 10.5q-10.5 10.5 -10.5 25.5v645q0 6 4 10t10 4h54q6 0 10 -4t4 -10v-604h253q6 0 10 -4t4 -10v-49q0 -6 -4 -10t-10 -4h-299q-15 0 -25.5 10.5zM105 757.5q-3 5.5 0 13.5l37 90q8 19 28 19h67q6 0 10 -3.5t4 -9.5t-4 -10l-81 -93q-10 -12 -26 -12h-24
q-8 0 -11 5.5z" />
    <glyph glyph-name="Lcaron" unicode="&#x13d;" horiz-adv-x="474" 
d="M100.5 10.5q-10.5 10.5 -10.5 25.5v645q0 6 4 10t10 4h54q6 0 10 -4t4 -10v-604h253q6 0 10 -4t4 -10v-49q0 -6 -4 -10t-10 -4h-299q-15 0 -25.5 10.5zM311 572.5q-3 5.5 0 13.5l37 90q8 19 28 19h67q7 0 10.5 -3.5t3.5 -9.5t-4 -10l-81 -93q-10 -12 -26 -12h-24
q-8 0 -11 5.5z" />
    <glyph glyph-name="Lcommaaccent" unicode="&#x13b;" horiz-adv-x="474" 
d="M100.5 10.5q-10.5 10.5 -10.5 25.5v645q0 6 4 10t10 4h54q6 0 10 -4t4 -10v-604h253q6 0 10 -4t4 -10v-49q0 -6 -4 -10t-10 -4h-299q-15 0 -25.5 10.5zM171 -187.5q-3 5.5 0 13.5l37 90q8 19 28 19h67q6 0 10 -4t4 -9q0 -6 -4 -10l-81 -93q-10 -12 -26 -12h-24
q-8 0 -11 5.5z" />
    <glyph glyph-name="Lslash" unicode="&#x141;" horiz-adv-x="489" 
d="M450 73q4 -4 4 -10v-49q0 -6 -4 -10t-10 -4h-299q-15 0 -25.5 10.5t-10.5 25.5v214l-62 -55q-6 -4 -10 -4q-5 0 -9 4t-4 11v51q0 7 6 13l79 70v341q0 6 4 10t10 4h54q6 0 10 -4t4 -10v-269l128 113q6 4 10 4q5 0 9 -4t4 -11v-50q0 -7 -6 -13l-145 -128v-246h253
q6 0 10 -4z" />
    <glyph glyph-name="M" unicode="M" horiz-adv-x="901" 
d="M413.5 -9.5q-5.5 3.5 -7.5 9.5l-192 556l-66 -539q-1 -8 -6.5 -12.5t-13.5 -4.5h-47q-8 0 -12.5 5.5t-3.5 12.5l87 666q1 5 4.5 8t7.5 3h70q6 0 12 -3.5t7 -9.5l197 -571l199 575q3 9 12 9h69q8 0 13.5 -4.5t6.5 -12.5l86 -660v-2q0 -6 -4.5 -11t-11.5 -5h-48
q-8 0 -13.5 4.5t-6.5 12.5l-66 537l-192 -554q-2 -6 -7.5 -9.5t-11.5 -3.5h-50q-6 0 -11.5 3.5z" />
    <glyph glyph-name="N" unicode="N" horiz-adv-x="680" 
d="M94 4q-4 4 -4 10v660q0 9 6 15t15 6h59q8 0 15 -3.5t11 -10.5l316 -552v552q0 6 4 10t10 4h50q6 0 10 -4t4 -10v-660q0 -9 -6 -15t-15 -6h-60q-8 0 -15 3.5t-11 10.5l-315 551v-551q0 -6 -4 -10t-10 -4h-50q-6 0 -10 4z" />
    <glyph glyph-name="Nacute" unicode="&#x143;" horiz-adv-x="680" 
d="M94 4q-4 4 -4 10v660q0 9 6 15t15 6h59q8 0 15 -3.5t11 -10.5l316 -552v552q0 6 4 10t10 4h50q6 0 10 -4t4 -10v-660q0 -9 -6 -15t-15 -6h-60q-8 0 -15 3.5t-11 10.5l-315 551v-551q0 -6 -4 -10t-10 -4h-50q-6 0 -10 4zM315 757.5q-3 5.5 0 13.5l37 90q8 19 28 19h67
q6 0 10 -3.5t4 -9.5t-4 -10l-81 -93q-10 -12 -26 -12h-24q-8 0 -11 5.5z" />
    <glyph glyph-name="Ncaron" unicode="&#x147;" horiz-adv-x="680" 
d="M94 4q-4 4 -4 10v660q0 9 6 15t15 6h59q8 0 15 -3.5t11 -10.5l316 -552v552q0 6 4 10t10 4h50q6 0 10 -4t4 -10v-660q0 -9 -6 -15t-15 -6h-60q-8 0 -15 3.5t-11 10.5l-315 551v-551q0 -6 -4 -10t-10 -4h-50q-6 0 -10 4zM294 761l-81 100q-3 3 -3 7q0 5 3.5 8.5t9.5 3.5
h33q12 0 25 -10l63 -49l63 49q13 10 24 10h34q8 0 11.5 -6.5t-1.5 -12.5l-81 -100q-6 -9 -18 -9h-64q-12 0 -18 9z" />
    <glyph glyph-name="Ncommaaccent" unicode="&#x145;" horiz-adv-x="680" 
d="M94 4q-4 4 -4 10v660q0 9 6 15t15 6h59q8 0 15 -3.5t11 -10.5l316 -552v552q0 6 4 10t10 4h50q6 0 10 -4t4 -10v-660q0 -9 -6 -15t-15 -6h-60q-8 0 -15 3.5t-11 10.5l-315 551v-551q0 -6 -4 -10t-10 -4h-50q-6 0 -10 4zM239 -187.5q-3 5.5 0 13.5l37 90q8 19 28 19h67
q6 0 10 -4t4 -9q0 -6 -4 -10l-81 -93q-10 -12 -26 -12h-24q-8 0 -11 5.5z" />
    <glyph glyph-name="Eng" unicode="&#x14a;" horiz-adv-x="680" 
d="M360 -193q-4 4 -4 11v46q0 7 4 11t11 4h59q35 0 56.5 22t21.5 59v39l-340 568v-553q0 -6 -4 -10t-10 -4h-50q-6 0 -10 4t-4 10v660q0 9 6 15t15 6h59q8 0 15 -3.5t11 -10.5l316 -524v524q0 6 4 10t10 4h50q6 0 10 -4t4 -10v-722q0 -42 -18 -78t-52 -57t-80 -21h-69
q-7 0 -11 4z" />
    <glyph glyph-name="Ntilde" unicode="&#xd1;" horiz-adv-x="680" 
d="M94 4q-4 4 -4 10v660q0 9 6 15t15 6h59q8 0 15 -3.5t11 -10.5l316 -552v552q0 6 4 10t10 4h50q6 0 10 -4t4 -10v-660q0 -9 -6 -15t-15 -6h-60q-8 0 -15 3.5t-11 10.5l-315 551v-551q0 -6 -4 -10t-10 -4h-50q-6 0 -10 4zM371.5 769q-17.5 5 -41.5 14q-40 14 -52 14
q-13 0 -20.5 -4t-13.5 -13q-3 -5 -5.5 -5.5t-8.5 0.5l-28 9q-9 3 -8 13q8 31 34.5 50.5t60.5 19.5q17 0 34 -5t43 -14q37 -15 52 -15q22 0 33 17q4 5 7 6t9 -1l27 -8q11 -4 8 -13q-7 -31 -34 -50.5t-62 -19.5q-17 0 -34.5 5z" />
    <glyph glyph-name="O" unicode="O" horiz-adv-x="630" 
d="M192.5 20q-56.5 33 -89.5 89t-33 122v233q0 66 33 122t89.5 89t122.5 33t122.5 -33t89.5 -89t33 -122v-233q0 -66 -33 -122t-89.5 -89t-122.5 -33t-122.5 33zM396.5 87q37.5 23 59.5 61.5t22 82.5v233q0 44 -22 82.5t-59.5 61.5t-81.5 23t-81.5 -23t-59.5 -61.5
t-22 -82.5v-233q0 -44 22 -82.5t59.5 -61.5t81.5 -23t81.5 23z" />
    <glyph glyph-name="Oacute" unicode="&#xd3;" horiz-adv-x="630" 
d="M192.5 20q-56.5 33 -89.5 89t-33 122v233q0 66 33 122t89.5 89t122.5 33t122.5 -33t89.5 -89t33 -122v-233q0 -66 -33 -122t-89.5 -89t-122.5 -33t-122.5 33zM396.5 87q37.5 23 59.5 61.5t22 82.5v233q0 44 -22 82.5t-59.5 61.5t-81.5 23t-81.5 -23t-59.5 -61.5
t-22 -82.5v-233q0 -44 22 -82.5t59.5 -61.5t81.5 -23t81.5 23zM290 757.5q-3 5.5 0 13.5l37 90q8 19 28 19h67q6 0 10 -3.5t4 -9.5t-4 -10l-81 -93q-10 -12 -26 -12h-24q-8 0 -11 5.5z" />
    <glyph glyph-name="Ocircumflex" unicode="&#xd4;" horiz-adv-x="630" 
d="M192.5 20q-56.5 33 -89.5 89t-33 122v233q0 66 33 122t89.5 89t122.5 33t122.5 -33t89.5 -89t33 -122v-233q0 -66 -33 -122t-89.5 -89t-122.5 -33t-122.5 33zM396.5 87q37.5 23 59.5 61.5t22 82.5v233q0 44 -22 82.5t-59.5 61.5t-81.5 23t-81.5 -23t-59.5 -61.5
t-22 -82.5v-233q0 -44 22 -82.5t59.5 -61.5t81.5 -23t81.5 23zM182.5 758.5q-3.5 6.5 1.5 12.5l81 100q6 9 18 9h64q12 0 18 -9l81 -100q3 -3 3 -7q0 -5 -3.5 -8.5t-9.5 -3.5h-33q-12 0 -25 10l-63 49l-63 -49q-13 -10 -24 -10h-34q-8 0 -11.5 6.5z" />
    <glyph glyph-name="Odieresis" unicode="&#xd6;" horiz-adv-x="630" 
d="M192.5 20q-56.5 33 -89.5 89t-33 122v233q0 66 33 122t89.5 89t122.5 33t122.5 -33t89.5 -89t33 -122v-233q0 -66 -33 -122t-89.5 -89t-122.5 -33t-122.5 33zM396.5 87q37.5 23 59.5 61.5t22 82.5v233q0 44 -22 82.5t-59.5 61.5t-81.5 23t-81.5 -23t-59.5 -61.5
t-22 -82.5v-233q0 -44 22 -82.5t59.5 -61.5t81.5 -23t81.5 23zM160 769q-4 4 -4 10v87q0 6 4 10t10 4h48q6 0 10 -4t4 -10v-87q0 -6 -4 -10t-10 -4h-48q-6 0 -10 4zM402 769q-4 4 -4 10v87q0 6 4 10t10 4h48q6 0 10 -4t4 -10v-87q0 -6 -4 -10t-10 -4h-48q-6 0 -10 4z" />
    <glyph glyph-name="Ograve" unicode="&#xd2;" horiz-adv-x="630" 
d="M192.5 20q-56.5 33 -89.5 89t-33 122v233q0 66 33 122t89.5 89t122.5 33t122.5 -33t89.5 -89t33 -122v-233q0 -66 -33 -122t-89.5 -89t-122.5 -33t-122.5 33zM396.5 87q37.5 23 59.5 61.5t22 82.5v233q0 44 -22 82.5t-59.5 61.5t-81.5 23t-81.5 -23t-59.5 -61.5
t-22 -82.5v-233q0 -44 22 -82.5t59.5 -61.5t81.5 -23t81.5 23zM288 764l-81 93q-4 4 -4 10t3.5 9.5t10.5 3.5h67q20 0 28 -19l37 -90q2 -6 2 -7q0 -5 -3.5 -8.5t-9.5 -3.5h-24q-16 0 -26 12z" />
    <glyph glyph-name="Ohungarumlaut" unicode="&#x150;" horiz-adv-x="630" 
d="M192.5 20q-56.5 33 -89.5 89t-33 122v233q0 66 33 122t89.5 89t122.5 33t122.5 -33t89.5 -89t33 -122v-233q0 -66 -33 -122t-89.5 -89t-122.5 -33t-122.5 33zM396.5 87q37.5 23 59.5 61.5t22 82.5v233q0 44 -22 82.5t-59.5 61.5t-81.5 23t-81.5 -23t-59.5 -61.5
t-22 -82.5v-233q0 -44 22 -82.5t59.5 -61.5t81.5 -23t81.5 23zM185 757.5q-3 5.5 0 13.5l37 90q8 19 28 19h67q6 0 10 -3.5t4 -9.5t-4 -10l-81 -93q-10 -12 -26 -12h-24q-8 0 -11 5.5zM350 757.5q-3 5.5 0 13.5l37 90q8 19 28 19h67q6 0 10 -3.5t4 -9.5t-4 -10l-81 -93
q-10 -12 -26 -12h-24q-8 0 -11 5.5z" />
    <glyph glyph-name="Omacron" unicode="&#x14c;" horiz-adv-x="630" 
d="M192.5 20q-56.5 33 -89.5 89t-33 122v233q0 66 33 122t89.5 89t122.5 33t122.5 -33t89.5 -89t33 -122v-233q0 -66 -33 -122t-89.5 -89t-122.5 -33t-122.5 33zM396.5 87q37.5 23 59.5 61.5t22 82.5v233q0 44 -22 82.5t-59.5 61.5t-81.5 23t-81.5 -23t-59.5 -61.5
t-22 -82.5v-233q0 -44 22 -82.5t59.5 -61.5t81.5 -23t81.5 23zM174 787.5q-4 3.5 -4 9.5v37q0 6 4 9.5t10 3.5h260q6 0 10 -3.5t4 -9.5v-37q0 -6 -4 -9.5t-10 -3.5h-260q-6 0 -10 3.5z" />
    <glyph glyph-name="Oslash" unicode="&#xd8;" horiz-adv-x="644" 
d="M586 692.5q3 -2.5 3 -6.5q0 -3 -3 -8l-57 -85q37 -60 37 -129v-233q0 -66 -33 -122t-89.5 -89t-122.5 -33q-44 0 -85 15t-74 43l-22 -33q-3 -5 -9 -8.5t-12 -3.5h-53q-7 0 -10 5t1 12l57 84q-38 60 -38 130v233q0 66 33 122t89.5 89t122.5 33q45 0 86.5 -16t74.5 -44
l23 35q3 5 9 8.5t12 3.5h52q5 0 8 -2.5zM166 179l270 402q-22 24 -52 37t-63 13q-44 0 -81.5 -23t-59.5 -61.5t-22 -82.5v-233q0 -25 8 -52zM476 514l-269 -402q23 -22 52.5 -35t61.5 -13q44 0 81.5 23t59.5 61.5t22 82.5v233q0 24 -8 50z" />
    <glyph glyph-name="Otilde" unicode="&#xd5;" horiz-adv-x="630" 
d="M192.5 20q-56.5 33 -89.5 89t-33 122v233q0 66 33 122t89.5 89t122.5 33t122.5 -33t89.5 -89t33 -122v-233q0 -66 -33 -122t-89.5 -89t-122.5 -33t-122.5 33zM396.5 87q37.5 23 59.5 61.5t22 82.5v233q0 44 -22 82.5t-59.5 61.5t-81.5 23t-81.5 -23t-59.5 -61.5
t-22 -82.5v-233q0 -44 22 -82.5t59.5 -61.5t81.5 -23t81.5 23zM346.5 769q-17.5 5 -41.5 14q-40 14 -52 14q-13 0 -20.5 -4t-13.5 -13q-3 -5 -5.5 -5.5t-8.5 0.5l-28 9q-9 3 -8 13q8 31 34.5 50.5t60.5 19.5q17 0 34 -5t43 -14q37 -15 52 -15q22 0 33 17q4 5 7 6t9 -1l27 -8
q11 -4 8 -13q-7 -31 -34 -50.5t-62 -19.5q-17 0 -34.5 5z" />
    <glyph glyph-name="OE" unicode="&#x152;" horiz-adv-x="822" 
d="M192.5 33q-56.5 33 -89.5 89t-33 122v207q0 66 33 122t89.5 89t122.5 33h438q6 0 10 -4t4 -10v-49q0 -6 -4 -10t-10 -4h-283v-214h216q6 0 10 -4t4 -10v-47q0 -6 -4 -10t-10 -4h-216v-252h283q6 0 10 -4t4 -10v-49q0 -6 -4 -10t-10 -4h-438q-66 0 -122.5 33zM388 77v541
h-73q-44 0 -81.5 -23t-59.5 -61.5t-22 -82.5v-207q0 -44 22 -82.5t59.5 -61.5t81.5 -23h73z" />
    <glyph glyph-name="P" unicode="P" horiz-adv-x="557" 
d="M94 4q-4 4 -4 10v645q0 15 10.5 25.5t25.5 10.5h168q60 0 110 -29t79 -78t29 -108t-29 -108t-79 -78t-110 -29h-122v-251q0 -6 -4 -10t-10 -4h-54q-6 0 -10 4zM289 342q38 0 70 18.5t50.5 50.5t18.5 69t-18.5 69t-50.5 50.5t-70 18.5h-117v-276h117z" />
    <glyph glyph-name="Thorn" unicode="&#xde;" horiz-adv-x="557" 
d="M94 4q-4 4 -4 10v667q0 6 4 10t10 4h54q6 0 10 -4t4 -10v-115h122q60 0 110 -29t79 -78t29 -108t-29 -108t-79 -78t-110 -29h-122v-122q0 -6 -4 -10t-10 -4h-54q-6 0 -10 4zM289 213q38 0 70 18.5t50.5 50.5t18.5 69t-18.5 69t-50.5 50.5t-70 18.5h-117v-276h117z" />
    <glyph glyph-name="Q" unicode="Q" horiz-adv-x="639" 
d="M590.5 -176q-32.5 17 -78.5 52l-23 18l-41 31q-47 37 -71.5 49.5t-61.5 12.5q-66 0 -122.5 33t-89.5 89t-33 122v233q0 66 33 122t89.5 89t122.5 33t122.5 -33t89.5 -89t33 -122v-233q0 -64 -31 -118.5t-83 -87.5l75 -60l23 -19q41 -34 69 -50.5t59 -16.5h13q6 0 10 -4
t4 -10v-44q0 -6 -3.5 -10t-10.5 -4h-21q-41 0 -73.5 17zM396.5 87q37.5 23 59.5 61.5t22 82.5v233q0 44 -22 82.5t-59.5 61.5t-81.5 23t-81.5 -23t-59.5 -61.5t-22 -82.5v-233q0 -44 22 -82.5t59.5 -61.5t81.5 -23t81.5 23z" />
    <glyph glyph-name="R" unicode="R" horiz-adv-x="562" 
d="M94 4q-4 4 -4 10v645q0 15 10.5 25.5t25.5 10.5h174q56 0 102.5 -27t73.5 -73.5t27 -101.5q0 -73 -46 -128t-116 -69l166 -268q3 -4 3 -10q0 -8 -5.5 -13t-13.5 -5h-51q-10 0 -15 9l-175 283h-78v-278q0 -6 -4 -10t-10 -4h-54q-6 0 -10 4zM294 369q54 0 89.5 35t35.5 88
q0 55 -35.5 90.5t-89.5 35.5h-122v-249h122z" />
    <glyph glyph-name="Racute" unicode="&#x154;" horiz-adv-x="562" 
d="M94 4q-4 4 -4 10v645q0 15 10.5 25.5t25.5 10.5h174q56 0 102.5 -27t73.5 -73.5t27 -101.5q0 -73 -46 -128t-116 -69l166 -268q3 -4 3 -10q0 -8 -5.5 -13t-13.5 -5h-51q-10 0 -15 9l-175 283h-78v-278q0 -6 -4 -10t-10 -4h-54q-6 0 -10 4zM294 369q54 0 89.5 35t35.5 88
q0 55 -35.5 90.5t-89.5 35.5h-122v-249h122zM238 757.5q-3 5.5 0 13.5l37 90q8 19 28 19h67q6 0 10 -3.5t4 -9.5t-4 -10l-81 -93q-10 -12 -26 -12h-24q-8 0 -11 5.5z" />
    <glyph glyph-name="Rcaron" unicode="&#x158;" horiz-adv-x="562" 
d="M94 4q-4 4 -4 10v645q0 15 10.5 25.5t25.5 10.5h174q56 0 102.5 -27t73.5 -73.5t27 -101.5q0 -73 -46 -128t-116 -69l166 -268q3 -4 3 -10q0 -8 -5.5 -13t-13.5 -5h-51q-10 0 -15 9l-175 283h-78v-278q0 -6 -4 -10t-10 -4h-54q-6 0 -10 4zM294 369q54 0 89.5 35t35.5 88
q0 55 -35.5 90.5t-89.5 35.5h-122v-249h122zM217 761l-81 100q-3 3 -3 7q0 5 3.5 8.5t9.5 3.5h33q12 0 25 -10l63 -49l63 49q13 10 24 10h34q8 0 11.5 -6.5t-1.5 -12.5l-81 -100q-6 -9 -18 -9h-64q-12 0 -18 9z" />
    <glyph glyph-name="Rcommaaccent" unicode="&#x156;" horiz-adv-x="562" 
d="M94 4q-4 4 -4 10v645q0 15 10.5 25.5t25.5 10.5h174q56 0 102.5 -27t73.5 -73.5t27 -101.5q0 -73 -46 -128t-116 -69l166 -268q3 -4 3 -10q0 -8 -5.5 -13t-13.5 -5h-51q-10 0 -15 9l-175 283h-78v-278q0 -6 -4 -10t-10 -4h-54q-6 0 -10 4zM294 369q54 0 89.5 35t35.5 88
q0 55 -35.5 90.5t-89.5 35.5h-122v-249h122zM202 -187.5q-3 5.5 0 13.5l37 90q8 19 28 19h67q6 0 10 -4t4 -9q0 -6 -4 -10l-81 -93q-10 -12 -26 -12h-24q-8 0 -11 5.5z" />
    <glyph glyph-name="S" unicode="S" horiz-adv-x="531" 
d="M146.5 1q-49.5 14 -85.5 39q-4 2 -5.5 7t0.5 10l23 45q5 9 14 9q5 0 8 -2q77 -46 146 -46q64 0 105 32.5t41 87.5q0 36 -18 59t-45 37t-75 33q-63 24 -101 44.5t-66 59.5t-28 101t29.5 105.5t78.5 64.5t108 21q48 0 93.5 -13.5t80.5 -36.5q4 -2 5.5 -7.5t-1.5 -10.5
l-22 -41q-3 -6 -9 -8t-12 2q-67 40 -134 40q-61 0 -97.5 -30t-36.5 -82q0 -36 18 -59.5t44.5 -37.5t75.5 -33q9 -4 67.5 -26t93 -67t34.5 -108q0 -62 -29.5 -108t-81.5 -70.5t-119 -24.5q-50 0 -99.5 14z" />
    <glyph glyph-name="Sacute" unicode="&#x15a;" horiz-adv-x="531" 
d="M146.5 1q-49.5 14 -85.5 39q-4 2 -5.5 7t0.5 10l23 45q5 9 14 9q5 0 8 -2q77 -46 146 -46q64 0 105 32.5t41 87.5q0 36 -18 59t-45 37t-75 33q-63 24 -101 44.5t-66 59.5t-28 101t29.5 105.5t78.5 64.5t108 21q48 0 93.5 -13.5t80.5 -36.5q4 -2 5.5 -7.5t-1.5 -10.5
l-22 -41q-3 -6 -9 -8t-12 2q-67 40 -134 40q-61 0 -97.5 -30t-36.5 -82q0 -36 18 -59.5t44.5 -37.5t75.5 -33q9 -4 67.5 -26t93 -67t34.5 -108q0 -62 -29.5 -108t-81.5 -70.5t-119 -24.5q-50 0 -99.5 14zM235 757.5q-3 5.5 0 13.5l37 90q8 19 28 19h67q6 0 10 -3.5t4 -9.5
t-4 -10l-81 -93q-10 -12 -26 -12h-24q-8 0 -11 5.5z" />
    <glyph glyph-name="Scaron" unicode="&#x160;" horiz-adv-x="531" 
d="M146.5 1q-49.5 14 -85.5 39q-4 2 -5.5 7t0.5 10l23 45q5 9 14 9q5 0 8 -2q77 -46 146 -46q64 0 105 32.5t41 87.5q0 36 -18 59t-45 37t-75 33q-63 24 -101 44.5t-66 59.5t-28 101t29.5 105.5t78.5 64.5t108 21q48 0 93.5 -13.5t80.5 -36.5q4 -2 5.5 -7.5t-1.5 -10.5
l-22 -41q-3 -6 -9 -8t-12 2q-67 40 -134 40q-61 0 -97.5 -30t-36.5 -82q0 -36 18 -59.5t44.5 -37.5t75.5 -33q9 -4 67.5 -26t93 -67t34.5 -108q0 -62 -29.5 -108t-81.5 -70.5t-119 -24.5q-50 0 -99.5 14zM214 761l-81 100q-3 3 -3 7q0 5 3.5 8.5t9.5 3.5h33q12 0 25 -10
l63 -49l63 49q13 10 24 10h34q8 0 11.5 -6.5t-1.5 -12.5l-81 -100q-6 -9 -18 -9h-64q-12 0 -18 9z" />
    <glyph glyph-name="Scedilla" unicode="&#x15e;" horiz-adv-x="531" 
d="M146.5 1q-49.5 14 -85.5 39q-4 2 -5.5 7t0.5 10l23 45q5 9 14 9q5 0 8 -2q77 -46 146 -46q64 0 105 32.5t41 87.5q0 36 -18 59t-45 37t-75 33q-63 24 -101 44.5t-66 59.5t-28 101t29.5 105.5t78.5 64.5t108 21q48 0 93.5 -13.5t80.5 -36.5q4 -2 5.5 -7.5t-1.5 -10.5
l-22 -41q-3 -6 -9 -8t-12 2q-67 40 -134 40q-61 0 -97.5 -30t-36.5 -82q0 -36 18 -59.5t44.5 -37.5t75.5 -33q9 -4 67.5 -26t93 -67t34.5 -108q0 -62 -29.5 -108t-81.5 -70.5t-119 -24.5q-50 0 -99.5 14zM208 -209q-11 0 -16 10l-14 35q-1 2 -1 5q0 7 9 11q33 13 33 50v19
q0 6 3.5 10t9.5 4h52q7 0 12 -5t5 -13v-11q0 -48 -28 -76.5t-61 -38.5h-4z" />
    <glyph glyph-name="Scommaaccent" unicode="&#x218;" horiz-adv-x="531" 
d="M146.5 1q-49.5 14 -85.5 39q-4 2 -5.5 7t0.5 10l23 45q5 9 14 9q5 0 8 -2q77 -46 146 -46q64 0 105 32.5t41 87.5q0 36 -18 59t-45 37t-75 33q-63 24 -101 44.5t-66 59.5t-28 101t29.5 105.5t78.5 64.5t108 21q48 0 93.5 -13.5t80.5 -36.5q4 -2 5.5 -7.5t-1.5 -10.5
l-22 -41q-3 -6 -9 -8t-12 2q-67 40 -134 40q-61 0 -97.5 -30t-36.5 -82q0 -36 18 -59.5t44.5 -37.5t75.5 -33q9 -4 67.5 -26t93 -67t34.5 -108q0 -62 -29.5 -108t-81.5 -70.5t-119 -24.5q-50 0 -99.5 14zM159 -187.5q-3 5.5 0 13.5l37 90q8 19 28 19h67q6 0 10 -4t4 -9
q0 -6 -4 -10l-81 -93q-10 -12 -26 -12h-24q-8 0 -11 5.5z" />
    <glyph glyph-name="T" unicode="T" horiz-adv-x="544" 
d="M235 4q-4 4 -4 10v604h-173q-6 0 -10 4t-4 10v49q0 6 4 10t10 4h428q6 0 10 -4t4 -10v-49q0 -6 -4 -10t-10 -4h-173v-604q0 -6 -4 -10t-10 -4h-54q-6 0 -10 4z" />
    <glyph glyph-name="Tbar" unicode="&#x166;" horiz-adv-x="546" 
d="M497 691q4 -4 4 -10v-49q0 -6 -4 -10t-10 -4h-173v-185h119q6 0 10 -4t4 -10v-37q0 -6 -4 -10t-10 -4h-119v-354q0 -6 -4 -10t-10 -4h-54q-6 0 -10 4t-4 10v354h-119q-6 0 -10 4t-4 10v37q0 6 4 10t10 4h119v185h-173q-6 0 -10 4t-4 10v49q0 6 4 10t10 4h428q6 0 10 -4z
" />
    <glyph glyph-name="Tcaron" unicode="&#x164;" horiz-adv-x="544" 
d="M235 4q-4 4 -4 10v604h-173q-6 0 -10 4t-4 10v49q0 6 4 10t10 4h428q6 0 10 -4t4 -10v-49q0 -6 -4 -10t-10 -4h-173v-604q0 -6 -4 -10t-10 -4h-54q-6 0 -10 4zM226 761l-81 100q-3 3 -3 7q0 5 3.5 8.5t9.5 3.5h33q12 0 25 -10l63 -49l63 49q13 10 24 10h34q8 0 11.5 -6.5
t-1.5 -12.5l-81 -100q-6 -9 -18 -9h-64q-12 0 -18 9z" />
    <glyph glyph-name="uni0162" unicode="&#x162;" horiz-adv-x="544" 
d="M235 4q-4 4 -4 10v604h-173q-6 0 -10 4t-4 10v49q0 6 4 10t10 4h428q6 0 10 -4t4 -10v-49q0 -6 -4 -10t-10 -4h-173v-604q0 -6 -4 -10t-10 -4h-54q-6 0 -10 4zM220 -209q-11 0 -16 10l-14 35q-1 2 -1 5q0 7 9 11q33 13 33 50v19q0 6 3.5 10t9.5 4h52q7 0 12 -5t5 -13v-11
q0 -48 -28 -76.5t-61 -38.5h-4z" />
    <glyph glyph-name="uni021A" unicode="&#x21a;" horiz-adv-x="544" 
d="M235 4q-4 4 -4 10v604h-173q-6 0 -10 4t-4 10v49q0 6 4 10t10 4h428q6 0 10 -4t4 -10v-49q0 -6 -4 -10t-10 -4h-173v-604q0 -6 -4 -10t-10 -4h-54q-6 0 -10 4zM171 -187.5q-3 5.5 0 13.5l37 90q8 19 28 19h67q6 0 10 -4t4 -9q0 -6 -4 -10l-81 -93q-10 -12 -26 -12h-24
q-8 0 -11 5.5z" />
    <glyph glyph-name="U" unicode="U" horiz-adv-x="671" 
d="M211 20q-56 33 -88.5 93.5t-32.5 137.5v430q0 6 4 10t10 4h54q6 0 10 -4t4 -10v-435q0 -54 21.5 -95t58.5 -63t84 -22q46 0 83 22t58.5 63t21.5 95v435q0 6 4 10t10 4h54q6 0 10 -4t4 -10v-430q0 -77 -32.5 -137.5t-88.5 -93.5t-124 -33q-69 0 -125 33z" />
    <glyph glyph-name="Uacute" unicode="&#xda;" horiz-adv-x="671" 
d="M211 20q-56 33 -88.5 93.5t-32.5 137.5v430q0 6 4 10t10 4h54q6 0 10 -4t4 -10v-435q0 -54 21.5 -95t58.5 -63t84 -22q46 0 83 22t58.5 63t21.5 95v435q0 6 4 10t10 4h54q6 0 10 -4t4 -10v-430q0 -77 -32.5 -137.5t-88.5 -93.5t-124 -33q-69 0 -125 33zM310 757.5
q-3 5.5 0 13.5l37 90q8 19 28 19h67q6 0 10 -3.5t4 -9.5t-4 -10l-81 -93q-10 -12 -26 -12h-24q-8 0 -11 5.5z" />
    <glyph glyph-name="Ucircumflex" unicode="&#xdb;" horiz-adv-x="671" 
d="M211 20q-56 33 -88.5 93.5t-32.5 137.5v430q0 6 4 10t10 4h54q6 0 10 -4t4 -10v-435q0 -54 21.5 -95t58.5 -63t84 -22q46 0 83 22t58.5 63t21.5 95v435q0 6 4 10t10 4h54q6 0 10 -4t4 -10v-430q0 -77 -32.5 -137.5t-88.5 -93.5t-124 -33q-69 0 -125 33zM202.5 758.5
q-3.5 6.5 1.5 12.5l81 100q6 9 18 9h64q12 0 18 -9l81 -100q3 -3 3 -7q0 -5 -3.5 -8.5t-9.5 -3.5h-33q-12 0 -25 10l-63 49l-63 -49q-13 -10 -24 -10h-34q-8 0 -11.5 6.5z" />
    <glyph glyph-name="Udieresis" unicode="&#xdc;" horiz-adv-x="671" 
d="M211 20q-56 33 -88.5 93.5t-32.5 137.5v430q0 6 4 10t10 4h54q6 0 10 -4t4 -10v-435q0 -54 21.5 -95t58.5 -63t84 -22q46 0 83 22t58.5 63t21.5 95v435q0 6 4 10t10 4h54q6 0 10 -4t4 -10v-430q0 -77 -32.5 -137.5t-88.5 -93.5t-124 -33q-69 0 -125 33zM180 769
q-4 4 -4 10v87q0 6 4 10t10 4h48q6 0 10 -4t4 -10v-87q0 -6 -4 -10t-10 -4h-48q-6 0 -10 4zM422 769q-4 4 -4 10v87q0 6 4 10t10 4h48q6 0 10 -4t4 -10v-87q0 -6 -4 -10t-10 -4h-48q-6 0 -10 4z" />
    <glyph glyph-name="Ugrave" unicode="&#xd9;" horiz-adv-x="671" 
d="M211 20q-56 33 -88.5 93.5t-32.5 137.5v430q0 6 4 10t10 4h54q6 0 10 -4t4 -10v-435q0 -54 21.5 -95t58.5 -63t84 -22q46 0 83 22t58.5 63t21.5 95v435q0 6 4 10t10 4h54q6 0 10 -4t4 -10v-430q0 -77 -32.5 -137.5t-88.5 -93.5t-124 -33q-69 0 -125 33zM308 764l-81 93
q-4 4 -4 10t3.5 9.5t10.5 3.5h67q20 0 28 -19l37 -90q2 -6 2 -7q0 -5 -3.5 -8.5t-9.5 -3.5h-24q-16 0 -26 12z" />
    <glyph glyph-name="Uhungarumlaut" unicode="&#x170;" horiz-adv-x="671" 
d="M211 20q-56 33 -88.5 93.5t-32.5 137.5v430q0 6 4 10t10 4h54q6 0 10 -4t4 -10v-435q0 -54 21.5 -95t58.5 -63t84 -22q46 0 83 22t58.5 63t21.5 95v435q0 6 4 10t10 4h54q6 0 10 -4t4 -10v-430q0 -77 -32.5 -137.5t-88.5 -93.5t-124 -33q-69 0 -125 33zM205 757.5
q-3 5.5 0 13.5l37 90q8 19 28 19h67q6 0 10 -3.5t4 -9.5t-4 -10l-81 -93q-10 -12 -26 -12h-24q-8 0 -11 5.5zM370 757.5q-3 5.5 0 13.5l37 90q8 19 28 19h67q6 0 10 -3.5t4 -9.5t-4 -10l-81 -93q-10 -12 -26 -12h-24q-8 0 -11 5.5z" />
    <glyph glyph-name="Umacron" unicode="&#x16a;" horiz-adv-x="671" 
d="M211 20q-56 33 -88.5 93.5t-32.5 137.5v430q0 6 4 10t10 4h54q6 0 10 -4t4 -10v-435q0 -54 21.5 -95t58.5 -63t84 -22q46 0 83 22t58.5 63t21.5 95v435q0 6 4 10t10 4h54q6 0 10 -4t4 -10v-430q0 -77 -32.5 -137.5t-88.5 -93.5t-124 -33q-69 0 -125 33zM194 787.5
q-4 3.5 -4 9.5v37q0 6 4 9.5t10 3.5h260q6 0 10 -3.5t4 -9.5v-37q0 -6 -4 -9.5t-10 -3.5h-260q-6 0 -10 3.5z" />
    <glyph glyph-name="Uogonek" unicode="&#x172;" horiz-adv-x="671" 
d="M336.5 -173.5q-31.5 23.5 -31.5 61.5q0 26 15 52.5t39 47.5q-9 -1 -23 -1q-69 0 -125 33t-88.5 93.5t-32.5 137.5v430q0 6 4 10t10 4h54q6 0 10 -4t4 -10v-435q0 -54 21.5 -95t58.5 -63t84 -22q46 0 83 22t58.5 63t21.5 95v435q0 6 4 10t10 4h54q6 0 10 -4t4 -10v-430
q0 -67 -24 -121t-67 -89q-56 -46 -81 -74.5t-25 -56.5q0 -37 42 -37h27q6 0 10.5 -4.5t4.5 -10.5v-40q0 -6 -4.5 -10.5t-10.5 -4.5h-40q-45 0 -76.5 23.5z" />
    <glyph glyph-name="Uring" unicode="&#x16e;" horiz-adv-x="671" 
d="M211 20q-56 33 -88.5 93.5t-32.5 137.5v430q0 6 4 10t10 4h54q6 0 10 -4t4 -10v-435q0 -54 21.5 -95t58.5 -63t84 -22q46 0 83 22t58.5 63t21.5 95v435q0 6 4 10t10 4h54q6 0 10 -4t4 -10v-430q0 -77 -32.5 -137.5t-88.5 -93.5t-124 -33q-69 0 -125 33zM277 762
q-24 24 -24 58t24 58t58 24t58 -24t24 -58t-24 -58t-58 -24t-58 24zM355.5 799.5q8.5 8.5 8.5 20.5t-8.5 20.5t-20.5 8.5t-20.5 -8.5t-8.5 -20.5t8.5 -20.5t20.5 -8.5t20.5 8.5z" />
    <glyph glyph-name="V" unicode="V" horiz-adv-x="608" 
d="M259.5 3.5q-5.5 3.5 -7.5 9.5l-206 660q-1 2 -1 7q0 6 4.5 10.5t11.5 4.5h49q6 0 12 -3.5t7 -9.5l175 -578l175 578q2 6 7.5 9.5t11.5 3.5h49q9 0 13.5 -6.5t1.5 -15.5l-206 -660q-1 -6 -7 -9.5t-12 -3.5h-66q-6 0 -11.5 3.5z" />
    <glyph glyph-name="W" unicode="W" horiz-adv-x="999" 
d="M250.5 5q-7.5 5 -9.5 13l-195 656q-1 2 -1 5q0 7 5 11.5t12 4.5h52q7 0 12 -4t7 -10l161 -562l161 562q2 6 7 10t12 4h52q7 0 12 -4t7 -10l161 -562l161 562q2 6 7 10t12 4h52q8 0 13 -6.5t3 -14.5l-195 -656q-2 -8 -9.5 -13t-15.5 -5h-56q-8 0 -15.5 5t-9.5 13l-154 535
l-152 -535q-2 -8 -9.5 -13t-15.5 -5h-56q-8 0 -15.5 5z" />
    <glyph glyph-name="Wacute" unicode="&#x1e82;" horiz-adv-x="999" 
d="M250.5 5q-7.5 5 -9.5 13l-195 656q-1 2 -1 5q0 7 5 11.5t12 4.5h52q7 0 12 -4t7 -10l161 -562l161 562q2 6 7 10t12 4h52q7 0 12 -4t7 -10l161 -562l161 562q2 6 7 10t12 4h52q8 0 13 -6.5t3 -14.5l-195 -656q-2 -8 -9.5 -13t-15.5 -5h-56q-8 0 -15.5 5t-9.5 13l-154 535
l-152 -535q-2 -8 -9.5 -13t-15.5 -5h-56q-8 0 -15.5 5zM474 757.5q-3 5.5 0 13.5l37 90q8 19 28 19h67q6 0 10 -3.5t4 -9.5t-4 -10l-81 -93q-10 -12 -26 -12h-24q-8 0 -11 5.5z" />
    <glyph glyph-name="Wcircumflex" unicode="&#x174;" horiz-adv-x="999" 
d="M250.5 5q-7.5 5 -9.5 13l-195 656q-1 2 -1 5q0 7 5 11.5t12 4.5h52q7 0 12 -4t7 -10l161 -562l161 562q2 6 7 10t12 4h52q7 0 12 -4t7 -10l161 -562l161 562q2 6 7 10t12 4h52q8 0 13 -6.5t3 -14.5l-195 -656q-2 -8 -9.5 -13t-15.5 -5h-56q-8 0 -15.5 5t-9.5 13l-154 535
l-152 -535q-2 -8 -9.5 -13t-15.5 -5h-56q-8 0 -15.5 5zM366.5 758.5q-3.5 6.5 1.5 12.5l81 100q6 9 18 9h64q12 0 18 -9l81 -100q3 -3 3 -7q0 -5 -3.5 -8.5t-9.5 -3.5h-33q-12 0 -25 10l-63 49l-63 -49q-13 -10 -24 -10h-34q-8 0 -11.5 6.5z" />
    <glyph glyph-name="Wdieresis" unicode="&#x1e84;" horiz-adv-x="999" 
d="M250.5 5q-7.5 5 -9.5 13l-195 656q-1 2 -1 5q0 7 5 11.5t12 4.5h52q7 0 12 -4t7 -10l161 -562l161 562q2 6 7 10t12 4h52q7 0 12 -4t7 -10l161 -562l161 562q2 6 7 10t12 4h52q8 0 13 -6.5t3 -14.5l-195 -656q-2 -8 -9.5 -13t-15.5 -5h-56q-8 0 -15.5 5t-9.5 13l-154 535
l-152 -535q-2 -8 -9.5 -13t-15.5 -5h-56q-8 0 -15.5 5zM344 769q-4 4 -4 10v87q0 6 4 10t10 4h48q6 0 10 -4t4 -10v-87q0 -6 -4 -10t-10 -4h-48q-6 0 -10 4zM586 769q-4 4 -4 10v87q0 6 4 10t10 4h48q6 0 10 -4t4 -10v-87q0 -6 -4 -10t-10 -4h-48q-6 0 -10 4z" />
    <glyph glyph-name="Wgrave" unicode="&#x1e80;" horiz-adv-x="999" 
d="M250.5 5q-7.5 5 -9.5 13l-195 656q-1 2 -1 5q0 7 5 11.5t12 4.5h52q7 0 12 -4t7 -10l161 -562l161 562q2 6 7 10t12 4h52q7 0 12 -4t7 -10l161 -562l161 562q2 6 7 10t12 4h52q8 0 13 -6.5t3 -14.5l-195 -656q-2 -8 -9.5 -13t-15.5 -5h-56q-8 0 -15.5 5t-9.5 13l-154 535
l-152 -535q-2 -8 -9.5 -13t-15.5 -5h-56q-8 0 -15.5 5zM472 764l-81 93q-4 4 -4 10t3.5 9.5t10.5 3.5h67q20 0 28 -19l37 -90q2 -6 2 -7q0 -5 -3.5 -8.5t-9.5 -3.5h-24q-16 0 -26 12z" />
    <glyph glyph-name="X" unicode="X" horiz-adv-x="607" 
d="M55 5q-5 5 -5 12q0 5 3 11l202 320l-201 319q-3 6 -3 11q0 7 5 12t13 5h54q10 0 15 -8l166 -262l165 262q5 8 15 8h54q8 0 13 -5t5 -12q0 -5 -3 -11l-201 -319l202 -320q3 -6 3 -11q0 -7 -5 -12t-13 -5h-55q-10 0 -15 8l-165 263l-166 -263q-5 -8 -15 -8h-55q-8 0 -13 5z
" />
    <glyph glyph-name="Y" unicode="Y" horiz-adv-x="567" 
d="M247 4q-4 4 -4 10v321l-205 333q-3 6 -3 10q0 8 5 12.5t13 4.5h54q9 0 15 -9l162 -267l161 267q6 9 15 9h54q8 0 13 -4.5t5 -12.5q0 -4 -3 -10l-204 -330v-324q0 -6 -4 -10t-10 -4h-54q-6 0 -10 4z" />
    <glyph glyph-name="Yacute" unicode="&#xdd;" horiz-adv-x="567" 
d="M247 4q-4 4 -4 10v321l-205 333q-3 6 -3 10q0 8 5 12.5t13 4.5h54q9 0 15 -9l162 -267l161 267q6 9 15 9h54q8 0 13 -4.5t5 -12.5q0 -4 -3 -10l-204 -330v-324q0 -6 -4 -10t-10 -4h-54q-6 0 -10 4zM259 757.5q-3 5.5 0 13.5l37 90q8 19 28 19h67q6 0 10 -3.5t4 -9.5
t-4 -10l-81 -93q-10 -12 -26 -12h-24q-8 0 -11 5.5z" />
    <glyph glyph-name="Ycircumflex" unicode="&#x176;" horiz-adv-x="567" 
d="M247 4q-4 4 -4 10v321l-205 333q-3 6 -3 10q0 8 5 12.5t13 4.5h54q9 0 15 -9l162 -267l161 267q6 9 15 9h54q8 0 13 -4.5t5 -12.5q0 -4 -3 -10l-204 -330v-324q0 -6 -4 -10t-10 -4h-54q-6 0 -10 4zM151.5 758.5q-3.5 6.5 1.5 12.5l81 100q6 9 18 9h64q12 0 18 -9l81 -100
q3 -3 3 -7q0 -5 -3.5 -8.5t-9.5 -3.5h-33q-12 0 -25 10l-63 49l-63 -49q-13 -10 -24 -10h-34q-8 0 -11.5 6.5z" />
    <glyph glyph-name="Ydieresis" unicode="&#x178;" horiz-adv-x="567" 
d="M247 4q-4 4 -4 10v321l-205 333q-3 6 -3 10q0 8 5 12.5t13 4.5h54q9 0 15 -9l162 -267l161 267q6 9 15 9h54q8 0 13 -4.5t5 -12.5q0 -4 -3 -10l-204 -330v-324q0 -6 -4 -10t-10 -4h-54q-6 0 -10 4zM129 769q-4 4 -4 10v87q0 6 4 10t10 4h48q6 0 10 -4t4 -10v-87
q0 -6 -4 -10t-10 -4h-48q-6 0 -10 4zM371 769q-4 4 -4 10v87q0 6 4 10t10 4h48q6 0 10 -4t4 -10v-87q0 -6 -4 -10t-10 -4h-48q-6 0 -10 4z" />
    <glyph glyph-name="Ygrave" unicode="&#x1ef2;" horiz-adv-x="567" 
d="M247 4q-4 4 -4 10v321l-205 333q-3 6 -3 10q0 8 5 12.5t13 4.5h54q9 0 15 -9l162 -267l161 267q6 9 15 9h54q8 0 13 -4.5t5 -12.5q0 -4 -3 -10l-204 -330v-324q0 -6 -4 -10t-10 -4h-54q-6 0 -10 4zM257 764l-81 93q-4 4 -4 10t3.5 9.5t10.5 3.5h67q20 0 28 -19l37 -90
q2 -6 2 -7q0 -5 -3.5 -8.5t-9.5 -3.5h-24q-16 0 -26 12z" />
    <glyph glyph-name="Z" unicode="Z" horiz-adv-x="551" 
d="M65 11.5q-10 11.5 -10 26.5q0 9 5 17l324 563h-302q-6 0 -10 4t-4 10v49q0 6 4 10t10 4h378q15 0 24.5 -11.5t9.5 -26.5q0 -10 -4 -17l-326 -563h318q6 0 10 -4t4 -10v-49q0 -6 -4 -10t-10 -4h-393q-14 0 -24 11.5z" />
    <glyph glyph-name="Zacute" unicode="&#x179;" horiz-adv-x="551" 
d="M65 11.5q-10 11.5 -10 26.5q0 9 5 17l324 563h-302q-6 0 -10 4t-4 10v49q0 6 4 10t10 4h378q15 0 24.5 -11.5t9.5 -26.5q0 -10 -4 -17l-326 -563h318q6 0 10 -4t4 -10v-49q0 -6 -4 -10t-10 -4h-393q-14 0 -24 11.5zM249 757.5q-3 5.5 0 13.5l37 90q8 19 28 19h67
q6 0 10 -3.5t4 -9.5t-4 -10l-81 -93q-10 -12 -26 -12h-24q-8 0 -11 5.5z" />
    <glyph glyph-name="Zcaron" unicode="&#x17d;" horiz-adv-x="551" 
d="M65 11.5q-10 11.5 -10 26.5q0 9 5 17l324 563h-302q-6 0 -10 4t-4 10v49q0 6 4 10t10 4h378q15 0 24.5 -11.5t9.5 -26.5q0 -10 -4 -17l-326 -563h318q6 0 10 -4t4 -10v-49q0 -6 -4 -10t-10 -4h-393q-14 0 -24 11.5zM228 761l-81 100q-3 3 -3 7q0 5 3.5 8.5t9.5 3.5h33
q12 0 25 -10l63 -49l63 49q13 10 24 10h34q8 0 11.5 -6.5t-1.5 -12.5l-81 -100q-6 -9 -18 -9h-64q-12 0 -18 9z" />
    <glyph glyph-name="Zdotaccent" unicode="&#x17b;" horiz-adv-x="551" 
d="M65 11.5q-10 11.5 -10 26.5q0 9 5 17l324 563h-302q-6 0 -10 4t-4 10v49q0 6 4 10t10 4h378q15 0 24.5 -11.5t9.5 -26.5q0 -10 -4 -17l-326 -563h318q6 0 10 -4t4 -10v-49q0 -6 -4 -10t-10 -4h-393q-14 0 -24 11.5zM240 769q-4 4 -4 10v87q0 6 4 10t10 4h48q6 0 10 -4
t4 -10v-87q0 -6 -4 -10t-10 -4h-48q-6 0 -10 4z" />
    <glyph glyph-name="a" unicode="a" horiz-adv-x="560" 
d="M99 30.5q-49 43.5 -49 114.5q0 66 44.5 109t124.5 54l130 18q29 4 42 19.5t13 44.5v8q0 48 -37.5 77.5t-93.5 29.5q-44 0 -76.5 -17.5t-51.5 -48.5q-8 -13 -20 -13q-6 0 -13 5l-27 18q-9 8 -9 17q0 4 3 10q29 48 79.5 75.5t116.5 27.5q60 0 107 -22.5t72.5 -63.5
t25.5 -95v-384q0 -6 -4 -10t-10 -4h-42q-6 0 -10 4t-4 10v69q-31 -45 -79.5 -70.5t-105.5 -25.5q-77 0 -126 43.5zM322 83q40 26 62.5 65.5t22.5 77.5v41q-24 -3 -154 -21l-28 -4q-100 -15 -100 -94q0 -41 30 -66t78 -25q49 0 89 26z" />
    <glyph glyph-name="aacute" unicode="&#xe1;" horiz-adv-x="560" 
d="M99 30.5q-49 43.5 -49 114.5q0 66 44.5 109t124.5 54l130 18q29 4 42 19.5t13 44.5v8q0 48 -37.5 77.5t-93.5 29.5q-44 0 -76.5 -17.5t-51.5 -48.5q-8 -13 -20 -13q-6 0 -13 5l-27 18q-9 8 -9 17q0 4 3 10q29 48 79.5 75.5t116.5 27.5q60 0 107 -22.5t72.5 -63.5
t25.5 -95v-384q0 -6 -4 -10t-10 -4h-42q-6 0 -10 4t-4 10v69q-31 -45 -79.5 -70.5t-105.5 -25.5q-77 0 -126 43.5zM322 83q40 26 62.5 65.5t22.5 77.5v41q-24 -3 -154 -21l-28 -4q-100 -15 -100 -94q0 -41 30 -66t78 -25q49 0 89 26zM249 636.5q-3 5.5 0 13.5l37 90
q8 19 28 19h67q6 0 10 -3.5t4 -9.5t-4 -10l-81 -93q-10 -12 -26 -12h-24q-8 0 -11 5.5z" />
    <glyph glyph-name="abreve" unicode="&#x103;" horiz-adv-x="560" 
d="M99 30.5q-49 43.5 -49 114.5q0 66 44.5 109t124.5 54l130 18q29 4 42 19.5t13 44.5v8q0 48 -37.5 77.5t-93.5 29.5q-44 0 -76.5 -17.5t-51.5 -48.5q-8 -13 -20 -13q-6 0 -13 5l-27 18q-9 8 -9 17q0 4 3 10q29 48 79.5 75.5t116.5 27.5q60 0 107 -22.5t72.5 -63.5
t25.5 -95v-384q0 -6 -4 -10t-10 -4h-42q-6 0 -10 4t-4 10v69q-31 -45 -79.5 -70.5t-105.5 -25.5q-77 0 -126 43.5zM322 83q40 26 62.5 65.5t22.5 77.5v41q-24 -3 -154 -21l-28 -4q-100 -15 -100 -94q0 -41 30 -66t78 -25q49 0 89 26zM196 660.5q-34 18.5 -46 36.5
q-4 8 -4 10q0 6 6 10l32 28q3 3 6 3q4 0 8 -4q1 -1 18 -14.5t61 -13.5q24 0 41 7t37 22q7 6 13 0l32 -29q5 -5 5 -10q0 -4 -3 -9q-6 -9 -23 -22t-44 -23t-59 -10q-46 0 -80 18.5z" />
    <glyph glyph-name="acircumflex" unicode="&#xe2;" horiz-adv-x="560" 
d="M99 30.5q-49 43.5 -49 114.5q0 66 44.5 109t124.5 54l130 18q29 4 42 19.5t13 44.5v8q0 48 -37.5 77.5t-93.5 29.5q-44 0 -76.5 -17.5t-51.5 -48.5q-8 -13 -20 -13q-6 0 -13 5l-27 18q-9 8 -9 17q0 4 3 10q29 48 79.5 75.5t116.5 27.5q60 0 107 -22.5t72.5 -63.5
t25.5 -95v-384q0 -6 -4 -10t-10 -4h-42q-6 0 -10 4t-4 10v69q-31 -45 -79.5 -70.5t-105.5 -25.5q-77 0 -126 43.5zM322 83q40 26 62.5 65.5t22.5 77.5v41q-24 -3 -154 -21l-28 -4q-100 -15 -100 -94q0 -41 30 -66t78 -25q49 0 89 26zM141.5 637.5q-3.5 6.5 1.5 12.5l81 100
q6 9 18 9h64q12 0 18 -9l81 -100q3 -3 3 -7q0 -5 -3.5 -8.5t-9.5 -3.5h-33q-12 0 -25 10l-63 49l-63 -49q-13 -10 -24 -10h-34q-8 0 -11.5 6.5z" />
    <glyph glyph-name="adieresis" unicode="&#xe4;" horiz-adv-x="560" 
d="M99 30.5q-49 43.5 -49 114.5q0 66 44.5 109t124.5 54l130 18q29 4 42 19.5t13 44.5v8q0 48 -37.5 77.5t-93.5 29.5q-44 0 -76.5 -17.5t-51.5 -48.5q-8 -13 -20 -13q-6 0 -13 5l-27 18q-9 8 -9 17q0 4 3 10q29 48 79.5 75.5t116.5 27.5q60 0 107 -22.5t72.5 -63.5
t25.5 -95v-384q0 -6 -4 -10t-10 -4h-42q-6 0 -10 4t-4 10v69q-31 -45 -79.5 -70.5t-105.5 -25.5q-77 0 -126 43.5zM322 83q40 26 62.5 65.5t22.5 77.5v41q-24 -3 -154 -21l-28 -4q-100 -15 -100 -94q0 -41 30 -66t78 -25q49 0 89 26zM119 648q-4 4 -4 10v87q0 6 4 10t10 4
h48q6 0 10 -4t4 -10v-87q0 -6 -4 -10t-10 -4h-48q-6 0 -10 4zM361 648q-4 4 -4 10v87q0 6 4 10t10 4h48q6 0 10 -4t4 -10v-87q0 -6 -4 -10t-10 -4h-48q-6 0 -10 4z" />
    <glyph glyph-name="agrave" unicode="&#xe0;" horiz-adv-x="560" 
d="M99 30.5q-49 43.5 -49 114.5q0 66 44.5 109t124.5 54l130 18q29 4 42 19.5t13 44.5v8q0 48 -37.5 77.5t-93.5 29.5q-44 0 -76.5 -17.5t-51.5 -48.5q-8 -13 -20 -13q-6 0 -13 5l-27 18q-9 8 -9 17q0 4 3 10q29 48 79.5 75.5t116.5 27.5q60 0 107 -22.5t72.5 -63.5
t25.5 -95v-384q0 -6 -4 -10t-10 -4h-42q-6 0 -10 4t-4 10v69q-31 -45 -79.5 -70.5t-105.5 -25.5q-77 0 -126 43.5zM322 83q40 26 62.5 65.5t22.5 77.5v41q-24 -3 -154 -21l-28 -4q-100 -15 -100 -94q0 -41 30 -66t78 -25q49 0 89 26zM247 643l-81 93q-4 4 -4 10t3.5 9.5
t10.5 3.5h67q20 0 28 -19l37 -90q2 -6 2 -7q0 -5 -3.5 -8.5t-9.5 -3.5h-24q-16 0 -26 12z" />
    <glyph glyph-name="amacron" unicode="&#x101;" horiz-adv-x="560" 
d="M99 30.5q-49 43.5 -49 114.5q0 66 44.5 109t124.5 54l130 18q29 4 42 19.5t13 44.5v8q0 48 -37.5 77.5t-93.5 29.5q-44 0 -76.5 -17.5t-51.5 -48.5q-8 -13 -20 -13q-6 0 -13 5l-27 18q-9 8 -9 17q0 4 3 10q29 48 79.5 75.5t116.5 27.5q60 0 107 -22.5t72.5 -63.5
t25.5 -95v-384q0 -6 -4 -10t-10 -4h-42q-6 0 -10 4t-4 10v69q-31 -45 -79.5 -70.5t-105.5 -25.5q-77 0 -126 43.5zM322 83q40 26 62.5 65.5t22.5 77.5v41q-24 -3 -154 -21l-28 -4q-100 -15 -100 -94q0 -41 30 -66t78 -25q49 0 89 26zM133 666.5q-4 3.5 -4 9.5v37q0 6 4 9.5
t10 3.5h260q6 0 10 -3.5t4 -9.5v-37q0 -6 -4 -9.5t-10 -3.5h-260q-6 0 -10 3.5z" />
    <glyph glyph-name="aogonek" unicode="&#x105;" horiz-adv-x="565" 
d="M363.5 -173.5q-31.5 23.5 -31.5 61.5q0 34 23.5 66t54.5 55v74q-31 -45 -79.5 -70.5t-105.5 -25.5q-77 0 -126 43.5t-49 114.5q0 66 44.5 109t124.5 54l130 18q29 4 42 19.5t13 44.5v8q0 48 -37.5 77.5t-93.5 29.5q-44 0 -76.5 -17.5t-51.5 -48.5q-8 -13 -20 -13
q-6 0 -13 5l-27 18q-9 6 -9 17q0 4 3 10q29 48 79.5 75.5t116.5 27.5q60 0 107 -22.5t72.5 -63.5t25.5 -95v-370q0 -15 -13 -28q-29 -30 -42.5 -49t-13.5 -41q0 -37 42 -37h17q6 0 10.5 -4.5t4.5 -10.5v-40q0 -6 -4.5 -10.5t-10.5 -4.5h-30q-45 0 -76.5 23.5zM322 83
q40 26 62.5 65.5t22.5 77.5v41q-24 -3 -154 -21l-28 -4q-100 -15 -100 -94q0 -41 30 -66t78 -25q49 0 89 26z" />
    <glyph glyph-name="aring" unicode="&#xe5;" horiz-adv-x="560" 
d="M99 30.5q-49 43.5 -49 114.5q0 66 44.5 109t124.5 54l130 18q29 4 42 19.5t13 44.5v8q0 48 -37.5 77.5t-93.5 29.5q-44 0 -76.5 -17.5t-51.5 -48.5q-8 -13 -20 -13q-6 0 -13 5l-27 18q-9 8 -9 17q0 4 3 10q29 48 79.5 75.5t116.5 27.5q60 0 107 -22.5t72.5 -63.5
t25.5 -95v-384q0 -6 -4 -10t-10 -4h-42q-6 0 -10 4t-4 10v69q-31 -45 -79.5 -70.5t-105.5 -25.5q-77 0 -126 43.5zM322 83q40 26 62.5 65.5t22.5 77.5v41q-24 -3 -154 -21l-28 -4q-100 -15 -100 -94q0 -41 30 -66t78 -25q49 0 89 26zM216 641q-24 24 -24 58t24 58t58 24
t58 -24t24 -58t-24 -58t-58 -24t-58 24zM294.5 678.5q8.5 8.5 8.5 20.5t-8.5 20.5t-20.5 8.5t-20.5 -8.5t-8.5 -20.5t8.5 -20.5t20.5 -8.5t20.5 8.5z" />
    <glyph glyph-name="atilde" unicode="&#xe3;" horiz-adv-x="560" 
d="M99 30.5q-49 43.5 -49 114.5q0 66 44.5 109t124.5 54l130 18q29 4 42 19.5t13 44.5v8q0 48 -37.5 77.5t-93.5 29.5q-44 0 -76.5 -17.5t-51.5 -48.5q-8 -13 -20 -13q-6 0 -13 5l-27 18q-9 8 -9 17q0 4 3 10q29 48 79.5 75.5t116.5 27.5q60 0 107 -22.5t72.5 -63.5
t25.5 -95v-384q0 -6 -4 -10t-10 -4h-42q-6 0 -10 4t-4 10v69q-31 -45 -79.5 -70.5t-105.5 -25.5q-77 0 -126 43.5zM322 83q40 26 62.5 65.5t22.5 77.5v41q-24 -3 -154 -21l-28 -4q-100 -15 -100 -94q0 -41 30 -66t78 -25q49 0 89 26zM305.5 648q-17.5 5 -41.5 14
q-40 14 -52 14q-13 0 -20.5 -4t-13.5 -13q-3 -5 -5.5 -5.5t-8.5 0.5l-28 9q-9 3 -8 13q8 31 34.5 50.5t60.5 19.5q17 0 34 -5t43 -14q37 -15 52 -15q22 0 33 17q4 5 7 6t9 -1l27 -8q11 -4 8 -13q-7 -31 -34 -50.5t-62 -19.5q-17 0 -34.5 5z" />
    <glyph glyph-name="ae" unicode="&#xe6;" horiz-adv-x="899" 
d="M99 30.5q-49 43.5 -49 114.5q0 66 44.5 109t124.5 54l130 18q29 4 42 19.5t13 44.5v8q0 48 -37.5 77.5t-93.5 29.5q-44 0 -76.5 -17.5t-51.5 -48.5q-8 -13 -20 -13q-6 0 -13 5l-27 18q-9 8 -9 17q0 4 3 10q29 48 79.5 75.5t116.5 27.5q60 0 106 -22t72 -62
q30 39 74.5 61.5t96.5 22.5q59 0 109 -29t79 -79.5t29 -109.5v-68q0 -15 -10.5 -25.5t-25.5 -10.5h-320v-44q0 -38 18.5 -70t50.5 -50.5t70 -18.5h145q6 0 10 -4t4 -10v-46q0 -6 -4 -10t-10 -4h-145q-60 0 -110 29.5t-78 79.5q-31 -56 -88 -89t-123 -33q-77 0 -126 43.5z
M763 329v37q0 38 -18.5 70t-50.5 50.5t-70 18.5t-70 -18.5t-50.5 -50.5t-18.5 -70v-37h278zM322 83q40 26 62.5 65.5t22.5 77.5v41q-24 -3 -154 -21l-28 -4q-100 -15 -100 -94q0 -41 30 -66t78 -25q49 0 89 26z" />
    <glyph glyph-name="b" unicode="b" horiz-adv-x="590" 
d="M232.5 4.5q-39.5 17.5 -68.5 48.5v-39q0 -6 -4 -10t-10 -4h-46q-6 0 -10 4t-4 10v731q0 6 4 10t10 4h50q6 0 10 -4t4 -10v-236q28 33 66.5 51.5t81.5 18.5q57 0 105 -28t76 -76t28 -105v-174q0 -57 -28 -105t-76 -76t-105 -28q-44 0 -83.5 17.5zM378 79.5
q32 18.5 50.5 50.5t18.5 70v166q0 38 -18.5 70t-50.5 50.5t-70 18.5t-70.5 -18.5t-51 -50.5t-18.5 -70v-166q0 -38 18.5 -70t51 -50.5t70.5 -18.5t70 18.5z" />
    <glyph glyph-name="c" unicode="c" horiz-adv-x="492" 
d="M173 16q-50 29 -79 79.5t-29 109.5v156q0 59 29 109.5t79 79.5t109 29q43 0 81.5 -16t67.5 -44q6 -6 6 -14q0 -7 -6 -15q-10 -11 -23 -23q-7 -6 -15 -6q-9 0 -16 7q-40 37 -95 37q-38 0 -70 -18.5t-50.5 -50.5t-18.5 -70v-166q0 -38 18.5 -70t50.5 -50.5t70 -18.5
q55 0 95 37q7 7 16 7q8 0 15 -6q12 -10 23 -23q6 -6 6 -15q0 -8 -6 -14q-29 -28 -67.5 -44t-81.5 -16q-59 0 -109 29z" />
    <glyph glyph-name="cacute" unicode="&#x107;" horiz-adv-x="492" 
d="M173 16q-50 29 -79 79.5t-29 109.5v156q0 59 29 109.5t79 79.5t109 29q43 0 81.5 -16t67.5 -44q6 -6 6 -14q0 -7 -6 -15q-10 -11 -23 -23q-7 -6 -15 -6q-9 0 -16 7q-40 37 -95 37q-38 0 -70 -18.5t-50.5 -50.5t-18.5 -70v-166q0 -38 18.5 -70t50.5 -50.5t70 -18.5
q55 0 95 37q7 7 16 7q8 0 15 -6q12 -10 23 -23q6 -6 6 -15q0 -8 -6 -14q-29 -28 -67.5 -44t-81.5 -16q-59 0 -109 29zM249 636.5q-3 5.5 0 13.5l37 90q8 19 28 19h67q6 0 10 -3.5t4 -9.5t-4 -10l-81 -93q-10 -12 -26 -12h-24q-8 0 -11 5.5z" />
    <glyph glyph-name="ccaron" unicode="&#x10d;" horiz-adv-x="492" 
d="M173 16q-50 29 -79 79.5t-29 109.5v156q0 59 29 109.5t79 79.5t109 29q43 0 81.5 -16t67.5 -44q6 -6 6 -14q0 -7 -6 -15q-10 -11 -23 -23q-7 -6 -15 -6q-9 0 -16 7q-40 37 -95 37q-38 0 -70 -18.5t-50.5 -50.5t-18.5 -70v-166q0 -38 18.5 -70t50.5 -50.5t70 -18.5
q55 0 95 37q7 7 16 7q8 0 15 -6q12 -10 23 -23q6 -6 6 -15q0 -8 -6 -14q-29 -28 -67.5 -44t-81.5 -16q-59 0 -109 29zM228 640l-81 100q-3 3 -3 7q0 5 3.5 8.5t9.5 3.5h33q12 0 25 -10l63 -49l63 49q13 10 24 10h34q8 0 11.5 -6.5t-1.5 -12.5l-81 -100q-6 -9 -18 -9h-64
q-12 0 -18 9z" />
    <glyph glyph-name="ccedilla" unicode="&#xe7;" horiz-adv-x="492" 
d="M173 16q-50 29 -79 79.5t-29 109.5v156q0 59 29 109.5t79 79.5t109 29q43 0 81.5 -16t67.5 -44q6 -6 6 -14q0 -7 -6 -15q-10 -11 -23 -23q-7 -6 -15 -6q-9 0 -16 7q-40 37 -95 37q-38 0 -70 -18.5t-50.5 -50.5t-18.5 -70v-166q0 -38 18.5 -70t50.5 -50.5t70 -18.5
q55 0 95 37q7 7 16 7q8 0 15 -6q12 -10 23 -23q6 -6 6 -15q0 -8 -6 -14q-29 -28 -67.5 -44t-81.5 -16q-59 0 -109 29zM230 -209q-11 0 -16 10l-14 35q-1 2 -1 5q0 7 9 11q33 13 33 50v19q0 6 3.5 10t9.5 4h52q7 0 12 -5t5 -13v-11q0 -48 -28 -76.5t-61 -38.5h-4z" />
    <glyph glyph-name="cdotaccent" unicode="&#x10b;" horiz-adv-x="492" 
d="M173 16q-50 29 -79 79.5t-29 109.5v156q0 59 29 109.5t79 79.5t109 29q43 0 81.5 -16t67.5 -44q6 -6 6 -14q0 -7 -6 -15q-10 -11 -23 -23q-7 -6 -15 -6q-9 0 -16 7q-40 37 -95 37q-38 0 -70 -18.5t-50.5 -50.5t-18.5 -70v-166q0 -38 18.5 -70t50.5 -50.5t70 -18.5
q55 0 95 37q7 7 16 7q8 0 15 -6q12 -10 23 -23q6 -6 6 -15q0 -8 -6 -14q-29 -28 -67.5 -44t-81.5 -16q-59 0 -109 29zM240 648q-4 4 -4 10v87q0 6 4 10t10 4h48q6 0 10 -4t4 -10v-87q0 -6 -4 -10t-10 -4h-48q-6 0 -10 4z" />
    <glyph glyph-name="d" unicode="d" horiz-adv-x="590" 
d="M169 15q-48 28 -76 76t-28 105v174q0 57 28 105t76.5 76t105.5 28q41 0 79.5 -15t67.5 -42v223q0 6 4 10t10 4h50q6 0 10 -4t4 -10v-731q0 -6 -4 -10t-10 -4h-46q-6 0 -10 4t-4 10v44q-28 -34 -67.5 -52.5t-84.5 -18.5q-57 0 -105 28zM352.5 79.5q32.5 18.5 51 50.5
t18.5 70v166q0 38 -18.5 70t-51 50.5t-70.5 18.5t-70 -18.5t-50.5 -50.5t-18.5 -70v-166q0 -38 18.5 -70t50.5 -50.5t70 -18.5t70.5 18.5z" />
    <glyph glyph-name="eth" unicode="&#xf0;" horiz-adv-x="574" 
d="M173 16q-50 29 -79 79.5t-29 109.5v103q0 60 29 110t79 79t109 29q70 0 127 -41q-19 82 -77 137l-138 -65q-2 -1 -5 -1q-5 0 -8.5 3.5t-3.5 8.5v40q0 5 3 10t8 7l81 38q-51 23 -112 23q-5 0 -9 4.5t-4 9.5v45q0 6 4 10t11 4q110 0 192 -58l121 57q2 1 5 1q5 0 8.5 -3.5
t3.5 -8.5v-40q0 -5 -3 -10t-8 -7l-75 -35q30 -32 55 -81q24 -51 32.5 -112.5t8.5 -145.5v-111q0 -59 -29 -109.5t-79 -79.5t-109 -29t-109 29zM352 79.5q32 18.5 50.5 50.5t18.5 70v113q0 38 -18.5 70t-50.5 50.5t-70 18.5t-70 -18.5t-50.5 -50.5t-18.5 -70v-113
q0 -38 18.5 -70t50.5 -50.5t70 -18.5t70 18.5z" />
    <glyph glyph-name="dcaron" unicode="&#x10f;" horiz-adv-x="595" 
d="M169 15q-48 28 -76 76t-28 105v174q0 57 28 105t76.5 76t105.5 28q41 0 79.5 -15t67.5 -42v223q0 6 4 10t10 4h50q6 0 10 -4t4 -10v-731q0 -6 -4 -10t-10 -4h-46q-6 0 -10 4t-4 10v44q-28 -34 -67.5 -52.5t-84.5 -18.5q-57 0 -105 28zM558 636.5q-3 5.5 0 13.5l37 90
q8 19 28 19h67q7 0 10.5 -3.5t3.5 -9.5t-4 -10l-81 -93q-10 -12 -26 -12h-24q-8 0 -11 5.5zM352.5 79.5q32.5 18.5 51 50.5t18.5 70v166q0 38 -18.5 70t-51 50.5t-70.5 18.5t-70 -18.5t-50.5 -50.5t-18.5 -70v-166q0 -38 18.5 -70t50.5 -50.5t70 -18.5t70.5 18.5z" />
    <glyph glyph-name="dcroat" unicode="&#x111;" horiz-adv-x="607" 
d="M567 671q4 -4 4 -10v-32q0 -6 -4 -10t-10 -4h-57v-601q0 -6 -4 -10t-10 -4h-46q-6 0 -10 4t-4 10v44q-28 -34 -67.5 -52.5t-84.5 -18.5q-57 0 -105 28t-76 76t-28 105v174q0 57 28 105t76.5 76t105.5 28q41 0 79.5 -15t67.5 -42v93h-89q-6 0 -10 4t-4 10v32q0 6 4 10
t10 4h89v70q0 6 4 10t10 4h50q6 0 10 -4t4 -10v-70h57q6 0 10 -4zM422 366q0 38 -18.5 70t-51 50.5t-70.5 18.5t-70 -18.5t-50.5 -50.5t-18.5 -70v-166q0 -38 18.5 -70t50.5 -50.5t70 -18.5t70.5 18.5t51 50.5t18.5 70v166z" />
    <glyph glyph-name="e" unicode="e" horiz-adv-x="557" 
d="M173 29q-50 29 -79 79.5t-29 109.5v143q0 59 29 109.5t79 79.5t109 29t109 -29t79 -79.5t29 -109.5v-68q0 -15 -10.5 -25.5t-25.5 -10.5h-320v-44q0 -38 18.5 -70t50.5 -50.5t70 -18.5h145q6 0 10 -4t4 -10v-46q0 -6 -4 -10t-10 -4h-145q-59 0 -109 29zM421 329v37
q0 38 -18.5 70t-50.5 50.5t-70 18.5t-70 -18.5t-50.5 -50.5t-18.5 -70v-37h278z" />
    <glyph glyph-name="eacute" unicode="&#xe9;" horiz-adv-x="557" 
d="M173 29q-50 29 -79 79.5t-29 109.5v143q0 59 29 109.5t79 79.5t109 29t109 -29t79 -79.5t29 -109.5v-68q0 -15 -10.5 -25.5t-25.5 -10.5h-320v-44q0 -38 18.5 -70t50.5 -50.5t70 -18.5h145q6 0 10 -4t4 -10v-46q0 -6 -4 -10t-10 -4h-145q-59 0 -109 29zM421 329v37
q0 38 -18.5 70t-50.5 50.5t-70 18.5t-70 -18.5t-50.5 -50.5t-18.5 -70v-37h278zM257 636.5q-3 5.5 0 13.5l37 90q8 19 28 19h67q6 0 10 -3.5t4 -9.5t-4 -10l-81 -93q-10 -12 -26 -12h-24q-8 0 -11 5.5z" />
    <glyph glyph-name="ecaron" unicode="&#x11b;" horiz-adv-x="557" 
d="M173 29q-50 29 -79 79.5t-29 109.5v143q0 59 29 109.5t79 79.5t109 29t109 -29t79 -79.5t29 -109.5v-68q0 -15 -10.5 -25.5t-25.5 -10.5h-320v-44q0 -38 18.5 -70t50.5 -50.5t70 -18.5h145q6 0 10 -4t4 -10v-46q0 -6 -4 -10t-10 -4h-145q-59 0 -109 29zM421 329v37
q0 38 -18.5 70t-50.5 50.5t-70 18.5t-70 -18.5t-50.5 -50.5t-18.5 -70v-37h278zM236 640l-81 100q-3 3 -3 7q0 5 3.5 8.5t9.5 3.5h33q12 0 25 -10l63 -49l63 49q13 10 24 10h34q8 0 11.5 -6.5t-1.5 -12.5l-81 -100q-6 -9 -18 -9h-64q-12 0 -18 9z" />
    <glyph glyph-name="ecircumflex" unicode="&#xea;" horiz-adv-x="557" 
d="M173 29q-50 29 -79 79.5t-29 109.5v143q0 59 29 109.5t79 79.5t109 29t109 -29t79 -79.5t29 -109.5v-68q0 -15 -10.5 -25.5t-25.5 -10.5h-320v-44q0 -38 18.5 -70t50.5 -50.5t70 -18.5h145q6 0 10 -4t4 -10v-46q0 -6 -4 -10t-10 -4h-145q-59 0 -109 29zM421 329v37
q0 38 -18.5 70t-50.5 50.5t-70 18.5t-70 -18.5t-50.5 -50.5t-18.5 -70v-37h278zM149.5 637.5q-3.5 6.5 1.5 12.5l81 100q6 9 18 9h64q12 0 18 -9l81 -100q3 -3 3 -7q0 -5 -3.5 -8.5t-9.5 -3.5h-33q-12 0 -25 10l-63 49l-63 -49q-13 -10 -24 -10h-34q-8 0 -11.5 6.5z" />
    <glyph glyph-name="edieresis" unicode="&#xeb;" horiz-adv-x="557" 
d="M173 29q-50 29 -79 79.5t-29 109.5v143q0 59 29 109.5t79 79.5t109 29t109 -29t79 -79.5t29 -109.5v-68q0 -15 -10.5 -25.5t-25.5 -10.5h-320v-44q0 -38 18.5 -70t50.5 -50.5t70 -18.5h145q6 0 10 -4t4 -10v-46q0 -6 -4 -10t-10 -4h-145q-59 0 -109 29zM421 329v37
q0 38 -18.5 70t-50.5 50.5t-70 18.5t-70 -18.5t-50.5 -50.5t-18.5 -70v-37h278zM127 648q-4 4 -4 10v87q0 6 4 10t10 4h48q6 0 10 -4t4 -10v-87q0 -6 -4 -10t-10 -4h-48q-6 0 -10 4zM369 648q-4 4 -4 10v87q0 6 4 10t10 4h48q6 0 10 -4t4 -10v-87q0 -6 -4 -10t-10 -4h-48
q-6 0 -10 4z" />
    <glyph glyph-name="edotaccent" unicode="&#x117;" horiz-adv-x="557" 
d="M173 29q-50 29 -79 79.5t-29 109.5v143q0 59 29 109.5t79 79.5t109 29t109 -29t79 -79.5t29 -109.5v-68q0 -15 -10.5 -25.5t-25.5 -10.5h-320v-44q0 -38 18.5 -70t50.5 -50.5t70 -18.5h145q6 0 10 -4t4 -10v-46q0 -6 -4 -10t-10 -4h-145q-59 0 -109 29zM421 329v37
q0 38 -18.5 70t-50.5 50.5t-70 18.5t-70 -18.5t-50.5 -50.5t-18.5 -70v-37h278zM248 648q-4 4 -4 10v87q0 6 4 10t10 4h48q6 0 10 -4t4 -10v-87q0 -6 -4 -10t-10 -4h-48q-6 0 -10 4z" />
    <glyph glyph-name="egrave" unicode="&#xe8;" horiz-adv-x="557" 
d="M173 29q-50 29 -79 79.5t-29 109.5v143q0 59 29 109.5t79 79.5t109 29t109 -29t79 -79.5t29 -109.5v-68q0 -15 -10.5 -25.5t-25.5 -10.5h-320v-44q0 -38 18.5 -70t50.5 -50.5t70 -18.5h145q6 0 10 -4t4 -10v-46q0 -6 -4 -10t-10 -4h-145q-59 0 -109 29zM421 329v37
q0 38 -18.5 70t-50.5 50.5t-70 18.5t-70 -18.5t-50.5 -50.5t-18.5 -70v-37h278zM255 643l-81 93q-4 4 -4 10t3.5 9.5t10.5 3.5h67q20 0 28 -19l37 -90q2 -6 2 -7q0 -5 -3.5 -8.5t-9.5 -3.5h-24q-16 0 -26 12z" />
    <glyph glyph-name="emacron" unicode="&#x113;" horiz-adv-x="557" 
d="M173 29q-50 29 -79 79.5t-29 109.5v143q0 59 29 109.5t79 79.5t109 29t109 -29t79 -79.5t29 -109.5v-68q0 -15 -10.5 -25.5t-25.5 -10.5h-320v-44q0 -38 18.5 -70t50.5 -50.5t70 -18.5h145q6 0 10 -4t4 -10v-46q0 -6 -4 -10t-10 -4h-145q-59 0 -109 29zM421 329v37
q0 38 -18.5 70t-50.5 50.5t-70 18.5t-70 -18.5t-50.5 -50.5t-18.5 -70v-37h278zM141 666.5q-4 3.5 -4 9.5v37q0 6 4 9.5t10 3.5h260q6 0 10 -3.5t4 -9.5v-37q0 -6 -4 -9.5t-10 -3.5h-260q-6 0 -10 3.5z" />
    <glyph glyph-name="eogonek" unicode="&#x119;" horiz-adv-x="557" 
d="M324.5 -173.5q-31.5 23.5 -31.5 61.5q0 31 19.5 59.5t47.5 52.5h-78q-59 0 -109 29t-79 79.5t-29 109.5v143q0 59 29 109.5t79 79.5t109 29t109 -29t79 -79.5t29 -109.5v-68q0 -15 -10.5 -25.5t-25.5 -10.5h-320v-44q0 -38 18.5 -70t50.5 -50.5t70 -18.5h145q6 0 10 -4
t4 -10v-32q0 -15 -13 -28q-29 -30 -42.5 -49t-13.5 -41q0 -37 42 -37h17q6 0 10.5 -4.5t4.5 -10.5v-40q0 -6 -4.5 -10.5t-10.5 -4.5h-30q-45 0 -76.5 23.5zM421 329v37q0 38 -18.5 70t-50.5 50.5t-70 18.5t-70 -18.5t-50.5 -50.5t-18.5 -70v-37h278z" />
    <glyph glyph-name="f" unicode="f" horiz-adv-x="408" 
d="M134 4q-4 4 -4 10v478h-76q-6 0 -10 4t-4 10v46q0 6 4 10t10 4h76v40q0 66 41 109.5t113 43.5h80q6 0 10 -4t4 -10v-43q0 -6 -4 -10t-10 -4h-81q-34 0 -54.5 -21.5t-20.5 -56.5v-44h136q6 0 10 -4t4 -10v-46q0 -6 -4 -10t-10 -4h-136v-478q0 -6 -4 -10t-10 -4h-50
q-6 0 -10 4z" />
    <glyph glyph-name="g" unicode="g" horiz-adv-x="585" 
d="M124.5 -171q-59.5 35 -59.5 104q0 35 16 67t43 53q-25 17 -36.5 34.5t-11.5 42.5q0 31 17.5 59t47.5 47q-34 26 -53 64.5t-19 85.5q0 57 27.5 101t74.5 68t104 24q39 0 78 -13h198q6 0 10 -4t4 -10v-46q0 -6 -4 -10t-10 -4h-101q31 -45 31 -106q0 -57 -27.5 -101
t-74.5 -68t-104 -24q-38 0 -79 13q-22 -10 -34 -26t-12 -34q0 -23 20 -34q16 -9 47 -13t97 -10l39 -3q48 -4 82.5 -13t59 -35t24.5 -76q0 -82 -67 -125t-173 -43q-95 0 -154.5 35zM369.5 296.5q35.5 34.5 35.5 89.5t-35.5 89.5t-94.5 34.5t-94.5 -34.5t-35.5 -89.5
t35.5 -89.5t94.5 -34.5t94.5 34.5zM402 -115q44 22 44 69q0 24 -12.5 36t-34 16.5t-63.5 8.5q-9 1 -42.5 3.5t-73.5 7.5q-24 3 -40 6q-20 -15 -31.5 -37t-11.5 -45q0 -46 42.5 -66.5t108.5 -20.5q70 0 114 22z" />
    <glyph glyph-name="gbreve" unicode="&#x11f;" horiz-adv-x="585" 
d="M124.5 -171q-59.5 35 -59.5 104q0 35 16 67t43 53q-25 17 -36.5 34.5t-11.5 42.5q0 31 17.5 59t47.5 47q-34 26 -53 64.5t-19 85.5q0 57 27.5 101t74.5 68t104 24q39 0 78 -13h198q6 0 10 -4t4 -10v-46q0 -6 -4 -10t-10 -4h-101q31 -45 31 -106q0 -57 -27.5 -101
t-74.5 -68t-104 -24q-38 0 -79 13q-22 -10 -34 -26t-12 -34q0 -23 20 -34q16 -9 47 -13t97 -10l39 -3q48 -4 82.5 -13t59 -35t24.5 -76q0 -82 -67 -125t-173 -43q-95 0 -154.5 35zM369.5 296.5q35.5 34.5 35.5 89.5t-35.5 89.5t-94.5 34.5t-94.5 -34.5t-35.5 -89.5
t35.5 -89.5t94.5 -34.5t94.5 34.5zM402 -115q44 22 44 69q0 24 -12.5 36t-34 16.5t-63.5 8.5q-9 1 -42.5 3.5t-73.5 7.5q-24 3 -40 6q-20 -15 -31.5 -37t-11.5 -45q0 -46 42.5 -66.5t108.5 -20.5q70 0 114 22zM197 660.5q-34 18.5 -46 36.5q-4 8 -4 10q0 6 6 10l32 28
q3 3 6 3q4 0 8 -4q1 -1 18 -14.5t61 -13.5q24 0 41 7t37 22q7 6 13 0l32 -29q5 -5 5 -10q0 -4 -3 -9q-6 -9 -23 -22t-44 -23t-59 -10q-46 0 -80 18.5z" />
    <glyph glyph-name="gcommaaccent" unicode="&#x123;" horiz-adv-x="585" 
d="M230 635q-4 4 -4 9q0 6 4 10l92 105q10 12 26 12h24q8 0 11.5 -5.5t-0.5 -13.5l-48 -102q-9 -19 -28 -19h-67q-6 0 -10 4zM124.5 -171q-59.5 35 -59.5 104q0 35 16 67t43 53q-25 17 -36.5 34.5t-11.5 42.5q0 31 17.5 59t47.5 47q-34 26 -53 64.5t-19 85.5q0 57 27.5 101
t74.5 68t104 24q39 0 78 -13h198q6 0 10 -4t4 -10v-46q0 -6 -4 -10t-10 -4h-101q31 -45 31 -106q0 -57 -27.5 -101t-74.5 -68t-104 -24q-38 0 -79 13q-22 -10 -34 -26t-12 -34q0 -23 20 -34q16 -9 47 -13t97 -10l39 -3q48 -4 82.5 -13t59 -35t24.5 -76q0 -82 -67 -125
t-173 -43q-95 0 -154.5 35zM369.5 296.5q35.5 34.5 35.5 89.5t-35.5 89.5t-94.5 34.5t-94.5 -34.5t-35.5 -89.5t35.5 -89.5t94.5 -34.5t94.5 34.5zM402 -115q44 22 44 69q0 24 -12.5 36t-34 16.5t-63.5 8.5q-9 1 -42.5 3.5t-73.5 7.5q-24 3 -40 6q-20 -15 -31.5 -37
t-11.5 -45q0 -46 42.5 -66.5t108.5 -20.5q70 0 114 22z" />
    <glyph glyph-name="gdotaccent" unicode="&#x121;" horiz-adv-x="585" 
d="M124.5 -171q-59.5 35 -59.5 104q0 35 16 67t43 53q-25 17 -36.5 34.5t-11.5 42.5q0 31 17.5 59t47.5 47q-34 26 -53 64.5t-19 85.5q0 57 27.5 101t74.5 68t104 24q39 0 78 -13h198q6 0 10 -4t4 -10v-46q0 -6 -4 -10t-10 -4h-101q31 -45 31 -106q0 -57 -27.5 -101
t-74.5 -68t-104 -24q-38 0 -79 13q-22 -10 -34 -26t-12 -34q0 -23 20 -34q16 -9 47 -13t97 -10l39 -3q48 -4 82.5 -13t59 -35t24.5 -76q0 -82 -67 -125t-173 -43q-95 0 -154.5 35zM369.5 296.5q35.5 34.5 35.5 89.5t-35.5 89.5t-94.5 34.5t-94.5 -34.5t-35.5 -89.5
t35.5 -89.5t94.5 -34.5t94.5 34.5zM402 -115q44 22 44 69q0 24 -12.5 36t-34 16.5t-63.5 8.5q-9 1 -42.5 3.5t-73.5 7.5q-24 3 -40 6q-20 -15 -31.5 -37t-11.5 -45q0 -46 42.5 -66.5t108.5 -20.5q70 0 114 22zM241 648q-4 4 -4 10v87q0 6 4 10t10 4h48q6 0 10 -4t4 -10v-87
q0 -6 -4 -10t-10 -4h-48q-6 0 -10 4z" />
    <glyph glyph-name="h" unicode="h" horiz-adv-x="594" 
d="M94 4q-4 4 -4 10v731q0 6 4 10t10 4h50q6 0 10 -4t4 -10v-249q26 41 67.5 62t93.5 21q85 0 137.5 -52t52.5 -137v-376q0 -6 -4 -10t-10 -4h-50q-6 0 -10 4t-4 10v361q0 64 -33.5 97.5t-90.5 33.5q-67 0 -108 -44t-41 -121v-327q0 -6 -4 -10t-10 -4h-50q-6 0 -10 4z" />
    <glyph glyph-name="hbar" unicode="&#x127;" horiz-adv-x="596" 
d="M468.5 527q52.5 -52 52.5 -137v-375q0 -6 -4.5 -10.5t-10.5 -4.5h-49q-6 0 -10 4t-4 10v361q0 64 -33.5 97.5t-90.5 33.5q-67 0 -108 -44t-41 -121v-326q0 -6 -4.5 -10.5t-10.5 -4.5h-48q-6 0 -10.5 4.5t-4.5 10.5v600h-73q-6 0 -10 4t-4 10v32q0 6 4 10t10 4h73v69
q0 6 4.5 10.5t10.5 4.5h48q6 0 10.5 -4.5t4.5 -10.5v-69h93q6 0 10 -4t4 -10v-32q0 -6 -4 -10t-10 -4h-93v-119q26 41 67.5 62t93.5 21q85 0 137.5 -52z" />
    <glyph glyph-name="i" unicode="i" horiz-adv-x="393" 
d="M168 648q-4 4 -4 10v87q0 6 4 10t10 4h48q6 0 10 -4t4 -10v-87q0 -6 -4 -10t-10 -4h-48q-6 0 -10 4zM173.5 10.5q-10.5 10.5 -10.5 25.5v456h-104q-6 0 -10 4t-4 10v46q0 6 4 10t10 4h146q15 0 25.5 -10.5t10.5 -25.5v-456h103q6 0 10 -4t4 -10v-46q0 -6 -4 -10t-10 -4
h-145q-15 0 -25.5 10.5z" />
    <glyph glyph-name="dotlessi" unicode="&#x131;" horiz-adv-x="393" 
d="M173.5 10.5q-10.5 10.5 -10.5 25.5v456h-104q-6 0 -10 4t-4 10v46q0 6 4 10t10 4h146q15 0 25.5 -10.5t10.5 -25.5v-456h103q6 0 10 -4t4 -10v-46q0 -6 -4 -10t-10 -4h-145q-15 0 -25.5 10.5z" />
    <glyph glyph-name="iacute" unicode="&#xed;" horiz-adv-x="393" 
d="M173.5 10.5q-10.5 10.5 -10.5 25.5v456h-104q-6 0 -10 4t-4 10v46q0 6 4 10t10 4h146q15 0 25.5 -10.5t10.5 -25.5v-456h103q6 0 10 -4t4 -10v-46q0 -6 -4 -10t-10 -4h-145q-15 0 -25.5 10.5zM166 636.5q-3 5.5 0 13.5l37 90q8 19 28 19h67q6 0 10 -3.5t4 -9.5t-4 -10
l-81 -93q-10 -12 -26 -12h-24q-8 0 -11 5.5z" />
    <glyph glyph-name="icircumflex" unicode="&#xee;" horiz-adv-x="393" 
d="M173.5 10.5q-10.5 10.5 -10.5 25.5v456h-104q-6 0 -10 4t-4 10v46q0 6 4 10t10 4h146q15 0 25.5 -10.5t10.5 -25.5v-456h103q6 0 10 -4t4 -10v-46q0 -6 -4 -10t-10 -4h-145q-15 0 -25.5 10.5zM58.5 637.5q-3.5 6.5 1.5 12.5l81 100q6 9 18 9h64q12 0 18 -9l81 -100
q3 -3 3 -7q0 -5 -3.5 -8.5t-9.5 -3.5h-33q-12 0 -25 10l-63 49l-63 -49q-13 -10 -24 -10h-34q-8 0 -11.5 6.5z" />
    <glyph glyph-name="idieresis" unicode="&#xef;" horiz-adv-x="393" 
d="M173.5 10.5q-10.5 10.5 -10.5 25.5v456h-104q-6 0 -10 4t-4 10v46q0 6 4 10t10 4h146q15 0 25.5 -10.5t10.5 -25.5v-456h103q6 0 10 -4t4 -10v-46q0 -6 -4 -10t-10 -4h-145q-15 0 -25.5 10.5zM36 648q-4 4 -4 10v87q0 6 4 10t10 4h48q6 0 10 -4t4 -10v-87q0 -6 -4 -10
t-10 -4h-48q-6 0 -10 4zM278 648q-4 4 -4 10v87q0 6 4 10t10 4h48q6 0 10 -4t4 -10v-87q0 -6 -4 -10t-10 -4h-48q-6 0 -10 4z" />
    <glyph glyph-name="i.loclTRK" horiz-adv-x="393" 
d="M173.5 10.5q-10.5 10.5 -10.5 25.5v456h-104q-6 0 -10 4t-4 10v46q0 6 4 10t10 4h146q15 0 25.5 -10.5t10.5 -25.5v-456h103q6 0 10 -4t4 -10v-46q0 -6 -4 -10t-10 -4h-145q-15 0 -25.5 10.5zM157 648q-4 4 -4 10v87q0 6 4 10t10 4h48q6 0 10 -4t4 -10v-87q0 -6 -4 -10
t-10 -4h-48q-6 0 -10 4z" />
    <glyph glyph-name="igrave" unicode="&#xec;" horiz-adv-x="393" 
d="M173.5 10.5q-10.5 10.5 -10.5 25.5v456h-104q-6 0 -10 4t-4 10v46q0 6 4 10t10 4h146q15 0 25.5 -10.5t10.5 -25.5v-456h103q6 0 10 -4t4 -10v-46q0 -6 -4 -10t-10 -4h-145q-15 0 -25.5 10.5zM164 643l-81 93q-4 4 -4 10t3.5 9.5t10.5 3.5h67q20 0 28 -19l37 -90
q2 -6 2 -7q0 -5 -3.5 -8.5t-9.5 -3.5h-24q-16 0 -26 12z" />
    <glyph glyph-name="imacron" unicode="&#x12b;" horiz-adv-x="393" 
d="M173.5 10.5q-10.5 10.5 -10.5 25.5v456h-104q-6 0 -10 4t-4 10v46q0 6 4 10t10 4h146q15 0 25.5 -10.5t10.5 -25.5v-456h103q6 0 10 -4t4 -10v-46q0 -6 -4 -10t-10 -4h-145q-15 0 -25.5 10.5zM50 666.5q-4 3.5 -4 9.5v37q0 6 4 9.5t10 3.5h260q6 0 10 -3.5t4 -9.5v-37
q0 -6 -4 -9.5t-10 -3.5h-260q-6 0 -10 3.5z" />
    <glyph glyph-name="iogonek" unicode="&#x12f;" horiz-adv-x="393" 
d="M165 668q-4 4 -4 10v87q0 6 4 10t10 4h48q6 0 10 -4t4 -10v-87q0 -6 -4 -10t-10 -4h-48q-6 0 -10 4zM241.5 -173.5q-31.5 23.5 -31.5 61.5q0 31 19.5 59.5t47.5 52.5h-78q-15 0 -25.5 10.5t-10.5 25.5v456h-104q-6 0 -10 4t-4 10v46q0 6 4 10t10 4h146q15 0 25.5 -10.5
t10.5 -25.5v-456h103q6 0 10 -4t4 -10v-32q0 -15 -13 -28q-29 -30 -42.5 -49t-13.5 -41q0 -37 42 -37h17q6 0 10.5 -4.5t4.5 -10.5v-40q0 -6 -4.5 -10.5t-10.5 -4.5h-30q-45 0 -76.5 23.5z" />
    <glyph glyph-name="j" unicode="j" horiz-adv-x="355" 
d="M187 668q-4 4 -4 10v87q0 6 4 10t10 4h48q6 0 10 -4t4 -10v-87q0 -6 -4 -10t-10 -4h-48q-6 0 -10 4zM39 -189q-4 4 -4 10v44q0 6 4 10t10 4h58q34 0 54.5 21.5t20.5 56.5v535h-133q-6 0 -10 4t-4 10v46q0 6 4 10t10 4h175q15 0 25.5 -10.5t10.5 -25.5v-573
q0 -63 -39.5 -106.5t-104.5 -43.5h-67q-6 0 -10 4z" />
    <glyph glyph-name="k" unicode="k" horiz-adv-x="537" 
d="M94.5 3.5q-4.5 3.5 -4.5 9.5v732q0 6 4 10t10 4h50q6 0 10 -4t4 -10v-399h41l197 211q8 9 17 9h65q6 0 9.5 -3.5t3.5 -8.5q0 -6 -4 -10l-222 -232l234 -292q3 -4 3 -8q0 -5 -3 -8.5t-9 -3.5h-65q-9 0 -17 9l-209 263h-41v-259q0 -6 -4.5 -9.5t-10.5 -3.5h-48
q-6 0 -10.5 3.5z" />
    <glyph glyph-name="kcommaaccent" unicode="&#x137;" horiz-adv-x="537" 
d="M94.5 3.5q-4.5 3.5 -4.5 9.5v732q0 6 4 10t10 4h50q6 0 10 -4t4 -10v-399h41l197 211q8 9 17 9h65q6 0 9.5 -3.5t3.5 -8.5q0 -6 -4 -10l-222 -232l234 -292q3 -4 3 -8q0 -5 -3 -8.5t-9 -3.5h-65q-9 0 -17 9l-209 263h-41v-259q0 -6 -4.5 -9.5t-10.5 -3.5h-48
q-6 0 -10.5 3.5zM192 -187.5q-3 5.5 0 13.5l37 90q8 19 28 19h67q6 0 10 -4t4 -9q0 -6 -4 -10l-81 -93q-10 -12 -26 -12h-24q-8 0 -11 5.5z" />
    <glyph glyph-name="l" unicode="l" horiz-adv-x="350" 
d="M132.5 10.5q-10.5 10.5 -10.5 25.5v649h-93q-6 0 -10 4t-4 10v46q0 6 4 10t10 4h135q15 0 25.5 -10.5t10.5 -25.5v-649h106q6 0 10 -4t4 -10v-46q0 -6 -4 -10t-10 -4h-148q-15 0 -25.5 10.5z" />
    <glyph glyph-name="lacute" unicode="&#x13a;" horiz-adv-x="350" 
d="M132.5 10.5q-10.5 10.5 -10.5 25.5v649h-93q-6 0 -10 4t-4 10v46q0 6 4 10t10 4h135q15 0 25.5 -10.5t10.5 -25.5v-649h106q6 0 10 -4t4 -10v-46q0 -6 -4 -10t-10 -4h-148q-15 0 -25.5 10.5zM142 829.5q-3 5.5 0 13.5l37 90q8 19 28 19h67q6 0 10 -3.5t4 -9.5t-4 -10
l-81 -93q-10 -12 -26 -12h-24q-8 0 -11 5.5z" />
    <glyph glyph-name="lcaron" unicode="&#x13e;" horiz-adv-x="362" 
d="M132.5 10.5q-10.5 10.5 -10.5 25.5v649h-93q-6 0 -10 4t-4 10v46q0 6 4 10t10 4h135q15 0 25.5 -10.5t10.5 -25.5v-649h106q6 0 10 -4t4 -10v-46q0 -6 -4 -10t-10 -4h-148q-15 0 -25.5 10.5zM276 636.5q-3 5.5 0 13.5l37 90q8 19 28 19h67q7 0 10.5 -3.5t3.5 -9.5t-4 -10
l-81 -93q-10 -12 -26 -12h-24q-8 0 -11 5.5z" />
    <glyph glyph-name="lcommaaccent" unicode="&#x13c;" horiz-adv-x="350" 
d="M132.5 10.5q-10.5 10.5 -10.5 25.5v649h-93q-6 0 -10 4t-4 10v46q0 6 4 10t10 4h135q15 0 25.5 -10.5t10.5 -25.5v-649h106q6 0 10 -4t4 -10v-46q0 -6 -4 -10t-10 -4h-148q-15 0 -25.5 10.5zM123 -187.5q-3 5.5 0 13.5l37 90q8 19 28 19h67q6 0 10 -4t4 -9q0 -6 -4 -10
l-81 -93q-10 -12 -26 -12h-24q-8 0 -11 5.5z" />
    <glyph glyph-name="lslash" unicode="&#x142;" horiz-adv-x="395" 
d="M230 385v-311h106q6 0 10 -4t4 -10v-46q0 -6 -4 -10t-10 -4h-148q-15 0 -25.5 10.5t-10.5 25.5v277l-84 -78q-6 -4 -10 -4q-5 0 -9 4t-4 11v51q0 7 6 13l101 93v282h-93q-6 0 -10 4t-4 10v46q0 6 4 10t10 4h135q15 0 25.5 -10.5t10.5 -25.5v-248l97 90q6 4 10 4q5 0 9 -4
t4 -11v-51q0 -7 -6 -13z" />
    <glyph glyph-name="m" unicode="m" horiz-adv-x="925" 
d="M94 4q-4 4 -4 10v538q0 6 4 10t10 4h50q6 0 10 -4t4 -10v-54q24 40 63.5 60.5t87.5 20.5q63 0 109.5 -29.5t66.5 -80.5q21 53 65 81t100 28q85 0 137.5 -52t52.5 -137v-375q0 -6 -4 -10t-10 -4h-50q-6 0 -10 4t-4 10v360q0 64 -33.5 97.5t-90.5 33.5q-62 0 -100.5 -44
t-38.5 -121v-326q0 -6 -4 -10t-10 -4h-50q-6 0 -10 4t-4 10v361q0 64 -33.5 97.5t-90.5 33.5q-62 0 -100.5 -44t-38.5 -121v-327q0 -6 -4 -10t-10 -4h-50q-6 0 -10 4z" />
    <glyph glyph-name="n" unicode="n" horiz-adv-x="594" 
d="M94 5q-4 4 -4 10v537q0 6 4 10t10 4h50q6 0 10 -4t4 -10v-55q26 41 67.5 62t93.5 21q85 0 137.5 -52t52.5 -137v-376q0 -6 -4 -10t-10 -4h-50q-6 0 -10 4t-4 10v361q0 64 -33.5 97.5t-90.5 33.5q-67 0 -108 -44t-41 -121v-327q0 -6 -4 -10t-10 -4h-50q-6 0 -10 4z" />
    <glyph glyph-name="nacute" unicode="&#x144;" horiz-adv-x="594" 
d="M94 5q-4 4 -4 10v537q0 6 4 10t10 4h50q6 0 10 -4t4 -10v-55q26 41 67.5 62t93.5 21q85 0 137.5 -52t52.5 -137v-376q0 -6 -4 -10t-10 -4h-50q-6 0 -10 4t-4 10v361q0 64 -33.5 97.5t-90.5 33.5q-67 0 -108 -44t-41 -121v-327q0 -6 -4 -10t-10 -4h-50q-6 0 -10 4z
M280 636.5q-3 5.5 0 13.5l37 90q8 19 28 19h67q6 0 10 -3.5t4 -9.5t-4 -10l-81 -93q-10 -12 -26 -12h-24q-8 0 -11 5.5z" />
    <glyph glyph-name="ncaron" unicode="&#x148;" horiz-adv-x="594" 
d="M94 5q-4 4 -4 10v537q0 6 4 10t10 4h50q6 0 10 -4t4 -10v-55q26 41 67.5 62t93.5 21q85 0 137.5 -52t52.5 -137v-376q0 -6 -4 -10t-10 -4h-50q-6 0 -10 4t-4 10v361q0 64 -33.5 97.5t-90.5 33.5q-67 0 -108 -44t-41 -121v-327q0 -6 -4 -10t-10 -4h-50q-6 0 -10 4z
M259 640l-81 100q-3 3 -3 7q0 5 3.5 8.5t9.5 3.5h33q12 0 25 -10l63 -49l63 49q13 10 24 10h34q8 0 11.5 -6.5t-1.5 -12.5l-81 -100q-6 -9 -18 -9h-64q-12 0 -18 9z" />
    <glyph glyph-name="ncommaaccent" unicode="&#x146;" horiz-adv-x="594" 
d="M94 5q-4 4 -4 10v537q0 6 4 10t10 4h50q6 0 10 -4t4 -10v-55q26 41 67.5 62t93.5 21q85 0 137.5 -52t52.5 -137v-376q0 -6 -4 -10t-10 -4h-50q-6 0 -10 4t-4 10v361q0 64 -33.5 97.5t-90.5 33.5q-67 0 -108 -44t-41 -121v-327q0 -6 -4 -10t-10 -4h-50q-6 0 -10 4z
M203 -187.5q-3 5.5 0 13.5l37 90q8 19 28 19h67q6 0 10 -4t4 -9q0 -6 -4 -10l-81 -93q-10 -12 -26 -12h-24q-8 0 -11 5.5z" />
    <glyph glyph-name="eng" unicode="&#x14b;" horiz-adv-x="604" 
d="M298 -189q-4 4 -4 10v44q0 6 4 10t10 4h58q34 0 54.5 21.5t20.5 56.5v419q0 64 -33.5 97.5t-90.5 33.5q-67 0 -108 -44t-41 -121v-327q0 -6 -4 -10t-10 -4h-50q-6 0 -10 4t-4 10v537q0 6 4 10t10 4h50q6 0 10 -4t4 -10v-55q26 41 67.5 62t93.5 21q85 0 137.5 -52
t52.5 -137v-434q0 -63 -39.5 -106.5t-104.5 -43.5h-67q-6 0 -10 4z" />
    <glyph glyph-name="ntilde" unicode="&#xf1;" horiz-adv-x="594" 
d="M94 5q-4 4 -4 10v537q0 6 4 10t10 4h50q6 0 10 -4t4 -10v-55q26 41 67.5 62t93.5 21q85 0 137.5 -52t52.5 -137v-376q0 -6 -4 -10t-10 -4h-50q-6 0 -10 4t-4 10v361q0 64 -33.5 97.5t-90.5 33.5q-67 0 -108 -44t-41 -121v-327q0 -6 -4 -10t-10 -4h-50q-6 0 -10 4z
M336.5 648q-17.5 5 -41.5 14q-40 14 -52 14q-13 0 -20.5 -4t-13.5 -13q-3 -5 -5.5 -5.5t-8.5 0.5l-28 9q-9 3 -8 13q8 31 34.5 50.5t60.5 19.5q17 0 34 -5t43 -14q37 -15 52 -15q22 0 33 17q4 5 7 6t9 -1l27 -8q11 -4 8 -13q-7 -31 -34 -50.5t-62 -19.5q-17 0 -34.5 5z" />
    <glyph glyph-name="o" unicode="o" horiz-adv-x="564" 
d="M173 16q-50 29 -79 79.5t-29 109.5v156q0 59 29 109.5t79 79.5t109 29t109 -29t79 -79.5t29 -109.5v-156q0 -59 -29 -109.5t-79 -79.5t-109 -29t-109 29zM352 79.5q32 18.5 50.5 50.5t18.5 70v166q0 38 -18.5 70t-50.5 50.5t-70 18.5t-70 -18.5t-50.5 -50.5t-18.5 -70
v-166q0 -38 18.5 -70t50.5 -50.5t70 -18.5t70 18.5z" />
    <glyph glyph-name="oacute" unicode="&#xf3;" horiz-adv-x="564" 
d="M173 16q-50 29 -79 79.5t-29 109.5v156q0 59 29 109.5t79 79.5t109 29t109 -29t79 -79.5t29 -109.5v-156q0 -59 -29 -109.5t-79 -79.5t-109 -29t-109 29zM352 79.5q32 18.5 50.5 50.5t18.5 70v166q0 38 -18.5 70t-50.5 50.5t-70 18.5t-70 -18.5t-50.5 -50.5t-18.5 -70
v-166q0 -38 18.5 -70t50.5 -50.5t70 -18.5t70 18.5zM255 636.5q-3 5.5 0 13.5l37 90q8 19 28 19h67q6 0 10 -3.5t4 -9.5t-4 -10l-81 -93q-10 -12 -26 -12h-24q-8 0 -11 5.5z" />
    <glyph glyph-name="ocircumflex" unicode="&#xf4;" horiz-adv-x="564" 
d="M173 16q-50 29 -79 79.5t-29 109.5v156q0 59 29 109.5t79 79.5t109 29t109 -29t79 -79.5t29 -109.5v-156q0 -59 -29 -109.5t-79 -79.5t-109 -29t-109 29zM352 79.5q32 18.5 50.5 50.5t18.5 70v166q0 38 -18.5 70t-50.5 50.5t-70 18.5t-70 -18.5t-50.5 -50.5t-18.5 -70
v-166q0 -38 18.5 -70t50.5 -50.5t70 -18.5t70 18.5zM147.5 637.5q-3.5 6.5 1.5 12.5l81 100q6 9 18 9h64q12 0 18 -9l81 -100q3 -3 3 -7q0 -5 -3.5 -8.5t-9.5 -3.5h-33q-12 0 -25 10l-63 49l-63 -49q-13 -10 -24 -10h-34q-8 0 -11.5 6.5z" />
    <glyph glyph-name="odieresis" unicode="&#xf6;" horiz-adv-x="564" 
d="M173 16q-50 29 -79 79.5t-29 109.5v156q0 59 29 109.5t79 79.5t109 29t109 -29t79 -79.5t29 -109.5v-156q0 -59 -29 -109.5t-79 -79.5t-109 -29t-109 29zM352 79.5q32 18.5 50.5 50.5t18.5 70v166q0 38 -18.5 70t-50.5 50.5t-70 18.5t-70 -18.5t-50.5 -50.5t-18.5 -70
v-166q0 -38 18.5 -70t50.5 -50.5t70 -18.5t70 18.5zM125 648q-4 4 -4 10v87q0 6 4 10t10 4h48q6 0 10 -4t4 -10v-87q0 -6 -4 -10t-10 -4h-48q-6 0 -10 4zM367 648q-4 4 -4 10v87q0 6 4 10t10 4h48q6 0 10 -4t4 -10v-87q0 -6 -4 -10t-10 -4h-48q-6 0 -10 4z" />
    <glyph glyph-name="ograve" unicode="&#xf2;" horiz-adv-x="564" 
d="M173 16q-50 29 -79 79.5t-29 109.5v156q0 59 29 109.5t79 79.5t109 29t109 -29t79 -79.5t29 -109.5v-156q0 -59 -29 -109.5t-79 -79.5t-109 -29t-109 29zM352 79.5q32 18.5 50.5 50.5t18.5 70v166q0 38 -18.5 70t-50.5 50.5t-70 18.5t-70 -18.5t-50.5 -50.5t-18.5 -70
v-166q0 -38 18.5 -70t50.5 -50.5t70 -18.5t70 18.5zM253 643l-81 93q-4 4 -4 10t3.5 9.5t10.5 3.5h67q20 0 28 -19l37 -90q2 -6 2 -7q0 -5 -3.5 -8.5t-9.5 -3.5h-24q-16 0 -26 12z" />
    <glyph glyph-name="ohungarumlaut" unicode="&#x151;" horiz-adv-x="564" 
d="M173 16q-50 29 -79 79.5t-29 109.5v156q0 59 29 109.5t79 79.5t109 29t109 -29t79 -79.5t29 -109.5v-156q0 -59 -29 -109.5t-79 -79.5t-109 -29t-109 29zM352 79.5q32 18.5 50.5 50.5t18.5 70v166q0 38 -18.5 70t-50.5 50.5t-70 18.5t-70 -18.5t-50.5 -50.5t-18.5 -70
v-166q0 -38 18.5 -70t50.5 -50.5t70 -18.5t70 18.5zM150 636.5q-3 5.5 0 13.5l37 90q8 19 28 19h67q6 0 10 -3.5t4 -9.5t-4 -10l-81 -93q-10 -12 -26 -12h-24q-8 0 -11 5.5zM315 636.5q-3 5.5 0 13.5l37 90q8 19 28 19h67q6 0 10 -3.5t4 -9.5t-4 -10l-81 -93
q-10 -12 -26 -12h-24q-8 0 -11 5.5z" />
    <glyph glyph-name="omacron" unicode="&#x14d;" horiz-adv-x="564" 
d="M173 16q-50 29 -79 79.5t-29 109.5v156q0 59 29 109.5t79 79.5t109 29t109 -29t79 -79.5t29 -109.5v-156q0 -59 -29 -109.5t-79 -79.5t-109 -29t-109 29zM352 79.5q32 18.5 50.5 50.5t18.5 70v166q0 38 -18.5 70t-50.5 50.5t-70 18.5t-70 -18.5t-50.5 -50.5t-18.5 -70
v-166q0 -38 18.5 -70t50.5 -50.5t70 -18.5t70 18.5zM139 666.5q-4 3.5 -4 9.5v37q0 6 4 9.5t10 3.5h260q6 0 10 -3.5t4 -9.5v-37q0 -6 -4 -9.5t-10 -3.5h-260q-6 0 -10 3.5z" />
    <glyph glyph-name="oslash" unicode="&#xf8;" horiz-adv-x="564" 
d="M477 456.5q22 -44.5 22 -95.5v-156q0 -59 -29 -109.5t-79 -79.5t-109 -29q-42 0 -80 15l-47 -114q-5 -12 -18 -12h-45q-4 0 -6.5 3t-0.5 8l61 148q-38 30 -59.5 74.5t-21.5 95.5v156q0 59 29 109.5t79 79.5t109 29q42 0 80 -15l47 114q4 12 18 12h44q4 0 6.5 -3t0.5 -8
l-60 -148q37 -30 59 -74.5zM176 110l158 385q-27 10 -52 10q-38 0 -70 -18.5t-50.5 -50.5t-18.5 -70v-166q0 -52 33 -90zM421 366q0 52 -34 91l-157 -386q27 -10 52 -10q38 0 70 18.5t50.5 50.5t18.5 70v166z" />
    <glyph glyph-name="otilde" unicode="&#xf5;" horiz-adv-x="564" 
d="M173 16q-50 29 -79 79.5t-29 109.5v156q0 59 29 109.5t79 79.5t109 29t109 -29t79 -79.5t29 -109.5v-156q0 -59 -29 -109.5t-79 -79.5t-109 -29t-109 29zM352 79.5q32 18.5 50.5 50.5t18.5 70v166q0 38 -18.5 70t-50.5 50.5t-70 18.5t-70 -18.5t-50.5 -50.5t-18.5 -70
v-166q0 -38 18.5 -70t50.5 -50.5t70 -18.5t70 18.5zM311.5 648q-17.5 5 -41.5 14q-40 14 -52 14q-13 0 -20.5 -4t-13.5 -13q-3 -5 -5.5 -5.5t-8.5 0.5l-28 9q-9 3 -8 13q8 31 34.5 50.5t60.5 19.5q17 0 34 -5t43 -14q37 -15 52 -15q22 0 33 17q4 5 7 6t9 -1l27 -8
q11 -4 8 -13q-7 -31 -34 -50.5t-62 -19.5q-17 0 -34.5 5z" />
    <glyph glyph-name="oe" unicode="&#x153;" horiz-adv-x="913" 
d="M173 16q-50 29 -79 79.5t-29 109.5v156q0 59 29 109.5t79 79.5t109 29q54 0 101 -25t77 -68q30 43 77 68t101 25q59 0 109 -29t79 -79.5t29 -109.5v-68q0 -15 -10.5 -25.5t-25.5 -10.5h-320v-44q0 -38 18.5 -70t50.5 -50.5t70 -18.5h145q6 0 10 -4t4 -10v-46q0 -6 -4 -10
t-10 -4h-145q-52 0 -97.5 23.5t-75.5 63.5q-30 -46 -78 -73t-105 -27q-59 0 -109 29zM352 79.5q32 18.5 50.5 50.5t18.5 70v166q0 38 -18.5 70t-50.5 50.5t-70 18.5t-70 -18.5t-50.5 -50.5t-18.5 -70v-166q0 -38 18.5 -70t50.5 -50.5t70 -18.5t70 18.5zM777 329v37
q0 38 -18.5 70t-50.5 50.5t-70 18.5t-70 -18.5t-50.5 -50.5t-18.5 -70v-37h278z" />
    <glyph glyph-name="p" unicode="p" horiz-adv-x="590" 
d="M94 -189q-4 4 -4 10v731q0 6 4 10t10 4h46q6 0 10 -4t4 -10v-44q28 34 67.5 52.5t84.5 18.5q57 0 105 -28t76 -76t28 -105v-174q0 -57 -28 -105t-76.5 -76t-105.5 -28q-41 0 -79.5 15t-67.5 42v-223q0 -6 -4 -10t-10 -4h-50q-6 0 -10 4zM378 79.5q32 18.5 50.5 50.5
t18.5 70v166q0 38 -18.5 70t-50.5 50.5t-70 18.5t-70.5 -18.5t-51 -50.5t-18.5 -70v-166q0 -38 18.5 -70t51 -50.5t70.5 -18.5t70 18.5z" />
    <glyph glyph-name="thorn" unicode="&#xfe;" horiz-adv-x="590" 
d="M94 -189q-4 4 -4 10v924q0 6 4 10t10 4h46q6 0 10 -4t4 -10v-232q29 31 68.5 48.5t83.5 17.5q57 0 105 -28t76 -76t28 -105v-174q0 -57 -28 -105t-76 -76t-105 -28q-43 0 -81 16.5t-67 45.5v-228q0 -6 -4 -10t-10 -4h-50q-6 0 -10 4zM378 79.5q32 18.5 50.5 50.5t18.5 70
v166q0 38 -18.5 70t-50.5 50.5t-70 18.5t-70.5 -18.5t-51 -50.5t-18.5 -70v-166q0 -38 18.5 -70t51 -50.5t70.5 -18.5t70 18.5z" />
    <glyph glyph-name="q" unicode="q" horiz-adv-x="590" 
d="M426 -189q-4 4 -4 10v236q-28 -33 -66.5 -51.5t-81.5 -18.5q-57 0 -105 28t-76 76t-28 105v174q0 57 28 105t76 76t105 28q44 0 83.5 -17.5t68.5 -48.5v39q0 6 4 10t10 4h46q6 0 10 -4t4 -10v-731q0 -6 -4 -10t-10 -4h-50q-6 0 -10 4zM352.5 79.5q32.5 18.5 51 50.5
t18.5 70v166q0 38 -18.5 70t-51 50.5t-70.5 18.5t-70 -18.5t-50.5 -50.5t-18.5 -70v-166q0 -38 18.5 -70t50.5 -50.5t70 -18.5t70.5 18.5z" />
    <glyph glyph-name="r" unicode="r" horiz-adv-x="463" 
d="M54 4q-4 4 -4 10v46q0 6 4 10t10 4h83v421h-83q-6 0 -10 4t-4 10v43q0 6 4 10t10 4h125q15 0 25.5 -10.5t10.5 -25.5v-50l58 45q36 28 58.5 37.5t47.5 9.5h30q7 0 10.5 -4t3.5 -10v-49q0 -6 -4 -10t-10 -4h-22q-25 0 -47 -10.5t-66 -45.5l-59 -47v-318h116q6 0 10 -4
t4 -10v-46q0 -6 -4 -10t-10 -4h-277q-6 0 -10 4z" />
    <glyph glyph-name="racute" unicode="&#x155;" horiz-adv-x="463" 
d="M54 4q-4 4 -4 10v46q0 6 4 10t10 4h83v421h-83q-6 0 -10 4t-4 10v43q0 6 4 10t10 4h125q15 0 25.5 -10.5t10.5 -25.5v-50l58 45q36 28 58.5 37.5t47.5 9.5h30q7 0 10.5 -4t3.5 -10v-49q0 -6 -4 -10t-10 -4h-22q-25 0 -47 -10.5t-66 -45.5l-59 -47v-318h116q6 0 10 -4
t4 -10v-46q0 -6 -4 -10t-10 -4h-277q-6 0 -10 4zM161 636.5q-3 5.5 0 13.5l37 90q8 19 28 19h67q6 0 10 -3.5t4 -9.5t-4 -10l-81 -93q-10 -12 -26 -12h-24q-8 0 -11 5.5z" />
    <glyph glyph-name="rcaron" unicode="&#x159;" horiz-adv-x="463" 
d="M54 4q-4 4 -4 10v46q0 6 4 10t10 4h83v421h-83q-6 0 -10 4t-4 10v43q0 6 4 10t10 4h125q15 0 25.5 -10.5t10.5 -25.5v-50l58 45q36 28 58.5 37.5t47.5 9.5h30q7 0 10.5 -4t3.5 -10v-49q0 -6 -4 -10t-10 -4h-22q-25 0 -47 -10.5t-66 -45.5l-59 -47v-318h116q6 0 10 -4
t4 -10v-46q0 -6 -4 -10t-10 -4h-277q-6 0 -10 4zM140 640l-81 100q-3 3 -3 7q0 5 3.5 8.5t9.5 3.5h33q12 0 25 -10l63 -49l63 49q13 10 24 10h34q8 0 11.5 -6.5t-1.5 -12.5l-81 -100q-6 -9 -18 -9h-64q-12 0 -18 9z" />
    <glyph glyph-name="rcommaaccent" unicode="&#x157;" horiz-adv-x="463" 
d="M54 4q-4 4 -4 10v46q0 6 4 10t10 4h83v421h-83q-6 0 -10 4t-4 10v43q0 6 4 10t10 4h125q15 0 25.5 -10.5t10.5 -25.5v-50l58 45q36 28 58.5 37.5t47.5 9.5h30q7 0 10.5 -4t3.5 -10v-49q0 -6 -4 -10t-10 -4h-22q-25 0 -47 -10.5t-66 -45.5l-59 -47v-318h116q6 0 10 -4
t4 -10v-46q0 -6 -4 -10t-10 -4h-277q-6 0 -10 4zM88 -187.5q-3 5.5 0 13.5l37 90q8 19 28 19h67q6 0 10 -4t4 -9q0 -6 -4 -10l-81 -93q-10 -12 -26 -12h-24q-8 0 -11 5.5z" />
    <glyph glyph-name="s" unicode="s" horiz-adv-x="470" 
d="M136 2q-44 12 -76 35q-4 2 -5.5 6.5t0.5 9.5l21 42q5 8 13 8q2 0 8 -2q66 -40 133 -40q53 0 83.5 23.5t30.5 66.5q0 26 -13.5 42.5t-35.5 27t-69 28.5q-61 23 -96 43t-55 51t-20 79q0 77 51 117t131 40q42 0 83.5 -12t74.5 -34q4 -2 5 -7t-1 -9l-20 -41q-2 -6 -7.5 -8
t-11.5 2q-64 38 -123 38q-49 0 -76.5 -21t-27.5 -61q0 -31 15 -50t36 -28.5t67 -26.5q59 -21 93 -39t56 -48t22 -78q0 -77 -53.5 -121.5t-142.5 -44.5q-46 0 -90 12z" />
    <glyph glyph-name="sacute" unicode="&#x15b;" horiz-adv-x="470" 
d="M136 2q-44 12 -76 35q-4 2 -5.5 6.5t0.5 9.5l21 42q5 8 13 8q2 0 8 -2q66 -40 133 -40q53 0 83.5 23.5t30.5 66.5q0 26 -13.5 42.5t-35.5 27t-69 28.5q-61 23 -96 43t-55 51t-20 79q0 77 51 117t131 40q42 0 83.5 -12t74.5 -34q4 -2 5 -7t-1 -9l-20 -41q-2 -6 -7.5 -8
t-11.5 2q-64 38 -123 38q-49 0 -76.5 -21t-27.5 -61q0 -31 15 -50t36 -28.5t67 -26.5q59 -21 93 -39t56 -48t22 -78q0 -77 -53.5 -121.5t-142.5 -44.5q-46 0 -90 12zM208 636.5q-3 5.5 0 13.5l37 90q8 19 28 19h67q6 0 10 -3.5t4 -9.5t-4 -10l-81 -93q-10 -12 -26 -12h-24
q-8 0 -11 5.5z" />
    <glyph glyph-name="scaron" unicode="&#x161;" horiz-adv-x="470" 
d="M136 2q-44 12 -76 35q-4 2 -5.5 6.5t0.5 9.5l21 42q5 8 13 8q2 0 8 -2q66 -40 133 -40q53 0 83.5 23.5t30.5 66.5q0 26 -13.5 42.5t-35.5 27t-69 28.5q-61 23 -96 43t-55 51t-20 79q0 77 51 117t131 40q42 0 83.5 -12t74.5 -34q4 -2 5 -7t-1 -9l-20 -41q-2 -6 -7.5 -8
t-11.5 2q-64 38 -123 38q-49 0 -76.5 -21t-27.5 -61q0 -31 15 -50t36 -28.5t67 -26.5q59 -21 93 -39t56 -48t22 -78q0 -77 -53.5 -121.5t-142.5 -44.5q-46 0 -90 12zM187 640l-81 100q-3 3 -3 7q0 5 3.5 8.5t9.5 3.5h33q12 0 25 -10l63 -49l63 49q13 10 24 10h34
q8 0 11.5 -6.5t-1.5 -12.5l-81 -100q-6 -9 -18 -9h-64q-12 0 -18 9z" />
    <glyph glyph-name="scedilla" unicode="&#x15f;" horiz-adv-x="470" 
d="M136 2q-44 12 -76 35q-4 2 -5.5 6.5t0.5 9.5l21 42q5 8 13 8q2 0 8 -2q66 -40 133 -40q53 0 83.5 23.5t30.5 66.5q0 26 -13.5 42.5t-35.5 27t-69 28.5q-61 23 -96 43t-55 51t-20 79q0 77 51 117t131 40q42 0 83.5 -12t74.5 -34q4 -2 5 -7t-1 -9l-20 -41q-2 -6 -7.5 -8
t-11.5 2q-64 38 -123 38q-49 0 -76.5 -21t-27.5 -61q0 -31 15 -50t36 -28.5t67 -26.5q59 -21 93 -39t56 -48t22 -78q0 -77 -53.5 -121.5t-142.5 -44.5q-46 0 -90 12zM183 -209q-11 0 -16 10l-14 35q-1 2 -1 5q0 7 9 11q33 13 33 50v19q0 6 3.5 10t9.5 4h52q7 0 12 -5t5 -13
v-11q0 -48 -28 -76.5t-61 -38.5h-4z" />
    <glyph glyph-name="scommaaccent" unicode="&#x219;" horiz-adv-x="470" 
d="M136 2q-44 12 -76 35q-4 2 -5.5 6.5t0.5 9.5l21 42q5 8 13 8q2 0 8 -2q66 -40 133 -40q53 0 83.5 23.5t30.5 66.5q0 26 -13.5 42.5t-35.5 27t-69 28.5q-61 23 -96 43t-55 51t-20 79q0 77 51 117t131 40q42 0 83.5 -12t74.5 -34q4 -2 5 -7t-1 -9l-20 -41q-2 -6 -7.5 -8
t-11.5 2q-64 38 -123 38q-49 0 -76.5 -21t-27.5 -61q0 -31 15 -50t36 -28.5t67 -26.5q59 -21 93 -39t56 -48t22 -78q0 -77 -53.5 -121.5t-142.5 -44.5q-46 0 -90 12zM134 -187.5q-3 5.5 0 13.5l37 90q8 19 28 19h67q6 0 10 -4t4 -9q0 -6 -4 -10l-81 -93q-10 -12 -26 -12h-24
q-8 0 -11 5.5z" />
    <glyph glyph-name="germandbls" unicode="&#xdf;" horiz-adv-x="587" 
d="M94 -189q-4 4 -4 10v719q0 67 26 119.5t74 82t112 29.5q54 0 97.5 -21t68.5 -58t25 -84q0 -54 -27.5 -90t-76.5 -75q-26 -20 -38 -33t-12 -26q0 -14 15 -25.5t47 -28.5q42 -22 70.5 -42t49.5 -54t21 -83t-22 -85.5t-60.5 -56t-84.5 -19.5q-29 0 -62.5 7t-53.5 17
q-8 4 -10.5 7.5t-2.5 10.5l1 44q0 7 4.5 10t10.5 1q64 -26 109 -26q41 0 67 23t26 63q0 28 -14 48.5t-34 34t-55 31.5q-50 26 -75.5 49.5t-25.5 62.5q0 35 19 59t59 56q39 32 58 55.5t19 57.5q0 42 -30.5 70t-83.5 28q-64 0 -98.5 -43t-34.5 -121v-714q0 -6 -4 -10t-10 -4
h-50q-6 0 -10 4z" />
    <glyph glyph-name="t" unicode="t" horiz-adv-x="443" 
d="M161 43.5q-41 43.5 -41 109.5v340h-66q-6 0 -10 4t-4 10v45q0 6 4 10t10 4h66v105q0 6 4 10t10 4h50q6 0 10 -4t4 -10v-105h176q6 0 10 -4t4 -10v-46q0 -6 -4 -10t-10 -4h-176v-330q0 -39 23.5 -62.5t61.5 -24.5l91 -1q6 0 10 -4t4 -10v-46q0 -6 -4 -10t-10 -4h-100
q-72 0 -113 43.5z" />
    <glyph glyph-name="tbar" unicode="&#x167;" horiz-adv-x="453" 
d="M203 492v-124h176q6 0 10 -4t4 -10v-32q0 -6 -4 -10t-10 -4h-176v-146q0 -39 23.5 -62.5t61.5 -24.5l91 -1q6 0 10 -4t4 -10v-46q0 -6 -4 -10t-10 -4h-100q-72 0 -113 43.5t-41 109.5v155h-66q-6 0 -10 4t-4 10v32q0 6 4 10t10 4h66v125h-66q-6 0 -10 4t-4 10v45
q0 6 4 10t10 4h66v105q0 6 4 10t10 4h50q6 0 10 -4t4 -10v-105h176q6 0 10 -4t4 -10v-46q0 -6 -4 -10t-10 -4h-176z" />
    <glyph glyph-name="tcaron" unicode="&#x165;" horiz-adv-x="448" 
d="M369 636.5q-3 5.5 0 13.5l37 90q8 19 28 19h67q7 0 10.5 -3.5t3.5 -9.5t-4 -10l-81 -93q-10 -12 -26 -12h-24q-8 0 -11 5.5zM161 43.5q-41 43.5 -41 109.5v340h-66q-6 0 -10 4t-4 10v45q0 6 4 10t10 4h66v105q0 6 4 10t10 4h50q6 0 10 -4t4 -10v-105h166q6 0 10 -4t4 -10
v-46q0 -6 -4 -10t-10 -4h-166v-330q0 -39 23.5 -62.5t61.5 -24.5l91 -1q6 0 10 -4t4 -10v-46q0 -6 -4 -10t-10 -4h-100q-72 0 -113 43.5z" />
    <glyph glyph-name="uni0163" unicode="&#x163;" horiz-adv-x="443" 
d="M161 43.5q-41 43.5 -41 109.5v340h-66q-6 0 -10 4t-4 10v45q0 6 4 10t10 4h66v105q0 6 4 10t10 4h50q6 0 10 -4t4 -10v-105h176q6 0 10 -4t4 -10v-46q0 -6 -4 -10t-10 -4h-176v-330q0 -39 23.5 -62.5t61.5 -24.5l91 -1q6 0 10 -4t4 -10v-46q0 -6 -4 -10t-10 -4h-100
q-72 0 -113 43.5zM222 -209q-11 0 -16 10l-14 35q-1 2 -1 5q0 7 9 11q33 13 33 50v19q0 6 3.5 10t9.5 4h52q7 0 12 -5t5 -13v-11q0 -48 -28 -76.5t-61 -38.5h-4z" />
    <glyph glyph-name="uni021B" unicode="&#x21b;" horiz-adv-x="443" 
d="M161 43.5q-41 43.5 -41 109.5v340h-66q-6 0 -10 4t-4 10v45q0 6 4 10t10 4h66v105q0 6 4 10t10 4h50q6 0 10 -4t4 -10v-105h176q6 0 10 -4t4 -10v-46q0 -6 -4 -10t-10 -4h-176v-330q0 -39 23.5 -62.5t61.5 -24.5l91 -1q6 0 10 -4t4 -10v-46q0 -6 -4 -10t-10 -4h-100
q-72 0 -113 43.5zM173 -187.5q-3 5.5 0 13.5l37 90q8 19 28 19h67q6 0 10 -4t4 -9q0 -6 -4 -10l-81 -93q-10 -12 -26 -12h-24q-8 0 -11 5.5z" />
    <glyph glyph-name="u" unicode="u" horiz-adv-x="594" 
d="M127.5 39q-52.5 52 -52.5 137v376q0 6 4 10t10 4h50q6 0 10 -4t4 -10v-361q0 -63 34 -97t90 -34q67 0 108 44t41 121v327q0 6 4 10t10 4h50q6 0 10 -4t4 -10v-538q0 -6 -4 -10t-10 -4h-50q-6 0 -10 4t-4 10v56q-26 -41 -67.5 -62t-93.5 -21q-85 0 -137.5 52z" />
    <glyph glyph-name="uacute" unicode="&#xfa;" horiz-adv-x="594" 
d="M127.5 39q-52.5 52 -52.5 137v376q0 6 4 10t10 4h50q6 0 10 -4t4 -10v-361q0 -63 34 -97t90 -34q67 0 108 44t41 121v327q0 6 4 10t10 4h50q6 0 10 -4t4 -10v-538q0 -6 -4 -10t-10 -4h-50q-6 0 -10 4t-4 10v56q-26 -41 -67.5 -62t-93.5 -21q-85 0 -137.5 52zM263 636.5
q-3 5.5 0 13.5l37 90q8 19 28 19h67q6 0 10 -3.5t4 -9.5t-4 -10l-81 -93q-10 -12 -26 -12h-24q-8 0 -11 5.5z" />
    <glyph glyph-name="ucircumflex" unicode="&#xfb;" horiz-adv-x="594" 
d="M127.5 39q-52.5 52 -52.5 137v376q0 6 4 10t10 4h50q6 0 10 -4t4 -10v-361q0 -63 34 -97t90 -34q67 0 108 44t41 121v327q0 6 4 10t10 4h50q6 0 10 -4t4 -10v-538q0 -6 -4 -10t-10 -4h-50q-6 0 -10 4t-4 10v56q-26 -41 -67.5 -62t-93.5 -21q-85 0 -137.5 52zM155.5 637.5
q-3.5 6.5 1.5 12.5l81 100q6 9 18 9h64q12 0 18 -9l81 -100q3 -3 3 -7q0 -5 -3.5 -8.5t-9.5 -3.5h-33q-12 0 -25 10l-63 49l-63 -49q-13 -10 -24 -10h-34q-8 0 -11.5 6.5z" />
    <glyph glyph-name="udieresis" unicode="&#xfc;" horiz-adv-x="594" 
d="M127.5 39q-52.5 52 -52.5 137v376q0 6 4 10t10 4h50q6 0 10 -4t4 -10v-361q0 -63 34 -97t90 -34q67 0 108 44t41 121v327q0 6 4 10t10 4h50q6 0 10 -4t4 -10v-538q0 -6 -4 -10t-10 -4h-50q-6 0 -10 4t-4 10v56q-26 -41 -67.5 -62t-93.5 -21q-85 0 -137.5 52zM133 648
q-4 4 -4 10v87q0 6 4 10t10 4h48q6 0 10 -4t4 -10v-87q0 -6 -4 -10t-10 -4h-48q-6 0 -10 4zM375 648q-4 4 -4 10v87q0 6 4 10t10 4h48q6 0 10 -4t4 -10v-87q0 -6 -4 -10t-10 -4h-48q-6 0 -10 4z" />
    <glyph glyph-name="ugrave" unicode="&#xf9;" horiz-adv-x="594" 
d="M127.5 39q-52.5 52 -52.5 137v376q0 6 4 10t10 4h50q6 0 10 -4t4 -10v-361q0 -63 34 -97t90 -34q67 0 108 44t41 121v327q0 6 4 10t10 4h50q6 0 10 -4t4 -10v-538q0 -6 -4 -10t-10 -4h-50q-6 0 -10 4t-4 10v56q-26 -41 -67.5 -62t-93.5 -21q-85 0 -137.5 52zM261 643
l-81 93q-4 4 -4 10t3.5 9.5t10.5 3.5h67q20 0 28 -19l37 -90q2 -6 2 -7q0 -5 -3.5 -8.5t-9.5 -3.5h-24q-16 0 -26 12z" />
    <glyph glyph-name="uhungarumlaut" unicode="&#x171;" horiz-adv-x="594" 
d="M127.5 39q-52.5 52 -52.5 137v376q0 6 4 10t10 4h50q6 0 10 -4t4 -10v-361q0 -63 34 -97t90 -34q67 0 108 44t41 121v327q0 6 4 10t10 4h50q6 0 10 -4t4 -10v-538q0 -6 -4 -10t-10 -4h-50q-6 0 -10 4t-4 10v56q-26 -41 -67.5 -62t-93.5 -21q-85 0 -137.5 52zM158 636.5
q-3 5.5 0 13.5l37 90q8 19 28 19h67q6 0 10 -3.5t4 -9.5t-4 -10l-81 -93q-10 -12 -26 -12h-24q-8 0 -11 5.5zM323 636.5q-3 5.5 0 13.5l37 90q8 19 28 19h67q6 0 10 -3.5t4 -9.5t-4 -10l-81 -93q-10 -12 -26 -12h-24q-8 0 -11 5.5z" />
    <glyph glyph-name="umacron" unicode="&#x16b;" horiz-adv-x="594" 
d="M127.5 39q-52.5 52 -52.5 137v376q0 6 4 10t10 4h50q6 0 10 -4t4 -10v-361q0 -63 34 -97t90 -34q67 0 108 44t41 121v327q0 6 4 10t10 4h50q6 0 10 -4t4 -10v-538q0 -6 -4 -10t-10 -4h-50q-6 0 -10 4t-4 10v56q-26 -41 -67.5 -62t-93.5 -21q-85 0 -137.5 52zM147 666.5
q-4 3.5 -4 9.5v37q0 6 4 9.5t10 3.5h260q6 0 10 -3.5t4 -9.5v-37q0 -6 -4 -9.5t-10 -3.5h-260q-6 0 -10 3.5z" />
    <glyph glyph-name="uogonek" unicode="&#x173;" horiz-adv-x="599" 
d="M387.5 -173.5q-31.5 23.5 -31.5 61.5q0 56 70 115v67q-26 -41 -67.5 -62t-93.5 -21q-85 0 -137.5 52t-52.5 137v376q0 6 4 10t10 4h50q6 0 10 -4t4 -10v-361q0 -63 34 -97t90 -34q67 0 108 44t41 121v327q0 6 4 10t10 4h50q6 0 10 -4t4 -10v-524q0 -15 -13 -28
q-29 -30 -42.5 -49t-13.5 -41q0 -37 42 -37h17q6 0 10.5 -4.5t4.5 -10.5v-40q0 -6 -4.5 -10.5t-10.5 -4.5h-30q-45 0 -76.5 23.5z" />
    <glyph glyph-name="uring" unicode="&#x16f;" horiz-adv-x="594" 
d="M127.5 39q-52.5 52 -52.5 137v376q0 6 4 10t10 4h50q6 0 10 -4t4 -10v-361q0 -63 34 -97t90 -34q67 0 108 44t41 121v327q0 6 4 10t10 4h50q6 0 10 -4t4 -10v-538q0 -6 -4 -10t-10 -4h-50q-6 0 -10 4t-4 10v56q-26 -41 -67.5 -62t-93.5 -21q-85 0 -137.5 52zM230 641
q-24 24 -24 58t24 58t58 24t58 -24t24 -58t-24 -58t-58 -24t-58 24zM308.5 678.5q8.5 8.5 8.5 20.5t-8.5 20.5t-20.5 8.5t-20.5 -8.5t-8.5 -20.5t8.5 -20.5t20.5 -8.5t20.5 8.5z" />
    <glyph glyph-name="v" unicode="v" horiz-adv-x="528" 
d="M221.5 3.5q-5.5 3.5 -7.5 9.5l-188 531q-1 2 -1 7q0 6 4.5 10.5t11.5 4.5h46q6 0 11.5 -3.5t7.5 -9.5l158 -456l155 456q2 6 7.5 9.5t11.5 3.5h44q9 0 13.5 -6.5t1.5 -15.5l-188 -531q-2 -6 -7.5 -9.5t-11.5 -3.5h-57q-6 0 -11.5 3.5z" />
    <glyph glyph-name="w" unicode="w" horiz-adv-x="866" 
d="M211.5 3.5q-5.5 3.5 -7.5 9.5l-178 531q-1 2 -1 7q0 6 4.5 10.5t11.5 4.5h44q6 0 11.5 -3.5t7.5 -9.5l148 -456l134 456q4 13 19 13h49q16 0 19 -13l134 -456l148 456q2 6 7.5 9.5t11.5 3.5h45q9 0 13.5 -6.5t1.5 -15.5l-178 -531q-2 -6 -7.5 -9.5t-11.5 -3.5h-57
q-6 0 -11.5 3.5t-7.5 9.5l-132 434l-130 -434q-2 -6 -7.5 -9.5t-11.5 -3.5h-57q-6 0 -11.5 3.5z" />
    <glyph glyph-name="wacute" unicode="&#x1e83;" horiz-adv-x="866" 
d="M211.5 3.5q-5.5 3.5 -7.5 9.5l-178 531q-1 2 -1 7q0 6 4.5 10.5t11.5 4.5h44q6 0 11.5 -3.5t7.5 -9.5l148 -456l134 456q4 13 19 13h49q16 0 19 -13l134 -456l148 456q2 6 7.5 9.5t11.5 3.5h45q9 0 13.5 -6.5t1.5 -15.5l-178 -531q-2 -6 -7.5 -9.5t-11.5 -3.5h-57
q-6 0 -11.5 3.5t-7.5 9.5l-132 434l-130 -434q-2 -6 -7.5 -9.5t-11.5 -3.5h-57q-6 0 -11.5 3.5zM404 636.5q-3 5.5 0 13.5l37 90q8 19 28 19h67q6 0 10 -3.5t4 -9.5t-4 -10l-81 -93q-10 -12 -26 -12h-24q-8 0 -11 5.5z" />
    <glyph glyph-name="wcircumflex" unicode="&#x175;" horiz-adv-x="866" 
d="M211.5 3.5q-5.5 3.5 -7.5 9.5l-178 531q-1 2 -1 7q0 6 4.5 10.5t11.5 4.5h44q6 0 11.5 -3.5t7.5 -9.5l148 -456l134 456q4 13 19 13h49q16 0 19 -13l134 -456l148 456q2 6 7.5 9.5t11.5 3.5h45q9 0 13.5 -6.5t1.5 -15.5l-178 -531q-2 -6 -7.5 -9.5t-11.5 -3.5h-57
q-6 0 -11.5 3.5t-7.5 9.5l-132 434l-130 -434q-2 -6 -7.5 -9.5t-11.5 -3.5h-57q-6 0 -11.5 3.5zM296.5 637.5q-3.5 6.5 1.5 12.5l81 100q6 9 18 9h64q12 0 18 -9l81 -100q3 -3 3 -7q0 -5 -3.5 -8.5t-9.5 -3.5h-33q-12 0 -25 10l-63 49l-63 -49q-13 -10 -24 -10h-34
q-8 0 -11.5 6.5z" />
    <glyph glyph-name="wdieresis" unicode="&#x1e85;" horiz-adv-x="866" 
d="M211.5 3.5q-5.5 3.5 -7.5 9.5l-178 531q-1 2 -1 7q0 6 4.5 10.5t11.5 4.5h44q6 0 11.5 -3.5t7.5 -9.5l148 -456l134 456q4 13 19 13h49q16 0 19 -13l134 -456l148 456q2 6 7.5 9.5t11.5 3.5h45q9 0 13.5 -6.5t1.5 -15.5l-178 -531q-2 -6 -7.5 -9.5t-11.5 -3.5h-57
q-6 0 -11.5 3.5t-7.5 9.5l-132 434l-130 -434q-2 -6 -7.5 -9.5t-11.5 -3.5h-57q-6 0 -11.5 3.5zM274 648q-4 4 -4 10v87q0 6 4 10t10 4h48q6 0 10 -4t4 -10v-87q0 -6 -4 -10t-10 -4h-48q-6 0 -10 4zM516 648q-4 4 -4 10v87q0 6 4 10t10 4h48q6 0 10 -4t4 -10v-87
q0 -6 -4 -10t-10 -4h-48q-6 0 -10 4z" />
    <glyph glyph-name="wgrave" unicode="&#x1e81;" horiz-adv-x="866" 
d="M211.5 3.5q-5.5 3.5 -7.5 9.5l-178 531q-1 2 -1 7q0 6 4.5 10.5t11.5 4.5h44q6 0 11.5 -3.5t7.5 -9.5l148 -456l134 456q4 13 19 13h49q16 0 19 -13l134 -456l148 456q2 6 7.5 9.5t11.5 3.5h45q9 0 13.5 -6.5t1.5 -15.5l-178 -531q-2 -6 -7.5 -9.5t-11.5 -3.5h-57
q-6 0 -11.5 3.5t-7.5 9.5l-132 434l-130 -434q-2 -6 -7.5 -9.5t-11.5 -3.5h-57q-6 0 -11.5 3.5zM402 643l-81 93q-4 4 -4 10t3.5 9.5t10.5 3.5h67q20 0 28 -19l37 -90q2 -6 2 -7q0 -5 -3.5 -8.5t-9.5 -3.5h-24q-16 0 -26 12z" />
    <glyph glyph-name="x" unicode="x" horiz-adv-x="528" 
d="M45 5q-5 5 -5 12q0 5 3 11l176 270l-156 240q-3 6 -3 11q0 7 5 12t13 5h48q10 0 15 -8l123 -190l123 190q5 8 15 8h48q8 0 13 -5t5 -12q0 -5 -3 -11l-156 -240l176 -270q3 -6 3 -11q0 -7 -5 -12t-13 -5h-48q-10 0 -15 8l-143 220l-143 -220q-5 -8 -15 -8h-48q-8 0 -13 5z
" />
    <glyph glyph-name="y" unicode="y" horiz-adv-x="533" 
d="M169 -187q-5 6 -2 15l58 166l-199 550q-1 2 -1 7q0 6 4.5 10.5t11.5 4.5h46q6 0 11.5 -3.5t7.5 -9.5l157 -448l156 448q2 6 7.5 9.5t11.5 3.5h44q9 0 13.5 -6.5t1.5 -15.5l-256 -724q-2 -6 -7.5 -9.5t-11.5 -3.5h-39q-9 0 -14 6z" />
    <glyph glyph-name="yacute" unicode="&#xfd;" horiz-adv-x="533" 
d="M169 -187q-5 6 -2 15l58 166l-199 550q-1 2 -1 7q0 6 4.5 10.5t11.5 4.5h46q6 0 11.5 -3.5t7.5 -9.5l157 -448l156 448q2 6 7.5 9.5t11.5 3.5h44q9 0 13.5 -6.5t1.5 -15.5l-256 -724q-2 -6 -7.5 -9.5t-11.5 -3.5h-39q-9 0 -14 6zM242 636.5q-3 5.5 0 13.5l37 90
q8 19 28 19h67q6 0 10 -3.5t4 -9.5t-4 -10l-81 -93q-10 -12 -26 -12h-24q-8 0 -11 5.5z" />
    <glyph glyph-name="ycircumflex" unicode="&#x177;" horiz-adv-x="533" 
d="M169 -187q-5 6 -2 15l58 166l-199 550q-1 2 -1 7q0 6 4.5 10.5t11.5 4.5h46q6 0 11.5 -3.5t7.5 -9.5l157 -448l156 448q2 6 7.5 9.5t11.5 3.5h44q9 0 13.5 -6.5t1.5 -15.5l-256 -724q-2 -6 -7.5 -9.5t-11.5 -3.5h-39q-9 0 -14 6zM134.5 637.5q-3.5 6.5 1.5 12.5l81 100
q6 9 18 9h64q12 0 18 -9l81 -100q3 -3 3 -7q0 -5 -3.5 -8.5t-9.5 -3.5h-33q-12 0 -25 10l-63 49l-63 -49q-13 -10 -24 -10h-34q-8 0 -11.5 6.5z" />
    <glyph glyph-name="ydieresis" unicode="&#xff;" horiz-adv-x="533" 
d="M169 -187q-5 6 -2 15l58 166l-199 550q-1 2 -1 7q0 6 4.5 10.5t11.5 4.5h46q6 0 11.5 -3.5t7.5 -9.5l157 -448l156 448q2 6 7.5 9.5t11.5 3.5h44q9 0 13.5 -6.5t1.5 -15.5l-256 -724q-2 -6 -7.5 -9.5t-11.5 -3.5h-39q-9 0 -14 6zM112 648q-4 4 -4 10v87q0 6 4 10t10 4h48
q6 0 10 -4t4 -10v-87q0 -6 -4 -10t-10 -4h-48q-6 0 -10 4zM354 648q-4 4 -4 10v87q0 6 4 10t10 4h48q6 0 10 -4t4 -10v-87q0 -6 -4 -10t-10 -4h-48q-6 0 -10 4z" />
    <glyph glyph-name="ygrave" unicode="&#x1ef3;" horiz-adv-x="533" 
d="M169 -187q-5 6 -2 15l58 166l-199 550q-1 2 -1 7q0 6 4.5 10.5t11.5 4.5h46q6 0 11.5 -3.5t7.5 -9.5l157 -448l156 448q2 6 7.5 9.5t11.5 3.5h44q9 0 13.5 -6.5t1.5 -15.5l-256 -724q-2 -6 -7.5 -9.5t-11.5 -3.5h-39q-9 0 -14 6zM240 643l-81 93q-4 4 -4 10t3.5 9.5
t10.5 3.5h67q20 0 28 -19l37 -90q2 -6 2 -7q0 -5 -3.5 -8.5t-9.5 -3.5h-24q-16 0 -26 12z" />
    <glyph glyph-name="z" unicode="z" horiz-adv-x="476" 
d="M54 11q-9 11 -9 25q0 9 4 16l274 440h-254q-6 0 -10 4t-4 10v46q0 6 4 10t10 4h324q14 0 23.5 -11t9.5 -24q0 -9 -5 -17l-274 -440h270q6 0 10 -4t4 -10v-46q0 -6 -4 -10t-10 -4h-340q-14 0 -23 11z" />
    <glyph glyph-name="zacute" unicode="&#x17a;" horiz-adv-x="476" 
d="M54 11q-9 11 -9 25q0 9 4 16l274 440h-254q-6 0 -10 4t-4 10v46q0 6 4 10t10 4h324q14 0 23.5 -11t9.5 -24q0 -9 -5 -17l-274 -440h270q6 0 10 -4t4 -10v-46q0 -6 -4 -10t-10 -4h-340q-14 0 -23 11zM207 636.5q-3 5.5 0 13.5l37 90q8 19 28 19h67q6 0 10 -3.5t4 -9.5
t-4 -10l-81 -93q-10 -12 -26 -12h-24q-8 0 -11 5.5z" />
    <glyph glyph-name="zcaron" unicode="&#x17e;" horiz-adv-x="476" 
d="M54 11q-9 11 -9 25q0 9 4 16l274 440h-254q-6 0 -10 4t-4 10v46q0 6 4 10t10 4h324q14 0 23.5 -11t9.5 -24q0 -9 -5 -17l-274 -440h270q6 0 10 -4t4 -10v-46q0 -6 -4 -10t-10 -4h-340q-14 0 -23 11zM186 640l-81 100q-3 3 -3 7q0 5 3.5 8.5t9.5 3.5h33q12 0 25 -10
l63 -49l63 49q13 10 24 10h34q8 0 11.5 -6.5t-1.5 -12.5l-81 -100q-6 -9 -18 -9h-64q-12 0 -18 9z" />
    <glyph glyph-name="zdotaccent" unicode="&#x17c;" horiz-adv-x="476" 
d="M54 11q-9 11 -9 25q0 9 4 16l274 440h-254q-6 0 -10 4t-4 10v46q0 6 4 10t10 4h324q14 0 23.5 -11t9.5 -24q0 -9 -5 -17l-274 -440h270q6 0 10 -4t4 -10v-46q0 -6 -4 -10t-10 -4h-340q-14 0 -23 11zM198 648q-4 4 -4 10v87q0 6 4 10t10 4h48q6 0 10 -4t4 -10v-87
q0 -6 -4 -10t-10 -4h-48q-6 0 -10 4z" />
    <glyph glyph-name="ae.ss01" horiz-adv-x="921" 
d="M99 30.5q-49 43.5 -49 114.5q0 66 44.5 109t124.5 54l130 18q29 4 42 19.5t13 44.5v8q0 48 -37.5 77.5t-93.5 29.5q-44 0 -76.5 -17.5t-51.5 -48.5q-8 -13 -20 -13q-6 0 -13 5l-27 18q-9 8 -9 17q0 4 3 10q29 48 79.5 75.5t116.5 27.5q60 0 106 -22t72 -62
q30 39 74.5 61.5t96.5 22.5q59 0 109 -29t79 -79.5t29 -109.5v-68q0 -15 -10.5 -25.5t-25.5 -10.5h-228q-6 0 -10 4t-4 10v44q0 6 4 10t10 4h186v37q0 38 -18.5 70t-50.5 50.5t-70 18.5t-70 -18.5t-50.5 -50.5t-18.5 -70v-153q0 -38 18.5 -70t50.5 -50.5t70 -18.5h145
q6 0 10 -4t4 -10v-46q0 -6 -4 -10t-10 -4h-145q-60 0 -110 29.5t-78 79.5q-31 -56 -88 -89t-123 -33q-77 0 -126 43.5zM322 83q40 26 62.5 65.5t22.5 77.5v41q-24 -3 -154 -21l-28 -4q-100 -15 -100 -94q0 -41 30 -66t78 -25q49 0 89 26z" />
    <glyph glyph-name="e.ss01" horiz-adv-x="557" 
d="M173 29q-50 29 -79 79.5t-29 109.5v143q0 59 29 109.5t79 79.5t109 29t109 -29t79 -79.5t29 -109.5v-68q0 -15 -10.5 -25.5t-25.5 -10.5h-226q-6 0 -10 4t-4 10v44q0 6 4 10t10 4h184v37q0 38 -18.5 70t-50.5 50.5t-70 18.5t-70 -18.5t-50.5 -50.5t-18.5 -70v-153
q0 -38 18.5 -70t50.5 -50.5t70 -18.5h145q6 0 10 -4t4 -10v-46q0 -6 -4 -10t-10 -4h-145q-59 0 -109 29z" />
    <glyph glyph-name="eogonek.ss01" horiz-adv-x="557" 
d="M324.5 -173.5q-31.5 23.5 -31.5 61.5q0 31 19.5 59.5t47.5 52.5h-78q-59 0 -109 29t-79 79.5t-29 109.5v143q0 59 29 109.5t79 79.5t109 29t109 -29t79 -79.5t29 -109.5v-68q0 -15 -10.5 -25.5t-25.5 -10.5h-226q-6 0 -10 4t-4 10v44q0 6 4 10t10 4h184v37q0 38 -18.5 70
t-50.5 50.5t-70 18.5t-70 -18.5t-50.5 -50.5t-18.5 -70v-153q0 -38 18.5 -70t50.5 -50.5t70 -18.5h145q6 0 10 -4t4 -10v-32q0 -15 -13 -28q-29 -30 -42.5 -49t-13.5 -41q0 -37 42 -37h17q6 0 10.5 -4.5t4.5 -10.5v-40q0 -6 -4.5 -10.5t-10.5 -4.5h-30q-45 0 -76.5 23.5z
" />
    <glyph glyph-name="f.ss01" horiz-adv-x="408" 
d="M134 -189q-4 4 -4 10v671h-76q-6 0 -10 4t-4 10v46q0 6 4 10t10 4h76v40q0 66 41 109.5t113 43.5h80q6 0 10 -4t4 -10v-43q0 -6 -4 -10t-10 -4h-81q-34 0 -54.5 -21.5t-20.5 -56.5v-44h136q6 0 10 -4t4 -10v-46q0 -6 -4 -10t-10 -4h-136v-671q0 -6 -4 -10t-10 -4h-50
q-6 0 -10 4z" />
    <glyph glyph-name="oe.ss01" horiz-adv-x="913" 
d="M173 16q-50 29 -79 79.5t-29 109.5v156q0 59 29 109.5t79 79.5t109 29q54 0 101 -25t77 -68q30 43 77 68t101 25q59 0 109 -29t79 -79.5t29 -109.5v-68q0 -15 -10.5 -25.5t-25.5 -10.5h-228q-6 0 -10 4t-4 10v44q0 6 4 10t10 4h186v37q0 38 -18.5 70t-50.5 50.5t-70 18.5
t-70 -18.5t-50.5 -50.5t-18.5 -70v-153q0 -38 18.5 -70t50.5 -50.5t70 -18.5h145q6 0 10 -4t4 -10v-46q0 -6 -4 -10t-10 -4h-145q-52 0 -97.5 23.5t-75.5 63.5q-30 -46 -78 -73t-105 -27q-59 0 -109 29zM352 79.5q32 18.5 50.5 50.5t18.5 70v166q0 38 -18.5 70t-50.5 50.5
t-70 18.5t-70 -18.5t-50.5 -50.5t-18.5 -70v-166q0 -38 18.5 -70t50.5 -50.5t70 -18.5t70 18.5z" />
    <glyph glyph-name="fi.ss01" horiz-adv-x="782" 
d="M557 668q-4 4 -4 10v87q0 6 4 10t10 4h48q6 0 10 -4t4 -10v-87q0 -6 -4 -10t-10 -4h-48q-6 0 -10 4zM134 -189q-4 4 -4 10v671h-76q-6 0 -10 4t-4 10v46q0 6 4 10t10 4h76v40q0 66 41 109.5t113 43.5h80q6 0 10 -4t4 -10v-43q0 -6 -4 -10t-10 -4h-81q-34 0 -54.5 -21.5
t-20.5 -56.5v-44h386q15 0 25.5 -10.5t10.5 -25.5v-456h103q6 0 10 -4t4 -10v-46q0 -6 -4 -10t-10 -4h-145q-15 0 -25.5 10.5t-10.5 25.5v456h-344v-671q0 -6 -4 -10t-10 -4h-50q-6 0 -10 4z" />
    <glyph glyph-name="fl.ss01" horiz-adv-x="775" 
d="M134 -189q-4 4 -4 10v671h-76q-6 0 -10 4t-4 10v46q0 6 4 10t10 4h76v40q0 66 41 109.5t113 43.5h305q15 0 25.5 -10.5t10.5 -25.5v-649h106q6 0 10 -4t4 -10v-46q0 -6 -4 -10t-10 -4h-148q-15 0 -25.5 10.5t-10.5 25.5v650h-264q-34 0 -54.5 -21.5t-20.5 -56.5v-42h136
q6 0 10 -4t4 -10v-46q0 -6 -4 -10t-10 -4h-136v-671q0 -6 -4 -10t-10 -4h-50q-6 0 -10 4z" />
    <glyph glyph-name="ordfeminine" unicode="&#xaa;" horiz-adv-x="387" 
d="M92.5 404q-27.5 25 -27.5 65q0 37 25.5 62t69.5 31l72 10q16 2 22 9.5t6 22.5v5q0 24 -19.5 40t-50.5 16q-43 0 -69 -36q-6 -7 -12 -7q-3 0 -9 3l-15 10q-10 8 -4 19q17 27 46 42t65 15q51 0 83 -28t32 -74v-208q0 -6 -4 -10.5t-10 -4.5h-15q-7 0 -11 4.5t-4 10.5v25
q-18 -23 -43.5 -35t-55.5 -12q-44 0 -71.5 25zM216.5 437q21.5 14 33.5 35.5t12 41.5v19q-34 -3 -61 -8l-37 -5q-52 -9 -52 -49q0 -22 15.5 -35t41.5 -13t47.5 14z" />
    <glyph glyph-name="ordmasculine" unicode="&#xba;" horiz-adv-x="396" 
d="M111 415q-36 36 -36 87v86q0 51 36 87t87 36t87 -36t36 -87v-86q0 -51 -36 -87t-87 -36t-87 36zM250 447.5q22 21.5 22 51.5v92q0 30 -22 51.5t-52 21.5t-52 -21.5t-22 -51.5v-92q0 -30 22 -51.5t52 -21.5t52 21.5z" />
    <glyph glyph-name="pi" unicode="&#x3c0;" horiz-adv-x="772" 
d="M543.5 26.5q-31.5 31.5 -31.5 89.5v376h-252v-478q0 -6 -4 -10t-10 -4h-50q-6 0 -10 4t-4 10v478h-103q-6 0 -10 4t-4 10v46q0 6 4 10t10 4h614q6 0 10 -4t4 -10v-46q0 -6 -4 -10t-10 -4h-103v-379q0 -24 12.5 -37t35.5 -13h55q6 0 10 -4t4 -10v-40q0 -6 -4 -10t-10 -4
h-61q-57 0 -88.5 31.5z" />
    <glyph glyph-name="uni05D0" unicode="&#x5d0;" horiz-adv-x="596" 
d="M448 -3l-239 349q-36 -23 -48.5 -49.5t-12.5 -70.5v-150h78q6 0 10 -4t4 -10v-48q0 -6 -4 -10t-10 -4h-120q-15 0 -25.5 10.5t-10.5 25.5v184q0 59 15.5 99.5t60.5 73.5l21 15l-85 124q-4 5 -4 12q0 11 10 18l30 19q5 4 12 4q11 0 17 -9l194 -284q53 5 85 32t32 73v106
h-78q-6 0 -10 4t-4 10v48q0 6 4 10t10 4h120q15 0 25.5 -10.5t10.5 -25.5v-141q0 -65 -40 -112.5t-112 -59.5l129 -189q4 -5 4 -12q0 -11 -10 -18l-30 -19q-5 -4 -12 -4q-11 0 -17 9z" />
    <glyph glyph-name="uni05D1" unicode="&#x5d1;" horiz-adv-x="525" 
d="M49 4q-4 4 -4 10v48q0 6 4 10t10 4h278v427h-258q-6 0 -10 4t-4 10v48q0 6 4 10t10 4h300q15 0 25.5 -10.5t10.5 -25.5v-467h71q6 0 10 -4t4 -10v-48q0 -6 -4 -10t-10 -4h-427q-6 0 -10 4z" />
    <glyph glyph-name="uni05D2" unicode="&#x5d2;" horiz-adv-x="393" 
d="M28.5 0q-3.5 4 -3.5 10v50q0 6 4 10t10 4h16q16 0 31.5 7.5t52.5 32.5l25 16l66 43v330h-140q-6 0 -10 4t-4 10v48q0 6 4 10t10 4h182q15 0 25.5 -10.5t10.5 -25.5v-529q0 -6 -4 -10t-10 -4h-48q-6 0 -10 4t-4 10v75h-2l-64 -44q-41 -28 -63.5 -38.5t-49.5 -10.5h-14
q-7 0 -10.5 4z" />
    <glyph glyph-name="uni05D3" unicode="&#x5d3;" horiz-adv-x="533" 
d="M314 4q-4 4 -4 10v489h-251q-6 0 -10 4t-4 10v48q0 6 4 10t10 4h420q6 0 10 -4t4 -10v-48q0 -6 -4 -10t-10 -4h-91v-489q0 -6 -4 -10t-10 -4h-50q-6 0 -10 4z" />
    <glyph glyph-name="uni05D4" unicode="&#x5d4;" horiz-adv-x="597" 
d="M438 4q-4 4 -4 10v489l-335 1q-6 0 -10 4t-4 10v47q0 6 4 10t10 4h377q15 0 25.5 -10.5t10.5 -25.5v-529q0 -6 -4 -10t-10 -4h-50q-6 0 -10 4zM89 4q-4 4 -4 10v300q0 6 4 10t10 4h50q6 0 10 -4t4 -10v-300q0 -6 -4 -10t-10 -4h-50q-6 0 -10 4z" />
    <glyph glyph-name="uni05D5" unicode="&#x5d5;" horiz-adv-x="310" 
d="M151 4q-4 4 -4 10v489h-83q-6 0 -10 4t-4 10v48q0 6 4 10t10 4h125q15 0 25.5 -10.5t10.5 -25.5v-529q0 -6 -4 -10t-10 -4h-50q-6 0 -10 4z" />
    <glyph glyph-name="uni05D6" unicode="&#x5d6;" horiz-adv-x="361" 
d="M160 4q-4 4 -4 10v49q0 36 -6 72.5t-18 87.5q-10 44 -15.5 75t-5.5 59q0 86 60 146h-111q-6 0 -10.5 4t-4.5 11l1 47q0 7 4 10.5t10 3.5h247q6 0 10 -4t4 -10v-42q0 -5 -3.5 -10t-8.5 -6q-120 -33 -120 -152q0 -26 5 -52.5t15 -72.5q12 -54 18.5 -90.5t6.5 -76.5v-49
q0 -7 -4 -10.5t-10 -3.5h-50q-6 0 -10 4z" />
    <glyph glyph-name="uni05D7" unicode="&#x5d7;" horiz-adv-x="622" 
d="M115 4q-4 4 -4 10v489h-53q-6 0 -10 4t-4 10v48q0 6 4 10t10 4h505q6 0 10 -4t4 -10v-48q0 -6 -4 -10t-10 -4h-53v-489q0 -6 -4 -10t-10 -4h-50q-6 0 -10 4t-4 10v489h-243v-489q0 -6 -4 -10t-10 -4h-50q-6 0 -10 4z" />
    <glyph glyph-name="uni05D8" unicode="&#x5d8;" horiz-adv-x="607" 
d="M95.5 10.5q-10.5 10.5 -10.5 25.5v529q0 6 4 10t10 4h50q6 0 10 -4t4 -10v-490h170q56 0 94 38.5t38 93.5v248q0 29 -16.5 44.5t-40.5 15.5q-25 0 -41.5 -17t-16.5 -41v-152q0 -6 -4 -10t-10 -4h-50q-6 0 -10 4t-4 10v149q0 37 18.5 68t50.5 49t71 18q56 0 93 -36.5
t37 -98.5v-255q0 -54 -27 -99.5t-72.5 -72.5t-99.5 -27h-222q-15 0 -25.5 10.5z" />
    <glyph glyph-name="uni05D9" unicode="&#x5d9;" horiz-adv-x="285" 
d="M151 255q-4 4 -4 10v238h-83q-6 0 -10 4t-4 10v48q0 6 4 10t10 4h125q15 0 25.5 -10.5t10.5 -25.5v-278q0 -6 -4 -10t-10 -4h-50q-6 0 -10 4z" />
    <glyph glyph-name="uni05DA" unicode="&#x5da;" horiz-adv-x="522" 
d="M325.5 -134.5q-10.5 10.5 -10.5 25.5v612h-256q-6 0 -10 4t-4 10v48q0 6 4 10t10 4h404q6 0 10 -4t4 -10v-48q0 -6 -4 -10t-10 -4h-70v-573h68q6 0 10 -4t4 -10v-47q0 -6 -4 -10t-10 -4h-110q-15 0 -25.5 10.5z" />
    <glyph glyph-name="uni05DB" unicode="&#x5db;" horiz-adv-x="518" 
d="M64 4q-4 4 -4 10v48q0 6 4 10t10 4h242q20 0 34.5 14t14.5 33v380h-282q-6 0 -10 4t-4 10v48q0 6 4 10t10 4h324q15 0 25.5 -10.5t10.5 -25.5v-420q0 -33 -17 -61.5t-46.5 -45t-63.5 -16.5h-242q-6 0 -10 4z" />
    <glyph glyph-name="uni05DC" unicode="&#x5dc;" horiz-adv-x="489" 
d="M174 4q-4 4 -4 10v68q0 58 16.5 103.5t39.5 76.5t61 72q42 44 61.5 75.5t19.5 71.5v22h-273q-22 0 -36 14t-14 36v162q0 6 4 10t10 4h50q6 0 10 -4t4 -10v-136h285q15 0 25.5 -10.5t10.5 -25.5v-49q0 -49 -14 -87t-34 -65t-53 -62q-32 -34 -50 -58t-30.5 -56.5
t-12.5 -73.5v-78q0 -6 -4 -10t-10 -4h-52q-6 0 -10 4z" />
    <glyph glyph-name="uni05DD" unicode="&#x5dd;" horiz-adv-x="606" 
d="M133.5 10.5q-10.5 10.5 -10.5 25.5v467h-64q-6 0 -10 4t-4 10v48q0 6 4 10t10 4h426q15 0 25.5 -10.5t10.5 -25.5v-507q0 -15 -10.5 -25.5t-25.5 -10.5h-326q-15 0 -25.5 10.5zM443 76v427h-242v-427h242z" />
    <glyph glyph-name="uni05DE" unicode="&#x5de;" horiz-adv-x="606" 
d="M118 4q-4 4 -4 10v489h-50q-6 0 -10 4t-4 10v48q0 6 4 10t10 4h99q11 0 18 -7t7 -18v-45q28 37 69.5 58.5t92.5 21.5q55 0 97.5 -24t65.5 -64.5t23 -86.5v-291q-1 -52 -37.5 -87.5t-87.5 -35.5h-99q-6 0 -10 4t-4 10v48q0 6 4 10t10 4h98q20 0 34 14t14 34v271
q0 54 -33.5 87.5t-87.5 33.5q-64 0 -104.5 -40.5t-40.5 -104.5v-357q0 -6 -4 -10t-10 -4h-50q-6 0 -10 4z" />
    <glyph glyph-name="uni05DF" unicode="&#x5df;" horiz-adv-x="302" 
d="M152.5 -134.5q-10.5 10.5 -10.5 25.5v612h-83q-6 0 -10 4t-4 10v48q0 6 4 10t10 4h125q15 0 25.5 -10.5t10.5 -25.5v-613h68q6 0 10 -4t4 -10v-47q0 -6 -4 -10t-10 -4h-110q-15 0 -25.5 10.5z" />
    <glyph glyph-name="uni05E0" unicode="&#x5e0;" horiz-adv-x="342" 
d="M44 4q-4 4 -4 10v48q0 6 4 10t10 4h83q22 0 37 15t15 37v375h-105q-6 0 -10 4t-4 10v48q0 6 4 10t10 4h147q15 0 25.5 -10.5t10.5 -25.5v-415q0 -34 -17.5 -63.5t-47.5 -47t-63 -17.5h-85q-6 0 -10 4z" />
    <glyph glyph-name="uni05E1" unicode="&#x5e1;" horiz-adv-x="605" 
d="M223.5 17q-47.5 28 -75.5 75.5t-28 104.5v306h-61q-6 0 -10 4t-4 10v48q0 6 4 10t10 4h440q15 0 25.5 -10.5t10.5 -25.5v-346q0 -57 -28 -104.5t-75.5 -75.5t-103.5 -28q-57 0 -104.5 28zM392.5 80.5q29.5 17.5 47 47.5t17.5 65v310h-259v-310q0 -35 17.5 -65t47.5 -47.5
t65 -17.5t64.5 17.5z" />
    <glyph glyph-name="uni05E2" unicode="&#x5e2;" horiz-adv-x="592" 
d="M52 4q-4 4 -4 10v48q0 6 4 10t10 4h91v427h-62q-6 0 -10 4t-4 10v48q0 6 4 10t10 4h104q15 0 25.5 -10.5t10.5 -25.5v-467h80q55 0 92 35t37 90v302h-53q-6 0 -10 4t-4 10v48q0 6 4 10t10 4h94q15 0 25.5 -10.5t10.5 -25.5v-344q0 -56 -28 -101.5t-74 -71.5t-97 -26h-256
q-6 0 -10 4z" />
    <glyph glyph-name="uni05E3" unicode="&#x5e3;" horiz-adv-x="594" 
d="M444.5 -134.5q-10.5 10.5 -10.5 25.5v612h-236v-192h87q6 0 10 -4t4 -10v-47q0 -6 -4 -10t-10 -4h-129q-15 0 -25.5 10.5t-10.5 25.5v231h-61q-6 0 -10 4t-4 10v48q0 6 4 10t10 4h417q15 0 25.5 -10.5t10.5 -25.5v-613h68q6 0 10 -4t4 -10v-47q0 -6 -4 -10t-10 -4h-110
q-15 0 -25.5 10.5z" />
    <glyph glyph-name="uni05E4" unicode="&#x5e4;" horiz-adv-x="592" 
d="M114 4q-4 4 -4 10v48q0 6 4 10t10 4h267q20 0 34 14t14 34v379h-241v-176h90q6 0 10 -4t4 -10v-48q0 -6 -4 -10t-10 -4h-132q-24 0 -30 8.5t-6 27.5v216h-61q-6 0 -10 4t-4 10v48q0 6 4 10t10 4h422q15 0 25.5 -10.5t10.5 -25.5v-418q0 -34 -17 -62.5t-46 -45.5t-63 -17
h-267q-6 0 -10 4z" />
    <glyph glyph-name="uni05E5" unicode="&#x5e5;" horiz-adv-x="569" 
d="M152.5 -134.5q-10.5 10.5 -10.5 25.5v612h-83q-6 0 -10 4t-4 10v48q0 6 4 10t10 4h125q15 0 25.5 -10.5t10.5 -25.5v-272h29q54 0 99 22.5t71.5 63t26.5 91.5v55h-83q-6 0 -10 4t-4 10v48q0 6 4 10t10 4h125q15 0 25.5 -10.5t10.5 -25.5v-82q0 -74 -38 -135t-103.5 -95.5
t-142.5 -34.5h-20v-266h68q6 0 10 -4t4 -10v-47q0 -6 -4 -10t-10 -4h-110q-15 0 -25.5 10.5z" />
    <glyph glyph-name="uni05E6" unicode="&#x5e6;" horiz-adv-x="574" 
d="M95 4q-4 4 -4 10v48q0 6 4 10t10 4h315q0 39 -14.5 62t-45.5 46l-57 41l-53 38q-50 37 -74 62.5t-33 53t-9 69.5v55h-68q-6 0 -10 4t-4 10v48q0 6 4 10t10 4h110q15 0 25.5 -10.5t10.5 -25.5v-95q0 -29 10 -49t29 -37t65 -52q58 19 89 50t31 84v59h-68q-6 0 -10 4t-4 10
v48q0 6 4 10t10 4h110q15 0 25.5 -10.5t10.5 -25.5v-71q0 -80 -28.5 -128.5t-102.5 -80.5q47 -33 71.5 -60t34 -56t9.5 -72v-39q0 -15 -10.5 -25.5t-25.5 -10.5h-357q-6 0 -10 4z" />
    <glyph glyph-name="uni05E7" unicode="&#x5e7;" horiz-adv-x="588" 
d="M293 4q-4 4 -4 10v66q0 58 14.5 102.5t35 75t53.5 70.5q37 44 55 76t18 74v25h-371q-6 0 -10 4t-4 10v48q0 6 4 10t10 4h413q15 0 25.5 -10.5t10.5 -25.5v-50q0 -49 -12.5 -87t-30.5 -65t-48 -63q-29 -36 -45.5 -60.5t-28 -58.5t-11.5 -77v-68q0 -6 -4 -10t-10 -4h-50
q-6 0 -10 4zM89 -141q-4 4 -4 10v469q0 6 4 10t10 4h49q6 0 10 -4t4 -10v-469q0 -6 -4 -10t-10 -4h-49q-6 0 -10 4z" />
    <glyph glyph-name="uni05E8" unicode="&#x5e8;" horiz-adv-x="524" 
d="M365 4q-4 4 -4 10v489h-297q-6 0 -10 4t-4 10v48q0 6 4 10t10 4h339q15 0 25.5 -10.5t10.5 -25.5v-529q0 -6 -4 -10t-10 -4h-50q-6 0 -10 4z" />
    <glyph glyph-name="uni05E9" unicode="&#x5e9;" horiz-adv-x="698" 
d="M116.5 36.5q-36.5 36.5 -36.5 88.5v418q0 15 10.5 25.5t25.5 10.5h90q6 0 10 -4t4 -10v-46q0 -6 -4 -10t-10 -4h-53v-381q0 -20 14 -34t34 -14h111v489q0 6 4 10t10 4h45q6 0 10 -4t4 -10v-489h111q20 0 34.5 14t14.5 34v381h-53q-6 0 -10 4t-4 10v46q0 6 4 10t10 4h90
q15 0 25.5 -10.5t10.5 -25.5v-418q0 -52 -37 -88.5t-89 -36.5h-287q-52 0 -88.5 36.5z" />
    <glyph glyph-name="uni05EA" unicode="&#x5ea;" horiz-adv-x="642" 
d="M59 4q-4 4 -4 10v48q0 6 4 10t10 4h81v427h-81q-6 0 -10 4t-4 10v48q0 6 4 10t10 4h452q15 0 25.5 -10.5t10.5 -25.5v-529q0 -6 -4 -10t-10 -4h-50q-6 0 -10 4t-4 10v489h-251v-467q0 -15 -10.5 -25.5t-25.5 -10.5h-123q-6 0 -10 4z" />
    <glyph glyph-name="uniFB2A" unicode="&#xfb2a;" horiz-adv-x="698" 
d="M116.5 36.5q-36.5 36.5 -36.5 88.5v418q0 15 10.5 25.5t25.5 10.5h90q6 0 10 -4t4 -10v-46q0 -6 -4 -10t-10 -4h-53v-381q0 -20 14 -34t34 -14h111v489q0 6 4 10t10 4h45q6 0 10 -4t4 -10v-489h111q20 0 34.5 14t14.5 34v381h-53q-6 0 -10 4t-4 10v46q0 6 4 10t10 4h90
q15 0 25.5 -10.5t10.5 -25.5v-418q0 -52 -37 -88.5t-89 -36.5h-287q-52 0 -88.5 36.5zM520.5 654.5q-12.5 12.5 -12.5 29.5t12.5 29.5t29.5 12.5t29.5 -12.5t12.5 -29.5t-12.5 -29.5t-29.5 -12.5t-29.5 12.5z" />
    <glyph glyph-name="uniFB2B" unicode="&#xfb2b;" horiz-adv-x="698" 
d="M116.5 36.5q-36.5 36.5 -36.5 88.5v418q0 15 10.5 25.5t25.5 10.5h90q6 0 10 -4t4 -10v-46q0 -6 -4 -10t-10 -4h-53v-381q0 -20 14 -34t34 -14h111v489q0 6 4 10t10 4h45q6 0 10 -4t4 -10v-489h111q20 0 34.5 14t14.5 34v381h-53q-6 0 -10 4t-4 10v46q0 6 4 10t10 4h90
q15 0 25.5 -10.5t10.5 -25.5v-418q0 -52 -37 -88.5t-89 -36.5h-287q-52 0 -88.5 36.5zM113.5 654.5q-12.5 12.5 -12.5 29.5t12.5 29.5t29.5 12.5t29.5 -12.5t12.5 -29.5t-12.5 -29.5t-29.5 -12.5t-29.5 12.5z" />
    <glyph glyph-name="uniFB2C" unicode="&#xfb2c;" horiz-adv-x="698" 
d="M116.5 36.5q-36.5 36.5 -36.5 88.5v418q0 15 10.5 25.5t25.5 10.5h90q6 0 10 -4t4 -10v-46q0 -6 -4 -10t-10 -4h-53v-381q0 -20 14 -34t34 -14h111v489q0 6 4 10t10 4h45q6 0 10 -4t4 -10v-489h111q20 0 34.5 14t14.5 34v381h-53q-6 0 -10 4t-4 10v46q0 6 4 10t10 4h90
q15 0 25.5 -10.5t10.5 -25.5v-418q0 -52 -37 -88.5t-89 -36.5h-287q-52 0 -88.5 36.5zM435.5 263.5q-12.5 12.5 -12.5 29.5t12.5 29.5t29.5 12.5t29.5 -12.5t12.5 -29.5t-12.5 -29.5t-29.5 -12.5t-29.5 12.5zM520.5 654.5q-12.5 12.5 -12.5 29.5t12.5 29.5t29.5 12.5
t29.5 -12.5t12.5 -29.5t-12.5 -29.5t-29.5 -12.5t-29.5 12.5z" />
    <glyph glyph-name="uniFB2D" unicode="&#xfb2d;" horiz-adv-x="698" 
d="M116.5 36.5q-36.5 36.5 -36.5 88.5v418q0 15 10.5 25.5t25.5 10.5h90q6 0 10 -4t4 -10v-46q0 -6 -4 -10t-10 -4h-53v-381q0 -20 14 -34t34 -14h111v489q0 6 4 10t10 4h45q6 0 10 -4t4 -10v-489h111q20 0 34.5 14t14.5 34v381h-53q-6 0 -10 4t-4 10v46q0 6 4 10t10 4h90
q15 0 25.5 -10.5t10.5 -25.5v-418q0 -52 -37 -88.5t-89 -36.5h-287q-52 0 -88.5 36.5zM435.5 263.5q-12.5 12.5 -12.5 29.5t12.5 29.5t29.5 12.5t29.5 -12.5t12.5 -29.5t-12.5 -29.5t-29.5 -12.5t-29.5 12.5zM113.5 654.5q-12.5 12.5 -12.5 29.5t12.5 29.5t29.5 12.5
t29.5 -12.5t12.5 -29.5t-12.5 -29.5t-29.5 -12.5t-29.5 12.5z" />
    <glyph glyph-name="uniFB2E" unicode="&#xfb2e;" horiz-adv-x="608" 
d="M457 -3l-244 349q-36 -23 -49 -49.5t-13 -70.5v-150h80q6 0 10 -4t4 -10v-48q0 -6 -4 -10t-10 -4h-123q-15 0 -26 10.5t-11 25.5v184q0 58 16 99t62 74l21 15l-86 124q-4 5 -4 12q0 11 10 18l30 19q5 4 13 4q11 0 17 -9l198 -284q54 5 86.5 32t32.5 73v106h-79
q-7 0 -11 4t-4 10v48q0 6 4 10t11 4h122q15 0 26 -10.5t11 -25.5v-141q0 -65 -41 -112.5t-114 -59.5l131 -189q4 -5 4 -12q0 -11 -10 -18l-30 -19q-7 -4 -13 -4q-11 0 -17 9zM187 -139q-4 4 -4 11v39q0 6 4 10t11 4h221q7 0 11 -4t4 -10v-39q0 -7 -4 -11t-11 -4h-221
q-7 0 -11 4z" />
    <glyph glyph-name="uniFB2F" unicode="&#xfb2f;" horiz-adv-x="608" 
d="M457 -3l-244 349q-36 -23 -49 -49.5t-13 -70.5v-150h80q6 0 10 -4t4 -10v-48q0 -6 -4 -10t-10 -4h-123q-15 0 -26 10.5t-11 25.5v184q0 58 16 99t62 74l21 15l-86 124q-4 5 -4 12q0 11 10 18l30 19q5 4 13 4q11 0 17 -9l198 -284q54 5 86.5 32t32.5 73v106h-79
q-7 0 -11 4t-4 10v48q0 6 4 10t11 4h122q15 0 26 -10.5t11 -25.5v-141q0 -65 -41 -112.5t-114 -59.5l131 -189q4 -5 4 -12q0 -11 -10 -18l-30 -19q-7 -4 -13 -4q-11 0 -17 9zM282 -256q-11 11 -11 26l1 24l7 63h-81q-7 0 -11 4t-4 11v39q0 6 4 10t11 4h221q7 0 11 -4t4 -10
v-39q0 -7 -4 -11t-11 -4h-83l7 -63l2 -24q0 -15 -11.5 -26t-25.5 -11q-15 0 -26 11z" />
    <glyph glyph-name="uniFB30" unicode="&#xfb30;" horiz-adv-x="608" 
d="M457 -3l-244 349q-36 -23 -49 -49.5t-13 -70.5v-150h80q6 0 10 -4t4 -10v-48q0 -6 -4 -10t-10 -4h-123q-15 0 -26 10.5t-11 25.5v184q0 58 16 99t62 74l21 15l-86 124q-4 5 -4 12q0 11 10 18l30 19q5 4 13 4q11 0 17 -9l198 -284q54 5 86.5 32t32.5 73v106h-79
q-7 0 -11 4t-4 10v48q0 6 4 10t11 4h122q15 0 26 -10.5t11 -25.5v-141q0 -65 -41 -112.5t-114 -59.5l131 -189q4 -5 4 -12q0 -11 -10 -18l-30 -19q-7 -4 -13 -4q-11 0 -17 9zM341 381.5q-13 12.5 -13 29.5t13 29.5t30 12.5t30 -12.5t13 -29.5t-13 -29.5t-30 -12.5t-30 12.5z
" />
    <glyph glyph-name="uniFB31" unicode="&#xfb31;" horiz-adv-x="535" 
d="M50 4q-4 4 -4 10v48q0 6 4 10t10 4h284v427h-263q-7 0 -11 4t-4 10v48q0 6 4 10t11 4h306q15 0 25.5 -10.5t10.5 -25.5v-467h73q6 0 10 -4t4 -10v-48q0 -6 -4 -10t-10 -4h-436q-6 0 -10 4zM155 263.5q-13 12.5 -13 29.5t13 29.5t30 12.5t30 -12.5t13 -29.5t-13 -29.5
t-30 -12.5t-30 12.5z" />
    <glyph glyph-name="uniFB32" unicode="&#xfb32;" horiz-adv-x="401" 
d="M29 0q-4 4 -4 10v50q0 6 4.5 10t10.5 4h16q17 0 32.5 7.5t52.5 31.5l26 17l68 43v330h-143q-6 0 -10 4t-4 10v48q0 6 4 10t10 4h185q16 0 26.5 -10.5t10.5 -25.5v-529q0 -6 -4 -10t-10 -4h-49q-6 0 -10 4t-4 10v75h-2l-66 -44q-43 -28 -65.5 -38.5t-49.5 -10.5h-14
q-7 0 -11 4zM106 299.5q-13 12.5 -13 29.5t13 29.5t30 12.5t30 -12.5t13 -29.5t-13 -29.5t-30 -12.5t-30 12.5z" />
    <glyph glyph-name="uniFB33" unicode="&#xfb33;" horiz-adv-x="544" 
d="M320 4q-4 4 -4 10v489h-256q-6 0 -10 4t-4 10v48q0 6 4 10t10 4h429q6 0 10 -4t4 -10v-48q0 -6 -4 -10t-10 -4h-93v-489q0 -6 -4 -10t-11 -4h-51q-6 0 -10 4zM152 253.5q-13 12.5 -13 29.5t13 29.5t30 12.5t30 -12.5t13 -29.5t-13 -29.5t-30 -12.5t-30 12.5z" />
    <glyph glyph-name="uniFB34" unicode="&#xfb34;" horiz-adv-x="609" 
d="M447 4q-4 4 -4 10v489l-342 1q-6 0 -10 4t-4 10v47q0 6 4 10t10 4h385q15 0 25.5 -10.5t10.5 -25.5v-529q0 -6 -4 -10t-10 -4h-51q-6 0 -10 4zM91 4q-4 4 -4 10v300q0 6 4 10t10 4h51q6 0 10 -4t4 -10v-300q0 -6 -4 -10t-10 -4h-51q-6 0 -10 4zM275 253.5
q-13 12.5 -13 29.5t13 29.5t30 12.5t30 -12.5t13 -29.5t-13 -29.5t-30 -12.5t-30 12.5z" />
    <glyph glyph-name="uniFB35" unicode="&#xfb35;" horiz-adv-x="316" 
d="M154 4q-4 4 -4 10v489h-85q-6 0 -10 4t-4 10v48q0 6 4 10t10 4h128q15 0 25.5 -10.5t10.5 -25.5v-529q0 -6 -4 -10t-10 -4h-51q-6 0 -10 4zM37 253.5q-13 12.5 -13 29.5t13 29.5t30 12.5t30 -12.5t13 -29.5t-13 -29.5t-30 -12.5t-30 12.5z" />
    <glyph glyph-name="uniFB36" unicode="&#xfb36;" horiz-adv-x="368" 
d="M163 4q-4 4 -4 10v49q0 36 -6 70.5t-19 89.5q-10 44 -15.5 75t-5.5 59q0 41 13.5 77t47.5 69h-113q-6 0 -10.5 4t-4.5 11l1 47q0 7 4 10.5t10 3.5h252q6 0 10 -4t4 -10v-42q0 -5 -3.5 -10t-8.5 -6q-122 -33 -122 -152q0 -26 5.5 -54.5t15.5 -70.5q12 -54 18.5 -90.5
t6.5 -76.5v-49q0 -14 -15 -14h-51q-6 0 -10 4zM252 336.5q-13 12.5 -13 29.5t13 29.5t30 12.5t30 -12.5t13 -29.5t-13 -29.5t-30 -12.5t-30 12.5z" />
    <glyph glyph-name="uniFB38" unicode="&#xfb38;" horiz-adv-x="619" 
d="M97.5 10.5q-10.5 10.5 -10.5 25.5v529q0 6 4 10t10 4h51q6 0 10 -4t4 -10v-490h174q56 0 95 38.5t39 93.5v248q0 29 -16.5 44.5t-41.5 15.5q-26 0 -42.5 -17t-16.5 -41v-152q0 -6 -4 -10t-10 -4h-51q-6 0 -10.5 4t-4.5 10v149q0 37 19 68t51.5 49t72.5 18
q58 0 95.5 -36.5t37.5 -98.5v-255q0 -54 -27.5 -99.5t-74 -72.5t-101.5 -27h-227q-15 0 -25.5 10.5zM328 156.5q-13 12.5 -13 29.5t13 29.5t30 12.5t30 -12.5t13 -29.5t-13 -29.5t-30 -12.5t-30 12.5z" />
    <glyph glyph-name="uniFB39" unicode="&#xfb39;" horiz-adv-x="291" 
d="M154 255q-4 4 -4 10v238h-85q-6 0 -10 4t-4 10v48q0 6 4 10t10 4h128q15 0 25.5 -10.5t10.5 -25.5v-278q0 -6 -4 -10t-10 -4h-51q-6 0 -10 4zM21 354.5q-13 12.5 -13 29.5t13 29.5t30 12.5t30 -12.5t13 -29.5t-13 -29.5t-30 -12.5t-30 12.5z" />
    <glyph glyph-name="uniFB3A" unicode="&#xfb3a;" horiz-adv-x="532" 
d="M332 -134.5q-11 10.5 -11 25.5v612h-261q-6 0 -10 4t-4 10v48q0 6 4 10t10 4h412q6 0 10.5 -4t4.5 -10v-48q0 -6 -4.5 -10t-10.5 -4h-71v-573h69q6 0 10 -4t4 -10v-47q0 -6 -4 -10t-10 -4h-112q-15 0 -26 10.5zM220 253.5q-13 12.5 -13 29.5t13 29.5t30 12.5t30 -12.5
t13 -29.5t-13 -29.5t-30 -12.5t-30 12.5z" />
    <glyph glyph-name="uniFB3B" unicode="&#xfb3b;" horiz-adv-x="528" 
d="M65 4q-4 4 -4 10v48q0 6 4 10t10 4h247q21 0 35.5 13.5t14.5 33.5v380h-287q-7 0 -11 4t-4 10v48q0 6 4 10t11 4h330q16 0 26.5 -10.5t10.5 -25.5v-420q0 -33 -17.5 -61.5t-47.5 -45t-65 -16.5h-247q-6 0 -10 4zM173 263.5q-13 12.5 -13 29.5t13 29.5t30 12.5t30 -12.5
t13 -29.5t-13 -29.5t-30 -12.5t-30 12.5z" />
    <glyph glyph-name="uniFB3C" unicode="&#xfb3c;" horiz-adv-x="499" 
d="M177.5 4q-4.5 4 -4.5 10v68q0 59 17 104t41 76.5t62 71.5q42 45 62 76t20 71v22h-278q-22 0 -36.5 14t-14.5 36v162q0 6 4 10t10 4h51q6 0 10 -4t4 -10v-136h291q16 0 26.5 -10.5t10.5 -25.5v-49q0 -49 -14.5 -87t-34.5 -64.5t-54 -62.5q-32 -34 -50.5 -58t-31.5 -56.5
t-13 -73.5v-78q0 -6 -4 -10t-10 -4h-53q-6 0 -10.5 4zM144 359.5q-13 12.5 -13 29.5t13 29.5t30 12.5t30 -12.5t13 -29.5t-13 -29.5t-30 -12.5t-30 12.5z" />
    <glyph glyph-name="uniFB3E" unicode="&#xfb3e;" horiz-adv-x="618" 
d="M120 4q-4 4 -4 10v489h-51q-6 0 -10 4t-4 10v48q0 6 4 10t10 4h101q11 0 18.5 -7t7.5 -18v-45q28 37 71 58.5t94 21.5q56 0 99 -24t67 -64.5t24 -86.5v-291q-1 -52 -38 -87.5t-90 -35.5h-101q-6 0 -10 4t-4 10v48q0 6 4 10t10 4h100q21 0 35 14t14 34v271q0 54 -34 87.5
t-89 33.5q-66 0 -107 -40.5t-41 -104.5v-357q0 -6 -4 -10t-10 -4h-51q-7 0 -11 4zM299 263.5q-13 12.5 -13 29.5t13 29.5t30 12.5t30 -12.5t13 -29.5t-13 -29.5t-30 -12.5t-30 12.5z" />
    <glyph glyph-name="uniFB40" unicode="&#xfb40;" horiz-adv-x="349" 
d="M45 4q-4 4 -4 10v48q0 6 4 10t10 4h85q22 0 37.5 15t15.5 37v375h-107q-6 0 -10.5 4t-4.5 10v48q0 6 4.5 10t10.5 4h150q15 0 25.5 -10.5t10.5 -25.5v-415q0 -34 -18 -63.5t-48 -47t-64 -17.5h-87q-6 0 -10 4zM62 253.5q-13 12.5 -13 29.5t13 29.5t30 12.5t30 -12.5
t13 -29.5t-13 -29.5t-30 -12.5t-30 12.5z" />
    <glyph glyph-name="uniFB41" unicode="&#xfb41;" horiz-adv-x="605" 
d="M223.5 17q-47.5 28 -75.5 75.5t-28 104.5v306h-61q-6 0 -10 4t-4 10v48q0 6 4 10t10 4h440q15 0 25.5 -10.5t10.5 -25.5v-346q0 -57 -28 -104.5t-75.5 -75.5t-103.5 -28q-57 0 -104.5 28zM392.5 80.5q29.5 17.5 47 47.5t17.5 65v310h-259v-310q0 -35 17.5 -65t47.5 -47.5
t65 -17.5t64.5 17.5zM297.5 263.5q-12.5 12.5 -12.5 29.5t12.5 29.5t29.5 12.5t29.5 -12.5t12.5 -29.5t-12.5 -29.5t-29.5 -12.5t-29.5 12.5z" />
    <glyph glyph-name="uniFB43" unicode="&#xfb43;" horiz-adv-x="606" 
d="M453.5 -134.5q-10.5 10.5 -10.5 25.5v612h-241v-192h89q6 0 10 -4t4 -10v-47q0 -6 -4 -10t-10 -4h-132q-15 0 -26 10.5t-11 25.5v231h-62q-6 0 -10 4t-4 10v48q0 6 4 10t10 4h426q15 0 25.5 -10.5t10.5 -25.5v-613h70q6 0 10 -4t4 -10v-47q0 -6 -4 -10t-10 -4h-113
q-15 0 -25.5 10.5zM301 367.5q-13 12.5 -13 29.5t13 29.5t30 12.5t30 -12.5t13 -29.5t-13 -29.5t-30 -12.5t-30 12.5z" />
    <glyph glyph-name="uniFB44" unicode="&#xfb44;" horiz-adv-x="604" 
d="M116 4q-4 4 -4 10v48q0 6 4 10t10 4h273q20 0 34.5 14t14.5 34v379h-246v-176h92q6 0 10 -4t4 -10v-48q0 -6 -4 -10t-10 -4h-135q-25 0 -31 8.5t-6 27.5v216h-62q-6 0 -10 4t-4 10v48q0 6 4 10t10 4h431q15 0 25.5 -10.5t10.5 -25.5v-418q0 -34 -17.5 -62.5t-47 -45.5
t-63.5 -17h-273q-6 0 -10 4zM323 383.5q-13 12.5 -13 29.5t13 29.5t30 12.5t30 -12.5t13 -29.5t-13 -29.5t-30 -12.5t-30 12.5z" />
    <glyph glyph-name="uniFB46" unicode="&#xfb46;" horiz-adv-x="585" 
d="M97 4q-4 4 -4 10v48q0 6 4 10t10 4h321q0 39 -15 62.5t-46 45.5q-18 13 -35 25t-32 22q-30 22 -45 32q-51 37 -75.5 62.5t-33.5 52.5t-9 70v55h-70q-6 0 -10 4t-4 10v48q0 6 4 10t10 4h113q15 0 25.5 -10.5t10.5 -25.5v-95q0 -29 10 -48.5t29 -36.5t67 -53q60 19 91.5 50
t31.5 84v59h-70q-6 0 -10 4t-4 10v48q0 6 4 10t10 4h113q15 0 25.5 -10.5t10.5 -25.5v-71q0 -80 -29 -128.5t-104 -80.5q48 -33 73 -60t34.5 -56t9.5 -72v-39q0 -15 -10.5 -25.5t-26.5 -10.5h-364q-6 0 -10 4zM188 137.5q-13 12.5 -13 29.5t13 29.5t30 12.5t30 -12.5
t13 -29.5t-13 -29.5t-30 -12.5t-30 12.5z" />
    <glyph glyph-name="uniFB47" unicode="&#xfb47;" horiz-adv-x="600" 
d="M299 4q-4 4 -4 10v66q0 58 15 102.5t35.5 75t54.5 70.5q38 44 56 76t18 74v25h-378q-6 0 -10 4t-4 10v48q0 6 4 10t10 4h421q16 0 26.5 -10.5t10.5 -25.5v-50q0 -49 -12.5 -87t-31.5 -65t-49 -63t-47 -60.5t-28.5 -58.5t-11.5 -77v-68q0 -6 -4 -10t-10 -4h-51q-6 0 -10 4
zM271 362.5q-13 12.5 -13 29.5t13 29.5t30 12.5t30 -12.5t13 -29.5t-13 -29.5t-30 -12.5t-30 12.5zM91 -141q-4 4 -4 10v469q0 6 4 10t10 4h50q6 0 10 -4t4 -10v-469q0 -6 -4 -10t-10 -4h-50q-6 0 -10 4z" />
    <glyph glyph-name="uniFB48" unicode="&#xfb48;" horiz-adv-x="534" 
d="M372 4q-4 4 -4 10v489h-303q-6 0 -10 4t-4 10v48q0 6 4 10t10 4h346q15 0 26 -10.5t11 -25.5v-529q0 -6 -4 -10t-11 -4h-51q-6 0 -10 4zM166 253.5q-13 12.5 -13 29.5t13 29.5t30 12.5t30 -12.5t13 -29.5t-13 -29.5t-30 -12.5t-30 12.5z" />
    <glyph glyph-name="uniFB49" unicode="&#xfb49;" horiz-adv-x="712" 
d="M145.5 17q-29.5 17 -46.5 45.5t-17 62.5v418q0 15 10.5 25.5t25.5 10.5h92q6 0 10 -4t4 -10v-46q0 -6 -4 -10t-10 -4h-54v-381q0 -20 14.5 -34t34.5 -14h113v489q0 6 4 10t11 4h45q7 0 11 -4t4 -10v-489h113q20 0 35 14t15 34v381h-54q-6 0 -10 4t-4 10v46q0 6 4 10t10 4
h92q15 0 25.5 -10.5t10.5 -25.5v-418q0 -34 -17 -62.5t-46.5 -45.5t-64.5 -17h-293q-34 0 -63.5 17zM444 263.5q-13 12.5 -13 29.5t13 29.5t30 12.5t30 -12.5t13 -29.5t-13 -29.5t-30 -12.5t-30 12.5z" />
    <glyph glyph-name="uniFB4A" unicode="&#xfb4a;" horiz-adv-x="655" 
d="M60 4q-4 4 -4 10v48q0 6 4 10t10 4h83v427h-83q-6 0 -10 4t-4 10v48q0 6 4 10t10 4h461q16 0 26.5 -10.5t10.5 -25.5v-529q0 -6 -4 -10t-10 -4h-51q-6 0 -10 4t-4 10v489h-256v-467q0 -15 -11 -25.5t-26 -10.5h-126q-6 0 -10 4zM333 253.5q-13 12.5 -13 29.5t13 29.5
t30 12.5t30 -12.5t13 -29.5t-13 -29.5t-30 -12.5t-30 12.5z" />
    <glyph glyph-name="uniFB4B" unicode="&#xfb4b;" horiz-adv-x="316" 
d="M126 684.5q-13 12.5 -13 29.5t13 29.5t30 12.5t30 -12.5t13 -29.5t-13 -29.5t-30 -12.5t-30 12.5zM154 4q-4 4 -4 10v489h-85q-6 0 -10 4t-4 10v48q0 6 4 10t10 4h128q15 0 25.5 -10.5t10.5 -25.5v-529q0 -6 -4 -10t-10 -4h-51q-6 0 -10 4z" />
    <glyph glyph-name="zero" unicode="0" horiz-adv-x="595" 
d="M123 79.5q-58 92.5 -58 268.5q0 175 58 267.5t175 92.5t174.5 -92t57.5 -268q0 -361 -232 -361q-117 0 -175 92.5zM415.5 139.5q30.5 73.5 30.5 208.5t-30.5 208t-118.5 73q-80 0 -114 -68t-34 -217q0 -132 31 -205t118 -73t117.5 73.5z" />
    <glyph glyph-name="one" unicode="1" horiz-adv-x="430" 
d="M54 4q-4 4 -4 10v45q0 6 4 10t10 4h120v518h-89q-6 0 -10 4t-4 10v32l137 71h29q6 0 10 -4t4 -10v-621h120q6 0 10 -4t4 -10v-45q0 -6 -4 -10t-10 -4h-317q-6 0 -10 4z" />
    <glyph glyph-name="two" unicode="2" horiz-adv-x="507" 
d="M65.5 10q-10.5 10 -10.5 24v86q0 69 19.5 108.5t59.5 69t141 89.5q48 28 72.5 59.5t24.5 73.5q0 52 -34 82t-90 30q-65 0 -137 -42q-4 -3 -9 -3q-6 0 -11 8l-21 35q-3 5 -3 9q0 11 9 15q40 25 86 39t92 14q91 0 144.5 -48.5t53.5 -130.5q0 -50 -18 -87t-50 -66t-84 -63
q-16 -11 -28.5 -18.5t-20.5 -12.5q-50 -31 -72.5 -48.5t-34 -41.5t-11.5 -63v-52h281q5 0 8 -3.5t3 -8.5v-52q0 -5 -3 -8.5t-8 -3.5h-323q-15 0 -25.5 10z" />
    <glyph glyph-name="three" unicode="3" horiz-adv-x="529" 
d="M116 20q-59 32 -94 88q-2 4 -2 8q0 9 8 15l34 24q5 3 10 3q10 0 16 -9q30 -40 71 -63.5t83 -23.5t77 21t55.5 57t20.5 78t-20.5 77t-54.5 55.5t-74 20.5q-11 0 -16 -1l-21 -28q-3 -6 -11 -6q-5 0 -8 3l-38 27q-5 3 -5 10q0 6 3 9l167 234h-225q-6 0 -10 4t-4 10v48
q0 6 4 10t10 4h283q21 0 34.5 -13t13.5 -31q0 -15 -10 -29l-132 -182q55 -8 99 -39.5t69 -79t25 -103.5q0 -62 -31.5 -115t-85 -84t-115.5 -31q-67 0 -126 32z" />
    <glyph glyph-name="four" unicode="4" horiz-adv-x="561" 
d="M355 4q-4 4 -4 10v159h-282q-12 0 -20.5 8.5t-8.5 20.5v42l271 439q3 5 9 8.5t12 3.5h74q9 0 15 -6t6 -15v-428h70q6 0 10 -4t4 -10v-45q0 -6 -4 -10t-10 -4h-70v-159q0 -6 -4 -10t-10 -4h-48q-6 0 -10 4zM351 246v367l-226 -367h226z" />
    <glyph glyph-name="five" unicode="5" horiz-adv-x="540" 
d="M127.5 16q-59.5 33 -95.5 90q-2 2 -2 8q0 8 7 12l34 25q5 3 11 3q11 0 16 -8q28 -41 70.5 -65t86.5 -24q43 0 79.5 21t57.5 58t21 81q0 43 -21 79t-56 56.5t-77 20.5q-64 0 -122 -48q-10 -8 -22 -5l-28 8q-5 1 -7.5 6t-1.5 11l51 321q2 13 11.5 21t22.5 8h264q6 0 10 -4
t4 -10v-46q0 -6 -4 -10t-10 -4h-231l-31 -199q49 23 98 23q61 0 113 -30.5t83 -83t31 -114.5q0 -63 -32 -117t-86 -85.5t-117 -31.5q-68 0 -127.5 33z" />
    <glyph glyph-name="six" unicode="6" horiz-adv-x="574" 
d="M180.5 16.5q-51.5 29.5 -81 81t-29.5 113.5q0 108 7.5 175.5t33.5 123.5q42 87 121 136t178 49q7 0 11 -4t4 -10v-45q0 -5 -4 -9.5t-9 -4.5q-74 0 -131.5 -33t-91.5 -92.5t-38 -137.5q22 34 66.5 55.5t86.5 21.5q60 0 109.5 -30.5t77.5 -82t28 -112.5q0 -60 -30.5 -111.5
t-82 -82t-112.5 -30.5q-62 0 -113.5 29.5zM366.5 81.5q33.5 20.5 53.5 55t20 74.5t-20 75t-53.5 55.5t-72.5 20.5q-40 0 -73 -20t-52 -54.5t-19 -76.5t19 -76.5t52 -54t73 -19.5q39 0 72.5 20.5z" />
    <glyph glyph-name="seven" unicode="7" horiz-adv-x="454" 
d="M109 13q0 2 2 10l227 596h-294q-6 0 -10 4t-4 10v48q0 6 4 10t10 4h334q15 0 25.5 -10.5t10.5 -25.5v-52l-224 -593q-2 -6 -6.5 -10t-10.5 -4h-51q-13 0 -13 13z" />
    <glyph glyph-name="eight" unicode="8" horiz-adv-x="589" 
d="M173 15.5q-55 28.5 -86.5 77.5t-31.5 109q0 53 26.5 101.5t73.5 80.5q-32 23 -49 59.5t-17 79.5q0 51 27.5 93.5t74.5 67.5t103 25q57 0 104 -24t74.5 -65t27.5 -91q0 -48 -19.5 -92t-53.5 -73q51 -25 79 -69t28 -97q0 -58 -32 -106.5t-87 -76.5t-121 -28t-121 28.5z
M402 443.5q18 36.5 18 79.5q0 36 -18.5 61.5t-47.5 39t-60 13.5q-52 0 -88 -33t-36 -81q0 -42 26 -67.5t64.5 -38.5t100.5 -27q23 17 41 53.5zM374.5 78q36.5 19 57.5 52t21 72q0 44 -25 69.5t-62.5 38.5t-106.5 29l-39 9q-38 -19 -61 -59t-23 -85q0 -41 20.5 -74t56.5 -52
t81 -19q44 0 80.5 19z" />
    <glyph glyph-name="nine" unicode="9" horiz-adv-x="574" 
d="M153 4q-4 4 -4 10v45q0 5 4 9.5t9 4.5q74 0 131.5 33t91.5 92.5t38 137.5q-22 -34 -66.5 -55.5t-86.5 -21.5q-60 0 -109.5 30.5t-77.5 82t-28 112.5q0 60 30.5 111.5t82 82t112.5 30.5q62 0 113.5 -29.5t81 -81t29.5 -113.5q0 -108 -7.5 -175.5t-33.5 -123.5
q-42 -87 -121 -136t-178 -49q-7 0 -11 4zM353 353q33 20 52 54.5t19 76.5t-19 76.5t-52 54t-73 19.5q-39 0 -72.5 -20.5t-53.5 -55t-20 -74.5t20 -75t53.5 -55.5t72.5 -20.5q40 0 73 20z" />
    <glyph glyph-name="fraction" unicode="&#x2044;" horiz-adv-x="603" 
d="M23 -10q-3 3 -3 8v48q0 8 4 13l539 643q4 5 10 5q4 0 7 -3t3 -8v-48q0 -8 -4 -13l-539 -643q-4 -5 -10 -5q-4 0 -7 3z" />
    <glyph glyph-name="onehalf" unicode="&#xbd;" horiz-adv-x="736" 
d="M69.5 362.5q-3.5 3.5 -3.5 8.5v27q0 5 3.5 8.5t8.5 3.5h53v234h-35q-7 0 -11 4t-4 10v21l72 37h16q6 0 10.5 -4.5t4.5 -10.5v-291h53q5 0 8.5 -3.5t3.5 -8.5v-27q0 -5 -3.5 -8.5t-8.5 -3.5h-159q-5 0 -8.5 3.5zM87 -10q-3 3 -3 8v48q0 8 4 13l539 643q4 5 10 5q4 0 7 -3
t3 -8v-48q0 -8 -4 -13l-539 -643q-4 -5 -10 -5q-4 0 -7 3zM465.5 7.5q-7.5 7.5 -7.5 17.5v41q0 34 13.5 56.5t32 35t50.5 29.5q37 19 49.5 34t12.5 36t-14 34t-37 13q-31 0 -71 -25q-4 -2 -7 -2q-6 0 -9 5l-15 26q-1 2 -1 6q0 8 6 12q49 31 100 31q46 0 74.5 -25.5
t28.5 -68.5q0 -38 -17.5 -64t-59.5 -49q-8 -4 -33.5 -17.5t-37 -28t-11.5 -32.5v-20h138q6 0 9.5 -4t3.5 -10v-25q0 -5 -4 -9t-9 -4h-167q-10 0 -17.5 7.5z" />
    <glyph glyph-name="onequarter" unicode="&#xbc;" horiz-adv-x="701" 
d="M73.5 362.5q-3.5 3.5 -3.5 8.5v27q0 5 3.5 8.5t8.5 3.5h53v234h-35q-7 0 -11 4t-4 10v21l72 37h16q6 0 10.5 -4.5t4.5 -10.5v-291h53q5 0 8.5 -3.5t3.5 -8.5v-27q0 -5 -3.5 -8.5t-8.5 -3.5h-159q-5 0 -8.5 3.5zM86 -10q-3 3 -3 8v48q0 8 4 13l539 643q4 5 10 5q4 0 7 -3
t3 -8v-48q0 -8 -4 -13l-539 -643q-4 -5 -10 -5q-4 0 -7 3zM553.5 3.5q-3.5 3.5 -3.5 8.5v71h-128q-8 0 -15 6.5t-7 15.5v23l132 213q7 10 17 10h35q8 0 13.5 -5t5.5 -13v-199h28q5 0 8.5 -3.5t3.5 -8.5v-27q0 -5 -3.5 -8.5t-8.5 -3.5h-28v-71q0 -5 -3.5 -8.5t-8.5 -3.5h-29
q-5 0 -8.5 3.5zM550 134v140l-87 -140h87z" />
    <glyph glyph-name="threequarters" unicode="&#xbe;" horiz-adv-x="723" 
d="M101 -10q-3 3 -3 8v48q0 8 4 13l539 643q4 5 10 5q4 0 7 -3t3 -8v-48q0 -8 -4 -13l-539 -643q-4 -5 -10 -5q-4 0 -7 3zM104.5 362.5q-30.5 16.5 -48.5 45.5q-3 5 -3 9q0 7 5 10l21 15q5 3 9 3q8 0 13 -8q13 -19 31.5 -29t37.5 -10q28 0 46.5 19t18.5 48q0 28 -18.5 47
t-45.5 19h-3l-9 -12q-3 -5 -10 -5q-6 0 -10 3l-19 13q-4 3 -5 7.5t2 9.5l73 103h-94q-5 0 -8.5 3.5t-3.5 8.5v29q0 5 3.5 8.5t8.5 3.5h138q13 0 22 -8.5t9 -20.5q0 -11 -7 -19l-56 -78q38 -10 62.5 -40.5t24.5 -71.5q0 -49 -35 -84t-84 -35q-35 0 -65.5 16.5zM578.5 3.5
q-3.5 3.5 -3.5 8.5v71h-128q-8 0 -15 6.5t-7 15.5v23l132 213q7 10 17 10h35q8 0 13.5 -5t5.5 -13v-199h28q5 0 8.5 -3.5t3.5 -8.5v-27q0 -5 -3.5 -8.5t-8.5 -3.5h-28v-71q0 -5 -3.5 -8.5t-8.5 -3.5h-29q-5 0 -8.5 3.5zM575 134v140l-87 -140h87z" />
    <glyph glyph-name="uni00B9" unicode="&#xb9;" horiz-adv-x="293" 
d="M58.5 362.5q-3.5 3.5 -3.5 8.5v27q0 5 3.5 8.5t8.5 3.5h53v234h-35q-7 0 -11 4t-4 10v21l72 37h16q6 0 10.5 -4.5t4.5 -10.5v-291h53q5 0 8.5 -3.5t3.5 -8.5v-27q0 -5 -3.5 -8.5t-8.5 -3.5h-159q-5 0 -8.5 3.5z" />
    <glyph glyph-name="uni00B2" unicode="&#xb2;" horiz-adv-x="316" 
d="M59.5 366.5q-7.5 7.5 -7.5 17.5v41q0 34 13.5 56.5t32 35t50.5 29.5q37 19 49.5 34t12.5 36t-14 34t-37 13q-31 0 -71 -25q-4 -2 -7 -2q-6 0 -9 5l-15 26q-1 2 -1 6q0 8 6 12q49 31 100 31q46 0 74.5 -25.5t28.5 -68.5q0 -38 -17.5 -64t-59.5 -49q-8 -4 -33.5 -17.5
t-37 -28t-11.5 -32.5v-20h138q6 0 9.5 -4t3.5 -10v-25q0 -5 -4 -9t-9 -4h-167q-10 0 -17.5 7.5z" />
    <glyph glyph-name="uni00B3" unicode="&#xb3;" horiz-adv-x="324" 
d="M84.5 362.5q-30.5 16.5 -48.5 45.5q-3 5 -3 9q0 7 5 10l21 15q4 3 9 3q8 0 13 -8q13 -19 31.5 -29t37.5 -10q28 0 46.5 19t18.5 48q0 28 -18.5 47t-45.5 19h-3l-9 -12q-3 -5 -10 -5q-5 0 -10 3l-19 13q-4 3 -5 7.5t2 9.5l73 103h-94q-5 0 -8.5 3.5t-3.5 8.5v29
q0 5 3.5 8.5t8.5 3.5h138q13 0 22 -8.5t9 -20.5q0 -11 -7 -19l-56 -78q38 -10 62.5 -40.5t24.5 -71.5q0 -49 -35 -84t-84 -35q-35 0 -65.5 16.5z" />
    <glyph glyph-name="zero.sc" horiz-adv-x="530" 
d="M163.5 13q-46.5 26 -74 71t-27.5 98v215q0 53 27.5 97.5t74 71t101.5 26.5t101.5 -26.5t74 -71t27.5 -97.5v-215q0 -53 -27.5 -98t-74 -71t-101.5 -26t-101.5 26zM329 76.5q29 16.5 46 44.5t17 61v215q0 33 -17 61t-46 44.5t-64 16.5t-64 -16.5t-46 -44.5t-17 -61v-215
q0 -33 17 -61t46 -44.5t64 -16.5t64 16.5z" />
    <glyph glyph-name="one.sc" horiz-adv-x="368" 
d="M54 4q-4 4 -4 10v45q0 6 4 10t10 4h89v386h-83q-6 0 -10 4t-4 10v25l125 88h29q9 0 15 -6t6 -15v-492h88q6 0 10 -4t4 -10v-45q0 -6 -4 -10t-10 -4h-255q-6 0 -10 4z" />
    <glyph glyph-name="two.sc" horiz-adv-x="456" 
d="M68 9.5q-10 9.5 -10 25.5l-1 68q-1 55 20 91t47.5 55t83.5 52q66 38 89.5 62.5t23.5 62.5q0 44 -26.5 68.5t-72.5 24.5q-30 0 -59 -10.5t-63 -31.5q-5 -3 -9 -3q-6 0 -11 8l-21 35q-3 5 -3 9q0 9 9 15q76 52 162 52q78 0 126 -41t48 -117q0 -50 -20 -85.5t-47 -57
t-66 -44.5l-22 -13q-42 -25 -63 -39.5t-34.5 -35t-13.5 -47.5v-40h239q6 0 10 -4t4 -10v-45q0 -6 -4 -10t-10 -4h-281q-15 0 -25 9.5z" />
    <glyph glyph-name="three.sc" horiz-adv-x="473" 
d="M114 18q-51 29 -82 78q-1 3 -1 8q0 10 8 14l29 21q5 4 12 4q10 0 17 -10q22 -31 56 -52t72 -21q34 0 63.5 17.5t46.5 47.5t17 65t-16.5 64.5t-45 47t-61.5 17.5l-26 -34q-5 -5 -11 -5q-4 0 -9 3l-31 23q-6 5 -6 12q0 5 3 8l135 179h-198q-6 0 -10 4t-4 10v46q0 6 4 10
t10 4h264q17 0 27.5 -10t10.5 -25q0 -13 -9 -25l-103 -137q66 -16 109 -69.5t43 -122.5q0 -55 -27.5 -101t-74 -73t-101.5 -27q-60 0 -111 29z" />
    <glyph glyph-name="four.sc" horiz-adv-x="521" 
d="M327 4q-4 4 -4 10v98h-259q-12 0 -20.5 8.5t-8.5 20.5v35l248 395q3 5 9 8t12 3h72q9 0 15 -6t6 -15v-377h70q6 0 10 -4t4 -10v-44q0 -6 -4 -10t-10 -4h-70v-98q0 -6 -4 -10t-10 -4h-46q-6 0 -10 4zM323 184v321l-202 -321h202z" />
    <glyph glyph-name="five.sc" horiz-adv-x="479" 
d="M125 17q-49 28 -79 76q-1 2 -1 6q0 9 8 15l30 21q5 4 11 4q10 0 17 -10q21 -30 53.5 -50t69.5 -20q50 0 85.5 36.5t35.5 88.5q0 51 -35 87t-84 36q-56 0 -101 -45q-8 -8 -13 -10t-13 0l-31 9q-5 2 -7.5 6.5t-1.5 9.5l45 275q5 27 33 27h220q6 0 10 -4t4 -10v-46
q0 -6 -4 -10t-10 -4h-192l-26 -158q18 13 41.5 20.5t45.5 7.5q52 0 96.5 -26t70.5 -69.5t26 -95.5q0 -53 -26.5 -98t-71.5 -71t-98 -26q-59 0 -108 28z" />
    <glyph glyph-name="six.sc" horiz-adv-x="495" 
d="M152.5 14.5q-44.5 26.5 -71 71t-26.5 97.5q0 64 1.5 102.5t8.5 73.5q22 106 102 166.5t195 60.5q7 0 11 -4.5t4 -10.5v-41q0 -6 -4 -10t-10 -4q-63 0 -113.5 -24t-80 -67t-31.5 -97q20 23 50 36.5t62 13.5q53 0 97.5 -26.5t71 -71t26.5 -97.5t-26.5 -97.5t-71 -71
t-97.5 -26.5t-97.5 26.5zM310 75q28 17 44.5 46t16.5 62q0 34 -16.5 63t-44.5 46t-60 17t-60 -17t-44.5 -46t-16.5 -63q0 -33 16.5 -62t44.5 -46t60 -17t60 17z" />
    <glyph glyph-name="seven.sc" horiz-adv-x="394" 
d="M92 13q0 6 2 10l195 482h-245q-6 0 -10 4t-4 10v46q0 6 4 10t10 4h284q15 0 25.5 -10.5t10.5 -25.5v-52l-191 -477q-5 -14 -17 -14h-51q-13 0 -13 13z" />
    <glyph glyph-name="eight.sc" horiz-adv-x="512" 
d="M152.5 11q-47.5 24 -75 65.5t-27.5 92.5q0 45 22.5 84.5t60.5 65.5q-25 21 -39.5 53.5t-14.5 68.5q0 43 24 77.5t64.5 54t88.5 19.5q49 0 89.5 -19t64.5 -53t24 -77q0 -38 -16.5 -76t-43.5 -62q42 -22 65 -59t23 -80q0 -50 -27.5 -91t-75 -64.5t-103.5 -23.5t-103.5 24z
M344.5 372.5q14.5 29.5 14.5 59.5q0 44 -31 69t-72 25q-42 0 -72 -26t-30 -65q0 -33 21 -53.5t52.5 -31t83.5 -22.5q19 15 33.5 44.5zM349 86.5q38 32.5 38 82.5q0 34 -20.5 54.5t-52.5 31.5t-87 23l-33 8q-32 -17 -50.5 -49t-18.5 -66q0 -53 38.5 -85t92.5 -32
q55 0 93 32.5z" />
    <glyph glyph-name="nine.sc" horiz-adv-x="495" 
d="M122 -1.5q-4 4.5 -4 10.5v41q0 6 4 10t10 4q63 0 113.5 24t80 67t31.5 97q-20 -23 -50 -36.5t-62 -13.5q-53 0 -97.5 26.5t-71 71t-26.5 97.5t26.5 97.5t71 71t97.5 26.5t97.5 -26.5t71 -71t26.5 -97.5q0 -64 -1.5 -102.5t-8.5 -73.5q-22 -106 -102 -166.5t-195 -60.5
q-7 0 -11 4.5zM305 288q28 17 44.5 46t16.5 63q0 33 -16.5 62t-44.5 46t-60 17t-60 -17t-44.5 -46t-16.5 -62q0 -34 16.5 -63t44.5 -46t60 -17t60 17z" />
    <glyph glyph-name="asterisk" unicode="*" horiz-adv-x="480" 
d="M89 635q-9 3 -9 14q0 5 1 8l12 29q5 9 14 9q4 0 8 -2l100 -38l-8 91v2q0 6 4.5 10t10.5 4h36q7 0 11 -4.5t3 -11.5l-7 -91l98 38q6 2 10 2q9 0 12 -8l13 -29q2 -6 2 -9q0 -9 -10 -12l-150 -44zM210.5 410.5q-4.5 4.5 -3.5 11.5l8 91l-100 -38q-6 -2 -9 -2q-8 0 -13 9
l-12 29q-1 3 -1 8q0 11 9 14l151 42l150 -44q10 -3 10 -13q0 -2 -2 -8l-13 -29q-4 -8 -12 -8q-4 0 -10 2l-98 38l7 -91v-2q0 -7 -4 -10.5t-10 -3.5h-36q-7 0 -11.5 4.5z" />
    <glyph glyph-name="backslash" unicode="\" horiz-adv-x="405" 
d="M329 -43l-323 791l-1 4q0 7 8 7h44q14 0 18 -12l324 -791l1 -4q0 -7 -8 -7h-45q-13 0 -18 12z" />
    <glyph glyph-name="periodcentered" unicode="&#xb7;" horiz-adv-x="266" 
d="M88.5 234.5q-18.5 18.5 -18.5 44.5t18.5 44.5t45.5 18.5q26 0 44 -18.5t18 -44.5t-18 -44.5t-44 -18.5q-27 0 -45.5 18.5z" />
    <glyph glyph-name="bullet" unicode="&#x2022;" horiz-adv-x="428" 
d="M134 213q-34 34 -34 80q0 47 33.5 80.5t80.5 33.5t80.5 -33.5t33.5 -80.5t-33.5 -80.5t-80.5 -33.5q-46 0 -80 34z" />
    <glyph glyph-name="colon" unicode=":" horiz-adv-x="308" 
d="M114.5 375.5q-4.5 4.5 -4.5 10.5v95q0 6 4.5 10.5t10.5 4.5h58q6 0 10.5 -4.5t4.5 -10.5v-95q0 -6 -4.5 -10.5t-10.5 -4.5h-58q-6 0 -10.5 4.5zM114.5 4.5q-4.5 4.5 -4.5 10.5v95q0 6 4.5 10.5t10.5 4.5h58q6 0 10.5 -4.5t4.5 -10.5v-95q0 -6 -4.5 -10.5t-10.5 -4.5h-58
q-6 0 -10.5 4.5z" />
    <glyph glyph-name="comma" unicode="," horiz-adv-x="249" 
d="M58.5 -90q-4.5 7 -2.5 18l47 165q4 10 14 10h68q11 0 16 -7.5t1 -16.5l-92 -176h-37q-10 0 -14.5 7z" />
    <glyph glyph-name="ellipsis" unicode="&#x2026;" horiz-adv-x="810" 
d="M78.5 4.5q-18.5 18.5 -18.5 44.5t18.5 44.5t45.5 18.5q26 0 44 -18.5t18 -44.5t-18 -44.5t-44 -18.5q-27 0 -45.5 18.5zM360.5 4.5q-18.5 18.5 -18.5 44.5t18.5 44.5t45.5 18.5q26 0 44 -18.5t18 -44.5t-18 -44.5t-44 -18.5q-27 0 -45.5 18.5zM642.5 4.5
q-18.5 18.5 -18.5 44.5t18.5 44.5t45.5 18.5q26 0 44 -18.5t18 -44.5t-18 -44.5t-44 -18.5q-27 0 -45.5 18.5z" />
    <glyph glyph-name="exclam" unicode="!" horiz-adv-x="316" 
d="M138 216q-4 4 -4 10v455q0 6 4 10t10 4h50q6 0 10 -4t4 -10v-455q0 -6 -4 -10t-10 -4h-50q-6 0 -10 4zM128.5 4.5q-18.5 18.5 -18.5 44.5t18.5 44.5t45.5 18.5q26 0 44 -18.5t18 -44.5t-18 -44.5t-44 -18.5q-27 0 -45.5 18.5z" />
    <glyph glyph-name="exclamdown" unicode="&#xa1;" horiz-adv-x="326" 
d="M128 471.5q-18 18.5 -18 44.5t18 44.5t44 18.5q27 0 45.5 -18.5t18.5 -44.5t-18.5 -44.5t-45.5 -18.5q-26 0 -44 18.5zM138 -126q-4 4 -4 10v455q0 6 4 10t10 4h50q6 0 10 -4t4 -10v-455q0 -6 -4 -10t-10 -4h-50q-6 0 -10 4z" />
    <glyph glyph-name="numbersign" unicode="#" horiz-adv-x="766" 
d="M104 333q-4 4 -4 10v46q0 6 4 10t10 4h129v149q0 6 4 10t10 4h46q6 0 10 -4t4 -10v-149h132v149q0 6 4 10t10 4h46q6 0 10 -4t4 -10v-149h129q6 0 10 -4t4 -10v-46q0 -6 -4 -10t-10 -4h-538q-6 0 -10 4zM247 4q-4 4 -4 10v149h-129q-6 0 -10 4t-4 10v46q0 6 4 10t10 4
h538q6 0 10 -4t4 -10v-46q0 -6 -4 -10t-10 -4h-129v-149q0 -6 -4 -10t-10 -4h-46q-6 0 -10 4t-4 10v149h-132v-149q0 -6 -4 -10t-10 -4h-46q-6 0 -10 4z" />
    <glyph glyph-name="period" unicode="." horiz-adv-x="246" 
d="M78.5 4.5q-18.5 18.5 -18.5 44.5t18.5 44.5t45.5 18.5q26 0 44 -18.5t18 -44.5t-18 -44.5t-44 -18.5q-27 0 -45.5 18.5z" />
    <glyph glyph-name="question" unicode="?" horiz-adv-x="451" 
d="M180 204q-10 0 -12 7q-22 43 -22 85q0 43 21.5 74t70.5 76q34 32 52 56t18 52q0 32 -24 53.5t-64 21.5q-29 0 -57.5 -12.5t-52.5 -30.5q-6 -4 -10 -4q-6 0 -11 7l-20 31q-4 5 -4 11q0 10 9 17q27 23 68.5 38.5t84.5 15.5q68 0 113.5 -40.5t45.5 -106.5q0 -45 -19 -76
t-52 -64l-14 -14q-40 -39 -57 -61.5t-17 -48.5q0 -20 11 -50l1 -4q0 -9 -8 -12l-43 -19zM162.5 4.5q-18.5 18.5 -18.5 44.5t18.5 44.5t45.5 18.5q26 0 44 -18.5t18 -44.5t-18 -44.5t-44 -18.5q-27 0 -45.5 18.5z" />
    <glyph glyph-name="questiondown" unicode="&#xbf;" horiz-adv-x="455" 
d="M203 471.5q-18 18.5 -18 44.5t18 44.5t44 18.5q27 0 45.5 -18.5t18.5 -44.5t-18.5 -44.5t-45.5 -18.5q-26 0 -44 18.5zM114.5 -96.5q-45.5 40.5 -45.5 106.5q0 45 19 76t52 64l14 14q40 39 57 61.5t17 48.5q0 20 -11 50l-1 4q0 9 8 12l43 19l8 2q10 0 12 -7
q22 -43 22 -85q0 -43 -21.5 -74t-70.5 -76q-34 -32 -52 -56t-18 -52q0 -32 24 -53.5t64 -21.5q29 0 57.5 12.5t52.5 30.5q6 4 10 4q6 0 11 -7l20 -31q4 -5 4 -11q0 -10 -9 -17q-27 -23 -68.5 -38.5t-84.5 -15.5q-68 0 -113.5 40.5z" />
    <glyph glyph-name="quotedbl" unicode="&#x22;" horiz-adv-x="427" 
d="M58 469.5q-5 7.5 -2 17.5l47 198q1 5 5.5 7.5t8.5 2.5h68q10 0 15.5 -7.5t1.5 -16.5l-92 -209h-37q-10 0 -15 7.5zM227 469.5q-5 7.5 -2 17.5l47 198q1 5 5.5 7.5t8.5 2.5h68q10 0 15.5 -7.5t1.5 -16.5l-92 -209h-37q-10 0 -15 7.5z" />
    <glyph glyph-name="quotesingle" unicode="'" horiz-adv-x="258" 
d="M58 469.5q-5 7.5 -2 17.5l47 198q1 5 5.5 7.5t8.5 2.5h68q10 0 15.5 -7.5t1.5 -16.5l-92 -209h-37q-10 0 -15 7.5z" />
    <glyph glyph-name="semicolon" unicode=";" horiz-adv-x="274" 
d="M102.5 375.5q-4.5 4.5 -4.5 10.5v95q0 6 4.5 10.5t10.5 4.5h58q6 0 10.5 -4.5t4.5 -10.5v-95q0 -6 -4.5 -10.5t-10.5 -4.5h-58q-6 0 -10.5 4.5zM48.5 -90q-4.5 7 -2.5 18l47 165q4 10 14 10h68q11 0 16 -7.5t1 -16.5l-92 -176h-37q-10 0 -14.5 7z" />
    <glyph glyph-name="slash" unicode="/" horiz-adv-x="405" 
d="M6.5 -52q-2.5 3 -0.5 8l324 791q5 12 18 12h44q4 0 6.5 -3t0.5 -8l-323 -791q-4 -12 -18 -12h-45q-4 0 -6.5 3z" />
    <glyph glyph-name="underscore" unicode="_" horiz-adv-x="490" 
d="M4 -106q-4 4 -4 10v46q0 6 4 10t10 4h462q6 0 10 -4t4 -10v-46q0 -6 -4 -10t-10 -4h-462q-6 0 -10 4z" />
    <glyph glyph-name="braceleft" unicode="{" horiz-adv-x="357" 
d="M160 -149.5q-41 43.5 -41 109.5v186q0 43 -3 63.5t-15 35t-41 22.5v79q29 8 41 22.5t15 35t3 63.5v186q0 66 41 109.5t113 43.5h30q6 0 10 -4t4 -10v-44q0 -6 -4 -10t-10 -4h-31q-34 0 -54.5 -21.5t-20.5 -56.5v-196q0 -50 -4.5 -78.5t-18.5 -47t-43 -27.5v-1
q29 -9 43 -27.5t18.5 -47t4.5 -78.5v-196q0 -35 20.5 -56.5t54.5 -21.5h31q6 0 10 -4t4 -10v-44q0 -6 -4 -10t-10 -4h-30q-72 0 -113 43.5z" />
    <glyph glyph-name="braceright" unicode="}" horiz-adv-x="357" 
d="M44 -189q-4 4 -4 10v44q0 6 4 10t10 4h31q34 0 54.5 21.5t20.5 56.5v196q0 50 4.5 78.5t18.5 47t43 27.5v1q-29 9 -43 27.5t-18.5 47t-4.5 78.5v196q0 35 -20.5 56.5t-54.5 21.5h-31q-6 0 -10 4t-4 10v44q0 6 4 10t10 4h30q72 0 113 -43.5t41 -109.5v-186q0 -43 3 -63.5
t15 -35t41 -22.5v-79q-29 -8 -41 -22.5t-15 -35t-3 -63.5v-186q0 -66 -41 -109.5t-113 -43.5h-30q-6 0 -10 4z" />
    <glyph glyph-name="bracketleft" unicode="[" horiz-adv-x="315" 
d="M100.5 -182.5q-10.5 10.5 -10.5 25.5v927q0 15 10.5 25.5t25.5 10.5h130q6 0 10 -4t4 -10v-44q0 -6 -4 -10t-10 -4h-87v-855h87q6 0 10 -4t4 -10v-44q0 -6 -4 -10t-10 -4h-130q-15 0 -25.5 10.5z" />
    <glyph glyph-name="bracketright" unicode="]" horiz-adv-x="315" 
d="M49 -189q-4 4 -4 10v44q0 6 4 10t10 4h87v855h-87q-6 0 -10 4t-4 10v44q0 6 4 10t10 4h130q15 0 25.5 -10.5t10.5 -25.5v-927q0 -15 -10.5 -25.5t-25.5 -10.5h-130q-6 0 -10 4z" />
    <glyph glyph-name="parenleft" unicode="(" horiz-adv-x="349" 
d="M231 -120q-64 80 -107.5 191t-43.5 248t43.5 248t106.5 192q7 7 18 7q10 0 15 -5l21 -18q6 -4 6 -11q0 -3 -3 -8q-51 -79 -86 -181t-35 -224t35 -224t86 -181q3 -5 3 -8q0 -5 -6 -11l-21 -18q-7 -5 -15 -5q-11 0 -17 8z" />
    <glyph glyph-name="parenright" unicode=")" horiz-adv-x="350" 
d="M87 -123l-21 18q-9 9 -3 19q51 79 86 181t35 224t-35 224t-86 181q-3 5 -3 8q0 5 6 11l21 18q6 5 15 5q11 0 18 -7q63 -81 106.5 -192t43.5 -248t-43.5 -248t-107.5 -191q-5 -8 -17 -8q-10 0 -15 5z" />
    <glyph glyph-name="emdash" unicode="&#x2014;" horiz-adv-x="1022" 
d="M104 274q-4 4 -4 10v48q0 6 4 10t10 4h794q6 0 10 -4t4 -10v-48q0 -6 -4 -10t-10 -4h-794q-6 0 -10 4z" />
    <glyph glyph-name="endash" unicode="&#x2013;" horiz-adv-x="738" 
d="M104 274q-4 4 -4 10v48q0 6 4 10t10 4h510q6 0 10 -4t4 -10v-48q0 -6 -4 -10t-10 -4h-510q-6 0 -10 4z" />
    <glyph glyph-name="hyphen" unicode="-" horiz-adv-x="456" 
d="M94 274q-4 4 -4 10v48q0 6 4 10t10 4h248q6 0 10 -4t4 -10v-48q0 -6 -4 -10t-10 -4h-248q-6 0 -10 4z" />
    <glyph glyph-name="uni00AD" unicode="&#xad;" horiz-adv-x="456" 
d="M94 274q-4 4 -4 10v48q0 6 4 10t10 4h248q6 0 10 -4t4 -10v-48q0 -6 -4 -10t-10 -4h-248q-6 0 -10 4z" />
    <glyph glyph-name="guillemotleft" unicode="&#xab;" horiz-adv-x="494" 
d="M55 241v78l150 114q4 3 10 3q5 0 8.5 -3.5t3.5 -9.5v-50q0 -8 -7 -14l-106 -79l106 -79q7 -6 7 -14v-50q0 -6 -3.5 -9.5t-8.5 -3.5q-6 0 -10 3zM267 241v78l150 114q5 3 10 3t8.5 -3.5t3.5 -9.5v-50q0 -8 -7 -14l-106 -79l106 -79q7 -6 7 -14v-50q0 -6 -3.5 -9.5
t-8.5 -3.5t-10 3z" />
    <glyph glyph-name="guillemotright" unicode="&#xbb;" horiz-adv-x="494" 
d="M67 124q-5 0 -8.5 3.5t-3.5 9.5v50q0 8 7 14l106 79l-106 79q-7 6 -7 14v50q0 6 3.5 9.5t8.5 3.5t10 -3l150 -114v-78l-150 -114q-4 -3 -10 -3zM279 124q-5 0 -8.5 3.5t-3.5 9.5v50q0 8 7 14l106 79l-106 79q-7 6 -7 14v50q0 6 3.5 9.5t8.5 3.5t10 -3l150 -114v-78
l-150 -114q-4 -3 -10 -3z" />
    <glyph glyph-name="guilsinglleft" unicode="&#x2039;" horiz-adv-x="282" 
d="M55 241v78l150 114q4 3 10 3q5 0 8.5 -3.5t3.5 -9.5v-50q0 -8 -7 -14l-106 -79l106 -79q7 -6 7 -14v-50q0 -6 -3.5 -9.5t-8.5 -3.5q-6 0 -10 3z" />
    <glyph glyph-name="guilsinglright" unicode="&#x203a;" horiz-adv-x="282" 
d="M67 124q-5 0 -8.5 3.5t-3.5 9.5v50q0 8 7 14l106 79l-106 79q-7 6 -7 14v50q0 6 3.5 9.5t8.5 3.5t10 -3l150 -114v-78l-150 -114q-4 -3 -10 -3z" />
    <glyph glyph-name="quotedblbase" unicode="&#x201e;" horiz-adv-x="427" 
d="M58 -122.5q-5 7.5 -2 17.5l47 198q1 5 5.5 7.5t8.5 2.5h68q10 0 15.5 -7.5t1.5 -16.5l-92 -209h-37q-10 0 -15 7.5zM227 -122.5q-5 7.5 -2 17.5l47 198q1 5 5.5 7.5t8.5 2.5h68q10 0 15.5 -7.5t1.5 -16.5l-92 -209h-37q-10 0 -15 7.5z" />
    <glyph glyph-name="quotedblleft" unicode="&#x201c;" horiz-adv-x="427" 
d="M57.5 469.5q-5.5 7.5 -1.5 16.5l92 209h37q10 0 15 -7.5t2 -17.5l-47 -198q-1 -5 -5.5 -7.5t-8.5 -2.5h-68q-10 0 -15.5 7.5zM226.5 469.5q-5.5 7.5 -1.5 16.5l92 209h37q10 0 15 -7.5t2 -17.5l-47 -198q-1 -5 -5.5 -7.5t-8.5 -2.5h-68q-10 0 -15.5 7.5z" />
    <glyph glyph-name="quotedblright" unicode="&#x201d;" horiz-adv-x="427" 
d="M58 469.5q-5 7.5 -2 17.5l47 198q1 5 5.5 7.5t8.5 2.5h68q10 0 15.5 -7.5t1.5 -16.5l-92 -209h-37q-10 0 -15 7.5zM227 469.5q-5 7.5 -2 17.5l47 198q1 5 5.5 7.5t8.5 2.5h68q10 0 15.5 -7.5t1.5 -16.5l-92 -209h-37q-10 0 -15 7.5z" />
    <glyph glyph-name="quoteleft" unicode="&#x2018;" horiz-adv-x="258" 
d="M57.5 469.5q-5.5 7.5 -1.5 16.5l92 209h37q10 0 15 -7.5t2 -17.5l-47 -198q-1 -5 -5.5 -7.5t-8.5 -2.5h-68q-10 0 -15.5 7.5z" />
    <glyph glyph-name="quoteright" unicode="&#x2019;" horiz-adv-x="258" 
d="M58 469.5q-5 7.5 -2 17.5l47 198q1 5 5.5 7.5t8.5 2.5h68q10 0 15.5 -7.5t1.5 -16.5l-92 -209h-37q-10 0 -15 7.5z" />
    <glyph glyph-name="quotesinglbase" unicode="&#x201a;" horiz-adv-x="258" 
d="M58 -122.5q-5 7.5 -2 17.5l47 198q1 5 5.5 7.5t8.5 2.5h68q10 0 15.5 -7.5t1.5 -16.5l-92 -209h-37q-10 0 -15 7.5z" />
    <glyph glyph-name="uni05F3" unicode="&#x5f3;" horiz-adv-x="258" 
d="M58 469.5q-5 7.5 -2 17.5l47 198q1 5 5.5 7.5t8.5 2.5h68q10 0 15.5 -7.5t1.5 -16.5l-92 -209h-37q-10 0 -15 7.5z" />
    <glyph glyph-name="uni05F4" unicode="&#x5f4;" horiz-adv-x="427" 
d="M58 469.5q-5 7.5 -2 17.5l47 198q1 5 5.5 7.5t8.5 2.5h68q10 0 15.5 -7.5t1.5 -16.5l-92 -209h-37q-10 0 -15 7.5zM227 469.5q-5 7.5 -2 17.5l47 198q1 5 5.5 7.5t8.5 2.5h68q10 0 15.5 -7.5t1.5 -16.5l-92 -209h-37q-10 0 -15 7.5z" />
    <glyph glyph-name="uni05BE" unicode="&#x5be;" horiz-adv-x="416" 
d="M84 507q-4 4 -4 10v48q0 6 4 10t10 4h228q6 0 10 -4t4 -10v-48q0 -6 -4 -10t-10 -4h-228q-6 0 -10 4z" />
    <glyph glyph-name="uni00A0" unicode="&#xa0;" horiz-adv-x="270" 
 />
    <glyph glyph-name="cent" unicode="&#xa2;" horiz-adv-x="512" 
d="M431 76q6 -6 6 -15q0 -8 -6 -14q-29 -28 -67.5 -44t-81.5 -16q-17 0 -34 3l-18 -105q-2 -6 -6.5 -10t-10.5 -4h-40q-6 0 -9 4t-2 10l22 125q-54 27 -86.5 79.5t-32.5 115.5v156q0 59 29 109.5t79 79.5t109 29h2l18 102q2 6 6.5 10t10.5 4h40q6 0 9 -4t2 -10l-20 -113
q45 -14 81 -49q6 -6 6 -14q0 -7 -6 -15q-10 -11 -23 -23q-7 -6 -15 -6q-9 0 -16 7q-19 18 -40 26l-76 -431q14 -2 21 -2q55 0 95 37q7 7 16 7q8 0 15 -6q12 -10 23 -23zM158 138q15 -29 40 -49l73 416q-54 -5 -91 -44.5t-37 -94.5v-166q0 -33 15 -62z" />
    <glyph glyph-name="currency" unicode="&#xa4;" horiz-adv-x="646" 
d="M85 104q-5 5 -5 9q0 5 5 10l58 58q-45 59 -45 134t45 134l-58 58q-5 5 -5 10q0 4 5 9l27 27q5 5 9 5q5 0 10 -5l58 -57q60 44 134 44t134 -44l58 57q5 5 10 5q4 0 9 -5l27 -27q5 -5 5 -9q0 -5 -5 -10l-58 -58q45 -59 45 -134t-45 -134l58 -58q5 -5 5 -10q0 -4 -5 -9
l-27 -27q-5 -5 -9 -5q-5 0 -10 5l-58 57q-60 -44 -134 -44q-75 0 -134 45l-58 -58q-5 -5 -10 -5q-4 0 -9 5zM404.5 174.5q37.5 21.5 59 59t21.5 81.5t-21.5 81.5t-59 59t-81.5 21.5t-81.5 -21.5t-59 -59t-21.5 -81.5t21.5 -81.5t59 -59t81.5 -21.5t81.5 21.5z" />
    <glyph glyph-name="dollar" unicode="$" horiz-adv-x="551" 
d="M403.5 340.5q34.5 -20.5 58.5 -57t24 -93.5q0 -62 -29.5 -108t-81.5 -70.5t-119 -24.5h-6l-12 -66q-2 -6 -6.5 -10t-10.5 -4h-40q-6 0 -9 4t-2 10l13 73q-68 14 -112 46q-4 2 -5.5 7t0.5 10l23 45q5 9 14 9q5 0 8 -2q46 -27 85 -38l44 251q-52 20 -87 42t-59 59.5
t-24 93.5q0 62 29.5 105.5t78.5 64.5t108 21q15 0 22 -1l12 67q2 6 6.5 10t10.5 4h40q6 0 9 -4t2 -10l-14 -78q47 -13 86 -38q4 -2 5.5 -7.5t-1.5 -10.5l-22 -41q-3 -6 -9 -8t-12 2q-27 17 -60 28l-42 -241q50 -19 84.5 -39.5zM179 451.5q26 -25.5 76 -46.5l40 228h-8
q-61 0 -97.5 -30t-36.5 -82q0 -44 26 -69.5zM363.5 97q39.5 32 39.5 86q0 43 -25.5 68t-73.5 45l-41 -233q61 2 100.5 34z" />
    <glyph glyph-name="Euro" unicode="&#x20ac;" horiz-adv-x="551" 
d="M495 76q6 -6 6 -15q0 -8 -6 -14q-29 -28 -67.5 -44t-81.5 -16q-59 0 -109 29t-79 79.5t-29 109.5v38h-52q-6 0 -9 4t-2 10l6 36q2 6 6.5 10t10.5 4h40v81h-52q-6 0 -9 4t-2 10l6 36q2 6 6.5 10t10.5 4h40v38q0 59 29 109.5t79 79.5t109 29q43 0 81.5 -16t67.5 -44
q6 -6 6 -14q0 -7 -6 -15q-10 -12 -23 -23q-7 -6 -15 -6q-9 0 -16 7q-40 37 -95 37q-38 0 -70 -18.5t-50.5 -50.5t-18.5 -70v-43h167q6 0 9 -4t2 -10l-6 -36q-2 -6 -6.5 -10t-10.5 -4h-155v-81h167q6 0 9 -4t2 -10l-6 -36q-2 -6 -6.5 -10t-10.5 -4h-155v-43q0 -38 18.5 -70
t50.5 -50.5t70 -18.5q55 0 95 37q7 7 16 7q8 0 15 -6q12 -10 23 -23z" />
    <glyph glyph-name="florin" unicode="&#x192;" horiz-adv-x="501" 
d="M-76 -189q-4 4 -4 10v43q0 6 4 10t10 4h81q34 0 58.5 21.5t30.5 56.5l61 352h-63q-6 0 -10 4t-4 10v46q0 6 4 10t10 4h76l27 160q13 74 59.5 113.5t121.5 39.5h68q6 0 10 -4t4 -10v-43q0 -6 -4 -10t-10 -4h-81q-34 0 -58.5 -21.5t-30.5 -56.5l-28 -164h123q6 0 10 -4
t4 -10v-46q0 -6 -4 -10t-10 -4h-136l-61 -348q-13 -74 -59 -113.5t-121 -39.5h-68q-6 0 -10 4z" />
    <glyph glyph-name="uni20BA" unicode="&#x20ba;" horiz-adv-x="484" 
d="M402 373q3 -4 2 -10l-6 -36q-2 -6 -6.5 -10t-10.5 -4h-161v-184q0 -28 20 -48t48 -20t48 20q6 6 13 6q5 0 9 -4l26 -25q7 -6 7 -16q0 -8 -5 -13q-40 -42 -98 -42q-62 0 -104 40.5t-42 104.5v181h-86q-6 0 -9 4t-2 10l6 36q2 6 6.5 10t10.5 4h74v71h-86q-6 0 -9 4t-2 10
l6 36q2 6 6.5 10t10.5 4h74v169q0 6 4 10t10 4h50q6 0 10 -4t4 -10v-169h173q6 0 9 -4t2 -10l-6 -36q-2 -6 -6.5 -10t-10.5 -4h-161v-71h173q6 0 9 -4z" />
    <glyph glyph-name="uni20BD" unicode="&#x20bd;" horiz-adv-x="616" 
d="M143 4q-4 4 -4 10v122h-71q-6 0 -10 4t-4 10v46q0 6 4 10t10 4h71v58h-71q-6 0 -10 4t-4 10v46q0 6 4 10t10 4h71v317q0 15 10.5 25.5t25.5 10.5h168q60 0 110 -29t79 -78t29 -108t-29 -108t-79.5 -77t-109.5 -27h-122v-58h239q6 0 10 -4t4 -10v-46q0 -6 -4 -10t-10 -4
h-239v-122q0 -6 -4 -10t-10 -4h-54q-6 0 -10 4zM338 342q38 0 70.5 18.5t51.5 50.5t19 69q0 38 -19 70.5t-51.5 51.5t-70.5 19h-117v-279h117z" />
    <glyph glyph-name="uni20AA" unicode="&#x20aa;" horiz-adv-x="1105" 
d="M146 4q-4 4 -4 10v489h-53q-6 0 -10 4t-4 10v48q0 6 4 10t10 4h493q6 0 10 -4t4 -10v-48q0 -6 -4 -10t-10 -4h-53v-379q0 -20 14 -34t34 -14h111v489q0 6 4 10t10 4h46q6 0 10 -4t4 -10v-489h111q20 0 34.5 14t14.5 34v381h-53q-6 0 -10 4t-4 10v46q0 6 4 10t10 4h90
q15 0 25.5 -10.5t10.5 -25.5v-418q0 -52 -37 -88.5t-89 -36.5h-288q-52 0 -88.5 36.5t-36.5 88.5v378h-236v-489q0 -6 -4 -10t-10 -4h-50q-6 0 -10 4z" />
    <glyph glyph-name="sterling" unicode="&#xa3;" horiz-adv-x="562" 
d="M503 71q4 -4 4 -10v-47q0 -6 -4 -10t-10 -4h-379q-15 0 -25.5 10.5t-10.5 25.5v21l64 266h-73q-6 0 -10 4t-4 10v46q0 6 4 10t10 4h91l36 148q39 163 186 163h90q6 0 10 -4t4 -10v-43q0 -6 -4 -10t-10 -4h-87q-45 0 -72.5 -28.5t-41.5 -85.5l-30 -126h167q6 0 10 -4
t4 -10v-46q0 -6 -4 -10t-10 -4h-185l-59 -248h329q6 0 10 -4z" />
    <glyph glyph-name="yen" unicode="&#xa5;" horiz-adv-x="587" 
d="M537 690.5q5 -4.5 5 -12.5q0 -4 -3 -10l-166 -269h102q6 0 10 -4t4 -10v-39q0 -6 -4 -10t-10 -4h-140v-66h140q6 0 10 -4t4 -10v-39q0 -6 -4 -10t-10 -4h-140v-185q0 -6 -4 -10t-10 -4h-54q-6 0 -10 4t-4 10v185h-140q-6 0 -10 4t-4 10v39q0 6 4 10t10 4h140v66h-140
q-6 0 -10 4t-4 10v39q0 6 4 10t10 4h100l-165 269q-3 6 -3 10q0 8 5 12.5t13 4.5h54q9 0 15 -9l162 -267l161 267q6 9 15 9h54q8 0 13 -4.5z" />
    <glyph glyph-name="uni2126" unicode="&#x2126;" horiz-adv-x="779" 
d="M720 70q4 -4 4 -10v-46q0 -6 -4 -10t-10 -4h-255v77q86 49 130 126.5t44 166.5q0 75 -30.5 134.5t-85.5 93.5t-126 34t-125 -34t-83.5 -93.5t-29.5 -134.5q0 -90 44.5 -167t130.5 -126v-77h-255q-6 0 -10 4t-4 10v46q0 6 4 10t10 4h148q-76 55 -116 132t-40 169
q0 93 40 169t114.5 120t173.5 44t173.5 -44t115 -120t40.5 -169q0 -92 -40.5 -169t-115.5 -132h148q6 0 10 -4z" />
    <glyph glyph-name="approxequal" unicode="&#x2248;" horiz-adv-x="612" 
d="M66 338q23 88 116 88q32 0 62 -5t78 -16q30 -7 59.5 -12.5t51.5 -5.5q35 0 47 31q4 8 12 8h40q19 0 14 -18q-23 -88 -116 -88q-32 0 -62 5t-78 16q-30 7 -59.5 12.5t-51.5 5.5q-35 0 -47 -31q-4 -8 -12 -8h-40q-18 0 -14 18zM66 179q23 88 116 88q32 0 62 -5t78 -16
q30 -7 59.5 -12.5t51.5 -5.5q35 0 47 31q4 8 12 8h40q19 0 14 -18q-23 -88 -116 -88q-32 0 -62 5t-78 16q-30 7 -59.5 12.5t-51.5 5.5q-35 0 -47 -31q-4 -8 -12 -8h-40q-18 0 -14 18z" />
    <glyph glyph-name="uni2219" unicode="&#x2219;" horiz-adv-x="347" 
d="M117.5 248q-23.5 24 -23.5 56t23.5 55.5t55.5 23.5q33 0 56.5 -23.5t23.5 -55.5t-23.5 -56t-56.5 -24q-32 0 -55.5 24z" />
    <glyph glyph-name="divide" unicode="&#xf7;" horiz-adv-x="626" 
d="M271 425.5q-18 18.5 -18 42.5q0 23 18 41t41 18q25 0 43 -18t18 -41q0 -24 -18 -42.5t-43 -18.5q-23 0 -41 18.5zM69 257.5q-4 3.5 -4 10.5v42q0 7 4 10.5t10 3.5h468q6 0 10 -3.5t4 -10.5v-42q0 -7 -4 -10.5t-10 -3.5h-468q-6 0 -10 3.5zM271 69.5q-18 18.5 -18 42.5
q0 23 18 41t41 18q25 0 43 -18t18 -41q0 -24 -18 -42.5t-43 -18.5q-23 0 -41 18.5z" />
    <glyph glyph-name="uni2215" unicode="&#x2215;" horiz-adv-x="496" 
d="M23 -20q-3 3 -3 8v58q0 8 4 13l432 515q4 5 10 5q4 0 7 -3t3 -8v-58q0 -8 -4 -13l-432 -515q-4 -5 -10 -5q-4 0 -7 3z" />
    <glyph glyph-name="equal" unicode="=" horiz-adv-x="626" 
d="M69 349.5q-4 3.5 -4 10.5v42q0 7 4 10.5t10 3.5h468q6 0 10 -3.5t4 -10.5v-42q0 -7 -4 -10.5t-10 -3.5h-468q-6 0 -10 3.5zM69 164.5q-4 3.5 -4 10.5v42q0 7 4 10.5t10 3.5h468q6 0 10 -3.5t4 -10.5v-42q0 -7 -4 -10.5t-10 -3.5h-468q-6 0 -10 3.5z" />
    <glyph glyph-name="greater" unicode="&#x3e;" horiz-adv-x="549" 
d="M484 259q0 -13 -10 -17l-391 -162q-2 -1 -6 -1q-5 0 -8.5 3.5t-3.5 8.5v44q0 12 11 17l331 135l-331 137q-11 5 -11 17v43q0 7 5.5 10.5t12.5 0.5l389 -160q11 -5 11 -16z" />
    <glyph glyph-name="greaterequal" unicode="&#x2265;" horiz-adv-x="549" 
d="M77 166q-5 0 -8.5 3.5t-3.5 8.5v44q0 12 11 17l331 135l-331 137q-11 5 -11 17v43q0 7 5.5 10.5t12.5 0.5l389 -160q11 -5 11 -16l1 -60q0 -13 -10 -17l-391 -162q-2 -1 -6 -1zM480 66.5q4 -3.5 4 -10.5v-42q0 -7 -4 -10.5t-10 -3.5h-391q-6 0 -10 3.5t-4 10.5v42
q0 7 4 10.5t10 3.5h391q6 0 10 -3.5z" />
    <glyph glyph-name="uni2206" unicode="&#x2206;" horiz-adv-x="735" 
d="M72 6.5q-7 6.5 -7 16.5q0 2 2 10l257 664q5 12 18 12h50q13 0 18 -12l258 -664q2 -8 2 -10q0 -10 -7 -16.5t-18 -6.5h-555q-11 0 -18 6.5zM567 77l-200 517l-198 -517h398z" />
    <glyph glyph-name="infinity" unicode="&#x221e;" horiz-adv-x="919" 
d="M105.5 174q-40.5 48 -40.5 118q0 76 44 122.5t125 46.5q36 0 70.5 -15t67 -38.5t88.5 -69.5l30 24q59 49 102.5 74t95.5 25q80 0 123 -47t43 -116q0 -46 -19.5 -84.5t-58 -62t-94.5 -23.5q-59 0 -110 33t-117 92l-28 -23q-61 -51 -105 -77.5t-93 -26.5q-83 0 -123.5 48z
M308 224.5q39 25.5 88 68.5q-112 96 -165 96q-41 0 -65.5 -26.5t-24.5 -67.5q0 -45 24.5 -70.5t67.5 -25.5q36 0 75 25.5zM753.5 226q23.5 27 23.5 68q0 45 -25.5 70t-68.5 25q-34 0 -72.5 -25t-91.5 -69q55 -44 95 -70t75 -26q41 0 64.5 27z" />
    <glyph glyph-name="integral" unicode="&#x222b;" horiz-adv-x="462" 
d="M74 -202q-4 4 -4 10v46q0 6 4 10t10 4h40q29 0 48.5 19.5t19.5 48.5v691q0 64 42 104.5t104 40.5h40q6 0 10 -4t4 -10v-46q0 -6 -4 -10t-10 -4h-40q-28 0 -48 -19.5t-20 -48.5v-691q0 -64 -42 -104.5t-104 -40.5h-40q-6 0 -10 4z" />
    <glyph glyph-name="less" unicode="&#x3c;" horiz-adv-x="549" 
d="M473 424l-331 -137l331 -135q11 -5 11 -17v-44q0 -7 -5.5 -10.5t-12.5 -0.5l-391 162q-10 4 -10 17l1 60q0 11 11 16l389 160q2 1 6 1q5 0 8.5 -3.5t3.5 -8.5v-43q0 -12 -11 -17z" />
    <glyph glyph-name="lessequal" unicode="&#x2264;" horiz-adv-x="549" 
d="M473 511l-331 -137l331 -135q11 -5 11 -17v-44q0 -7 -5.5 -10.5t-12.5 -0.5l-391 162q-10 4 -10 17l1 60q0 11 11 16l389 160q2 1 6 1q5 0 8.5 -3.5t3.5 -8.5v-43q0 -12 -11 -17zM480 66.5q4 -3.5 4 -10.5v-42q0 -7 -4 -10.5t-10 -3.5h-391q-6 0 -10 3.5t-4 10.5v42
q0 7 4 10.5t10 3.5h391q6 0 10 -3.5z" />
    <glyph glyph-name="logicalnot" unicode="&#xac;" horiz-adv-x="626" 
d="M495 163q-4 4 -4 10v162h-412q-6 0 -10 3.5t-4 10.5v42q0 7 4 10.5t10 3.5h468q6 0 10 -3.5t4 -10.5v-218q0 -6 -4 -10t-10 -4h-42q-6 0 -10 4z" />
    <glyph glyph-name="uni00B5" unicode="&#xb5;" horiz-adv-x="599" 
d="M99 -189q-4 4 -4 10v731q0 6 4 10t10 4h50q6 0 10 -4t4 -10v-361q0 -63 34 -97t90 -34q67 0 108 44t41 121v327q0 6 4 10t10 4h50q6 0 10 -4t4 -10v-538q0 -6 -4 -10t-10 -4h-50q-6 0 -10 4t-4 10v56q-26 -41 -67.5 -62t-93.5 -21q-64 0 -112 34v-200q0 -6 -4 -10t-10 -4
h-50q-6 0 -10 4z" />
    <glyph glyph-name="minus" unicode="&#x2212;" horiz-adv-x="626" 
d="M69 257.5q-4 3.5 -4 10.5v42q0 7 4 10.5t10 3.5h468q6 0 10 -3.5t4 -10.5v-42q0 -7 -4 -10.5t-10 -3.5h-468q-6 0 -10 3.5z" />
    <glyph glyph-name="multiply" unicode="&#xd7;" horiz-adv-x="517" 
d="M449 147q3 -6 3 -11q0 -6 -3 -9l-27 -27q-5 -5 -11 -5q-4 0 -10 4l-142 142l-142 -142q-6 -4 -10 -4t-10 4l-27 27q-5 7 -5 11t4 10l142 142l-141 141q-4 4 -4 10t5 11l27 27q3 3 9 3q5 0 11 -3l141 -141l141 141q4 4 10 4t11 -5l27 -27q4 -4 4 -10t-4 -10l-141 -141z
" />
    <glyph glyph-name="notequal" unicode="&#x2260;" horiz-adv-x="626" 
d="M377 346l-57 -115h227q6 0 10 -3.5t4 -10.5v-42q0 -7 -4 -10.5t-10 -3.5h-261l-59 -118q-4 -10 -16 -10l-45 -1q-5 0 -7.5 4t-0.5 9l57 116h-136q-6 0 -10 3.5t-4 10.5v42q0 7 4 10.5t10 3.5h171l57 115h-228q-6 0 -10 3.5t-4 10.5v42q0 7 4 10.5t10 3.5h262l58 117
q5 10 16 10l46 1q5 0 7.5 -4t0.5 -9l-57 -115h135q6 0 10 -3.5t4 -10.5v-42q0 -7 -4 -10.5t-10 -3.5h-170z" />
    <glyph glyph-name="partialdiff" unicode="&#x2202;" horiz-adv-x="582" 
d="M153 23.5q-50 36.5 -74 92t-24 115.5q0 69 29.5 121.5t80 80.5t110.5 28q49 0 95.5 -18.5t76.5 -49.5q-6 122 -52 180.5t-124 58.5q-10 0 -23 -1.5t-23 -1.5q-7 0 -11.5 4t-4.5 11v46q0 10 9 13q18 5 48 5q129 0 195 -93.5t66 -264.5q0 -172 -65 -267.5t-185 -95.5
q-74 0 -124 36.5zM364.5 90.5q36.5 30.5 56 83t19.5 116.5q-18 38 -61 68.5t-96 30.5q-39 0 -71.5 -18.5t-52.5 -54.5t-20 -87q0 -49 18.5 -87.5t50.5 -60t72 -21.5q48 0 84.5 30.5z" />
    <glyph glyph-name="percent" unicode="%" horiz-adv-x="759" 
d="M107 -23q-6 0 -10.5 4.5t-4.5 11.5v44l416 505q-22 -2 -34 -2q-42 0 -86.5 16.5t-82.5 42.5q6 -30 6 -72q0 -89 -30.5 -135.5t-89.5 -46.5q-60 0 -90.5 46.5t-30.5 135.5t30.5 135t90.5 46q32 0 51.5 -9t45.5 -29q40 -29 67 -42q57 -27 111 -27q43 0 80 16t63 48l21 25
q6 6 12 6t10.5 -4.5t4.5 -11.5v-45l-538 -652q-6 -6 -12 -6zM237.5 436.5q12.5 30.5 12.5 88.5q0 66 -13.5 94t-45.5 28q-36 0 -48 -30t-12 -90t12 -90.5t47 -30.5t47.5 30.5zM478.5 33.5q-30.5 46.5 -30.5 135.5t30.5 135t90.5 46q59 0 89.5 -46t30.5 -135t-30.5 -135.5
t-89.5 -46.5q-60 0 -90.5 46.5zM615.5 78.5q12.5 30.5 12.5 88.5q0 66 -13.5 94t-45.5 28q-36 0 -48 -30t-12 -90t12 -90.5t47 -30.5t47.5 30.5z" />
    <glyph glyph-name="perthousand" unicode="&#x2030;" horiz-adv-x="1047" 
d="M92 -23q-6 0 -10.5 4.5t-4.5 11.5v44l416 505q-22 -2 -34 -2q-42 0 -86.5 16.5t-82.5 42.5q6 -30 6 -72q0 -89 -30.5 -135.5t-89.5 -46.5q-60 0 -90.5 46.5t-30.5 135.5t30.5 135t90.5 46q32 0 51.5 -9t45.5 -29q40 -29 67 -42q57 -27 111 -27q43 0 80 16t63 48l21 25
q6 6 12 6t10.5 -4.5t4.5 -11.5v-45l-538 -652q-6 -6 -12 -6zM222.5 436.5q12.5 30.5 12.5 88.5q0 66 -13.5 94t-45.5 28q-36 0 -48 -30t-12 -90t12 -90.5t47 -30.5t47.5 30.5zM463.5 33.5q-30.5 46.5 -30.5 135.5t30.5 135t90.5 46q59 0 89.5 -46t30.5 -135t-30.5 -135.5
t-89.5 -46.5q-60 0 -90.5 46.5zM781.5 33.5q-30.5 46.5 -30.5 135.5t30.5 135t90.5 46q59 0 89.5 -46t30.5 -135t-30.5 -135.5t-89.5 -46.5q-60 0 -90.5 46.5zM600.5 78.5q12.5 30.5 12.5 88.5q0 66 -13.5 94t-45.5 28q-36 0 -48 -30t-12 -90t12 -90.5t47 -30.5t47.5 30.5z
M918.5 78.5q12.5 30.5 12.5 88.5q0 66 -13.5 94t-45.5 28q-36 0 -48 -30t-12 -90t12 -90.5t47 -30.5t47.5 30.5z" />
    <glyph glyph-name="plus" unicode="+" horiz-adv-x="626" 
d="M557 320.5q4 -3.5 4 -10.5v-42q0 -7 -4 -10.5t-10 -3.5h-198v-200q0 -6 -3.5 -10t-10.5 -4h-42q-7 0 -10.5 4t-3.5 10v200h-200q-6 0 -10 3.5t-4 10.5v42q0 7 4 10.5t10 3.5h200v198q0 6 3.5 10t10.5 4h42q7 0 10.5 -4t3.5 -10v-198h198q6 0 10 -3.5z" />
    <glyph glyph-name="plusminus" unicode="&#xb1;" horiz-adv-x="586" 
d="M517 419.5q4 -3.5 4 -10.5v-42q0 -7 -4 -10.5t-10 -3.5h-178v-180q0 -6 -3.5 -10t-10.5 -4h-42q-7 0 -10.5 4t-3.5 10v180h-180q-6 0 -10 3.5t-4 10.5v42q0 7 4 10.5t10 3.5h180v178q0 6 3.5 10t10.5 4h42q7 0 10.5 -4t3.5 -10v-178h178q6 0 10 -3.5zM517 66.5
q4 -3.5 4 -10.5v-42q0 -7 -4 -10.5t-10 -3.5h-428q-6 0 -10 3.5t-4 10.5v42q0 7 4 10.5t10 3.5h428q6 0 10 -3.5z" />
    <glyph glyph-name="product" unicode="&#x220f;" horiz-adv-x="872" 
d="M152 -189q-4 4 -4 10v861h-89q-6 0 -10 4t-4 10v49q0 6 4 10t10 4h754q6 0 10 -4t4 -10v-49q0 -6 -4 -10t-10 -4h-89v-861q0 -6 -4 -10t-10 -4h-57q-6 0 -10 4t-4 10v861h-406v-861q0 -6 -4 -10t-10 -4h-57q-6 0 -10 4z" />
    <glyph glyph-name="radical" unicode="&#x221a;" horiz-adv-x="611" 
d="M254 -180l-134 401h-103q-6 0 -10 4t-4 10v44q0 6 4 10t10 4h137q13 0 23.5 -7.5t14.5 -19.5l111 -347l217 825q1 7 6.5 11t12.5 4h46q8 0 12.5 -6t2.5 -14l-246 -917q-1 -7 -6.5 -11t-12.5 -4h-63q-14 0 -18 13z" />
    <glyph glyph-name="summation" unicode="&#x2211;" horiz-adv-x="678" 
d="M622 686q-4 -4 -10 -4h-460l272 -374q7 -10 7 -24q0 -16 -8 -27l-278 -373h465q6 0 10 -4t4 -10v-49q0 -6 -4 -10t-10 -4h-534q-15 0 -25.5 10t-10.5 26v30l300 406l-299 410v34q0 15 10 25.5t26 10.5h535q6 0 10 -4t4 -10v-49q0 -6 -4 -10z" />
    <glyph glyph-name="lozenge" unicode="&#x25ca;" horiz-adv-x="579" 
d="M254 -5l-191 334q-4 7 -4 16t4 16l191 339q5 9 16 9h39q12 0 16 -9l191 -339q5 -8 5 -16t-5 -16l-191 -334q-4 -9 -16 -9h-39q-11 0 -16 9zM434 345l-145 269l-146 -269l146 -265z" />
    <glyph glyph-name="bar" unicode="|" horiz-adv-x="373" 
d="M154 -189q-4 4 -4 10v954q0 6 4 10t10 4h45q6 0 10 -4t4 -10v-954q0 -6 -4 -10t-10 -4h-45q-6 0 -10 4z" />
    <glyph glyph-name="brokenbar" unicode="&#xa6;" horiz-adv-x="373" 
d="M150 775q0 6 4 10t10 4h45q6 0 10 -4t4 -10v-320h-73v320zM154 -189q-4 4 -4 10v320h73v-320q0 -6 -4 -10t-10 -4h-45q-6 0 -10 4z" />
    <glyph glyph-name="at" unicode="@" horiz-adv-x="938" 
d="M266.5 -59.5q-92.5 54.5 -147 147t-54.5 202.5t54.5 202.5t147 147t202.5 54.5t202.5 -54.5t147 -147t54.5 -202.5q0 -72 -26 -121.5t-66.5 -73.5t-84.5 -24q-40 0 -71.5 20t-44.5 58q-21 -33 -60.5 -55t-87.5 -22q-59 0 -96.5 33.5t-37.5 87.5q0 50 34 83.5t95 41.5
l96 13q21 3 30 13.5t9 31.5v6q0 33 -26.5 55t-67.5 22q-61 0 -100 -53q-4 -7 -13 -7q-5 0 -9 3l-25 20q-4 3 -4.5 7.5t1.5 9.5q22 38 62.5 59.5t88.5 21.5q70 0 113 -38t43 -100v-173q0 -36 22 -57.5t53 -21.5q27 0 52.5 17.5t42 54t16.5 88.5q0 93 -46 171.5t-124.5 124.5
t-171.5 46t-171.5 -46t-124.5 -124.5t-46 -171.5t46 -171.5t124.5 -124.5t171.5 -46h213q6 0 10 -4t4 -10v-34q0 -6 -4 -10t-10 -4h-213q-110 0 -202.5 54.5zM503 149q29 19 45.5 48t16.5 56v28l-133 -19q-72 -10 -72 -67q0 -29 21.5 -47t56.5 -18q36 0 65 19z" />
    <glyph glyph-name="ampersand" unicode="&#x26;" horiz-adv-x="686" 
d="M496 -105l-77 120q-67 -28 -140 -28q-101 0 -162.5 48.5t-61.5 134.5q0 58 32.5 102t103.5 100q-28 46 -44.5 87t-16.5 86q0 49 22 86t59 57t80 20q41 0 74.5 -18t52.5 -48.5t19 -67.5q0 -50 -36.5 -97t-113.5 -113l160 -250q49 38 77 94.5t28 119.5q0 6 4 10t10 4h48
q6 0 10.5 -4t4.5 -9q0 -85 -38.5 -157t-104.5 -120l60 -93q31 -46 57 -63t72 -17h27q6 0 10 -4t4 -10v-44q0 -6 -4 -10t-10 -4h-42q-107 0 -164 88zM340.5 507.5q24.5 30.5 24.5 60.5q0 31 -22 51.5t-56 20.5q-36 0 -58 -24.5t-22 -66.5q0 -58 43 -128q66 56 90.5 86.5z
M379 77l-152 236q-49 -40 -71.5 -69.5t-22.5 -67.5q0 -57 42.5 -86.5t110.5 -29.5q50 0 93 17z" />
    <glyph glyph-name="paragraph" unicode="&#xb6;" horiz-adv-x="637" 
d="M273 -189q-4 4 -4 10v446q-58 0 -107 29t-78 78t-29 107t29 107t78 78t107 29h319q6 0 10 -4t4 -10v-46q0 -6 -4 -10t-10 -4h-86v-800q0 -6 -4 -10t-10 -4h-46q-6 0 -10 4t-4 10v800h-85v-800q0 -6 -4 -10t-10 -4h-46q-6 0 -10 4z" />
    <glyph glyph-name="copyright" unicode="&#xa9;" horiz-adv-x="968" 
d="M281.5 -59.5q-92.5 54.5 -147 147t-54.5 202.5t54.5 202.5t147 147t202.5 54.5t202.5 -54.5t147 -147t54.5 -202.5t-54.5 -202.5t-147 -147t-202.5 -54.5t-202.5 54.5zM655.5 -6q78.5 46 124.5 124.5t46 171.5t-46 171.5t-124.5 124.5t-171.5 46t-171.5 -46
t-124.5 -124.5t-46 -171.5t46 -171.5t124.5 -124.5t171.5 -46t171.5 46zM404.5 78.5q-36.5 21.5 -57.5 57.5t-21 79v150q0 43 21.5 79.5t57.5 57.5t79 21q76 0 120 -47q5 -5 5 -10t-5 -10l-18 -19q-4 -4 -10 -4q-7 0 -13 6q-28 28 -79 28q-41 0 -70.5 -30t-29.5 -72v-150
q0 -42 29.5 -72t70.5 -30q51 0 79 28q6 6 13 6q6 0 10 -4l18 -19q5 -5 5 -10t-5 -10q-44 -47 -120 -47q-43 0 -79.5 21.5z" />
    <glyph glyph-name="registered" unicode="&#xae;" horiz-adv-x="968" 
d="M281.5 -59.5q-92.5 54.5 -147 147t-54.5 202.5t54.5 202.5t147 147t202.5 54.5t202.5 -54.5t147 -147t54.5 -202.5t-54.5 -202.5t-147 -147t-202.5 -54.5t-202.5 54.5zM655.5 -6q78.5 46 124.5 124.5t46 171.5t-46 171.5t-124.5 124.5t-171.5 46t-171.5 -46
t-124.5 -124.5t-46 -171.5t46 -171.5t124.5 -124.5t171.5 -46t171.5 46zM362.5 68.5q-3.5 3.5 -3.5 8.5v412q0 10 7.5 17.5t17.5 7.5h111q36 0 66 -17.5t47.5 -48t17.5 -65.5q0 -47 -28.5 -82.5t-72.5 -45.5l105 -168q2 -2 2 -7q0 -6 -4 -10.5t-10 -4.5h-32q-8 0 -13 8
l-111 179h-46v-175q0 -4 -3.5 -8t-7.5 -4h-34q-5 0 -8.5 3.5zM491 305q34 0 56 22t22 55q0 34 -22 56t-56 22h-75v-155h75z" />
    <glyph glyph-name="section" unicode="&#xa7;" horiz-adv-x="592" 
d="M195 -191q-47 15 -89 43q-4 2 -5 7t1 9l20 41q2 6 7.5 8t11.5 -2q37 -23 67 -33.5t66 -13.5q12 39 12 74q0 63 -25.5 120t-76.5 142q-51 84 -77.5 144.5t-26.5 127.5q0 78 29.5 134t80.5 84.5t114 28.5q88 0 170 -50q11 -7 9 -21l-2 -45q0 -8 -6.5 -11t-13.5 1
q-41 26 -73 38t-70 15q-12 -40 -12 -75q0 -45 21.5 -91t64.5 -115q39 -63 62.5 -108t40.5 -101.5t17 -118.5q0 -78 -29.5 -133.5t-80.5 -84.5t-114 -29q-46 0 -93 15zM413 -56.5q19 40.5 19 92.5q0 75 -28.5 141t-83.5 156q-47 79 -70.5 131.5t-23.5 105.5q0 33 7 65
q-35 -21 -54 -61t-19 -93q0 -55 23.5 -108t71.5 -132q37 -61 58.5 -102.5t37 -91t15.5 -100.5q0 -33 -7 -65q35 21 54 61.5z" />
    <glyph glyph-name="trademark" unicode="&#x2122;" horiz-adv-x="810" 
d="M178.5 335.5q-3.5 3.5 -3.5 7.5v306h-85q-4 0 -7 3t-3 8v25q0 4 3 7t7 3h219q5 0 8 -3t3 -7v-25q0 -4 -3.5 -7.5t-7.5 -3.5h-85v-306q0 -4 -3 -7.5t-8 -3.5h-27q-4 0 -7.5 3.5zM503 334l-95 273l-31 -263q-1 -12 -14 -12h-24q-4 0 -7.5 4t-3.5 9l45 341q0 4 3 6.5t6 2.5
h36q4 0 8 -2.5t5 -6.5l98 -285l99 287q3 7 9 7h35q13 0 14 -12l44 -338q0 -5 -3.5 -9t-7.5 -4h-25q-5 0 -8.5 3.5t-4.5 8.5l-32 263l-95 -273q-1 -4 -4.5 -6t-8.5 -2h-25q-8 0 -13 8z" />
    <glyph glyph-name="degree" unicode="&#xb0;" horiz-adv-x="412" 
d="M132.5 435.5q-33.5 19.5 -53 53t-19.5 73.5t19.5 73.5t53 53t73.5 19.5t73.5 -19.5t53 -53t19.5 -73.5t-19.5 -73.5t-53 -53t-73.5 -19.5t-73.5 19.5zM264.5 503.5q24.5 24.5 24.5 58.5t-24.5 58.5t-58.5 24.5t-58.5 -24.5t-24.5 -58.5t24.5 -58.5t58.5 -24.5t58.5 24.5z
" />
    <glyph glyph-name="estimated" unicode="&#x212e;" horiz-adv-x="661" 
d="M205 31q-60 35 -95 95t-35 132v194q0 71 35 131t95 95t131 35t130.5 -35t94.5 -95t35 -131v-85q0 -15 -10.5 -25.5t-25.5 -10.5h-358v-203q25 -27 60 -42.5t74 -15.5q47 0 88 23t66 63q8 12 17 12q3 0 11 -4l34 -23q7 -6 7 -12q0 -4 -3 -9q-34 -58 -93 -91t-127 -33
q-71 0 -131 35zM469 403v178q-25 27 -59.5 42.5t-73.5 15.5t-74 -15.5t-60 -42.5v-178h267z" />
    <glyph glyph-name="uni2113" unicode="&#x2113;" horiz-adv-x="469" 
d="M232.5 8.5q-33.5 21.5 -52 57.5t-18.5 78v84q-55 -31 -119 -50h-3q-6 0 -10.5 3.5t-4.5 10.5v52q0 10 14 14q67 22 123 56v300q0 75 36.5 117.5t97.5 42.5q59 0 88 -41t29 -119q0 -97 -44 -182.5t-125 -149.5v-145q0 -33 18.5 -53t48.5 -20q20 0 33 7.5t29 22.5q6 6 12 6
q4 0 9 -3q14 -9 33 -28q7 -7 7 -16q0 -5 -3 -11q-11 -21 -46 -38t-75 -17q-44 0 -77.5 21.5zM312 483.5q23 57.5 23 123.5q0 92 -45 92q-21 0 -33.5 -18t-12.5 -47v-255q45 47 68 104.5z" />
    <glyph glyph-name="asciicircum" unicode="^" horiz-adv-x="546" 
d="M74.5 338q-4.5 4 -4.5 11q0 3 2 9l157 323q6 14 23 14h47q17 0 23 -14l152 -323q2 -6 2 -8q0 -7 -5 -11.5t-13 -4.5h-45q-5 0 -10 3t-7 8l-123 252l-122 -252q-2 -5 -7 -8t-10 -3h-47q-8 0 -12.5 4z" />
    <glyph glyph-name="dagger" unicode="&#x2020;" horiz-adv-x="601" 
d="M268 -189q-4 4 -4 10v633h-170q-6 0 -10 4t-4 10v45q0 6 4 10t10 4h170v218q0 6 4 10t10 4h47q6 0 10 -4t4 -10v-220h168q6 0 10 -4t4 -10v-45q0 -7 -4 -11t-10 -4h-168v-630q0 -6 -4 -10t-10 -4h-47q-6 0 -10 4z" />
    <glyph glyph-name="daggerdbl" unicode="&#x2021;" horiz-adv-x="601" 
d="M268 -189q-4 4 -4 10v220h-170q-6 0 -10 4t-4 10v45q0 6 4 10t10 4h170v338h-170q-6 0 -10 4t-4 10v45q0 6 4 10t10 4h170v220q0 6 4 10t10 4h47q6 0 10 -4t4 -10v-220h168q6 0 10 -4t4 -10v-45q0 -7 -4 -11t-10 -4h-168v-336h168q6 0 10 -4t4 -11v-45q0 -6 -4 -10
t-10 -4h-168v-220q0 -6 -4 -10t-10 -4h-47q-6 0 -10 4z" />
    <glyph glyph-name="uni0308" unicode="&#x308;" 
d="M-400 648q-4 4 -4 10v87q0 6 4 10t10 4h48q6 0 10 -4t4 -10v-87q0 -6 -4 -10t-10 -4h-48q-6 0 -10 4zM-158 648q-4 4 -4 10v87q0 6 4 10t10 4h48q6 0 10 -4t4 -10v-87q0 -6 -4 -10t-10 -4h-48q-6 0 -10 4z" />
    <glyph glyph-name="uni0307" unicode="&#x307;" 
d="M-221 648q-4 4 -4 10v87q0 6 4 10t10 4h48q6 0 10 -4t4 -10v-87q0 -6 -4 -10t-10 -4h-48q-6 0 -10 4z" />
    <glyph glyph-name="gravecomb" unicode="&#x300;" 
d="M-327 643l-81 93q-4 4 -4 10t3.5 9.5t10.5 3.5h67q20 0 28 -19l37 -90q2 -6 2 -7q0 -5 -3.5 -8.5t-9.5 -3.5h-24q-16 0 -26 12z" />
    <glyph glyph-name="acutecomb" unicode="&#x301;" 
d="M-319 636.5q-3 5.5 0 13.5l37 90q8 19 28 19h67q6 0 10 -3.5t4 -9.5t-4 -10l-81 -93q-10 -12 -26 -12h-24q-8 0 -11 5.5z" />
    <glyph glyph-name="uni030B" unicode="&#x30b;" 
d="M-430 636.5q-3 5.5 0 13.5l37 90q8 19 28 19h67q6 0 10 -3.5t4 -9.5t-4 -10l-81 -93q-10 -12 -26 -12h-24q-8 0 -11 5.5zM-265 636.5q-3 5.5 0 13.5l37 90q8 19 28 19h67q6 0 10 -3.5t4 -9.5t-4 -10l-81 -93q-10 -12 -26 -12h-24q-8 0 -11 5.5z" />
    <glyph glyph-name="uni0302" unicode="&#x302;" 
d="M-403.5 637.5q-3.5 6.5 1.5 12.5l81 100q6 9 18 9h64q12 0 18 -9l81 -100q3 -3 3 -7q0 -5 -3.5 -8.5t-9.5 -3.5h-33q-12 0 -25 10l-63 49l-63 -49q-13 -10 -24 -10h-34q-8 0 -11.5 6.5z" />
    <glyph glyph-name="uni030C" unicode="&#x30c;" 
d="M-313 640l-81 100q-3 3 -3 7q0 5 3.5 8.5t9.5 3.5h33q12 0 25 -10l63 -49l63 49q13 10 24 10h34q8 0 11.5 -6.5t-1.5 -12.5l-81 -100q-6 -9 -18 -9h-64q-12 0 -18 9z" />
    <glyph glyph-name="uni0306" unicode="&#x306;" 
d="M-328 660.5q-34 18.5 -46 36.5q-4 8 -4 10q0 6 6 10l32 28q3 3 6 3q4 0 8 -4q1 -1 18 -14.5t61 -13.5q24 0 41 7t37 22q7 6 13 0l32 -29q5 -5 5 -10q0 -4 -3 -9q-6 -9 -23 -22t-44 -23t-59 -10q-46 0 -80 18.5z" />
    <glyph glyph-name="uni030A" unicode="&#x30a;" 
d="M-275 641q-24 24 -24 58t24 58t58 24t58 -24t24 -58t-24 -58t-58 -24t-58 24zM-196.5 678.5q8.5 8.5 8.5 20.5t-8.5 20.5t-20.5 8.5t-20.5 -8.5t-8.5 -20.5t8.5 -20.5t20.5 -8.5t20.5 8.5z" />
    <glyph glyph-name="tildecomb" unicode="&#x303;" 
d="M-228.5 648q-17.5 5 -41.5 14q-40 14 -52 14q-13 0 -20.5 -4t-13.5 -13q-3 -5 -5.5 -5.5t-8.5 0.5l-28 9q-9 3 -8 13q8 31 34.5 50.5t60.5 19.5q17 0 34 -5t43 -14q37 -15 52 -15q22 0 33 17q4 5 7 6t9 -1l27 -8q11 -4 8 -13q-7 -31 -34 -50.5t-62 -19.5q-17 0 -34.5 5z
" />
    <glyph glyph-name="uni0304" unicode="&#x304;" 
d="M-404 666.5q-4 3.5 -4 9.5v37q0 6 4 9.5t10 3.5h260q6 0 10 -3.5t4 -9.5v-37q0 -6 -4 -9.5t-10 -3.5h-260q-6 0 -10 3.5z" />
    <glyph glyph-name="uni0312" unicode="&#x312;" 
d="M-355.5 635q-3.5 4 -3.5 9q0 6 4 10l81 93q10 12 26 12h24q8 0 11 -5.5t0 -13.5l-37 -90q-8 -19 -28 -19h-67q-7 0 -10.5 4z" />
    <glyph glyph-name="uni0326" unicode="&#x326;" 
d="M-402 -187.5q-3 5.5 0 13.5l37 90q8 19 28 19h67q6 0 10 -4t4 -9q0 -6 -4 -10l-81 -93q-10 -12 -26 -12h-24q-8 0 -11 5.5z" />
    <glyph glyph-name="uni0327" unicode="&#x327;" 
d="M-285 -209q-11 0 -16 10l-14 35q-1 2 -1 5q0 7 9 11q33 13 33 50v19q0 6 3.5 10t9.5 4h52q7 0 12 -5t5 -13v-11q0 -48 -28 -76.5t-61 -38.5h-4z" />
    <glyph glyph-name="uni0328" unicode="&#x328;" 
d="M-276.5 -169.5q-31.5 23.5 -31.5 61.5q0 39 31 73.5t65 56.5l52 6q0 -15 -13 -28q-30 -30 -43 -47.5t-13 -38.5q0 -37 42 -37h17q6 0 10.5 -4.5t4.5 -10.5v-40q0 -6 -4.5 -10.5t-10.5 -4.5h-30q-45 0 -76.5 23.5z" />
    <glyph glyph-name="uni0335" unicode="&#x335;" 
d="M-396 278q-4 4 -4 10v41q0 6 4 10t10 4h282q6 0 10 -4t4 -10v-41q0 -6 -4 -10t-10 -4h-282q-6 0 -10 4z" />
    <glyph glyph-name="uni0336" unicode="&#x336;" 
d="M-521 278q-4 4 -4 10v41q0 6 4 10t10 4h403q6 0 10 -4t4 -10v-41q0 -6 -4 -10t-10 -4h-403q-6 0 -10 4z" />
    <glyph glyph-name="uni0337" unicode="&#x337;" 
d="M-398 108q-5 0 -8 3.5t-4 9.5l-2 37v3q0 13 10 22l291 253q4 4 10 4q5 0 8 -3.5t4 -9.5l2 -37v-3q0 -13 -10 -22l-291 -253q-4 -4 -10 -4z" />
    <glyph glyph-name="uni0338" unicode="&#x338;" 
d="M-398.5 -52q-2.5 3 -0.5 8l324 791q4 12 18 12h44q4 0 6.5 -3t0.5 -8l-323 -791q-5 -12 -18 -12h-45q-4 0 -6.5 3z" />
    <glyph glyph-name="acute" unicode="&#xb4;" horiz-adv-x="588" 
d="M230 636.5q-3 5.5 0 13.5l37 90q8 19 28 19h67q6 0 10 -3.5t4 -9.5t-4 -10l-81 -93q-10 -12 -26 -12h-24q-8 0 -11 5.5z" />
    <glyph glyph-name="breve" unicode="&#x2d8;" horiz-adv-x="588" 
d="M221 660.5q-34 18.5 -46 36.5q-4 8 -4 10q0 6 6 10l32 28q3 3 6 3q4 0 8 -4q1 -1 18 -14.5t61 -13.5q24 0 41 7t37 22q7 6 13 0l32 -29q5 -5 5 -10q0 -4 -3 -9q-6 -9 -23 -22t-44 -23t-59 -10q-46 0 -80 18.5z" />
    <glyph glyph-name="caron" unicode="&#x2c7;" horiz-adv-x="588" 
d="M245 640l-81 100q-3 3 -3 7q0 5 3.5 8.5t9.5 3.5h33q12 0 25 -10l63 -49l63 49q13 10 24 10h34q8 0 11.5 -6.5t-1.5 -12.5l-81 -100q-6 -9 -18 -9h-64q-12 0 -18 9z" />
    <glyph glyph-name="cedilla" unicode="&#xb8;" horiz-adv-x="588" 
d="M241 -209q-11 0 -16 10l-14 35q-1 2 -1 5q0 7 9 11q33 13 33 50v19q0 6 3.5 10t9.5 4h52q7 0 12 -5t5 -13v-11q0 -48 -28 -76.5t-61 -38.5h-4z" />
    <glyph glyph-name="circumflex" unicode="&#x2c6;" horiz-adv-x="588" 
d="M160.5 637.5q-3.5 6.5 1.5 12.5l81 100q6 9 18 9h64q12 0 18 -9l81 -100q3 -3 3 -7q0 -5 -3.5 -8.5t-9.5 -3.5h-33q-12 0 -25 10l-63 49l-63 -49q-13 -10 -24 -10h-34q-8 0 -11.5 6.5z" />
    <glyph glyph-name="dieresis" unicode="&#xa8;" horiz-adv-x="588" 
d="M139 648q-4 4 -4 10v87q0 6 4 10t10 4h48q6 0 10 -4t4 -10v-87q0 -6 -4 -10t-10 -4h-48q-6 0 -10 4zM381 648q-4 4 -4 10v87q0 6 4 10t10 4h48q6 0 10 -4t4 -10v-87q0 -6 -4 -10t-10 -4h-48q-6 0 -10 4z" />
    <glyph glyph-name="dotaccent" unicode="&#x2d9;" horiz-adv-x="588" 
d="M271 648q-4 4 -4 10v87q0 6 4 10t10 4h48q6 0 10 -4t4 -10v-87q0 -6 -4 -10t-10 -4h-48q-6 0 -10 4z" />
    <glyph glyph-name="grave" unicode="`" horiz-adv-x="588" 
d="M312 643l-81 93q-4 4 -4 10t3.5 9.5t10.5 3.5h67q20 0 28 -19l37 -90q2 -6 2 -7q0 -5 -3.5 -8.5t-9.5 -3.5h-24q-16 0 -26 12z" />
    <glyph glyph-name="hungarumlaut" unicode="&#x2dd;" horiz-adv-x="588" 
d="M111 636.5q-3 5.5 0 13.5l37 90q8 19 28 19h67q6 0 10 -3.5t4 -9.5t-4 -10l-81 -93q-10 -12 -26 -12h-24q-8 0 -11 5.5zM276 636.5q-3 5.5 0 13.5l37 90q8 19 28 19h67q6 0 10 -3.5t4 -9.5t-4 -10l-81 -93q-10 -12 -26 -12h-24q-8 0 -11 5.5z" />
    <glyph glyph-name="macron" unicode="&#xaf;" horiz-adv-x="588" 
d="M154 666.5q-4 3.5 -4 9.5v37q0 6 4 9.5t10 3.5h260q6 0 10 -3.5t4 -9.5v-37q0 -6 -4 -9.5t-10 -3.5h-260q-6 0 -10 3.5z" />
    <glyph glyph-name="ogonek" unicode="&#x2db;" horiz-adv-x="588" 
d="M210.5 -169.5q-31.5 23.5 -31.5 61.5q0 39 31 73.5t65 56.5l52 6q0 -15 -13 -28q-30 -30 -43 -47.5t-13 -38.5q0 -37 42 -37h17q6 0 10.5 -4.5t4.5 -10.5v-40q0 -6 -4.5 -10.5t-10.5 -4.5h-30q-45 0 -76.5 23.5z" />
    <glyph glyph-name="ring" unicode="&#x2da;" horiz-adv-x="588" 
d="M233 641q-24 24 -24 58t24 58t58 24t58 -24t24 -58t-24 -58t-58 -24t-58 24zM311.5 678.5q8.5 8.5 8.5 20.5t-8.5 20.5t-20.5 8.5t-20.5 -8.5t-8.5 -20.5t8.5 -20.5t20.5 -8.5t20.5 8.5z" />
    <glyph glyph-name="tilde" unicode="&#x2dc;" horiz-adv-x="588" 
d="M316.5 648q-17.5 5 -41.5 14q-40 14 -52 14q-13 0 -20.5 -4t-13.5 -13q-3 -5 -5.5 -5.5t-8.5 0.5l-28 9q-9 3 -8 13q8 31 34.5 50.5t60.5 19.5q17 0 34 -5t43 -14q37 -15 52 -15q22 0 33 17q4 5 7 6t9 -1l27 -8q11 -4 8 -13q-7 -31 -34 -50.5t-62 -19.5q-17 0 -34.5 5z
" />
    <glyph glyph-name="uni05B0" unicode="&#x5b0;" 
d="M269 -142q-13 13 -13 31t13 31t31 13t31 -13t13 -31t-13 -31t-31 -13t-31 13zM269 -276q-13 13 -13 31t13 31t31 13t31 -13t13 -31t-13 -31t-31 -13t-31 13z" />
    <glyph glyph-name="uni05B1" unicode="&#x5b1;" 
d="M135 -142q-13 13 -13 31t13 31t31 13t31 -13t13 -31t-13 -31t-31 -13t-31 13zM269 -142q-13 13 -13 31t13 31t31 13t31 -13t13 -31t-13 -31t-31 -13t-31 13zM403 -142q-13 13 -13 31t13 31t31 13t31 -13t13 -31t-13 -31t-31 -13t-31 13zM202 -276q-13 13 -13 31t13 31
t31 13t31 -13t13 -31t-13 -31t-31 -13t-31 13zM403 -276q-13 13 -13 31t13 31t31 13t31 -13t13 -31t-13 -31t-31 -13t-31 13z" />
    <glyph glyph-name="uni05B2" unicode="&#x5b2;" 
d="M423 -138.5q-12 12.5 -12 29.5t12 29.5t29 12.5t29.5 -12.5t12.5 -29.5t-12.5 -29.5t-29.5 -12.5t-29 12.5zM111 -139q-4 4 -4 11v39q0 6 4 10t11 4h217q7 0 11 -4t4 -10v-39q0 -7 -4 -11t-11 -4h-217q-7 0 -11 4zM423 -266.5q-12 12.5 -12 29.5t12 29.5t29 12.5
t29.5 -12.5t12.5 -29.5t-12.5 -29.5t-29.5 -12.5t-29 12.5z" />
    <glyph glyph-name="uni05B3" unicode="&#x5b3;" 
d="M423 -138.5q-12 12.5 -12 29.5t12 29.5t29 12.5t29.5 -12.5t12.5 -29.5t-12.5 -29.5t-29.5 -12.5t-29 12.5zM202 -267.5q-12 11.5 -12 28.5l2 27l7 69h-77q-7 0 -11 4t-4 11v39q0 6 4 10t11 4h217q7 0 11 -4t4 -10v-39q0 -7 -4 -11t-11 -4h-79l7 -69q1 -7 2 -14.5
t1 -12.5q0 -16 -12 -28t-28 -12t-28 11.5zM423 -266.5q-12 12.5 -12 29.5t12 29.5t29 12.5t29.5 -12.5t12.5 -29.5t-12.5 -29.5t-29.5 -12.5t-29 12.5z" />
    <glyph glyph-name="uni05B4" unicode="&#x5b4;" 
d="M269 -142q-13 13 -13 31t13 31t31 13t31 -13t13 -31t-13 -31t-31 -13t-31 13z" />
    <glyph glyph-name="uni05B5" unicode="&#x5b5;" 
d="M202 -142q-13 13 -13 31t13 31t31 13t31 -13t13 -31t-13 -31t-31 -13t-31 13zM336 -142q-13 13 -13 31t13 31t31 13t31 -13t13 -31t-13 -31t-31 -13t-31 13z" />
    <glyph glyph-name="uni05B6" unicode="&#x5b6;" 
d="M202 -142q-13 13 -13 31t13 31t31 13t31 -13t13 -31t-13 -31t-31 -13t-31 13zM336 -142q-13 13 -13 31t13 31t31 13t31 -13t13 -31t-13 -31t-31 -13t-31 13zM269 -276q-13 13 -13 31t13 31t31 13t31 -13t13 -31t-13 -31t-31 -13t-31 13z" />
    <glyph glyph-name="uni05B7" unicode="&#x5b7;" 
d="M180 -139q-4 4 -4 11v39q0 6 4 10t11 4h217q7 0 11 -4t4 -10v-39q0 -7 -4 -11t-11 -4h-217q-7 0 -11 4z" />
    <glyph glyph-name="uni05B8" unicode="&#x5b8;" 
d="M273.5 -256q-10.5 11 -10.5 26l1 24l7 63h-80q-7 0 -11 4t-4 11v39q0 6 4 10t11 4h217q7 0 11 -4t4 -10v-39q0 -7 -4 -11t-11 -4h-82l7 -63l2 -24q0 -15 -11 -26t-25 -11q-15 0 -25.5 11z" />
    <glyph glyph-name="uni05B9" unicode="&#x5b9;" 
d="M270.5 654.5q-12.5 12.5 -12.5 29.5t12.5 29.5t29.5 12.5t29.5 -12.5t12.5 -29.5t-12.5 -29.5t-29.5 -12.5t-29.5 12.5z" />
    <glyph glyph-name="uni05BA" unicode="&#x5ba;" 
d="M270.5 654.5q-12.5 12.5 -12.5 29.5t12.5 29.5t29.5 12.5t29.5 -12.5t12.5 -29.5t-12.5 -29.5t-29.5 -12.5t-29.5 12.5z" />
    <glyph glyph-name="uni05BB" unicode="&#x5bb;" 
d="M270.5 -138.5q-12.5 12.5 -12.5 29.5t12.5 29.5t29.5 12.5t29.5 -12.5t12.5 -29.5t-12.5 -29.5t-29.5 -12.5t-29.5 12.5zM350.5 -230.5q-12.5 12.5 -12.5 29.5t12.5 29.5t29.5 12.5t29.5 -12.5t12.5 -29.5t-12.5 -29.5t-29.5 -12.5t-29.5 12.5zM430.5 -322.5
q-12.5 12.5 -12.5 29.5t12.5 29.5t29.5 12.5t29.5 -12.5t12.5 -29.5t-12.5 -29.5t-29.5 -12.5t-29.5 12.5z" />
    <glyph glyph-name="uni05BC" unicode="&#x5bc;" 
d="M270.5 279.5q-12.5 12.5 -12.5 29.5t12.5 29.5t29.5 12.5t29.5 -12.5t12.5 -29.5t-12.5 -29.5t-29.5 -12.5t-29.5 12.5z" />
    <glyph glyph-name="uni05C1" unicode="&#x5c1;" 
d="M270.5 654.5q-12.5 12.5 -12.5 29.5t12.5 29.5t29.5 12.5t29.5 -12.5t12.5 -29.5t-12.5 -29.5t-29.5 -12.5t-29.5 12.5z" />
    <glyph glyph-name="uni05C2" unicode="&#x5c2;" 
d="M270.5 654.5q-12.5 12.5 -12.5 29.5t12.5 29.5t29.5 12.5t29.5 -12.5t12.5 -29.5t-12.5 -29.5t-29.5 -12.5t-29.5 12.5z" />
    <glyph glyph-name="uni05C7" unicode="&#x5c7;" 
d="M273.5 -256q-10.5 11 -10.5 26l1 24l7 63h-80q-7 0 -11 4t-4 11v39q0 6 4 10t11 4h217q7 0 11 -4t4 -10v-39q0 -7 -4 -11t-11 -4h-82l7 -63l2 -24q0 -15 -11 -26t-25 -11q-15 0 -25.5 11z" />
    </font>
</defs>
</svg>
