<svg xmlns="http://www.w3.org/2000/svg" width="300" height="300" viewBox="0 0 300 300" fill="#6f42c1">
    <g>
        <path d="M183.2,208.2c-0.2-0.3-0.5-0.5-0.7-0.8c-2.1-3-4.1-5.9-6.2-8.9c-0.3-0.5-0.6-1.1-0.7-1.7c-2-7.1-3.8-14.3-5.8-21.4   c-1.5-5.4-3.2-10.7-4.9-16c-0.1-0.3-0.2-0.5-0.4-0.9c-4.6,0.3-9.1,0.8-13.7,1.5c-0.1,0.6-0.1,1.1-0.2,1.6c-0.2,0.9-0.4,1.8-0.6,2.6   c-0.3,0.9-0.9,1.4-1.9,1.6c-1.1-0.2-1.6-1.1-1.9-2.1c-0.3-1-0.5-2-0.7-3.1c-4.2,0.3-8.3,1.1-12.6,1.5c-0.2,0.5-0.3,0.9-0.4,1.4   c-1.3,5.5-2.5,11.1-3.8,16.6c-0.9,4.1-1.9,8.2-2.8,12.3c-0.5,2.6-1.4,5-2.2,7.5c-1.1,3.4-2.2,6.8-3.3,10.2   c-0.1,0.2-0.2,0.5-0.3,0.6c-0.6,0.2-0.8,0-0.9-0.4c-0.1-0.3-0.1-0.6-0.1-0.9c-0.3-4.6-0.6-9.1-0.9-13.7c-0.1-0.9,0-1.8,0.3-2.7   c2.3-7.7,3.5-15.5,5.2-23.3c2-8.8,4-17.6,6-26.4c2.2-9.5,4.6-19,6.9-28.5c0.2-0.8,0.4-1.5,0.6-2.5c-1.5-3-1.9-6.1-0.6-9.4   c1.2-3.3,3.7-5.4,6.8-6.6c-0.7-3.9-2-7.6-2-11.3c0.4-0.9,1-1.1,1.6-1.3c2.9-0.9,4.5-1,6.1-0.7c0.6,0.4,0.6,1,0.5,1.6   c-0.1,1.5-0.3,3-0.5,4.4c-0.2,2-0.3,4-0.4,6c4,0.8,7.2,2.6,9.1,6.2c2,3.6,1.3,7.2-0.3,10.9c0.1,0.5,0.2,1.1,0.4,1.7   c2.1,7.3,4.1,14.6,6.3,21.9c1.9,6.3,4,12.4,5.8,18.7c2.9,9.8,5.6,19.7,8.3,29.6c1.1,4,2.2,8.1,3.3,12.1c1,3.6,1.5,7.3,1.8,11   c0,0.3,0,0.6,0,0.9C183.4,208.2,183.3,208.2,183.2,208.2z M143.8,116.9c-1.7,7.1-3.2,14-5,20.8c-1.8,6.9-3.4,13.8-5,20.9   c2.1,0,3.9-0.4,5.8-0.7c1.9-0.3,3.8-0.4,5.6-0.9c0.1-1,0.2-1.8,0.4-2.6c0.1-0.6,0.3-1.1,0.6-1.6c0.9-1.4,2.3-1.4,3.3-0.1   c0.5,0.6,0.7,1.4,1,2.2c0.2,0.5,0.2,1,0.4,1.5c5.1-0.4,11.3-1.3,12.6-1.8c-4.1-12.5-8.7-24.7-12.2-37.4c-0.1-0.2-0.2-0.4-0.4-0.6   C148.5,117.2,146.3,117.3,143.8,116.9z M138.2,113.7c-0.2,0.7-0.4,1.5-0.6,2.2c-2.4,10-4.9,19.9-7.2,29.9   c-2.7,11.5-5.4,23-7.7,34.5c-0.6,3.3-1.4,6.5-2.2,9.8c-0.2,1.1-0.3,2.2-0.3,3.3c1.4,0.2,2.6,1,3.9,0.8c0.1-0.2,0.2-0.2,0.2-0.3   c0.7-3.1,1.4-6.1,2-9.2c2.1-9.7,4.2-19.4,6.7-29c1.7-6.5,3.2-13,4.8-19.5c1.1-4.5,2.1-9,3.1-13.5c0.5-2.1,1-4.1,1.4-6.1   C141,115.7,139.7,114.7,138.2,113.7z M152,116.2c1,3.2,1.9,6.4,3,9.7c3.2,9.5,6.5,18.9,9.5,28.4c2.5,7.6,4.8,15.2,7,22.9   c1.8,6,3.3,12.1,4.9,18.1c0.1,0.3,0.3,0.7,0.4,1c1.1-0.5,2.1-1,3.1-1.5c-0.1-0.4-0.1-0.6-0.2-0.9c-0.8-2.9-1.6-5.8-2.4-8.8   c-3.5-12.3-7-24.6-10.5-36.9c-2.2-7.5-4.7-15-6.9-22.5c-0.8-2.5-1.3-5-2-7.5c-0.4-1.6-0.9-3.2-1.3-4.9   C155,114.3,153.6,115.2,152,116.2z M137.5,106.7c0.1,3.2,1.8,5.5,4,7.5c0.5,0.4,1.2,0.7,1.8,0.9c3.3,1.1,6.4,0.6,9.4-1   c1.6-0.8,2.7-2,3.3-3.7c0.4-1.2,0.9-2.3,1.1-3.5c0.6-2.5-0.3-6.4-3.1-8.1c-1.1-0.7-2.1-1.1-3.3-1.5c-2.1-0.7-4.2-0.6-6.2,0.3   c-1.3,0.6-2.6,1.4-3.9,2.1c-0.8,0.5-1.4,1.3-1.9,2.1C138,103.3,137.5,104.9,137.5,106.7z M120.4,205.9c1.1-3.4,2.3-6.7,3.4-10.2   c-1.6-0.3-2.9-0.8-4.5-0.6C119.4,198.7,120,202.3,120.4,205.9z M163.7,155.9c-4.4,0.5-8.7,1-13,1.7c0,0.4,0.1,0.7,0.1,1.1   c4.5-0.5,8.8-1,13.3-1.4C164,156.7,163.9,156.4,163.7,155.9z M181.9,204c-0.8-2.7-0.9-5.3-1.6-8c-1,0.5-1.9,0.8-2.7,1.2   C178,198.4,180.6,202.5,181.9,204z M145.2,158.3c-3.7,0.4-7.2,0.9-10.8,1.3c-0.3,0-0.6,0.1-1,0.1c-0.1,0.4-0.2,0.8-0.3,1.3   c4.1-0.6,8.1-1.1,12.1-1.7C145.2,159,145.2,158.7,145.2,158.3z M148.2,84.2c-2,0.2-3.8,0.5-5.6,1.1c0,0.3-0.1,0.5,0,0.7   c0,0.1,0.2,0.3,0.2,0.3c1.8-0.2,3.6-0.4,5.5-0.6C148.2,85.1,148.2,84.7,148.2,84.2z M143,88.7c1.8-0.3,3.4-0.5,5-0.7   c-0.1-0.4-0.1-0.6-0.1-0.8c-1.8,0.1-3.5,0.2-5.2,0.2C142.8,87.9,142.9,88.2,143,88.7z M144.4,95.9c1.1-0.3,2-0.5,3-0.8   c0-0.4,0-0.7,0-1.1c-1.1,0-2.1,0-3.2,0.3C144.3,94.9,144.3,95.4,144.4,95.9z M147.7,89.6c-1.5,0-2.9,0-4.4,0   c0.1,0.5,0.2,0.8,0.3,1.1c1.4-0.1,2.8-0.3,4.2-0.4C147.7,90,147.7,89.8,147.7,89.6z M144,93.2c1.2-0.2,2.3-0.4,3.5-0.6   c0-0.4,0-0.7,0-1c-1.3,0.2-2.5,0.4-3.7,0.6C143.9,92.5,143.9,92.8,144,93.2z"/>
        <path d="M173.6,206.9c0,0.2,0.1,0.4,0.1,0.6c-0.2,0.1-0.3,0.2-0.3,0.2c-1.9,0.1-3.6,0.8-5.2,1.9c-0.6,0.4-1.3,0.9-1.2,1.9   c0.4,0.8,1.1,1.2,1.9,1.6c2.1,1,4.3,1.5,6.6,1.9c4.2,0.7,8.5,0.5,12.7,0.2c3.5-0.3,7-0.9,10.3-2.1c1.5-0.5,2.9-1.3,4.3-2.1   c0.7-0.4,1.4-1,1.6-1.9c-0.8-0.8-1.9-0.9-3-1c-2.1-0.3-4.2-0.5-6.4-0.2c-0.8,0.1-1.7,0.1-2.5,0.1c-0.3,0-0.6-0.2-0.9-0.3   c0-0.8,0.6-0.9,1-0.9c2.1-0.1,4.1-0.2,6.2-0.2c1.3,0,2.6,0.3,3.9,0.5c0.6,0.1,1.2,0.3,1.8,0.6c0.8,0.4,0.8,0.5,1.1,1.7   c-0.9,1.5-2,2.8-3.6,3.6c-2.6,1.3-5.4,2.1-8.3,2.7c-5.1,1-10.2,1.3-15.4,1c-3-0.2-6-0.7-8.8-1.9c-1-0.4-1.9-0.9-2.7-1.6   c-1.2-1-1.4-2.4-0.3-3.5c1.9-1.9,4.1-2.9,6.8-2.9C173.3,206.7,173.4,206.8,173.6,206.9z"/>
        <path d="M208,206.5c1.1,0.4,1.2,1.1,1.3,1.8c0.1,1.1-0.2,2.2-0.9,3.2c-1.2,1.8-2.9,3.2-4.9,4.1c-0.3,0.2-0.7,0.3-1.1,0.3   c-0.3,0-0.5-0.2-0.9-0.5c0.3-0.3,0.5-0.6,0.8-0.7c1.7-0.5,3-1.6,4.2-2.8c1.3-1.3,2.1-2.8,1.3-4.7   C207.8,207.1,207.9,206.8,208,206.5z"/>
        <path d="M190.4,212.6c0.2-0.7,0.6-0.7,1.1-0.7c1.8-0.2,3.5-0.7,5.2-1.4c0.8-0.3,1.6-0.8,2.5-1.3c0.2,0.4,0.3,0.7,0.5,1   c-2.4,1.6-4.9,2.4-7.6,2.8C191.2,213.2,191.1,213.2,190.4,212.6z"/>
        <path d="M210.1,210c0.3,0,0.5,0,0.6,0c0.5,0.6,0.2,1.2-0.1,1.8c-0.9,1.6-2,2.9-3.7,3.8c-0.2-0.2-0.4-0.3-0.7-0.6   C207.9,213.5,209.7,212.2,210.1,210z"/>
        <path d="M162.3,209.1c0.2,0.1,0.4,0.1,0.6,0.2c-0.3,2.1,1,3.4,2.4,4.6c0,0.2-0.1,0.4-0.1,0.5c0,0.1-0.2,0.1-0.4,0.2   c-1.6-0.4-2.3-1.8-2.9-3.2C161.7,210.7,161.5,209.8,162.3,209.1z"/>
        <path d="M122,190.2c-0.1-0.3-0.2-0.6-0.2-0.7c1.1-5,2.2-9.9,3.4-14.9c0.2,0,0.4-0.1,0.6-0.1c0.1,0.2,0.3,0.3,0.2,0.4   c0,0.7-0.1,1.5-0.2,2.2c-0.8,3.6-1.6,7.2-2.5,10.9c-0.1,0.6-0.4,1.2-0.6,1.8C122.7,189.9,122.4,190,122,190.2z"/>
        <path d="M124.5,187.2c0.2,0.4,0.4,0.7,0.4,1c0,1.2-0.8,3.7-1.5,4.5c-0.2-0.3-0.5-0.5-0.5-0.7c0.4-1.5,0.8-3,1.2-4.5   C124.2,187.4,124.2,187.4,124.5,187.2z"/>
        <path d="M158.7,133.2c-0.7-1.4-1.1-2.9-1.6-4.3c-0.1-0.2,0.1-0.4,0.1-0.6c0.2,0,0.4-0.1,0.5,0c0.1,0,0.3,0.1,0.6,0.2   c-0.7-2.8-1.5-5.5-2.6-8.2c0.2-0.2,0.4-0.3,0.7-0.5c0.3,0.4,0.5,0.6,0.7,1c0.4,1,0.8,2,1.1,3c1.8,5.9,3.6,11.9,5.4,17.9   c0.2,0.8,0.6,1.6,0.4,2.6c-0.2,0-0.5,0.1-0.8,0.1c-1.1-3.8-2.2-7.5-3.4-11.2C159.4,133.2,159.1,133.2,158.7,133.2z"/>
        <path d="M173.3,177.1c0.4,0,0.6,0,0.8,0c0.7,1.3,4.2,13,4.4,14.8c0,0.3-0.1,0.6-0.1,1.1c-0.4-0.2-0.7-0.3-0.8-0.5   c-0.2-0.4-0.3-0.8-0.4-1.2c-1.2-4.4-2.5-8.8-3.7-13.2C173.3,177.8,173.3,177.5,173.3,177.1z"/>
        <path d="M147.3,110.3c-1.9-0.1-3-0.7-3.7-2.1c-0.8-1.8-0.8-3.6,0.4-5.3c1.1-1.6,2.5-2,4.3-1.4c1.8,0.6,2.9,2,2.8,3.8   c-0.1,1.7-0.8,3.2-2.2,4.2C148.4,110.1,147.7,110.2,147.3,110.3z M146.1,108.9c2,0.3,3.4-0.8,3.8-3c0.3-1.8-0.6-2.8-2.6-3.2   C144.5,104.1,144,106.7,146.1,108.9z"/>
        <path d="M141.6,109.6c0,0.8,0.6,1.2,1,1.7c0.2,0.3,0.3,0.6,0.5,0.9c-0.7,0.5-1.1,0.2-1.5-0.2c-1.3-1.6-2.3-3.3-2.5-5.4   c-0.1-0.9,0-1.9,0-2.9c0.3-0.1,0.5-0.2,0.7-0.3c0.1,0.2,0.3,0.3,0.3,0.5c0,0.5,0,1.1,0,1.6C140.2,107.1,140.6,108.5,141.6,109.6   L141.6,109.6z"/>
        <path d="M145.5,113.6c0.3-0.1,0.6-0.4,0.8-0.3c2.2,0.4,3.9-0.3,5.5-1.7c0.1-0.1,0.3-0.1,0.4-0.2c0.1,0.1,0.3,0.1,0.4,0.2   c0.1,0.1,0.1,0.3,0.2,0.5c-1.5,1.4-3.1,2.4-5.3,2.4C146.4,114.5,146.2,114.4,145.5,113.6z"/>
        <path d="M153.1,103c-0.1,0.5,0.2,1.2-0.7,1.6c-0.2-0.2-0.4-0.4-0.5-0.6c-0.2-1.5-0.8-2.8-1.8-3.9c-0.1-0.1-0.1-0.4-0.2-0.6   c0.2-0.1,0.4-0.2,0.6-0.3c1,0.5,1.5,1.4,1.9,2.3C152.7,101.9,152.9,102.4,153.1,103L153.1,103z"/>
        <path d="M153.2,103c0.2-0.9-0.1-1.8-0.6-2.5c-0.3-0.5-0.3-0.5-0.2-1.3c1-0.1,1.3,0.8,1.6,1.5c0.3,0.8,0.9,1.6,0,2.5   C153.7,103.1,153.4,103,153.2,103L153.2,103z"/>
        <path d="M141.7,109.7c-0.3-0.8-0.6-1.7-0.9-2.6c0.4-0.2,0.6-0.3,0.8-0.3c1.4,2.3,1.7,2.7,1.7,3.5   C142.4,110.8,142.2,109.7,141.7,109.7L141.7,109.7z"/>
        <path d="M151,111.1c-0.7,1.1-1.7,1.5-2.7,1.8c-0.4,0.1-1,0.1-1.1-0.7c1-0.5,2-1,3.1-1.6C150.5,110.7,150.7,110.9,151,111.1z"/>
        <path d="M147.3,107.6c-0.9-1.1-1-2.6-0.2-3.6c0.7,0.4,0.6,1.1,0.7,1.6C147.7,106.2,147.9,106.9,147.3,107.6z"/>
    </g>
</svg>