<svg version="1.1" xmlns="http://www.w3.org/2000/svg" xmlns:xlink="http://www.w3.org/1999/xlink" x="0px" y="0px" width="300px" height="300px" viewBox="0 0 300 300" style="enable-background:new 0 0 300 300;" xml:space="preserve" fill="#ecbedc">
<g>
	<path d="M136.3,180.6c-0.7-2.3-1.4-4.2-2.1-6.6c2.5-6.9,5.2-14.3,7.9-21.8c-0.1-0.6-0.3-1.1-0.4-1.7c0.2-0.5,0.5-1,0.7-1.6   c-0.1-0.9-1.2-1.7-0.4-3c0.2-0.2,0.7-0.6,1-0.8c1.5-5.6,2.9-11,4.4-16.5c-1.1-0.4-2.2-1-3.4-1.3c-2.3-0.6-3.4-2.3-3.5-5.1   c0-0.5,0.1-1,0.1-1.4c0.8-1.1,1.9-1.4,3.1-1.5c3.4-0.3,6.7-0.7,10.1-0.9c2.6-0.2,5.2-0.2,7.8-0.2c0.4,0,0.9,0,1.3,0.1   c1.3,0.3,1.9,0.9,1.7,2.3c-0.1,0.9-0.3,1.8-0.5,2.9c-1.6,1.2-3.2,2.3-4.9,3.6c2.2,5.1,4.3,10,6.5,15c0.7,0.5,2.1,0.3,2.4,1.9   c-0.1,0.4-0.4,1-0.6,1.8c0.2,0.5,0.5,1,0.8,1.6c-0.1,0.6-0.1,1.2-0.1,1.5c3,5.1,5.9,9.9,8.8,14.7c1.5,2.6,3.1,5.2,4.7,7.7   c0.1,0.2,0.3,0.5,0.5,0.7c1.5,2.7,0.8,4.7-2.1,5.8c-0.9,0.4-1.9,0.6-2.9,0.7c-8.4,0.9-16.9,1.7-25.3,2.6c-2.6,0.3-5.3,0.5-7.9,0.7   c-1.4,0.1-2.9,0.1-4.3,0.2C138,182.1,136.9,181.6,136.3,180.6z M138.7,179.7c0.1,0,0.3,0.1,0.5,0.1c1.8-0.1,3.6-0.2,5.4-0.3   c11.3-0.8,22.4-2.4,33.6-4.2c1-0.2,2-0.3,2.8-1.4c-0.5-2.3-2.4-3.9-3.5-5.9c-1.1-2.1-2.4-4.1-3.6-6.1c-1.2-2-2.5-4-3.7-6.1   c-1.2-2-2.3-4.1-3.3-5.9c-3.9,0.6-7.5,1.3-11.1,1.7c-3.6,0.5-7.3,0.7-10.7,1c-1,4.6-2,9.1-3.1,13.5   C140.8,170.8,139.8,175.2,138.7,179.7z M149.7,126.8c-1,6.2-3.3,11.9-4.3,17.9c6.1-0.9,12.1-1.8,18.2-2.8c-0.2-0.5-0.4-0.9-0.6-1.3   c-2.1-4-3.7-8.1-5-12.4c-0.3-0.9-0.3-1.8-0.5-2.5c1.2-2.1,3-3.2,4.6-4.7c-0.1-0.4-0.2-0.7-0.2-1.2c-0.6,0-1,0-1.4,0   c-4.7,0.3-9.5,0.5-14.2,0.8c-0.9,0.1-1.7,0.1-2.6,0.3c-0.5,0.1-0.9,0.3-1.3,0.6c0.3,0.9,0.6,1.6,0.9,2.3   C145.3,124.9,147.4,125.8,149.7,126.8z M144.2,151.6c2.8-0.4,5.5-0.8,8.1-1.1c3.3-0.4,6.6-0.7,9.9-1.1c1.5-0.2,3.1-0.4,4.2-1.5   c-0.3-1.4-0.6-2.6-0.9-3.9c-0.2-0.1-0.5-0.2-0.7-0.2c-7.1,1.1-14.1,2.7-21.5,3c0.4,0.8,0.7,1.4,1.1,2c-0.3,0.7-0.6,1.3-0.8,2   C143.8,151.1,144,151.4,144.2,151.6z M137.3,175.6c2.1-7.8,4.1-15.3,6.1-22.9c0,0-0.1-0.1-0.1-0.2c0,0-0.1,0-0.2-0.1   c-2.4,7.1-4.8,14.2-7.1,21.3C136.4,174.4,136.7,174.9,137.3,175.6z"/>
	<path d="M140.9,178.3c0-0.6,0-0.9-0.1-1.1c1.6-0.6,14-2.1,16.1-1.9c0.1,0.3,0.1,0.6,0.2,1c-0.5,0.2-0.9,0.5-1.3,0.5   C151,177.4,146.1,178.1,140.9,178.3z"/>
	<path d="M173.1,167c0.2-0.3,0.4-0.5,0.8-0.9c2,1.7,3.5,3.7,4.7,5.9c0.2,0.4,0.1,0.9,0.1,1.4c-1.7,0.4-3.2,0.7-4.9-0.2   c0.3-0.4,0.5-0.8,0.8-0.9c0.5-0.2,1.1-0.2,1.9-0.2C175.7,170,174.1,168.8,173.1,167z"/>
	<path d="M147.4,154.6c0.3,0.2,0.5,0.3,0.8,0.4c-0.1,0.5-0.1,1-0.2,1.5c-0.3,2.3-0.7,4.5-1,6.8c-0.1,0.8-0.2,1.6-1.4,1.6   c-0.1-0.4-0.3-0.8-0.3-1.2c0.4-2.8,0.9-5.6,1.5-8.4C146.8,155,147.1,154.8,147.4,154.6z"/>
	<path d="M148.3,174.6c-1.4,1.3-3.5,1.5-5.7,0.8c0-0.2,0-0.5,0.1-0.9c1.6-0.3,3.2-0.5,4.8-0.5C147.7,174.1,148,174.4,148.3,174.6z"/>
	<path d="M163.7,146.6c0,0.5,0,0.9,0,1.4c-0.8,0.1-1.5,0.3-2.1,0.3c-4.4,0.4-8.7,0.8-13.1,1.2c-0.6,0.1-1.1,0.2-1.7,0.1   c-0.3,0-0.6-0.3-1-0.5c0.3-0.4,0.5-0.7,0.8-0.8c0.4-0.2,0.8-0.3,1.2-0.3c3.9-0.5,7.8-1,11.8-1.4   C160.9,146.6,162.3,146.6,163.7,146.6z"/>
</g>
</svg>