<svg xmlns="http://www.w3.org/2000/svg" width="80" height="86" viewBox="0 0 40 43" fill="#17a2b8">
    <path d="M23.5,32.8c2.7-1.6,5.1-3.1,7.4-4.5c0.6-0.4,1.2-0.3,1.5,0.3c1.8,4.1,3.7,8.1,4.7,12.5c0,0.1,0,0.1,0,0.2 c-0.6,0.8-1.4,0.7-2.1,0.2c-2.8-1.8-5.5-3.8-8.4-5.4c-4-2.3-6.6-6-9.5-9.4c-2.7-3.2-5.4-6.6-8-9.9c-0.8-1-1.5-1.9-1.7-3.2 C12.7,20,17.9,26.6,23.5,32.8z M30.9,29.3c-2.3,1.3-4.5,2.4-6.4,4.3c2.3,1.5,4.4,2.9,6.5,4.3c0.9-0.9,1.7-1.7,2.6-2.4 C32.7,33.4,31.9,31.5,30.9,29.3z M35,40.5c0-1.6-0.5-2.8-1.2-4.1c-0.7,0.8-1.2,1.4-1.9,2.2C33,39.3,33.9,39.8,35,40.5z"></path>
    <path d="M8,13c1.6-2,4.1-3,6-5c-0.4-0.4-0.8-0.8-1.1-1.1C11,8.3,9.3,9.4,7.6,10.7c-0.9,0.7-1.8,1.4-1.4,3.1 c-2.6-2.1-4.8-4-5.1-7.2C0.9,4.7,1.7,3.1,3.3,2c1.6-1.2,3.4-1.4,5.2-0.5c2.1,1.1,3.7,2.9,5.2,4.6c0.5,0.6,0.8,1.4,1.8,1.4 c0.2,0,0.4,0.3,0.5,0.4c4.8,6,9.7,12,13.6,18.6c0.2,0.3,0.3,0.7,0.5,1c-0.1,0.1-0.2,0.1-0.3,0.2c-0.4-0.5-0.9-0.9-1.2-1.4 c-1.9-2.6-3.6-5.4-5.5-7.9c-2.3-3-4.6-5.9-7-8.8c-1-1.2-1.1-1.2-2.4-0.1c-1.5,1.2-3.1,2.4-4.7,3.6c-0.2,0.2-0.5,0.2-0.8,0.3 C8.1,13.2,8,13.1,8,13z M12.1,5.8C10.7,4,9.5,3.1,8.2,2.4C6.5,1.6,4.9,1.7,3.4,3.1C2.2,4.2,1.7,5.6,2.2,7.3c0.5,1.8,1.5,3.2,3.1,4.3 C7.3,9.4,10.2,8.3,12.1,5.8z"></path>
</svg>