<?xml version="1.0" encoding="iso-8859-1"?>
<svg height="150px" width="150px" version="1.1" id="Layer_1" xmlns="http://www.w3.org/2000/svg" xmlns:xlink="http://www.w3.org/1999/xlink"
	 viewBox="0 0 486.4 486.4" xml:space="preserve">
<path style="fill:#3E3F3F;" d="M270.6,172.8c-0.8,0-1.6,0-2.4,0c-8.8-1.6-14.4-9.6-12.8-17.6l12-71.2c0-29.6-24-52.8-53.6-52.8
	s-54.4,24-54.4,54.4c0,0.8,0,1.6,0,2.4l-12.8,72c-1.6,8.8-9.6,14.4-18.4,12.8c-8-1.6-13.6-9.6-12.8-17.6l12-71.2
	c0.8-46.4,39.2-84,85.6-84c48,0,86.4,37.6,86.4,84.8c0,0.8,0,1.6,0,2.4l-12.8,72C285,168,278.6,172.8,270.6,172.8z"/>
<path style="fill:#1D1E1E;" d="M268.2,172.8c0.8,0,1.6,0,2.4,0c7.2,0,14.4-5.6,15.2-12.8L297,96.8c-8-39.2-42.4-68-84-68
	c-46.4,0-84.8,37.6-85.6,84l-9.6,54.4c2.4,3.2,5.6,5.6,9.6,6.4c8.8,1.6,16.8-4,18.4-12.8l12.8-72c0-0.8,0-1.6,0-2.4
	c0-29.6,24-54.4,54.4-54.4c29.6,0,53.6,24,54.4,52.8L265,99.2c1.6,4.8,2.4,9.6,2.4,15.2l-9.6,53.6C261,169.6,264.2,172,268.2,172.8z
	"/>
<path style="fill:#18456D;" d="M462.6,462.4l-43.2-316.8c-1.6-9.6-9.6-16.8-19.2-16.8H86.6c-9.6,0-18.4,7.2-19.2,16.8l-44,319.2
	c-0.8,5.6,0.8,11.2,4.8,15.2s8.8,6.4,14.4,6.4h400.8l0,0c10.4,0,19.2-8.8,19.2-19.2C463.4,465.6,463.4,464,462.6,462.4z"/>
<g>
	<polygon style="fill:#0B3249;" points="428.2,213.6 359.4,144.8 338.6,165.6 409,364 	"/>
	<polygon style="fill:#0B3249;" points="350.6,276 329.8,436.8 197.8,165.6 219.4,144.8 	"/>
	<path style="fill:#0B3249;" d="M144.2,486.4h299.2l0,0c10.4,0,19.2-8.8,19.2-19.2c0-1.6,0-3.2-0.8-4.8l-42.4-316.8
		c-1.6-9.6-9.6-16.8-19.2-16.8"/>
</g>
<path style="fill:#1D7099;" d="M152.2,467.2c0-1.6,0-3.2-0.8-4.8l-44-316.8c-1.6-9.6-9.6-16.8-19.2-16.8h-1.6
	c-9.6,0-18.4,7.2-19.2,16.8l-44,319.2c-0.8,5.6,0.8,11.2,4.8,15.2s8.8,6.4,14.4,6.4h89.6l0,0C143.4,486.4,152.2,478.4,152.2,467.2z"
	/>
<g>
	<path style="fill:#1B5A89;" d="M28.2,480c4,4,8.8,6.4,14.4,6.4h89.6l0,0c10.4,0,19.2-8.8,19.2-19.2c0-1.6,0-3.2-0.8-4.8
		l-43.2-316.8c-1.6-9.6-9.6-16.8-19.2-16.8h-1.6"/>
	<path style="fill:#1B5A89;" d="M349.8,172.8c-7.2,0-14.4-5.6-15.2-12.8l-12.8-72c0-0.8,0-1.6,0-2.4c0-29.6-24-54.4-54.4-54.4
		c-29.6,0-53.6,24-54.4,52.8l12,71.2c1.6,8.8-4,16.8-12.8,18.4c-8.8,1.6-16.8-4-18.4-12.8l-12.8-72c0-0.8,0-1.6,0-2.4
		c0-47.2,38.4-85.6,85.6-85.6c46.4,0,84.8,37.6,85.6,84l12,71.2c1.6,8.8-4,16.8-12.8,18.4C351.4,172.8,350.6,172.8,349.8,172.8z"/>
</g>
<path style="fill:#18456D;" d="M353,84.8c-12-32-43.2-55.2-80-55.2c-47.2,0-85.6,38.4-85.6,85.6c0,0.8,0,1.6,0,2.4l8,46.4
	c3.2,6.4,9.6,10.4,16.8,8.8c8.8-1.6,14.4-9.6,12.8-18.4l-12-71.2c0.8-29.6,24.8-52.8,54.4-52.8c29.6,0,54.4,24,54.4,54.4
	c0,0.8,0,1.6,0,2.4l0.8,5.6c3.2,6.4,4.8,14.4,4.8,21.6c0,0.8,0,1.6,0,2.4l8,46.4c2.4,5.6,8,8.8,14.4,8.8c0.8,0,1.6,0,2.4,0
	c8.8-1.6,14.4-9.6,12.8-18.4L353,84.8z"/>
<path style="fill:#FFB000;" d="M326.6,284c-1.6-4-4.8-7.2-9.6-8l-44-6.4l-20-40c-1.6-4-5.6-6.4-10.4-6.4c-4,0-8,2.4-10.4,6.4l-20,40
	l-44,6.4c-4,0.8-8,4-9.6,8s0,8.8,3.2,12l32,31.2l-6.4,44c-0.8,4,0.8,8.8,4.8,11.2c3.2,2.4,8,3.2,12,0.8l40-20.8l40,20.8
	c1.6,0.8,3.2,1.6,5.6,1.6s4.8-0.8,6.4-2.4c3.2-2.4,5.6-7.2,4.8-11.2l-7.2-44l32-31.2C327.4,292.8,328.2,288,326.6,284z"/>
<path style="fill:#FF9700;" d="M326.6,284c-1.6-4-4.8-7.2-9.6-8l-44-6.4l-20-40c-0.8-1.6-1.6-2.4-3.2-4L193,383.2
	c3.2,1.6,7.2,1.6,9.6,0l40-20.8l40,20.8c1.6,0.8,3.2,1.6,5.6,1.6s4.8-0.8,6.4-2.4c3.2-2.4,5.6-7.2,4.8-11.2l-7.2-44l32-31.2
	C327.4,292.8,328.2,288,326.6,284z"/>
</svg>