<svg width="526" height="353" viewBox="-90 -20 150 190" fill="#18b69b" xmlns="http://www.w3.org/2000/svg" class="size-6 text-gray-800 dark:text-teal-400"><path d="M23.7115 0.00188775H3.25278C3.12464 0.00625769 3.00148 0.0525891 2.90223 0.133761C2.80299 0.214932 2.73314 0.326452 2.70344 0.451178L2.20412 2.24739C2.1541 2.44655 2.25415 2.59663 2.40328 2.69668C3.20181 2.94587 7.49272 3.04592 6.84427 5.4415L6.69419 6.08995L4.948 12.6264L4.79792 13.2748C4.14947 15.6695 1.85394 15.7695 0.906279 16.0196C0.707119 16.0697 0.557041 16.2688 0.507015 16.4689L0.0095871 18.2642C-0.0404389 18.5134 0.109639 18.7135 0.358825 18.7135H8.69145C8.81959 18.7091 8.94275 18.6628 9.042 18.5816C9.14125 18.5004 9.21109 18.3889 9.2408 18.2642L10.7378 12.4763C10.7675 12.3516 10.8373 12.24 10.9366 12.1589C11.0358 12.0777 11.159 12.0314 11.2871 12.027H16.6267C16.7547 12.0224 16.8776 11.976 16.9767 11.8948C17.0757 11.8137 17.1454 11.7023 17.1751 11.5777L17.9736 8.48365C18.0237 8.23446 17.8736 8.03436 17.6244 8.03436H12.2858C12.0366 8.03436 11.8865 7.8352 11.9365 7.58507L12.685 4.79117C12.7147 4.66644 12.7846 4.55492 12.8838 4.47375C12.9831 4.39258 13.1062 4.34625 13.2344 4.34188H21.2678C21.3958 4.3373 21.5187 4.29088 21.6178 4.20972C21.7168 4.12857 21.7865 4.01716 21.8162 3.89259L23.9616 0.499316C24.0617 0.200104 23.9616 0 23.7125 0L23.7115 0.00188775Z"></path></svg>
