<svg xmlns="http://www.w3.org/2000/svg" width="416" height="375" fill="none" xmlns:v="https://vecta.io/nano">
<style><![CDATA[.B{fill:#454056}.C{fill:#fd5631}.D{fill:#efecf3}.E{fill:#666276}.F{fill:#facdc6}.G{fill:#d5d2dc}.H{fill:#f9f8fa}.I{fill-rule:evenodd}]]></style>
<path d="M299.371 237.518c-13.694-11.962-14.986-31.561-12.541-48.779.408-2.875.425-5.959 2.064-8.339s5.03-3.771 7.476-2.277c2.03 1.243 2.697 3.832 3.669 6.029a17.03 17.03 0 0 0 6.071 7.193c1.734 1.147 3.937 1.981 5.854 1.173 2.601-1.103 3.304-4.517 3.59-7.384l1.63-16.063c.287-2.866.599-5.803 1.778-8.426s3.426-4.943 6.236-5.421 6.01 1.468 6.279 4.344a26.33 26.33 0 0 1-.304 3.579c-.043 1.199.365 2.606 1.457 3.032s2.342-.226 3.296-.973c3.27-2.607 5.672-6.082 7.953-9.609s4.501-7.114 7.528-9.981 6.998-4.978 11.127-4.77 8.23 3.223 8.828 7.367-2.185 8.01-5.108 11.007a64.28 64.28 0 0 1-14.683 11.293 5.34 5.34 0 0 0-2.489 2.164c-.824 1.841.781 3.944 2.602 4.769 2.056.947 4.397.973 6.6 1.477s4.527 1.737 5.143 3.961c.867 3.058-1.925 5.873-4.553 7.628a55.19 55.19 0 0 1-17.224 7.627c-2.186.539-4.484.982-6.34 2.276s-3.165 3.77-2.35 5.907 3.374 3.067 5.629 2.893 4.336-1.164 6.539-1.737c4.102-1.06 9.158-.244 11.274 3.475 1.422 2.415 1.232 5.551.104 8.131-1.243 2.529-2.98 4.783-5.108 6.628-7.048 6.835-15.781 11.674-25.307 14.022-9.47 2.18-18.03 2.128-26.746-2.172" fill="#f5f4f8"/><g fill="#000"><path opacity=".2" d="M304.992 227.155c3.879-9.106 8.274-17.981 13.165-26.583l3.816-6.794c1.258-2.224 2.498-4.43 3.851-6.515a128.44 128.44 0 0 1 8.49-11.572c2.862-3.535 5.707-6.784 8.395-9.808s5.247-5.777 7.693-8.2a102.76 102.76 0 0 1 12.359-10.547c1.552-1.129 2.784-1.963 3.625-2.519l.962-.625a2.74 2.74 0 0 1 .339-.2c-.09.094-.192.176-.304.243l-.937.669c-.823.582-2.029 1.451-3.564 2.606-4.333 3.239-8.418 6.799-12.22 10.651-2.419 2.432-4.952 5.212-7.632 8.226s-5.489 6.29-8.343 9.826a131.3 131.3 0 0 0-8.386 11.51c-1.344 2.068-2.602 4.257-3.833 6.49l-3.799 6.793c-4.887 8.583-9.288 17.435-13.182 26.514"/><path opacity=".2" d="M325.968 187.253c-.093-.41-.143-.83-.147-1.251l-.165-3.475c-.095-2.901-.095-6.906-.078-11.293s0-8.427-.174-11.293l-.19-3.423c-.046-.422-.046-.847 0-1.268a6.3 6.3 0 0 1 .225 1.242c.122.808.243 1.972.364 3.423.235 2.892.347 6.949.33 11.345l-.078 11.294v3.474a5.03 5.03 0 0 1-.087 1.225zm37.589-2.875c-.496.046-.996.046-1.492 0-.954 0-2.333-.052-4.041 0-3.417 0-8.126.165-13.321.573a190.44 190.44 0 0 0-13.261 1.52l-3.989.643c-.487.114-.984.181-1.483.2.468-.173.949-.306 1.439-.399a64.3 64.3 0 0 1 3.981-.817c3.365-.617 8.066-1.26 13.269-1.677a129.75 129.75 0 0 1 13.373-.425c1.735 0 3.088.13 4.042.208.498.013.995.071 1.483.174zm-58.045 42.151a1.74 1.74 0 0 1-.199-.478l-.486-1.407-1.639-5.213c-1.318-4.422-2.958-10.581-4.666-17.374l-4.519-17.436-1.465-5.255-.399-1.434c-.113-.391-.122-.504-.096-.512.086.15.153.311.2.477l.486 1.408c.416 1.216.98 2.997 1.639 5.212 1.318 4.413 2.957 10.581 4.666 17.375l4.518 17.435 1.466 5.212.399 1.434c.112.382.121.547.095.556z"/><path opacity=".2" d="M356.168 216.009a2.06 2.06 0 0 1-.503.147l-1.475.322-5.429 1.138-17.865 3.918-17.901 3.761-5.464.965-1.491.226a2.23 2.23 0 0 1-.529 0c.163-.072.335-.121.511-.148l1.475-.321 5.42-1.139 17.866-3.917 17.909-3.762 5.455-.964 1.492-.226a2.23 2.23 0 0 1 .529 0z"/></g><path d="M13.913 88.983s-5.403 2.189.824 13.683 10.503 17.157 10.503 17.157 1.119 2.685-1.145 3.162-7.285-.191-8.222 2.606 1.188 5.586 5.498 7.862 13.564 7.628 14.405 8.114 1.657 1.738.173 2.294-12.714 2.041-11.699 7.332 14.058 9.73 15.481 10.199 1.734 1.094 1.674 1.867-3.92.913-7.094 1.46-6.765 1.737-5.923 4.743 8.673 9.165 27.31 10.512l8.673.052 4.562-7.463c8.673-16.557 7.641-26.461 5.533-28.763s-5.004.113-7.155 2.519-4.276 5.586-4.987 5.256-1.015-.938-.694-2.406 3.469-14.882-.434-18.548-11.136 5.108-12.41 6.081-1.873-.408-1.847-1.355.399-11.667.746-16.506-.772-8.122-3.755-8.834-4.969 3.944-6.574 5.612-3.278-.704-3.278-.704-2.541-6.611-8.985-17.991-11.274-7.819-11.274-7.819" class="D"/><g fill="#000"><path opacity=".3" d="M64.873 182.059L45.056 145.79l-18.048-32.908-5.524-9.938-1.5-2.71-.382-.704c-.045-.079-.086-.16-.121-.243l.147.234.408.687 1.544 2.684 5.594 9.904 18.117 32.863 19.748 36.304"/><path opacity=".3" d="M22.859 126.825a2.6 2.6 0 0 1 .607.156l1.63.522 5.282 1.946 5.204 2.05 1.587.616a2.92 2.92 0 0 1 .581.244 2.78 2.78 0 0 1-.616-.148l-1.622-.53-5.273-1.981-5.256-2.015-1.596-.608a2.88 2.88 0 0 1-.529-.252zm15.507 4.97c-.069 0 1.179-3.953 2.784-8.774l3.027-8.688c.069 0-1.171 3.944-2.775 8.766l-3.035 8.696zm9.896 20.241c.088-.197.202-.381.338-.547l.989-1.434 3.183-4.795 2.957-4.926.867-1.511a2.38 2.38 0 0 1 .347-.539c-.07.204-.157.401-.26.591l-.798 1.555-2.897 4.977c-1.162 1.903-2.376 3.571-3.252 4.761l-1.058 1.381a3.17 3.17 0 0 1-.416.487zm-15.011-1.399a2.77 2.77 0 0 1 .59 0l1.605.086 5.299.383 5.29.469 1.605.174c.197.009.392.041.581.095a2.77 2.77 0 0 1-.59 0l-1.604-.087-5.299-.391-5.29-.46-1.605-.174c-.197-.007-.392-.039-.581-.095zm6.46 18.973a4.42 4.42 0 0 1 .763 0l2.055.104 6.799.435 6.782.521 2.055.191a4.68 4.68 0 0 1 .755.104 4.14 4.14 0 0 1-.755 0l-2.064-.104-6.799-.443-6.782-.513-2.055-.191a4.68 4.68 0 0 1-.755-.104zm18.762 1.199c.114-.246.251-.482.408-.703l1.197-1.86 3.833-6.211 3.616-6.333 1.067-1.937c.123-.243.265-.475.425-.695a5.23 5.23 0 0 1-.33.747l-.989 1.981-3.556 6.376-3.911 6.177-1.266 1.815c-.145.229-.31.444-.494.643z"/></g><path d="M307.193 271.808l-9.513 49.069 72.68 14.139 9.513-49.07-72.68-14.138z" class="G"/><path d="M380 286.593c-.254.196-.524.37-.807.521l-2.385 1.381-8.776 4.978-29.149 16.254-.243.13-.173-.208-.434-.504-21.838-25.853-6.556-7.888-1.735-2.164c-.218-.244-.412-.509-.581-.79a5.84 5.84 0 0 1 .685.704l1.848 2.076 6.73 7.749 21.985 25.723.433.512-.416-.078 29.244-16.071 8.881-4.796 2.428-1.268a5.58 5.58 0 0 1 .859-.408z" class="H"/><path d="M297.802 321.524c-.113-.139 6.652-5.803 15.117-12.648s15.428-12.267 15.55-12.119-6.652 5.803-15.125 12.649-15.455 12.231-15.542 12.118z" class="D"/><path d="M352.743 300.84c.165-.087 4.276 7.644 9.167 17.261s8.742 17.479 8.578 17.566-4.276-7.645-9.176-17.262-8.733-17.479-8.569-17.565z" class="H"/><g class="D"><path d="M348.257 58.1c-.41.066-.825.095-1.241.087l-3.555.07-13.096.13-43.181.122h-3.469V58.1l.121-41.204.13-12.379.07-3.353c-.014-.39.015-.78.086-1.164a6.77 6.77 0 0 1 .079 1.164l.069 3.353.13 12.379.121 41.204-.399-.408h3.079l43.181.122 13.096.13 3.556.078a7.63 7.63 0 0 1 1.223.078zm-7.128-43.992a16.48 16.48 0 0 1-1.908 1.824l-5.42 4.769-18.065 15.472-1.076.869-.277.235-.26-.243-8.04-7.48h.477l-11.777 9.799-3.426 2.736c-.388.355-.816.664-1.275.921a7.95 7.95 0 0 1 1.127-1.103l3.287-2.91 11.613-9.982.252-.217.242.235 8.075 7.436h-.538l1.075-.869 18.213-15.298 5.585-4.569a16.16 16.16 0 0 1 2.116-1.624z"/><path d="M341.131 27.555a20.58 20.58 0 0 1-.278-4.005l-.13-9.773.408.408h-.694c-3.989 0-7.597-.043-10.216-.122a21.51 21.51 0 0 1-4.233-.287 22.47 22.47 0 0 1 4.233-.287c2.601-.069 6.227-.122 10.216-.122h1.101v.408l-.121 9.773a20.05 20.05 0 0 1-.286 4.005zm-329.89 244.72a15.99 15.99 0 0 1 3.92-1.737l.806-3.883 6.548-.122.945 3.857a16.18 16.18 0 0 1 3.972 1.564l3.313-2.172 4.709 4.561-2.081 3.423a16.01 16.01 0 0 1 1.734 3.909l3.877.808.113 6.559-3.842.947a16.09 16.09 0 0 1-1.561 3.979l2.168 3.318-4.553 4.726-3.382-2.059a15.99 15.99 0 0 1-3.92 1.738l-.807 3.883-6.548.121-.945-3.857a16 16 0 0 1-3.972-1.563l-3.313 2.171-4.718-4.56 2.055-3.389c-.752-1.224-1.335-2.545-1.735-3.926l-3.877-.808-.121-6.559 3.859-.964a16.24 16.24 0 0 1 1.561-3.979l-2.168-3.319 4.553-4.725 3.382 2.058h.026zm3.469 8.74a7.04 7.04 0 0 0-1.326 7.687 7.03 7.03 0 0 0 2.653 3.09 7.01 7.01 0 0 0 3.918 1.099 7.02 7.02 0 0 0 3.869-1.261c1.137-.794 2.015-1.906 2.522-3.198a7.05 7.05 0 0 0 .329-4.062 7.04 7.04 0 0 0-4.29-5.053 7.01 7.01 0 0 0-2.71-.483 7.03 7.03 0 0 0-2.687.596 7.02 7.02 0 0 0-2.252 1.585h-.026z"/><path d="M14.737 281.015a5.35 5.35 0 0 1 1.292-1.147c1.354-.885 2.973-1.269 4.579-1.086 1.196.129 2.341.559 3.326 1.25a7.14 7.14 0 0 1 2.311 2.703c.631 1.283.87 2.725.685 4.144a7.2 7.2 0 0 1-1.956 4.062c-1.07 1.109-2.467 1.844-3.985 2.097a6.69 6.69 0 0 1-2.16 0 6.94 6.94 0 0 1-1.995-.573 7.12 7.12 0 0 1-2.78-2.215 7.14 7.14 0 0 1-1.366-3.284 6.96 6.96 0 0 1 .928-4.631 5.23 5.23 0 0 1 1.101-1.355s-.425.469-.971 1.434c-.752 1.374-1.024 2.961-.772 4.508a6.77 6.77 0 0 0 1.206 2.928 6.84 6.84 0 0 0 2.801 2.276 6.64 6.64 0 0 0 1.899.53 6.48 6.48 0 0 0 2.047-.044 6.8 6.8 0 0 0 3.755-1.988c1.008-1.048 1.655-2.39 1.847-3.832a6.24 6.24 0 0 0 0-2.05 6.42 6.42 0 0 0-.59-1.877 6.84 6.84 0 0 0-2.376-2.727 6.68 6.68 0 0 0-2.975-1.069c-1.551-.203-3.125.124-4.466.93-.963.582-1.353 1.059-1.388 1.016zm-3.497-8.739l-.217-.113-.65-.374-2.55-1.511h.078l-4.527 4.743v-.121l2.246 3.301v.06.061a16.33 16.33 0 0 0-1.535 3.962v.078h-.078l-3.842.955.113-.139.13 6.559-.13-.156 3.885.799h.095v.096a16.07 16.07 0 0 0 1.691 3.883l.052.087-.052.087-2.064 3.431v-.226l4.718 4.552h-.234l3.304-2.18.104-.061.095.052a15.77 15.77 0 0 0 3.877 1.555h.113v.113l.945 3.849-.2-.148 6.557-.122-.2.165.807-3.883v-.121h.121a15.69 15.69 0 0 0 3.859-1.686l.104-.061.104.061 3.382 2.059h-.252l4.553-4.726v.252l-2.168-3.318-.069-.105.061-.104c.722-1.225 1.273-2.543 1.639-3.918v-.121h.121l3.842-.939-.147.192-.104-6.568.147.182-3.859-.842h-.104v-.105c-.381-1.364-.944-2.67-1.674-3.883l-.061-.095.061-.087 2.055-3.388v.208l-4.701-4.569h.191l-3.365 2.172-.069.052-.078-.044c-1.237-.695-2.561-1.22-3.937-1.563h-.078v-.079l-.928-3.857.113.087-6.548.087.087-.07-.867 3.875a17 17 0 0 0-3.001 1.155l-.703.365-.234.122.217-.148a9.67 9.67 0 0 1 .694-.399 15.47 15.47 0 0 1 2.992-1.217l-.052.044.789-3.883v-.07h.078l6.548-.139h.095v.087l.963 3.848-.104-.095a16.07 16.07 0 0 1 4.015 1.572h-.147l3.304-2.18.104-.07.087.087 4.726 4.552.095.096-.069.113-2.047 3.396v-.182a16.52 16.52 0 0 1 1.734 3.961l-.139-.121 3.885.799h.139v.243l.121 6.559v.157h-.147l-3.851.946.147-.147a16.55 16.55 0 0 1-1.578 4.031v-.2l2.168 3.31.087.139-.113.113-4.544 4.726-.113.112-.139-.086-3.382-2.051h.199a16.01 16.01 0 0 1-3.963 1.738l.147-.157-.807 3.884v.156h-.165l-6.548.113h-.156v-.156l-.937-3.858.147.148a16.25 16.25 0 0 1-4.024-1.59h.199l-3.313 2.172-.13.087-.104-.104-4.709-4.57-.104-.095.078-.122 2.055-3.388v.174a16.4 16.4 0 0 1-1.735-3.97l.13.121-3.877-.816H.095v-.131L0 283.231v-.113h.104l3.781-1.008-.095.095a16.52 16.52 0 0 1 1.578-4.004v.121l-2.159-3.327v-.061l.052-.061 4.579-4.699 2.498 1.555.642.408.26.139z"/></g><path d="M58.41 253.876a9.49 9.49 0 0 1 2.342-1.017l.486-2.328 3.92-.069.564 2.311a9.44 9.44 0 0 1 2.385.938l1.977-1.303 2.819 2.728-1.223 2.032c.442.733.784 1.522 1.015 2.346l2.307.443.069 3.927-2.307.564c-.201.833-.517 1.634-.937 2.381l1.301 1.989-2.723 2.823-2.029-1.225c-.733.44-1.52.782-2.342 1.017l-.486 2.328-3.92.07-.564-2.311a9.29 9.29 0 0 1-2.376-.939l-1.986 1.304-2.819-2.728 1.223-2.033c-.439-.734-.78-1.523-1.015-2.346l-2.307-.477-.069-3.927 2.307-.565c.203-.835.518-1.639.937-2.389l-1.301-1.98 2.723-2.824 2.029 1.26zm2.09 5.212c-.578.6-.965 1.357-1.113 2.177a4.22 4.22 0 0 0 .282 2.43c.332.764.882 1.412 1.582 1.863a4.21 4.21 0 0 0 2.349.669c.832-.015 1.64-.276 2.324-.751a4.21 4.21 0 0 0 1.516-1.917 4.22 4.22 0 0 0-.991-4.575 4.2 4.2 0 0 0-1.381-.89 4.21 4.21 0 0 0-1.616-.293 4.22 4.22 0 0 0-1.604.349c-.507.221-.965.54-1.349.938z" class="G"/><path d="M60.502 259.088c.22-.273.483-.508.78-.694.815-.525 1.786-.752 2.749-.643.665.067 1.305.294 1.865.66.648.434 1.169 1.034 1.509 1.737.185.373.314.771.382 1.182a4.04 4.04 0 0 1 0 1.294c-.125.914-.536 1.764-1.176 2.428a4.33 4.33 0 0 1-2.38 1.264 4 4 0 0 1-1.292 0c-.414-.048-.819-.162-1.197-.339-.696-.321-1.294-.822-1.735-1.45-.384-.548-.633-1.179-.728-1.842a4.2 4.2 0 0 1 .555-2.771c.171-.306.394-.579.659-.808 0 0-.252.269-.581.869-.448.824-.61 1.775-.46 2.701a4.08 4.08 0 0 0 .802 1.865c.42.544.971.972 1.6 1.245a3.76 3.76 0 0 0 1.128.322c.408.065.823.065 1.231 0a4.08 4.08 0 0 0 2.245-1.188c.604-.625.993-1.426 1.111-2.287.065-.406.065-.819 0-1.225a4.08 4.08 0 0 0-.356-1.129 4.23 4.23 0 0 0-1.422-1.634c-.657-.435-1.423-.674-2.211-.691a4.17 4.17 0 0 0-2.238.596c-.291.162-.572.341-.841.538z" fill="#f5f4f8"/><path d="M58.409 253.876l-.13-.069-.39-.226-1.526-.869-2.706 2.841v-.079l1.31 1.981a9.78 9.78 0 0 0-.919 2.372v.043l-2.298.574.061-.087.078 3.926-.069-.095 2.316.486h.052v.061a9.63 9.63 0 0 0 1.015 2.32v.052.052l-1.232 2.033v-.131l2.827 2.728h-.139l1.977-1.303h.061.061a9.74 9.74 0 0 0 2.35.921h.069v.069l.564 2.303-.113-.087 3.92-.07-.113.096.477-2.328v-.07h.069a9.29 9.29 0 0 0 2.316-1.008h.069.061l2.021 1.225h-.147l2.723-2.832v.148l-1.301-1.981v-.061-.06c.416-.739.728-1.531.928-2.355v-.069h.069l2.307-.565-.087.113-.069-3.927.087.105-2.316-.487h-.069v-.069a9.26 9.26 0 0 0-1.006-2.32v-.052-.061l1.24-2.024v.122l-2.81-2.728h.113l-1.986 1.294c-.741-.414-1.535-.727-2.359-.929v-.044l-.555-2.31.069.052-3.92.052.052-.044-.494 2.329c-.617.172-1.215.404-1.787.695l-.425.217-.139.069.13-.087.416-.234a9.54 9.54 0 0 1 1.787-.739l.468-2.328v-.043l3.92-.087h.052v.052l.572 2.302-.061-.052c.839.205 1.647.52 2.402.938h-.191l1.977-1.303h.061l.052.052 2.827 2.728.061.052v.07l-1.223 2.033v-.113a9.72 9.72 0 0 1 1.032 2.38l-.078-.078 2.324.477h.087v.087l.069 3.936v.087h-.087l-2.298.564.078-.087c-.204.845-.522 1.657-.945 2.415v-.121l1.301 1.981.052.078-.069.069-2.723 2.832-.069.07-.078-.052-2.029-1.234h.121a9.39 9.39 0 0 1-2.368 1.025l.087-.087-.486 2.32v.095h-.095l-3.929.07h-.095v-.087l-.564-2.311.087.087c-.841-.211-1.651-.529-2.411-.947h.121l-2.064 1.39-.069.044-.069-.061-2.819-2.728-.061-.061v-.078L55 267.107v.104a9.67 9.67 0 0 1-1.023-2.372l.078.07-2.324-.487h-.069v-.121l-.052-3.927v-.069h.069l2.307-.556-.061.06c.21-.838.531-1.644.954-2.397v.069l-1.292-1.989v-.044l2.741-2.806 1.5.93.382.243.2.061z" class="G"/><g class="D"><path d="M71.011 356.742l-1.787-7.298c-2.629-.642-5.158-1.638-7.519-2.962l-6.288 4.126-8.959-8.687 3.885-6.42a30.32 30.32 0 0 1-3.217-7.419l-7.363-1.537-.217-12.467 7.285-1.789c.663-2.647 1.678-5.192 3.018-7.567l-4.12-6.298 8.673-8.974 6.409 3.901a30.63 30.63 0 0 1 7.415-3.232l1.526-7.367 12.445-.226 1.778 7.298c2.629.649 5.16 1.646 7.528 2.962l6.279-4.126 8.95 8.687-3.886 6.42a30.4 30.4 0 0 1 3.218 7.427l7.363 1.538.217 12.457-7.285 1.79c-.651 2.63-1.645 5.163-2.958 7.532l4.12 6.29-8.673 8.965-6.435-3.805A30.29 30.29 0 0 1 85 349.184l-1.526 7.375-12.463.183zm-9.314-10.33c2.366 1.323 4.897 2.322 7.528 2.972l1.787 7.288 12.393-.217 1.526-7.358c2.608-.741 5.104-1.827 7.424-3.232l6.409 3.892 8.603-8.93-4.111-6.29c1.319-2.373 2.317-4.912 2.966-7.549l7.285-1.738-.217-12.414-7.267-1.624a30.48 30.48 0 0 0-3.227-7.437l3.886-6.419-8.924-8.618-6.279 4.118c-2.368-1.317-4.899-2.313-7.528-2.963l-1.812-7.349-12.393.217-1.526 7.358a29.91 29.91 0 0 0-7.432 3.232l-6.435-3.857-8.603 8.93 4.102 6.298a30.6 30.6 0 0 0-2.966 7.55l-7.285 1.789.217 12.414 7.354 1.529c.743 2.611 1.828 5.111 3.226 7.436l-3.877 6.412 8.915 8.626 6.262-4.066zm15.281-13.804a13.34 13.34 0 0 1-7.37-2.224c-2.186-1.45-3.897-3.513-4.92-5.93a13.4 13.4 0 0 1-.836-7.665c.478-2.582 1.705-4.966 3.526-6.854 1.218-1.265 2.673-2.277 4.282-2.977a13.3 13.3 0 0 1 5.094-1.106h.243c3.486.054 6.813 1.472 9.269 3.95a13.39 13.39 0 0 1 .158 18.691 13.35 13.35 0 0 1-9.202 4.107l-.243.008zm-9.54-22.656a13.34 13.34 0 0 0-3.503 6.822c-.475 2.568-.187 5.22.829 7.626a13.32 13.32 0 0 0 4.886 5.906c2.171 1.447 4.719 2.224 7.327 2.233h.243c3.473-.113 6.765-1.583 9.171-4.094a13.35 13.35 0 0 0-.158-18.63 13.3 13.3 0 0 0-9.239-3.937h-.26c-1.748.024-3.474.395-5.078 1.093a13.19 13.19 0 0 0-4.263 2.972l.043.009z"/><path d="M67.394 309.952c.701-.859 1.539-1.596 2.48-2.18 2.567-1.669 5.631-2.396 8.673-2.059a13.49 13.49 0 0 1 6.31 2.369c1.869 1.311 3.378 3.075 4.383 5.128.59 1.183.999 2.448 1.214 3.753a13.05 13.05 0 0 1 .069 4.109 13.62 13.62 0 0 1-3.708 7.707 13.58 13.58 0 0 1-7.566 3.968c-2.673.455-5.421.101-7.892-1.016a13.53 13.53 0 0 1-5.265-4.202 13.56 13.56 0 0 1-2.592-6.223c-.45-3.04.163-6.143 1.734-8.783a10.1 10.1 0 0 1 2.09-2.562 31.99 31.99 0 0 0-1.83 2.71c-1.434 2.604-1.953 5.614-1.474 8.548a13.04 13.04 0 0 0 2.546 5.91 13.01 13.01 0 0 0 5.06 3.968c2.346 1.043 4.948 1.364 7.476.921a12.92 12.92 0 0 0 7.13-3.771 12.95 12.95 0 0 0 3.511-7.271 13.05 13.05 0 0 0-1.18-7.445 13.03 13.03 0 0 0-4.135-4.928c-1.768-1.27-3.826-2.076-5.986-2.343-2.942-.387-5.928.225-8.482 1.737l-2.567 1.955zm-6.624-16.575l-.416-.225-1.232-.713-4.839-2.858h.156l-8.586 9.009v-.243l4.145 6.28.069.113-.061.113c-1.301 2.362-2.284 4.886-2.923 7.506v.148h-.147l-7.294 1.815.208-.269.252 12.44-.243-.286 7.389 1.511h.191l.052.191a30.59 30.59 0 0 0 3.209 7.358l.104.165-.104.174-3.885 6.437-.052-.425 8.907 8.687h-.442l6.27-4.135.191-.122.191.113a30.22 30.22 0 0 0 7.45 2.928l.217.052.052.217 1.795 7.306-.373-.287 12.428-.217-.364.304 1.526-7.367.052-.234.217-.061a30.34 30.34 0 0 0 7.337-3.188l.2-.113.2.122 6.418 3.891-.468.061 8.672-8.948-.043.469-4.111-6.289-.121-.191.104-.2c1.306-2.346 2.295-4.855 2.94-7.462l.052-.218.217-.052 7.293-1.781-.277.357-.2-12.449.278.339-7.354-1.538-.2-.043-.061-.2a30.24 30.24 0 0 0-3.182-7.367l-.105-.174.105-.174 3.902-6.419.052.39-8.924-8.687h.364l-6.288 4.109-.139.087-.148-.078a30.09 30.09 0 0 0-7.467-2.971h-.147v-.148l-1.734-7.314.225.173-12.428.165.165-.139-1.578 7.359v.078h-.069a30.29 30.29 0 0 0-5.681 2.189l-1.344.695a2.65 2.65 0 0 1-.442.234c.128-.11.267-.206.416-.286l1.31-.756a29.12 29.12 0 0 1 5.672-2.311l-.087.087 1.483-7.375v-.131h.139l12.428-.269h.173v.174l1.813 7.297-.182-.182a30.62 30.62 0 0 1 7.615 2.979h-.286l6.27-4.144.199-.121.165.156 8.959 8.635.182.174-.13.217-3.885 6.437v-.338a30.75 30.75 0 0 1 3.27 7.514l-.261-.243 7.355 1.529.277.052v.287l.226 12.449v.286l-.286.07-7.294 1.798.269-.269c-.651 2.671-1.657 5.242-2.992 7.644v-.39l4.119 6.289.165.252-.208.217-8.63 8.965-.208.218-.26-.157-6.426-3.9h.39a30.83 30.83 0 0 1-7.519 3.275l.269-.296-1.526 7.367-.069.304H83.5l-12.419.217h-.303l-.069-.286-1.787-7.306.278.269a31.11 31.11 0 0 1-7.632-3.014h.373l-6.279 4.117-.243.157-.199-.191-8.933-8.688-.2-.191.147-.234 3.903-6.42v.339c-1.416-2.354-2.509-4.887-3.252-7.532l.234.226-7.389-1.495-.234-.052v-.234l-.191-12.449v-.295l.208-.053 7.302-1.737-.182.182a31.23 31.23 0 0 1 3.009-7.601v.235l-4.085-6.307-.087-.131.104-.113 8.673-8.904.061-.07.087.053 4.727 2.945 1.223.773a2.43 2.43 0 0 1 .425.286z"/></g><path d="M310.951 30.035l-240.457.842c-5.602.02-10.129 4.585-10.11 10.196l1.018 313.039c.018 5.612 4.575 10.145 10.176 10.125l240.456-.842c5.602-.019 10.129-4.584 10.111-10.196l-1.019-313.039a10.15 10.15 0 0 0-10.176-10.125z" fill="#fff"/><path d="M310.953 30.67l-240.457.842c-5.252.018-9.496 4.298-9.478 9.559l1.018 313.039c.017 5.261 4.289 9.511 9.541 9.492l240.456-.842c5.252-.018 9.496-4.298 9.479-9.558l-1.019-313.039c-.017-5.261-4.288-9.51-9.54-9.492zm-240.459.207l240.457-.842a10.15 10.15 0 0 1 10.176 10.125l1.019 313.039c.018 5.612-4.509 10.177-10.111 10.196l-240.456.842c-5.602.02-10.158-4.513-10.176-10.125L60.384 41.072c-.018-5.611 4.508-10.176 10.11-10.196z" class="E I"/><path d="M297.185 42.855l-70.248.246.014 4.517 70.249-.246-.015-4.517zm-3.268 34.437l-.43.048-1.246.043-4.562.096-15.081.19-15.071.051-4.569-.053-1.241-.035a2.06 2.06 0 0 1-.432-.031c.14-.037.284-.054.429-.048l1.247-.051 4.562-.087 15.107-.197 15.062-.06 4.57.052 1.241.035a1.29 1.29 0 0 1 .414.047z" class="C"/><path d="M296.908 94.529c-.009.13-15.322.286-34.22.355s-34.23.014-34.23-.108 15.322-.277 34.228-.345l34.222.098zm-.374 21.685c-.009.13-15.322.286-34.219.354s-34.196.026-34.187-.104 15.322-.278 34.227-.346l34.179.096zm.762-10.798c-.009.122-15.321.278-34.219.346s-34.196.026-34.187-.096 15.322-.286 34.228-.354l34.178.104z" class="B"/><path d="M143.696 246.599c-.008.121-7.947.257-17.748.289s-17.751-.034-17.75-.164 7.946-.25 17.748-.289l17.75.164zm-16.226 19.722c-.009.13-10.643.268-23.774.316s-23.769-.022-23.769-.144 10.634-.26 23.774-.308l23.769.136z" class="C"/><path d="M213.522 274.16c-.009.121-29.897.329-66.769.461l-66.782.017c0-.122 29.889-.338 66.779-.47l66.772-.008z" class="B"/><path d="M127.537 286.573c-.009.121-10.643.259-23.766.309s-23.778-.015-23.777-.145 10.643-.26 23.774-.308l23.769.144z" class="C"/><path d="M213.57 294.403c-.009.13-29.897.338-66.77.47l-66.781.008c0-.122 29.888-.33 66.778-.461l66.773-.017z" class="B"/><path d="M127.607 306.817c-.009.122-10.643.259-23.766.309s-23.777-.015-23.777-.137 10.643-.268 23.775-.316l23.768.144z" class="C"/><path d="M213.64 314.648c-.009.13-29.897.337-66.77.47l-66.78.007c.001-.13 29.888-.329 66.777-.46l66.773-.017z" class="B"/><path d="M129.455 327.44c-.008.121-10.651.259-23.774.308s-23.743-.012-23.734-.142 10.643-.259 23.774-.308l23.734.142z" class="C"/><path d="M215.489 335.27c-.01.13-29.906.337-66.782.513l-66.781.007c.001-.13 29.897-.328 66.778-.46l66.785-.06z" class="B"/><g class="C"><path d="M99.793 239.474l-16.305.057.034 10.373 16.305-.057-.034-10.373z"/><path d="M94.939 249.87l-6.548.023.011 3.249 6.548-.023-.011-3.249z"/><path d="M97.479 252.987a33.42 33.42 0 0 1-5.484.336 32.64 32.64 0 0 1-5.495-.127c1.816-.257 3.65-.366 5.483-.327 1.832-.107 3.669-.068 5.495.118zm134.202-15.995l10.532-4.856 9.716 4.5-9.768 5.232-10.48-4.876zm2.265 2.503l-.04 6.355 15.721-.275-.105-6.139-7.524 3.858-8.052-3.799zm61.781 3.254c-.01.13-7.948.257-17.748.289s-17.751-.034-17.752-.156 7.948-.257 17.749-.297l17.751.164z"/></g><path d="M257.968 261.943c-.008.122-5.468.241-12.19.263s-12.212-.051-12.211-.182 5.468-.241 12.191-.272 12.211.061 12.21.191zm44.177 8.604c-.009.13-15.348.284-34.272.351s-34.282.019-34.282-.103 15.348-.284 34.28-.35l34.274.102zm-43.947 14.02c-.009.13-5.46.251-12.191.272s-12.168-.049-12.202-.182 5.459-.241 12.191-.272 12.202.06 12.202.182zm44.173 8.639c-.009.13-15.348.284-34.271.351s-34.274.02-34.283-.103 15.348-.284 34.28-.35l34.274.102zm-44.359 13.696c-.009.13-5.469.25-12.191.272s-12.168-.058-12.211-.183 5.468-.241 12.191-.271 12.211.06 12.211.182zm44.172 8.647c-.009.13-15.348.284-34.271.351s-34.282.019-34.283-.103 15.348-.284 34.28-.35l34.274.102zm-43.358 15.046c-.008.121-5.459.242-12.191.272s-12.168-.057-12.202-.182 5.46-.25 12.191-.272 12.202.06 12.202.182zm44.175 8.647c-.009.121-15.348.276-34.271.351s-34.274.02-34.274-.111 15.339-.276 34.271-.342l34.274.102z" class="B"/><path d="M237.678 72.661c.707-.316 1.305-.833 1.722-1.486a3.97 3.97 0 0 0 .624-2.189c.036-.51-.034-1.021-.204-1.502s-.437-.922-.785-1.296a3.72 3.72 0 0 0-1.235-.876c-.467-.204-.972-.31-1.481-.31a3.72 3.72 0 0 0-1.483.306c-.468.203-.889.5-1.238.872s-.617.813-.788 1.294a3.74 3.74 0 0 0-.21 1.501 3.97 3.97 0 0 0 .632 2.176 3.95 3.95 0 0 0 1.719 1.473c-5.704.878-5.422 7.098-5.422 7.098l13.501.012s.301-6.232-5.352-7.075z" class="C"/><path d="M253.4 161.574c-.009.13-5.504.247-12.296.273s-12.298-.058-12.298-.18 5.504-.247 12.296-.273 12.298.058 12.298.18zm.161 10.888c-.008.122-5.503.248-12.295.274s-12.299-.058-12.298-.189 5.504-.247 12.295-.264 12.298.057 12.298.179z" class="B"/><path d="M301.951 162.674l-40.003.147a1.35 1.35 0 0 1-1.357-1.35 1.36 1.36 0 0 1 .393-.959 1.35 1.35 0 0 1 .955-.4l40.004-.147a1.34 1.34 0 0 1 .96.391c.126.125.226.275.294.439s.103.341.102.52-.032.355-.099.52-.166.315-.291.441a1.34 1.34 0 0 1-.439.295c-.164.068-.341.103-.519.103z" class="D"/><path d="M296.105 162.697l-34.185.122a1.35 1.35 0 0 1-.957-.393c-.255-.254-.399-.598-.4-.957a1.36 1.36 0 0 1 .393-.959 1.35 1.35 0 0 1 .955-.4l34.186-.122c.358-.001.702.141.957.394s.398.597.399.956-.143.702-.395.956a1.36 1.36 0 0 1-.953.403z" class="C"/><path d="M301.982 172.909l-40.003.139a1.35 1.35 0 0 1-.957-.394c-.255-.253-.398-.597-.4-.956a1.37 1.37 0 0 1 .396-.957c.252-.254.594-.399.952-.402l40.003-.139c.178-.001.355.032.519.1s.315.166.441.291.226.275.295.44a1.34 1.34 0 0 1 .102.519c.001.359-.14.704-.393.959a1.35 1.35 0 0 1-.955.4z" class="D"/><path d="M290.044 172.947l-28.089.099a1.35 1.35 0 0 1-.957-.394c-.255-.253-.398-.597-.4-.956a1.37 1.37 0 0 1 .396-.956 1.36 1.36 0 0 1 .952-.403l28.089-.099c.359-.001.703.14.958.393s.398.597.399.956-.14.705-.393.959-.596.399-.955.401z" class="C"/><path d="M253.959 183.594c-.008.122-5.503.248-12.295.265s-12.298-.058-12.298-.18 5.504-.247 12.296-.273 12.298.058 12.297.188zm.161 10.881c-.009.13-5.504.247-12.296.273s-12.298-.058-12.298-.18 5.503-.247 12.295-.273 12.299.058 12.299.18z" class="B"/><path d="M302.51 184.686l-40.004.147c-.358.001-.702-.141-.957-.394s-.398-.597-.399-.956.14-.704.393-.959a1.35 1.35 0 0 1 .955-.4l40.003-.147a1.35 1.35 0 0 1 .958.394c.254.253.398.597.399.956.002.178-.032.355-.099.52a1.33 1.33 0 0 1-.292.441 1.32 1.32 0 0 1-.439.295c-.164.069-.34.103-.518.103z" class="D"/><path d="M296.656 184.708l-34.177.123a1.35 1.35 0 0 1-.957-.394c-.254-.253-.398-.597-.399-.956s.14-.704.393-.959a1.35 1.35 0 0 1 .955-.4l34.176-.123c.359-.001.703.141.958.394s.398.597.399.956c.002.178-.032.355-.099.52s-.166.315-.292.442a1.36 1.36 0 0 1-.438.295 1.34 1.34 0 0 1-.519.102z" class="C"/><path d="M302.577 194.924l-40.004.147a1.35 1.35 0 0 1-.957-.394c-.255-.253-.398-.597-.4-.956a1.36 1.36 0 0 1 .393-.959 1.35 1.35 0 0 1 .955-.4l40.004-.147a1.35 1.35 0 0 1 .957.394c.254.253.398.597.399.956s-.14.704-.393.959a1.35 1.35 0 0 1-.954.4z" class="D"/><path d="M290.601 194.967l-28.089.099a1.35 1.35 0 0 1-.958-.394c-.254-.253-.398-.597-.399-.956s.14-.704.393-.959a1.35 1.35 0 0 1 .955-.4l28.092-.134a1.35 1.35 0 0 1 .957.394c.254.253.398.597.399.956a1.37 1.37 0 0 1-.091.53c-.066.168-.164.322-.29.452a1.35 1.35 0 0 1-.443.304 1.34 1.34 0 0 1-.526.108z" class="C"/><path d="M254.703 206.107c-.01.13-5.513.247-12.305.272s-12.298-.058-12.298-.18 5.504-.247 12.296-.273 12.306.059 12.307.181z" class="B"/><path d="M303.251 207.208l-40.003.138a1.35 1.35 0 0 1-.957-.394c-.255-.253-.398-.597-.4-.956.004-.358.147-.7.399-.954s.592-.399.949-.405l40.003-.138a1.36 1.36 0 0 1 .961.393c.256.253.401.597.405.957-.002.36-.145.705-.399.959s-.599.398-.958.4z" class="D"/><path d="M285.423 207.264l-22.21.079c-.359.001-.703-.141-.958-.394a1.35 1.35 0 0 1-.399-.956 1.37 1.37 0 0 1 1.348-1.359l22.176-.081c.358.001.701.143.954.396a1.36 1.36 0 0 1 .402.953c.002.354-.134.695-.38.949a1.35 1.35 0 0 1-.933.413zm-44.489-57.647l-1.228-2.569c.985-1.341 1.432-3.004 1.255-4.659a6.66 6.66 0 0 0-2.214-4.285 6.64 6.64 0 0 0-4.521-1.663 6.65 6.65 0 0 0-4.458 1.829 6.67 6.67 0 0 0-2.056 4.364 6.66 6.66 0 0 0 1.423 4.609c1.032 1.305 2.515 2.174 4.156 2.438s3.321-.097 4.71-1.011l2.933.947zm51.802-5.795c-.009.13-9.279.268-20.73.279s-20.733-.026-20.733-.148 9.277-.26 20.729-.279l20.734.148z" class="C"/><path d="M73.619 31.187a8 8 0 0 0-7.952 8.11l2.487 180.984c.06 4.387 3.643 7.907 8.031 7.89l130.596-.515c4.436-.018 8.011-3.642 7.968-8.077L213 38.334a8 8 0 0 0-8.046-7.923l-131.335.775z" class="D"/><path d="M206.911 24.943l-124.928-.056c-5.602-.002-10.147 4.544-10.151 10.156l-.121 177.291c-.004 5.612 4.534 10.163 10.137 10.165l124.927.056c5.602.003 10.147-4.544 10.151-10.156l.12-177.291c.004-5.612-4.534-10.163-10.136-10.165z" class="H"/><path d="M206.91 25.578l-124.927-.056c-5.252-.002-9.512 4.26-9.516 9.521l-.121 177.291c-.004 5.26 4.251 9.527 9.503 9.529l124.928.056c5.252.003 9.512-4.26 9.516-9.521l.121-177.291c.003-5.261-4.252-9.527-9.504-9.53zm-124.927-.691l124.928.056c5.602.003 10.14 4.554 10.136 10.165l-.12 177.291c-.004 5.612-4.549 10.159-10.151 10.156l-124.927-.056c-5.602-.002-10.14-4.553-10.137-10.165l.121-177.29c.004-5.612 4.548-10.158 10.151-10.156z" class="E I"/></svg>